<svg xmlns="http://www.w3.org/2000/svg" viewBox="0 0 640 640"><rect width="640" height="640" opacity="0"/><ellipse cx="320" cy="319.318" rx="313.741" ry="316.02" fill="#dfecfc"/><path d="M565.327,563.306a3.433,3.433,0,0,1-2.133-.747l-1.726-1.37a1,1,0,1,1,1.243-1.566l1.728,1.371a1.431,1.431,0,0,0,1.433.2l3.884-1.626a1,1,0,0,1,.773,1.846l-3.884,1.626A3.4,3.4,0,0,1,565.327,563.306Zm13.12-5.291a1,1,0,0,1-.387-1.924l8.305-3.477a1,1,0,1,1,.772,1.846l-8.3,3.477A.993.993,0,0,1,578.447,558.015Zm-23.411-2.205a.992.992,0,0,1-.621-.217l-7.052-5.6a1,1,0,1,1,1.243-1.567l7.053,5.6a1,1,0,0,1-.623,1.783Zm40.02-4.75a1,1,0,0,1-.387-1.924l6.2-2.6a1.5,1.5,0,0,0,.861-1,1,1,0,0,1,1.933.517,3.484,3.484,0,0,1-2.017,2.324l-6.208,2.6A.993.993,0,0,1,595.056,551.06Zm-54.125-6.442a1,1,0,0,1-.621-.217l-7.053-5.6a1,1,0,1,1,1.244-1.566l7.053,5.6a1,1,0,0,1-.623,1.783Zm62.969-6.74a1,1,0,0,1-.993-1.131l1.177-8.927a1,1,0,1,1,1.983.262l-1.176,8.926A1,1,0,0,1,603.9,537.878Zm-70.976-.979h-.049a1,1,0,0,1-.951-1.047c0-.1.014-.2.027-.3l1.147-8.709a1,1,0,0,1,1.984.262l-1.148,8.712c-.006.047-.01.09-.012.133A1,1,0,0,1,532.924,536.9Zm73.329-16.874a1,1,0,0,1-.993-1.131l1.177-8.926a1,1,0,1,1,1.983.262l-1.176,8.926A1,1,0,0,1,606.253,520.025Zm-70.986-.98a.991.991,0,0,1-.132-.007,1,1,0,0,1-.861-1.123l1.176-8.926a1,1,0,1,1,1.983.262l-1.175,8.925A1,1,0,0,1,535.267,519.045Zm69.048-15.381a1,1,0,0,1-.621-.217l-7.054-5.6a1,1,0,1,1,1.244-1.566l7.053,5.595a1,1,0,0,1-.622,1.784Zm-14.106-11.192a.992.992,0,0,1-.622-.217l-7.053-5.595a1,1,0,1,1,1.244-1.567l7.053,5.6a1,1,0,0,1-.622,1.783Zm-22.616-7.959a1,1,0,0,1-.387-1.924l6.916-2.9a4,4,0,0,1,1.339-.266,3.348,3.348,0,0,1,.748.086,1,1,0,1,1-.451,1.949,1.056,1.056,0,0,0-.309-.035,1.389,1.389,0,0,0-.552.111l-6.918,2.9A1,1,0,0,1,567.593,484.513Z" fill="#232639"/><path d="M84.236,57.046H554.31a15.914,15.914,0,0,1,15.856,15.971V483.943a15.914,15.914,0,0,1-15.856,15.971H84.236A15.914,15.914,0,0,1,68.38,483.943V73.017A15.914,15.914,0,0,1,84.236,57.046Z" fill="#fff"/><path d="M89.594,76.66A4.328,4.328,0,1,1,85.268,72.2,4.4,4.4,0,0,1,89.594,76.66ZM100.3,72.2a4.465,4.465,0,1,0,4.326,4.462A4.4,4.4,0,0,0,100.3,72.2Zm15.035,0a4.465,4.465,0,1,0,4.326,4.462A4.4,4.4,0,0,0,115.338,72.2Z" fill="#232639"/><path d="M554.31,56.046H84.236A16.933,16.933,0,0,0,67.38,73.017V483.943a16.933,16.933,0,0,0,16.856,16.971H554.31a16.933,16.933,0,0,0,16.856-16.971V73.017A16.933,16.933,0,0,0,554.31,56.046Zm-470.074,2H554.31a14.931,14.931,0,0,1,14.856,14.971V93.226H69.38V73.017A14.931,14.931,0,0,1,84.236,58.046ZM554.31,498.914H84.236A14.931,14.931,0,0,1,69.38,483.943V95.226H569.166V483.943A14.931,14.931,0,0,1,554.31,498.914Z" fill="#232639"/><polygon points="352.485 390.423 352.264 427.372 358.231 427.408 358.283 418.728 366.531 418.778 366.479 427.459 372.959 427.498 373.056 411.222 381.304 411.272 381.207 427.548 387.687 427.587 387.82 405.343 396.067 405.393 395.934 427.637 402.434 427.677 402.655 390.727 352.485 390.423" fill="#f7f3da"/><path d="M358.243,395.271a1.439,1.439,0,1,1-1.43-1.458A1.444,1.444,0,0,1,358.243,395.271Zm2.886-1.432a1.449,1.449,0,1,0,1.43,1.458A1.443,1.443,0,0,0,361.129,393.839Zm4.315.027a1.449,1.449,0,1,0,1.43,1.457A1.444,1.444,0,0,0,365.444,393.866Z" fill="#96762e"/><path d="M376.09,404.309a.512.512,0,0,0,0-.067.521.521,0,0,0,.009-.057l0-.02,0-.01,0-.017a.6.6,0,0,0-.022-.093.538.538,0,0,0-.018-.069v0c0-.007-.01-.011-.014-.019a.546.546,0,0,0-.054-.075.444.444,0,0,0-.046-.059c-.007-.007-.014-.011-.021-.017a.525.525,0,0,0-.08-.047.474.474,0,0,0-.06-.039h0a.2.2,0,0,0-.026,0,.113.113,0,0,0-.022-.011l-4.3-1.112a.5.5,0,0,0-.25.969l2.956.764-18.186,8.515a.5.5,0,0,0,.424.907L374.7,405.16l-1.2,3.176a.5.5,0,0,0,.29.646.521.521,0,0,0,.177.032.5.5,0,0,0,.468-.322l1.642-4.33v0a.241.241,0,0,0,.007-.035C376.083,404.317,376.089,404.315,376.09,404.309Z" fill="#96762e"/><path d="M365.9,285.071v27.412H403.32V285.071Z" fill="#e4f5fa"/><path d="M625.113,54.469a1,1,0,0,1-.386-.077L607,46.981a1,1,0,0,1-.219-1.72l15.179-11.527a1,1,0,0,1,1.6.663L626.1,53.336a1,1,0,0,1-.991,1.133Zm-15.739-8.664,14.515,6.069L621.8,36.366Z" fill="#232639"/><path d="M138.9,132.708a23.739,23.739,0,1,0,23.567,23.737A23.679,23.679,0,0,0,138.9,132.708Zm-20.662,23.737a20.863,20.863,0,0,1,1.789-8.469l9.857,27.2A20.828,20.828,0,0,1,118.234,156.445ZM138.9,177.259a20.493,20.493,0,0,1-5.837-.848l6.2-18.145,6.351,17.526a2.149,2.149,0,0,0,.148.287A20.47,20.47,0,0,1,138.9,177.259Zm2.848-30.572c1.244-.065,2.364-.2,2.364-.2a.861.861,0,0,0-.132-1.716s-3.347.265-5.507.265c-2.031,0-5.442-.265-5.442-.265a.861.861,0,0,0-.131,1.716s1.053.131,2.167.2l3.219,8.884-4.522,13.659-7.524-22.543c1.245-.065,2.364-.2,2.364-.2a.861.861,0,0,0-.132-1.716s-3.347.265-5.508.265c-.387,0-.843-.01-1.329-.026a20.564,20.564,0,0,1,31.216-3.916c-.088,0-.175-.016-.267-.016a3.592,3.592,0,0,0-3.469,3.694c0,1.715.981,3.166,2.029,4.881a11.013,11.013,0,0,1,1.7,5.739,19.537,19.537,0,0,1-1.573,6.73l-2.061,6.935Zm15.282-.226a20.911,20.911,0,0,1-7.743,27.973l6.31-18.379a19.771,19.771,0,0,0,1.572-7.454A16.031,16.031,0,0,0,157.027,146.461Z" fill="#e3f4f9"/><path d="M138.84,180.3a24.268,24.268,0,1,1,24.1-24.268A24.209,24.209,0,0,1,138.84,180.3Zm0-47.535a23.268,23.268,0,1,0,23.1,23.267A23.208,23.208,0,0,0,138.84,132.762Zm0,44.607a21.057,21.057,0,0,1-5.986-.87.5.5,0,0,1-.331-.642l6.207-18.167a.5.5,0,0,1,.468-.338.568.568,0,0,1,.475.33l6.359,17.548a1.634,1.634,0,0,0,.106.2.5.5,0,0,1,.043.426.5.5,0,0,1-.3.3A21.023,21.023,0,0,1,138.841,177.369Zm-5.2-1.688a20.117,20.117,0,0,0,11.388-.29l-5.811-16.033Zm-3.828-.4a.5.5,0,0,1-.22-.051,21.423,21.423,0,0,1-10.1-27.885.5.5,0,0,1,.927.032l9.868,27.234a.5.5,0,0,1-.47.67Zm-9.895-26.34a20.436,20.436,0,0,0,8.984,24.794Zm29.323,25.6a.491.491,0,0,1-.316-.114.5.5,0,0,1-.157-.549l6.319-18.4a19.388,19.388,0,0,0,1.546-7.3,15.539,15.539,0,0,0-.135-2.076.5.5,0,0,1,.935-.3,21.435,21.435,0,0,1-7.939,28.677A.49.49,0,0,1,149.241,174.541Zm8.388-25.957a20.588,20.588,0,0,1-1.6,7.239l-5.847,17.03a20.444,20.444,0,0,0,7.452-24.269ZM133.7,169.33a.5.5,0,0,1-.474-.342l-7.533-22.571a.5.5,0,0,1,.448-.658c1.214-.063,2.323-.193,2.334-.194a.347.347,0,0,0,.329-.4.321.321,0,0,0-.373-.32c-.024,0-3.386.266-5.544.266-.392,0-.855-.01-1.347-.025a.5.5,0,0,1-.4-.774,21.089,21.089,0,0,1,32.013-4.014.5.5,0,0,1-.372.867c-.138-.011-.186-.016-.235-.016a3.1,3.1,0,0,0-2.973,3.2c0,1.443.794,2.733,1.713,4.227l.245.4a11.5,11.5,0,0,1,1.779,6.008A20.117,20.117,0,0,1,151.7,161.9l-2.051,6.906a.5.5,0,0,1-.471.358.556.556,0,0,1-.482-.342l-7.475-22.4a.5.5,0,0,1,.062-.44.5.5,0,0,1,.387-.218c1.212-.063,2.322-.193,2.333-.194a.348.348,0,0,0,.33-.4.327.327,0,0,0-.373-.32c-.024,0-3.386.266-5.544.266-2.029,0-5.347-.255-5.487-.267a.349.349,0,0,0-.366.357.306.306,0,0,0,.3.364c.043,0,1.084.134,2.169.2a.5.5,0,0,1,.44.329l3.224,8.9a.5.5,0,0,1,0,.327l-4.527,13.676a.5.5,0,0,1-.475.343Zm-6.853-22.613,6.851,20.528,4-12.083-3.053-8.426c-.986-.068-1.834-.174-1.873-.179a1.285,1.285,0,0,1-1.209-1.419A1.336,1.336,0,0,1,133,143.844c.043,0,3.429.264,5.419.264,2.118,0,5.441-.261,5.475-.263a1.361,1.361,0,0,1,.23,2.712c-.038.005-.789.093-1.745.16L149.14,167l1.613-5.425a19.3,19.3,0,0,0,1.553-6.595,10.58,10.58,0,0,0-1.64-5.5l-.236-.383c-.957-1.555-1.861-3.026-1.861-4.751a4.168,4.168,0,0,1,3.026-4.078,20.084,20.084,0,0,0-29.106,3.839l.4,0c2.119,0,5.442-.261,5.475-.263a1.361,1.361,0,0,1,.231,2.712C128.553,146.562,127.8,146.65,126.846,146.717Z" fill="#256e7a"/><polygon points="277.978 172.451 258.353 180.923 238.728 171.887 238.728 149.295 258.353 158.332 277.978 149.295 282.464 157.767 277.978 160.026 277.978 172.451" fill="#ebe0ef"/><path d="M282.906,157.533l-4.486-8.473a.156.156,0,0,0-.016-.02c-.008-.015-.021-.024-.03-.038a.494.494,0,0,0-.16-.139c-.01-.006-.015-.017-.026-.023l-16.261-7.487a.5.5,0,1,0-.419.908l15.275,7.033-18.43,8.487-18.43-8.487,15.275-7.033a.5.5,0,0,0-.418-.908l-16.252,7.483a.5.5,0,0,0-.153.1l-.007.011a.457.457,0,0,0-.041.057c-.009.012-.017.021-.025.034a.33.33,0,0,0-.022.03l-4.486,9.037a.5.5,0,0,0,.625.69l3.809-1.438v14.525a.5.5,0,0,0,.291.454l19.625,9.038h.007a.489.489,0,0,0,.2.044.5.5,0,0,0,.2-.04h0l19.626-8.471a.5.5,0,0,0,.3-.459V160.59a.515.515,0,0,0-.024-.118l4.245-2.263A.5.5,0,0,0,282.906,157.533Zm-47.651-.118,2.973-5.989v4.866Zm3.973-.778v-6.562l18.625,8.577v21.49l-18.625-8.576Zm38.251,15.486-18.626,8.04V160.357l4.1,7.809a.5.5,0,0,0,.678.209l13.844-7.382Zm-13.871-4.868-4.567-8.69,9.057-4.17,9.66-4.448,4.031,7.613Z" fill="#532f82"/><path d="M263.214,146.705a.5.5,0,0,0-.706-.044l-3.655,3.221v-19.79a.5.5,0,0,0-1,0v19.79l-3.655-3.221a.5.5,0,0,0-.661.75l4.486,3.953a.445.445,0,0,0,.079.047l.018.013c.012.006.022.017.035.023l.014,0a.516.516,0,0,0,.184.037h0a.506.506,0,0,0,.183-.037l.015,0c.012-.006.022-.017.034-.023l.019-.013a.53.53,0,0,0,.079-.047l4.485-3.953A.5.5,0,0,0,263.214,146.705Z" fill="#532f82"/><polygon points="352.294 159.255 352.294 174.674 403.32 174.674 403.32 159.255 394.816 159.255 394.816 142.123 360.798 142.123 360.798 159.255 352.294 159.255" fill="#e1f1e7"/><path d="M391.981,139.2H363.633a.5.5,0,0,1,0-1h28.348a.5.5,0,0,1,0,1Z" fill="#1e6346"/><path d="M389.146,135.77H366.468a.5.5,0,0,1,0-1h22.678a.5.5,0,0,1,0,1Z" fill="#1e6346"/><path d="M403.32,150.189a.5.5,0,0,0-.5.5v8.066h-7.5V142.123a.5.5,0,0,0-.5-.5H360.8a.5.5,0,0,0-.5.5v16.632h-7.5v-8.066a.5.5,0,1,0-1,0v23.985a.5.5,0,0,0,.5.5H403.32a.5.5,0,0,0,.5-.5V150.689A.5.5,0,0,0,403.32,150.189ZM361.3,142.623h33.017v16.132h-6.87a.5.5,0,0,0-.425.237l-2.687,4.332H371.281l-2.688-4.332a.5.5,0,0,0-.425-.237H361.3Zm-8.5,31.551V159.755h15.1l2.689,4.332a.5.5,0,0,0,.424.237H384.61a.5.5,0,0,0,.425-.237l2.688-4.332h15.1v14.419Z" fill="#1e6346"/><path d="M503.684,166.871c-.077-.061-9.274-34.936-9.274-34.936l-.613-2.316-8.649,36.541-10.04,7.3,6.329,3.235-1.808,2.67,9.554.814,4.069-4.043,1.37,2.479,1.758-3.069,7.62,3.6,13.367-1.484Z" fill="#f9e9e0"/><path d="M517.677,177.28l-13.558-10.72L494.3,129.573a.5.5,0,0,0-.465-.455.473.473,0,0,0-.34.1l-.011.013-.007.008a.49.49,0,0,0-.147.232c0,.012-.018.018-.021.031l-8.605,36.361-9.892,7.194a.5.5,0,0,0,.067.85l5.823,2.976-1.489,2.2a.5.5,0,0,0,.372.779l9.554.813.043,0h0a.492.492,0,0,0,.185-.036c.009,0,.017-.011.026-.016a.513.513,0,0,0,.133-.088l.009-.005,3.6-3.577,1.05,1.9a.506.506,0,0,0,.438.258.5.5,0,0,0,.433-.252l1.525-2.661,7.194,3.4a.49.49,0,0,0,.269.045l13.378-1.485a.5.5,0,0,0,.255-.889Zm-27.871,1.58,1.447-15.866a.5.5,0,0,0,.015-.154l2.206-24.173.675,35.872-1.16,1.159Zm-4.168-12.593,5.874-24.82-3.764,25.006-3.042,4.5Zm6.1-19.59-1.462,16.032-1.227,1.815ZM496.6,175.1l-.008,0-.157-.074-1.288-.609-.74-39.31,8.811,43.133Zm1.141-28.671,5.068,19.093-1.392-1.1ZM476.06,173.391l8.349-6.072-1.148,5.778-2,2.955Zm5.818,3.541,0,0v0l6.755-10.006,0,0,1.445-2.14-1.357,14.869-8.21-.7Zm12.752.668-.758-1.37.89-.884.912.432Zm9.686,1.017-2.587-12.664,1.644,1.31a.447.447,0,0,0,.1.065L516.1,177.31Z" fill="#b35227"/><polygon points="116.054 279.49 140.23 279.49 140.23 285.868 164.406 285.868 164.406 313.698 137.928 313.698 137.928 306.161 116.054 306.161 116.054 279.49" fill="#ebe0ef"/><path d="M164.406,285.368h-3.53V277.5a8.38,8.38,0,0,0-8.371-8.371h-2.677a8.38,8.38,0,0,0-8.371,8.371v7.864h-.727V279.49a.5.5,0,0,0-.5-.5h-2.378v-7.863a8.38,8.38,0,0,0-8.371-8.372H126.8a8.38,8.38,0,0,0-8.371,8.372v7.863h-2.378a.5.5,0,0,0-.5.5v5.878h-1.227a.5.5,0,0,0-.5.5v2.319a.5.5,0,0,0,.5.5h1.227v1.319h-1.227a.5.5,0,0,0-.5.5v2.319a.5.5,0,0,0,.5.5h1.227v1.319h-1.227a.5.5,0,0,0-.5.5v2.319a.5.5,0,0,0,.5.5h1.227v1.32h-1.227a.5.5,0,0,0-.5.5V302.1a.5.5,0,0,0,.5.5h1.227v3.559a.5.5,0,0,0,.5.5h21.373V313.7a.5.5,0,0,0,.5.5h26.479a.5.5,0,0,0,.5-.5v-27.83A.5.5,0,0,0,164.406,285.368ZM115.554,301.6h-.727v-1.319h.727Zm0-4.639h-.727v-1.319h.727Zm0-4.638h-.727v-1.319h.727Zm0-4.638h-.727v-1.319h.727Zm26.9-10.183a7.379,7.379,0,0,1,7.371-7.371h2.677a7.379,7.379,0,0,1,7.371,7.371v7.864h-1.3v-7.513a6.41,6.41,0,0,0-6.4-6.4h-2.008a6.411,6.411,0,0,0-6.4,6.4v7.512h-1.3Zm15.117.351v7.513H144.759v-7.512a5.41,5.41,0,0,1,5.4-5.4h2.008A5.409,5.409,0,0,1,157.574,277.855Zm-38.142-6.728a7.38,7.38,0,0,1,7.371-7.372h2.678a7.38,7.38,0,0,1,7.371,7.372v7.863h-1.3v-7.512a6.41,6.41,0,0,0-6.4-6.4h-2.008a6.41,6.41,0,0,0-6.4,6.4v7.512h-1.3Zm15.117.351v7.512H121.735v-7.512a5.409,5.409,0,0,1,5.4-5.4h2.008A5.409,5.409,0,0,1,134.549,271.478Zm-18,14.89h7.059v1.319h-7.059Zm0,4.638h7.059v1.319h-7.059Zm0,4.638h7.059v1.319h-7.059Zm0,4.639h7.059V301.6h-7.059Zm20.873,5.378H116.554V302.6h7.559a.5.5,0,0,0,.5-.5v-2.319a.5.5,0,0,0-.5-.5h-7.559v-1.32h7.559a.5.5,0,0,0,.5-.5v-2.319a.5.5,0,0,0-.5-.5h-7.559v-1.319h7.559a.5.5,0,0,0,.5-.5v-2.319a.5.5,0,0,0-.5-.5h-7.559v-1.319h7.559a.5.5,0,0,0,.5-.5v-2.319a.5.5,0,0,0-.5-.5h-7.559V279.99H139.73v5.378h-1.8a.5.5,0,0,0-.5.5Zm1,1h9.362v1.319h-9.362Zm0-4.639h9.362v1.319h-9.362Zm0-4.639h9.362v1.32h-9.362ZM163.906,313.2H138.427V308.98h9.862a.5.5,0,0,0,.5-.5v-2.319a.5.5,0,0,0-.5-.5h-9.862v-1.32h9.862a.5.5,0,0,0,.5-.5v-2.319a.5.5,0,0,0-.5-.5h-9.862V299.7h9.862a.5.5,0,0,0,.5-.5v-2.32a.5.5,0,0,0-.5-.5h-9.862v-1.318h9.862a.5.5,0,0,0,.5-.5v-2.319a.5.5,0,0,0-.5-.5h-9.862v-5.378h25.479Zm-25.479-19.133v-1.319h9.362v1.319Z" fill="#532f82"/><polygon points="275.952 265.066 272.023 268.991 237.194 268.975 237.242 311.308 279.366 311.308 279.318 277.804 283.998 273.1 275.952 265.066" fill="#ecf3da"/><path d="M284.352,272.747l-8.047-8.035a.5.5,0,0,0-.353-.146h0a.5.5,0,0,0-.354.147l-3.241,3.254-.537.524-34.625-.016h0a.5.5,0,0,0-.5.5l.048,42.332a.5.5,0,0,0,.5.5h42.124a.5.5,0,0,0,.354-.146.5.5,0,0,0,.146-.355l-.048-33.286,4.535-4.567A.5.5,0,0,0,284.352,272.747ZM279,277.427a.462.462,0,0,0-.059.058l-13.95,14.051-8.588,1.235,1.166-8.543L272.843,268.9l7.349,7.33Zm-.133,33.38H237.742l-.048-41.332,33.144.015-14.1,14.151a.5.5,0,0,0-.141.285l-1.279,9.368a.5.5,0,0,0,.5.567.578.578,0,0,0,.071,0l9.41-1.354a.509.509,0,0,0,.284-.143l13.238-13.333Zm2.03-35.292-7.347-7.329,2.4-2.413,7.339,7.329Z" fill="#567635"/><path d="M371,288.5a1.134,1.134,0,1,1-1.134-1.143A1.138,1.138,0,0,1,371,288.5Zm2.268-1.143a1.143,1.143,0,1,0,1.134,1.143A1.139,1.139,0,0,0,373.271,287.355Zm3.4,0a1.143,1.143,0,1,0,1.134,1.143A1.139,1.139,0,0,0,376.673,287.355Z" fill="#226d7a"/><path d="M403.32,284.571H365.9a.5.5,0,0,0-.5.5v27.412a.5.5,0,0,0,.5.5H403.32a.5.5,0,0,0,.5-.5V285.071A.5.5,0,0,0,403.32,284.571Zm-.5,1v5.853H366.4v-5.853ZM366.4,311.983V292.424H402.82v19.559Z" fill="#226d7a"/><path d="M387.445,266.3H352.293a.5.5,0,0,0-.5.5v26.27a.5.5,0,0,0,.5.5H362.5a.5.5,0,0,0,0-1h-9.706V274.15h34.152v7.5a.5.5,0,0,0,1,0V266.8A.5.5,0,0,0,387.445,266.3Zm-34.652,6.854V267.3h34.152v5.854Z" fill="#226d7a"/><path d="M357.4,270.223a1.134,1.134,0,1,1-1.134-1.142A1.137,1.137,0,0,1,357.4,270.223Zm2.268-1.142a1.142,1.142,0,1,0,1.134,1.142A1.138,1.138,0,0,0,359.664,269.081Zm3.4,0a1.142,1.142,0,1,0,1.134,1.142A1.138,1.138,0,0,0,363.066,269.081Z" fill="#226d7a"/><path d="M384.61,293.923a7.71,7.71,0,1,0,7.654,7.709A7.69,7.69,0,0,0,384.61,293.923Zm-6.881,7.709a6.945,6.945,0,0,1,.6-2.821l3.282,9.059A6.936,6.936,0,0,1,377.729,301.632Zm6.881,6.932a6.86,6.86,0,0,1-1.944-.282l2.065-6.044,2.115,5.838a.708.708,0,0,0,.049.095A6.808,6.808,0,0,1,384.61,308.564Zm.949-10.182c.414-.022.787-.066.787-.066a.286.286,0,0,0-.044-.571s-1.114.088-1.834.088c-.676,0-1.812-.088-1.812-.088a.286.286,0,0,0-.044.571s.351.044.722.066l1.072,2.959L382.9,305.89l-2.506-7.508c.415-.022.788-.066.788-.066a.286.286,0,0,0-.045-.571s-1.114.088-1.834.088c-.129,0-.281,0-.442-.008a6.848,6.848,0,0,1,10.4-1.3c-.03,0-.058-.006-.089-.006a1.2,1.2,0,0,0-1.156,1.23,3.267,3.267,0,0,0,.676,1.626,3.665,3.665,0,0,1,.568,1.911,8.444,8.444,0,0,1-.524,2.241l-.686,2.31Zm5.09-.075a6.963,6.963,0,0,1-2.579,9.316l2.1-6.121a6.594,6.594,0,0,0,.523-2.482A5.443,5.443,0,0,0,390.649,298.307Z" fill="#226d7a"/><path d="M505.526,272.606H491.47l-9.939,10.011v14.158l9.939,10.011h14.056l9.939-10.011V282.617Z" fill="#f6e8d5"/><path d="M507.868,312.983H489.127a.5.5,0,0,1-.354-.147l-13.252-13.349a.5.5,0,0,1-.145-.353V280.257a.5.5,0,0,1,.145-.352l13.252-13.348a.494.494,0,0,1,.354-.147h18.741a.5.5,0,0,1,.355.147L521.475,279.9a.5.5,0,0,1,.145.352v18.877a.5.5,0,0,1-.145.353l-13.252,13.349A.5.5,0,0,1,507.868,312.983Zm-18.532-1H507.66l12.96-13.055V280.463L507.66,267.41H489.336l-12.96,13.053v18.465Z" fill="#8e5d25"/><path d="M515.819,282.265l-9.939-10.012a.5.5,0,0,0-.354-.147H491.47a.5.5,0,0,0-.354.147l-9.94,10.012a.506.506,0,0,0-.145.353v14.157a.506.506,0,0,0,.145.353l9.94,10.01a.5.5,0,0,0,.354.148h14.056a.5.5,0,0,0,.354-.148l9.939-10.01a.5.5,0,0,0,.145-.353V282.618A.5.5,0,0,0,515.819,282.265Zm-33.788,14.3V282.824l9.647-9.718h13.64l4.473,4.506-6.262,6.307-1.725-1.738a.5.5,0,0,0-.355-.147h-.016a3.451,3.451,0,1,0-5.87,0h-.016a.5.5,0,0,0-.354.147l-2.951,2.973a.5.5,0,0,0-.146.352v1.367l-3.206-1.845v-4.365a.5.5,0,0,0-1,0v4.654a.5.5,0,0,0,.251.434l3.955,2.276v1.444h-4.861a.5.5,0,0,0-.392.19l-2.31,2.908a.5.5,0,0,0,.783.621l2.16-2.719h4.62V292.5l-3.955,2.277a.5.5,0,0,0-.251.434v4.464l-1.389,1.4Zm22.723-11.415-.521-.525,3.873-3.9v4.3l-3.207,1.845v-1.367A.5.5,0,0,0,504.754,285.154ZM493.1,294.427v-8.715l2.659-2.678H498v6.456Zm4.9-3.517v6.58h-2.243l-2.144-2.161Zm-1.195-8.876a.476.476,0,0,0-.043-.067,2.451,2.451,0,1,1,3.476,0,.587.587,0,0,0-.043.067Zm4.438,1,1.583,1.6L499,288.483v-5.449ZM499,289.9l4.531-4.564.37.373v9.1l-2.658,2.679H499Zm-6.789,5.418-3.319,3.343V295.5l3.206-1.845v1.366A.5.5,0,0,0,492.209,295.321Zm22.755,1.248-9.646,9.717h-13.64l-4.472-4.5,5.7-5.742,2.287,2.3a.5.5,0,0,0,.354.148h5.9a.5.5,0,0,0,.355-.148l2.95-2.972a.5.5,0,0,0,.145-.353V293.65l3.207,1.846v4.365a.5.5,0,0,0,1,0v-4.654a.5.5,0,0,0-.251-.434L504.9,292.5v-2.025h4.621l2.16,2.719a.5.5,0,0,0,.783-.621l-2.31-2.908a.5.5,0,0,0-.392-.19H504.9v-1.443l3.956-2.277a.5.5,0,0,0,.251-.434v-4.654a.5.5,0,0,0-.448-.49l1.838-1.851,4.468,4.5Z" fill="#8e5d25"/><polygon points="488.391 391.348 493.594 396.006 519.605 396.006 519.605 428.029 475.097 428.029 475.097 424.535 475.097 418.713 475.097 411.726 475.097 407.069 475.097 391.348 488.391 391.348" fill="#e2dbd5"/><path d="M519.605,395.564H493.589L488.9,390.99a.5.5,0,0,0-.35-.142H475.282a.5.5,0,0,0-.5.5v36.821a.5.5,0,0,0,.5.5h44.323a.5.5,0,0,0,.5-.5v-32.1A.5.5,0,0,0,519.605,395.564Zm-.5,32.1H475.782V391.848h12.562l4.692,4.574a.5.5,0,0,0,.349.142h25.72Z" fill="#343230"/><ellipse cx="497.929" cy="412.6" rx="11.85" ry="11.936" fill="#e2dbd5"/><path d="M498.429,412.159v-6.422a.5.5,0,1,0-1,0v6.422a2.289,2.289,0,0,0,0,4.462v2.841a.5.5,0,0,0,1,0v-2.841a2.289,2.289,0,0,0,0-4.462Zm-.5,3.521a1.291,1.291,0,1,1,1.278-1.29A1.286,1.286,0,0,1,497.929,415.68Zm-4.536-7.1v-2.842a.5.5,0,0,0-1,0v2.842a2.288,2.288,0,0,0,0,4.461v6.422a.5.5,0,0,0,1,0V413.04a2.288,2.288,0,0,0,0-4.461Zm-.5,3.52a1.29,1.29,0,1,1,1.277-1.29A1.285,1.285,0,0,1,492.893,412.1Zm12.35-1.29a2.289,2.289,0,0,0-1.778-2.23v-2.842a.5.5,0,0,0-1,0v2.842a2.288,2.288,0,0,0,0,4.461v6.422a.5.5,0,0,0,1,0V413.04A2.29,2.29,0,0,0,505.243,410.809Zm-2.278,1.29a1.29,1.29,0,1,1,1.278-1.29A1.285,1.285,0,0,1,502.965,412.1Zm-5.036,12.937A12.436,12.436,0,1,1,510.278,412.6,12.408,12.408,0,0,1,497.929,425.036Zm0-23.872A11.436,11.436,0,1,0,509.278,412.6,11.406,11.406,0,0,0,497.929,401.164Z" fill="#343230"/><path d="M258.353,433.011a.5.5,0,0,1-.249-.066l-20.653-11.887a.5.5,0,0,1-.251-.433V396.849a.5.5,0,0,1,.251-.433L258.1,384.529a.5.5,0,0,1,.5,0l20.653,11.887a.5.5,0,0,1,.25.433v23.776a.5.5,0,0,1-.25.433L258.6,432.945A.508.508,0,0,1,258.353,433.011ZM238.2,420.336l20.153,11.6,20.153-11.6v-23.2l-20.153-11.6-20.153,11.6Z" fill="#226d7a"/><polygon points="244.191 400.585 244.191 416.888 258.353 424.785 272.515 416.888 272.515 400.585 258.353 392.095 244.191 400.585" fill="#e4f5fa"/><path d="M258.353,425.285a.5.5,0,0,1-.243-.064l-14.162-7.9a.5.5,0,0,1-.257-.437v-16.3a.5.5,0,0,1,.243-.429l14.162-8.491a.5.5,0,0,1,.514,0l14.162,8.491a.5.5,0,0,1,.243.429v16.3a.5.5,0,0,1-.256.437l-14.162,7.9A.505.505,0,0,1,258.353,425.285Zm-13.662-8.691,13.662,7.618,13.662-7.618V400.869l-13.662-8.192-13.662,8.192Z" fill="#226d7a"/><path d="M263.4,403.607l-4.72-4.161a.4.4,0,0,0-.057-.033.46.46,0,0,0-.069-.046l-.03-.011a.531.531,0,0,0-.077-.017.483.483,0,0,0-.083-.015l-.015,0c-.006,0-.011,0-.017,0a.589.589,0,0,0-.071.013.531.531,0,0,0-.088.019l-.03.012a.512.512,0,0,0-.064.043.448.448,0,0,0-.06.035l-4.721,4.161a.5.5,0,1,0,.661.75l3.89-3.429v16.13a.5.5,0,0,0,1,0v-16.13l3.89,3.429a.5.5,0,0,0,.331.125.5.5,0,0,0,.33-.875Z" fill="#226d7a"/><polygon points="150.678 419.56 150.678 410.22 144.883 404.966 133.872 404.966 122.861 404.966 117.066 410.22 117.066 431.818 136.769 431.818 136.769 436.488 161.109 436.488 161.109 419.56 150.678 419.56" fill="#f6e8d5"/><ellipse cx="133.872" cy="395.043" rx="9.852" ry="9.923" fill="#f6e8d5"/><path d="M161.6,419.488a.53.53,0,0,0-.023-.112.465.465,0,0,0-.058-.095.421.421,0,0,0-.039-.064l-.008,0a3.931,3.931,0,0,0-.161-.112c-.013-.006-.029,0-.043-.01a.542.542,0,0,0-.147-.03h-9.938V410.22a.5.5,0,0,0-.164-.37l-5.8-5.254a.5.5,0,0,0-.336-.13h-6.616a10.352,10.352,0,1,0-8.79,0h-6.616a.5.5,0,0,0-.336.13l-5.8,5.254a.5.5,0,0,0-.164.37v21.6a.5.5,0,0,0,.5.5h19.2v4.17h0a.5.5,0,0,0,.038.191.514.514,0,0,0,.109.162h0l.006,0a.506.506,0,0,0,.157.1.5.5,0,0,0,.19.038h24.339a.5.5,0,0,0,.19-.038.506.506,0,0,0,.157-.1l.005,0h0a.514.514,0,0,0,.109-.162.5.5,0,0,0,.038-.191h0V419.559A.425.425,0,0,0,161.6,419.488Zm-1.752.571-10.9,10.2-10.9-10.2ZM124.52,395.043a9.352,9.352,0,1,1,9.352,9.423A9.4,9.4,0,0,1,124.52,395.043Zm12.24,24.018a.5.5,0,0,0-.113.023.491.491,0,0,0-.076.017.512.512,0,0,0-.064.043.5.5,0,0,0-.095.068l-.008,0a.421.421,0,0,0-.039.064.465.465,0,0,0-.058.095.474.474,0,0,0-.023.112.425.425,0,0,0-.014.071v11.759H125.679V415.473a.5.5,0,0,0-1,0v15.845h-7.113V410.442l5.488-4.976H144.69l5.488,4.976v8.617h-7.113v-3.586a.5.5,0,0,0-1,0v3.586H136.77Zm.51,1.65,7.5,7.012-7.5,7.551Zm.7,15.277,7.526-7.581,3.1,2.9a.5.5,0,0,0,.683,0l3.1-2.9,7.526,7.581Zm22.638-.714-7.5-7.551,7.5-7.012Z" fill="#8e5d25"/><path d="M173.288,130.641l.462.466-3.435,3.459-.462-.466Zm7.575-3.07-1.432.419-2.405,3.452.28.735L176.29,133.2l-5.08-5.117,1.016-1.024.73.282,3.426-2.423.162-.561.254-.88Z" fill="#22b8d1"/><path d="M292.745,130.641l.462.466-3.435,3.459-.462-.466Zm7.575-3.07-1.432.419-2.4,3.452.28.735-1.016,1.023-5.08-5.117,1.016-1.024.73.282,3.426-2.423.162-.561.254-.88Z" fill="#22b8d1"/><path d="M412.2,130.641l.462.466-3.435,3.459-.462-.466Zm7.575-3.07-1.432.419-2.405,3.452.28.735L415.2,133.2l-5.08-5.117,1.016-1.024.73.282,3.426-2.423.162-.561.254-.88Z" fill="#22b8d1"/><path d="M531.659,130.641l.462.466-3.435,3.459-.462-.466Zm7.575-3.07-1.432.419-2.4,3.452.28.735-1.016,1.023-5.08-5.117,1.016-1.024.73.282,3.426-2.423.162-.561.254-.88Z" fill="#22b8d1"/><path d="M173.288,264.114l.462.466-3.435,3.459-.462-.466Zm7.575-3.07-1.432.419-2.405,3.452.28.735-1.016,1.023-5.08-5.117,1.016-1.024.73.282,3.426-2.423.162-.561.254-.88Z" fill="#22b8d1"/><path d="M292.745,264.114l.462.466-3.435,3.459-.462-.466Zm7.575-3.07-1.432.419-2.4,3.452.28.735-1.016,1.023-5.08-5.117,1.016-1.024.73.282,3.426-2.423.162-.561.254-.88Z" fill="#22b8d1"/><path d="M412.2,264.114l.462.466-3.435,3.459-.462-.466Zm7.575-3.07-1.432.419-2.405,3.452.28.735-1.016,1.023-5.08-5.117,1.016-1.024.73.282,3.426-2.423.162-.561.254-.88Z" fill="#22b8d1"/><path d="M531.659,264.114l.462.466-3.435,3.459-.462-.466Zm7.575-3.07-1.432.419-2.4,3.452.28.735-1.016,1.023-5.08-5.117,1.016-1.024.73.282,3.426-2.423.162-.561.254-.88Z" fill="#22b8d1"/><path d="M173.288,385.8l.462.466-3.435,3.458-.462-.465Zm7.575-3.07-1.432.419-2.405,3.451.28.736-1.016,1.023-5.08-5.118,1.016-1.023.73.282,3.426-2.423.162-.562.254-.879Z" fill="#22b8d1"/><path d="M292.745,385.8l.462.466-3.435,3.458-.462-.465Zm7.575-3.07-1.432.419-2.4,3.451.28.736-1.016,1.023-5.08-5.118,1.016-1.023.73.282,3.426-2.423.162-.562.254-.879Z" fill="#22b8d1"/><path d="M412.2,385.8l.462.466-3.435,3.458-.462-.465Zm7.575-3.07-1.432.419L415.94,386.6l.28.736L415.2,388.36l-5.08-5.118,1.016-1.023.73.282,3.426-2.423.162-.562.254-.879Z" fill="#22b8d1"/><path d="M531.659,385.8l.462.466-3.435,3.458-.462-.465Zm7.575-3.07-1.432.419-2.4,3.451.28.736-1.016,1.023-5.08-5.118,1.016-1.023.73.282,3.426-2.423.162-.562.254-.879Z" fill="#22b8d1"/><path d="M183.3,229.669H94.411a6.518,6.518,0,0,1-6.511-6.51V121a6.519,6.519,0,0,1,6.511-6.511H183.3A6.519,6.519,0,0,1,189.809,121V223.159A6.518,6.518,0,0,1,183.3,229.669ZM94.411,115.485A5.517,5.517,0,0,0,88.9,121V223.159a5.516,5.516,0,0,0,5.511,5.51H183.3a5.516,5.516,0,0,0,5.511-5.51V121a5.517,5.517,0,0,0-5.511-5.511Z" fill="#ddd"/><path d="M302.8,229.669H213.909a6.518,6.518,0,0,1-6.511-6.51V121a6.519,6.519,0,0,1,6.511-6.511H302.8A6.519,6.519,0,0,1,309.308,121V223.159A6.518,6.518,0,0,1,302.8,229.669ZM213.909,115.485A5.518,5.518,0,0,0,208.4,121V223.159a5.517,5.517,0,0,0,5.511,5.51H302.8a5.516,5.516,0,0,0,5.511-5.51V121a5.517,5.517,0,0,0-5.511-5.511Z" fill="#ddd"/><path d="M422.3,229.669H333.408a6.518,6.518,0,0,1-6.511-6.51V121a6.519,6.519,0,0,1,6.511-6.511H422.3A6.519,6.519,0,0,1,428.807,121V223.159A6.518,6.518,0,0,1,422.3,229.669ZM333.408,115.485A5.518,5.518,0,0,0,327.9,121V223.159a5.517,5.517,0,0,0,5.511,5.51H422.3a5.517,5.517,0,0,0,5.511-5.51V121a5.518,5.518,0,0,0-5.511-5.511Z" fill="#ddd"/><path d="M541.794,229.669H452.907a6.518,6.518,0,0,1-6.511-6.51V121a6.519,6.519,0,0,1,6.511-6.511h88.887A6.519,6.519,0,0,1,548.306,121V223.159A6.518,6.518,0,0,1,541.794,229.669ZM452.907,115.485A5.517,5.517,0,0,0,447.4,121V223.159a5.516,5.516,0,0,0,5.511,5.51h88.887a5.517,5.517,0,0,0,5.512-5.51V121a5.518,5.518,0,0,0-5.512-5.511Z" fill="#ddd"/><path d="M183.3,484.022H94.411a6.519,6.519,0,0,1-6.511-6.511V375.348a6.519,6.519,0,0,1,6.511-6.511H183.3a6.519,6.519,0,0,1,6.511,6.511V477.511A6.519,6.519,0,0,1,183.3,484.022ZM94.411,369.837a5.517,5.517,0,0,0-5.511,5.511V477.511a5.517,5.517,0,0,0,5.511,5.511H183.3a5.517,5.517,0,0,0,5.511-5.511V375.348a5.517,5.517,0,0,0-5.511-5.511Z" fill="#ddd"/><path d="M302.8,484.022H213.909a6.519,6.519,0,0,1-6.511-6.511V375.348a6.519,6.519,0,0,1,6.511-6.511H302.8a6.519,6.519,0,0,1,6.511,6.511V477.511A6.519,6.519,0,0,1,302.8,484.022ZM213.909,369.837a5.518,5.518,0,0,0-5.511,5.511V477.511a5.518,5.518,0,0,0,5.511,5.511H302.8a5.517,5.517,0,0,0,5.511-5.511V375.348a5.517,5.517,0,0,0-5.511-5.511Z" fill="#ddd"/><path d="M422.3,484.022H333.408a6.519,6.519,0,0,1-6.511-6.511V375.348a6.519,6.519,0,0,1,6.511-6.511H422.3a6.519,6.519,0,0,1,6.511,6.511V477.511A6.519,6.519,0,0,1,422.3,484.022ZM333.408,369.837a5.518,5.518,0,0,0-5.511,5.511V477.511a5.518,5.518,0,0,0,5.511,5.511H422.3a5.518,5.518,0,0,0,5.511-5.511V375.348a5.518,5.518,0,0,0-5.511-5.511Z" fill="#ddd"/><path d="M541.794,484.022H452.907a6.519,6.519,0,0,1-6.511-6.511V375.348a6.519,6.519,0,0,1,6.511-6.511h88.887a6.519,6.519,0,0,1,6.512,6.511V477.511A6.519,6.519,0,0,1,541.794,484.022ZM452.907,369.837a5.517,5.517,0,0,0-5.511,5.511V477.511a5.517,5.517,0,0,0,5.511,5.511h88.887a5.518,5.518,0,0,0,5.512-5.511V375.348a5.518,5.518,0,0,0-5.512-5.511Z" fill="#ddd"/><path d="M183.635,350.551H94.074a6.18,6.18,0,0,1-6.174-6.173V253.983a6.181,6.181,0,0,1,6.174-6.174h89.561a6.181,6.181,0,0,1,6.174,6.174v90.395A6.181,6.181,0,0,1,183.635,350.551ZM94.074,248.809a5.18,5.18,0,0,0-5.174,5.174v90.395a5.18,5.18,0,0,0,5.174,5.173h89.561a5.18,5.18,0,0,0,5.174-5.173V253.983a5.18,5.18,0,0,0-5.174-5.174Z" fill="#ddd"/><path d="M303.134,350.551H213.573a6.181,6.181,0,0,1-6.175-6.173V253.983a6.182,6.182,0,0,1,6.175-6.174h89.561a6.181,6.181,0,0,1,6.174,6.174v90.395A6.181,6.181,0,0,1,303.134,350.551ZM213.573,248.809a5.18,5.18,0,0,0-5.175,5.174v90.395a5.18,5.18,0,0,0,5.175,5.173h89.561a5.18,5.18,0,0,0,5.174-5.173V253.983a5.18,5.18,0,0,0-5.174-5.174Z" fill="#ddd"/><path d="M422.633,350.551H333.072a6.181,6.181,0,0,1-6.175-6.173V253.983a6.182,6.182,0,0,1,6.175-6.174h89.561a6.181,6.181,0,0,1,6.174,6.174v90.395A6.181,6.181,0,0,1,422.633,350.551ZM333.072,248.809a5.181,5.181,0,0,0-5.175,5.174v90.395a5.18,5.18,0,0,0,5.175,5.173h89.561a5.18,5.18,0,0,0,5.174-5.173V253.983a5.18,5.18,0,0,0-5.174-5.174Z" fill="#ddd"/><path d="M542.131,350.551H452.57a6.181,6.181,0,0,1-6.174-6.173V253.983a6.181,6.181,0,0,1,6.174-6.174h89.561a6.182,6.182,0,0,1,6.175,6.174v90.395A6.181,6.181,0,0,1,542.131,350.551ZM452.57,248.809a5.18,5.18,0,0,0-5.174,5.174v90.395a5.18,5.18,0,0,0,5.174,5.173h89.561a5.18,5.18,0,0,0,5.175-5.173V253.983a5.181,5.181,0,0,0-5.175-5.174Z" fill="#ddd"/><path d="M104.724,199.37v-5.735h.933v5.735Zm3.1-4.546v.718a1.533,1.533,0,0,1,1.441-.792,1.678,1.678,0,0,1,1.258.511,1.967,1.967,0,0,1,.495,1.427v2.682h-.925v-2.541a1.327,1.327,0,0,0-.3-.937,1.076,1.076,0,0,0-.828-.326,1.089,1.089,0,0,0-.831.326,1.314,1.314,0,0,0-.307.937v2.541h-.934v-4.546Zm4.177,1.3a1.226,1.226,0,0,1,.483-.978,1.926,1.926,0,0,1,1.27-.4,1.872,1.872,0,0,1,1.249.391,1.424,1.424,0,0,1,.5,1.069h-.958a.753.753,0,0,0-.233-.528.84.84,0,0,0-.586-.19.925.925,0,0,0-.59.169.541.541,0,0,0-.213.446.481.481,0,0,0,.271.433,2.106,2.106,0,0,0,.659.231c.259.049.519.11.778.182a1.415,1.415,0,0,1,.66.391,1.065,1.065,0,0,1,.27.763,1.156,1.156,0,0,1-.5.966,2.07,2.07,0,0,1-1.274.371,1.977,1.977,0,0,1-1.261-.38,1.427,1.427,0,0,1-.532-1.08h.966a.729.729,0,0,0,.246.527.891.891,0,0,0,.6.191.984.984,0,0,0,.606-.17.534.534,0,0,0,.225-.449.486.486,0,0,0-.27-.438,2.141,2.141,0,0,0-.659-.234q-.39-.079-.778-.182a1.426,1.426,0,0,1-.66-.376A.985.985,0,0,1,112,196.128Zm6.765-.537h-1.1v2.516a.48.48,0,0,0,.119.367.587.587,0,0,0,.4.112h.573v.784h-.737a1.134,1.134,0,0,1-1.3-1.263v-2.516h-.533v-.767h.533v-1.13h.942v1.13h1.1Zm1.164,3.189a2.4,2.4,0,0,1-.615-1.7,2.355,2.355,0,0,1,.61-1.684,2,2,0,0,1,1.52-.647,1.791,1.791,0,0,1,.938.243,1.712,1.712,0,0,1,.626.639v-.808h.942v4.546h-.942v-.85a1.793,1.793,0,0,1-.63.672,1.721,1.721,0,0,1-.934.252A1.983,1.983,0,0,1,119.926,198.78Zm2.674-.569a1.538,1.538,0,0,0,.405-1.119,1.52,1.52,0,0,0-.405-1.113,1.338,1.338,0,0,0-1.925-.009,1.5,1.5,0,0,0-.405,1.106,1.567,1.567,0,0,0,.405,1.127,1.286,1.286,0,0,0,.962.425A1.3,1.3,0,0,0,122.6,198.211Zm2.576,1.159v-6.106h.934v6.106Zm2.162,0v-6.106h.934v6.106Zm6.02.066a1.763,1.763,0,0,1-1.245-2.967,1.544,1.544,0,0,1,1.139-.482l-.139-.066a2.369,2.369,0,0,1-.549-1.3,1.3,1.3,0,0,1,.413-.95,1.528,1.528,0,0,1,1.118-.408,1.574,1.574,0,0,1,1.123.393,1.222,1.222,0,0,1,.417.92,1.11,1.11,0,0,1-.073.42h-.918a.916.916,0,0,0,.066-.371.548.548,0,0,0-.172-.4.591.591,0,0,0-.439-.174.577.577,0,0,0-.434.174.64.64,0,0,0-.167.466,1.219,1.219,0,0,0,.311.7l2.989,3.977h-1.114l-.745-1.015a1.609,1.609,0,0,1-.606.775A1.653,1.653,0,0,1,133.358,199.436Zm-.63-1.057a.836.836,0,0,0,.638.281.85.85,0,0,0,.643-.284.97.97,0,0,0,.267-.689.958.958,0,0,0-.267-.685.858.858,0,0,0-.647-.281.835.835,0,0,0-.639.281.985.985,0,0,0-.258.689A.967.967,0,0,0,132.728,198.379Zm13.228-4.744v5.735h-.934v-3.927l-1.737,3.927h-.647l-1.744-3.927v3.927h-.934v-5.735h1.007l2,4.5,1.99-4.5Zm1.531,5.145a2.4,2.4,0,0,1-.614-1.7,2.355,2.355,0,0,1,.61-1.684A2,2,0,0,1,149,194.75a1.788,1.788,0,0,1,.938.243,1.722,1.722,0,0,1,.627.639v-.808h.942v4.546h-.942v-.85a1.8,1.8,0,0,1-.631.672,1.721,1.721,0,0,1-.934.252A1.984,1.984,0,0,1,147.487,198.78Zm2.674-.569a1.534,1.534,0,0,0,.406-1.119,1.516,1.516,0,0,0-.406-1.113,1.3,1.3,0,0,0-.962-.413,1.32,1.32,0,0,0-.963.4,1.5,1.5,0,0,0-.405,1.106,1.567,1.567,0,0,0,.405,1.127,1.311,1.311,0,0,0,1.925.008Zm3.51-3.387v.718a1.534,1.534,0,0,1,1.442-.792,1.674,1.674,0,0,1,1.257.511,1.967,1.967,0,0,1,.5,1.427v2.682h-.925v-2.541a1.327,1.327,0,0,0-.3-.937,1.076,1.076,0,0,0-.827-.326,1.09,1.09,0,0,0-.832.326,1.314,1.314,0,0,0-.307.937v2.541h-.934v-4.546Zm4.685,3.956a2.408,2.408,0,0,1-.614-1.7,2.355,2.355,0,0,1,.61-1.684,2,2,0,0,1,1.519-.647,1.788,1.788,0,0,1,.938.243,1.715,1.715,0,0,1,.627.639v-.808h.942v4.546h-.942v-.85a1.787,1.787,0,0,1-.631.672,1.718,1.718,0,0,1-.934.252A1.986,1.986,0,0,1,158.356,198.78Zm2.674-.569a1.534,1.534,0,0,0,.406-1.119,1.516,1.516,0,0,0-.406-1.113,1.3,1.3,0,0,0-.962-.413,1.321,1.321,0,0,0-.963.4,1.5,1.5,0,0,0-.405,1.106,1.567,1.567,0,0,0,.405,1.127,1.311,1.311,0,0,0,1.925.008Zm2.879.569a2.408,2.408,0,0,1-.614-1.7,2.355,2.355,0,0,1,.61-1.684,2,2,0,0,1,1.52-.647,1.791,1.791,0,0,1,.938.243,1.712,1.712,0,0,1,.626.639v-.808h.942v4.62a2.153,2.153,0,0,1-.586,1.563,2.065,2.065,0,0,1-1.56.607,2.657,2.657,0,0,1-1.581-.434,1.6,1.6,0,0,1-.688-1.175h.926a1.014,1.014,0,0,0,.454.574,1.619,1.619,0,0,0,.873.218,1.19,1.19,0,0,0,.872-.346,1.363,1.363,0,0,0,.348-1.007v-.924a1.787,1.787,0,0,1-.631.672,1.715,1.715,0,0,1-.933.252A1.987,1.987,0,0,1,163.909,198.78Zm2.675-.569a1.538,1.538,0,0,0,.405-1.119,1.52,1.52,0,0,0-.405-1.113,1.338,1.338,0,0,0-1.925-.009,1.492,1.492,0,0,0-.406,1.106,1.563,1.563,0,0,0,.406,1.127,1.286,1.286,0,0,0,.962.425A1.3,1.3,0,0,0,166.584,198.211Zm4.476,1.233a2.108,2.108,0,0,1-1.6-.644,2.367,2.367,0,0,1-.615-1.708,2.337,2.337,0,0,1,.623-1.7,2.144,2.144,0,0,1,1.61-.639,2.107,2.107,0,0,1,2.215,2.219,2.84,2.84,0,0,1-.033.446h-3.456a1.3,1.3,0,0,0,.381.9,1.207,1.207,0,0,0,.872.334,1.1,1.1,0,0,0,1.073-.636h1.007a2.036,2.036,0,0,1-.745,1.028A2.178,2.178,0,0,1,171.06,199.444Zm.893-3.568a1.244,1.244,0,0,0-.877-.334,1.2,1.2,0,0,0-.864.334,1.355,1.355,0,0,0-.4.895h2.506A1.184,1.184,0,0,0,171.953,195.876Zm-48.034,11.9h1l-1.688,5.734h-1.056l-1.2-4.34-1.269,4.34-1.049.008-1.614-5.742h.992l1.179,4.67,1.278-4.67h1.048l1.188,4.645Zm3.73,5.808a2.182,2.182,0,0,1-1.625-.647,2.316,2.316,0,0,1-.639-1.7,2.276,2.276,0,0,1,.659-1.7,2.357,2.357,0,0,1,3.268,3.4A2.3,2.3,0,0,1,127.649,213.587Zm.971-1.2a1.557,1.557,0,0,0,.41-1.147,1.573,1.573,0,0,0-.4-1.143,1.293,1.293,0,0,0-.962-.408,1.254,1.254,0,0,0-.95.408,1.607,1.607,0,0,0-.385,1.147,1.624,1.624,0,0,0,.377,1.147,1.219,1.219,0,0,0,.937.408A1.322,1.322,0,0,0,128.62,212.383Zm3.227-3.416v.792a1.425,1.425,0,0,1,1.352-.866v.974h-.238a1.134,1.134,0,0,0-.831.28,1.348,1.348,0,0,0-.283.974v2.392h-.934v-4.546Zm2.515,3.956a2.4,2.4,0,0,1-.615-1.7,2.353,2.353,0,0,1,.61-1.683,2,2,0,0,1,1.52-.648,1.791,1.791,0,0,1,.938.243,1.707,1.707,0,0,1,.626.64v-2.368h.942v6.105h-.942v-.849a1.793,1.793,0,0,1-.63.672,1.729,1.729,0,0,1-.934.251A1.98,1.98,0,0,1,134.362,212.923Zm2.674-.569a1.534,1.534,0,0,0,.405-1.118,1.518,1.518,0,0,0-.405-1.113,1.338,1.338,0,0,0-1.925-.009,1.493,1.493,0,0,0-.405,1.1,1.565,1.565,0,0,0,.405,1.127,1.286,1.286,0,0,0,.962.425A1.3,1.3,0,0,0,137.036,212.354Zm6.032-4.092a1.568,1.568,0,0,1,.525,1.2,1.662,1.662,0,0,1-.5,1.221,2.058,2.058,0,0,1-1.519.5h-1.032v2.326h-.934v-5.734h1.966A2.119,2.119,0,0,1,143.068,208.262Zm-2.522,2.191h1.032a1.1,1.1,0,0,0,.794-.256,1.1,1.1,0,0,0,0-1.428,1.1,1.1,0,0,0-.794-.256h-1.032Zm4.873-1.486v.792a1.425,1.425,0,0,1,1.352-.866v.974h-.238a1.139,1.139,0,0,0-.832.28,1.353,1.353,0,0,0-.282.974v2.392h-.934v-4.546Zm4.112,4.62a2.106,2.106,0,0,1-1.6-.643,2.369,2.369,0,0,1-.615-1.708,2.337,2.337,0,0,1,.623-1.7,2.144,2.144,0,0,1,1.609-.64,2.107,2.107,0,0,1,2.216,2.22,2.827,2.827,0,0,1-.033.445h-3.456a1.3,1.3,0,0,0,.38.9,1.209,1.209,0,0,0,.873.334,1.1,1.1,0,0,0,1.073-.635h1.007a2.034,2.034,0,0,1-.745,1.027A2.176,2.176,0,0,1,149.531,213.587Zm.893-3.568a1.244,1.244,0,0,0-.877-.334,1.2,1.2,0,0,0-.864.334,1.355,1.355,0,0,0-.4.9h2.506A1.188,1.188,0,0,0,150.424,210.019Zm2.055.252a1.221,1.221,0,0,1,.484-.977,1.924,1.924,0,0,1,1.269-.4,1.871,1.871,0,0,1,1.249.392,1.422,1.422,0,0,1,.5,1.068h-.958a.757.757,0,0,0-.234-.527.839.839,0,0,0-.586-.191.928.928,0,0,0-.589.169.545.545,0,0,0-.213.447.481.481,0,0,0,.27.432,2.09,2.09,0,0,0,.659.232c.26.048.519.11.779.181a1.409,1.409,0,0,1,.659.392,1.062,1.062,0,0,1,.27.763,1.153,1.153,0,0,1-.5.965,2.073,2.073,0,0,1-1.274.371,1.981,1.981,0,0,1-1.261-.379,1.429,1.429,0,0,1-.533-1.08h.967a.73.73,0,0,0,.245.527.894.894,0,0,0,.6.19.983.983,0,0,0,.607-.17.532.532,0,0,0,.225-.449.484.484,0,0,0-.271-.437,2.131,2.131,0,0,0-.659-.235c-.259-.052-.519-.113-.778-.181a1.441,1.441,0,0,1-.659-.376A.986.986,0,0,1,152.479,210.271Zm4.374,0a1.223,1.223,0,0,1,.483-.977,1.926,1.926,0,0,1,1.27-.4,1.871,1.871,0,0,1,1.249.392,1.422,1.422,0,0,1,.5,1.068h-.959a.752.752,0,0,0-.233-.527.839.839,0,0,0-.586-.191.931.931,0,0,0-.59.169.544.544,0,0,0-.212.447.481.481,0,0,0,.27.432,2.09,2.09,0,0,0,.659.232c.259.048.519.11.778.181a1.407,1.407,0,0,1,.66.392,1.062,1.062,0,0,1,.27.763,1.152,1.152,0,0,1-.5.965,2.069,2.069,0,0,1-1.273.371,1.984,1.984,0,0,1-1.262-.379,1.432,1.432,0,0,1-.532-1.08h.967a.73.73,0,0,0,.245.527.892.892,0,0,0,.6.19.978.978,0,0,0,.606-.17.529.529,0,0,0,.225-.449.485.485,0,0,0-.27-.437,2.141,2.141,0,0,0-.659-.235c-.259-.052-.519-.113-.778-.181a1.436,1.436,0,0,1-.659-.376A.982.982,0,0,1,156.853,210.271Z"/><path d="M241.263,193.635h2.171a1.983,1.983,0,0,1,1.36.43,1.391,1.391,0,0,1,.483,1.089,1.274,1.274,0,0,1-1.106,1.27,1.445,1.445,0,0,1,1.237,1.436,1.351,1.351,0,0,1-.508,1.085,2.051,2.051,0,0,1-1.359.425h-2.278Zm.934.735v1.7h1.155a1.06,1.06,0,0,0,.717-.223.778.778,0,0,0,.258-.623.794.794,0,0,0-.258-.627,1.051,1.051,0,0,0-.717-.227Zm0,4.265h1.262a1.083,1.083,0,0,0,.745-.239.841.841,0,0,0,.27-.664.856.856,0,0,0-.286-.677,1.12,1.12,0,0,0-.762-.251H242.2Zm4.53.145a2.4,2.4,0,0,1-.615-1.7,2.356,2.356,0,0,1,.611-1.684,2,2,0,0,1,1.519-.647,1.788,1.788,0,0,1,.938.243,1.712,1.712,0,0,1,.626.639v-.808h.942v4.546h-.942v-.85a1.785,1.785,0,0,1-.63.672,1.721,1.721,0,0,1-.934.252A1.983,1.983,0,0,1,246.727,198.78Zm2.674-.569a1.538,1.538,0,0,0,.405-1.119,1.52,1.52,0,0,0-.405-1.113,1.3,1.3,0,0,0-.963-.413,1.318,1.318,0,0,0-.962.4,1.5,1.5,0,0,0-.405,1.106,1.567,1.567,0,0,0,.405,1.127,1.286,1.286,0,0,0,.962.425A1.3,1.3,0,0,0,249.4,198.211Zm2.879.589a2.663,2.663,0,0,1,0-3.407,2.11,2.11,0,0,1,1.593-.643,2.242,2.242,0,0,1,1.356.391,1.938,1.938,0,0,1,.725,1.118H254.95a1.028,1.028,0,0,0-1.073-.717,1.124,1.124,0,0,0-.913.408,1.733,1.733,0,0,0-.34,1.142,1.754,1.754,0,0,0,.34,1.148,1.124,1.124,0,0,0,.913.412,1.036,1.036,0,0,0,1.073-.718h1.008a2.034,2.034,0,0,1-.738,1.1,2.165,2.165,0,0,1-1.343.408A2.108,2.108,0,0,1,252.28,198.8Zm5.545.57h-.934v-6.106h.934v3.548l1.638-1.988h1.294l-2.08,2.277,2.08,2.269H259.5l-1.671-1.955Zm6.757-4.546h.934v4.546h-.934v-.718a1.529,1.529,0,0,1-1.441.784,1.686,1.686,0,0,1-1.258-.508,1.951,1.951,0,0,1-.5-1.423v-2.681h.925v2.541a1.323,1.323,0,0,0,.3.936,1.073,1.073,0,0,0,.828.327,1.086,1.086,0,0,0,.831-.327,1.31,1.31,0,0,0,.307-.936Zm4.669-.074a1.987,1.987,0,0,1,1.515.647,2.366,2.366,0,0,1,.606,1.684,2.414,2.414,0,0,1-.61,1.7,1.972,1.972,0,0,1-1.511.664,1.718,1.718,0,0,1-.934-.252,1.857,1.857,0,0,1-.639-.672v3.011h-.934v-6.707h.934v.808a1.768,1.768,0,0,1,1.573-.882Zm.762,3.453a1.557,1.557,0,0,0,.409-1.127,1.5,1.5,0,0,0-.405-1.106,1.326,1.326,0,0,0-.967-.4,1.307,1.307,0,0,0-.966.413,1.516,1.516,0,0,0-.406,1.113,1.534,1.534,0,0,0,.406,1.119,1.315,1.315,0,0,0,1.929-.008Zm2.08-2.075a1.226,1.226,0,0,1,.483-.978,1.926,1.926,0,0,1,1.27-.4,1.872,1.872,0,0,1,1.249.391,1.424,1.424,0,0,1,.495,1.069h-.958a.753.753,0,0,0-.233-.528.84.84,0,0,0-.586-.19.925.925,0,0,0-.59.169.541.541,0,0,0-.213.446.481.481,0,0,0,.271.433,2.106,2.106,0,0,0,.659.231c.259.049.519.11.778.182a1.407,1.407,0,0,1,.659.391,1.061,1.061,0,0,1,.271.763,1.156,1.156,0,0,1-.5.966,2.07,2.07,0,0,1-1.274.371,1.977,1.977,0,0,1-1.261-.38,1.427,1.427,0,0,1-.532-1.08h.966a.729.729,0,0,0,.246.527.891.891,0,0,0,.6.191.984.984,0,0,0,.606-.17.534.534,0,0,0,.225-.449.486.486,0,0,0-.27-.438,2.141,2.141,0,0,0-.659-.234c-.26-.053-.519-.114-.779-.182a1.423,1.423,0,0,1-.659-.376A.985.985,0,0,1,272.093,196.128Z"/><path d="M350.947,199.37v-5.735h3.35v.735H351.88v1.741h1.884v.725H351.88v2.534Zm5.283-5.75a.585.585,0,0,1-.172.428.6.6,0,0,1-.844,0,.621.621,0,0,1,0-.858.6.6,0,0,1,.844,0A.588.588,0,0,1,356.23,193.62Zm-1.065,5.75v-4.546h.934v4.546Zm2.162,0v-6.106h.934v6.106Zm4.063.074a2.108,2.108,0,0,1-1.6-.644,2.367,2.367,0,0,1-.615-1.708,2.337,2.337,0,0,1,.623-1.7,2.143,2.143,0,0,1,1.609-.639,2.107,2.107,0,0,1,2.216,2.219,2.84,2.84,0,0,1-.033.446h-3.456a1.3,1.3,0,0,0,.381.9,1.207,1.207,0,0,0,.872.334,1.1,1.1,0,0,0,1.073-.636h1.007a2.036,2.036,0,0,1-.745,1.028A2.181,2.181,0,0,1,361.39,199.444Zm.893-3.568a1.244,1.244,0,0,0-.877-.334,1.2,1.2,0,0,0-.864.334,1.355,1.355,0,0,0-.4.895h2.506A1.184,1.184,0,0,0,362.283,195.876ZM373,193.635v5.735h-.934v-3.927l-1.736,3.927h-.647l-1.745-3.927v3.927H367v-5.735h1.008l2,4.5,1.991-4.5Zm1.532,5.145a2.4,2.4,0,0,1-.615-1.7,2.355,2.355,0,0,1,.61-1.684,2,2,0,0,1,1.52-.647,1.791,1.791,0,0,1,.938.243,1.712,1.712,0,0,1,.626.639v-.808h.942v4.546h-.942v-.85a1.793,1.793,0,0,1-.63.672,1.721,1.721,0,0,1-.934.252A1.983,1.983,0,0,1,374.528,198.78Zm2.674-.569a1.538,1.538,0,0,0,.405-1.119,1.52,1.52,0,0,0-.405-1.113,1.338,1.338,0,0,0-1.925-.009,1.5,1.5,0,0,0-.4,1.106,1.567,1.567,0,0,0,.4,1.127,1.286,1.286,0,0,0,.962.425A1.3,1.3,0,0,0,377.2,198.211Zm3.509-3.387v.718a1.535,1.535,0,0,1,1.442-.792,1.674,1.674,0,0,1,1.257.511,1.968,1.968,0,0,1,.5,1.427v2.682h-.926v-2.541a1.327,1.327,0,0,0-.3-.937,1.217,1.217,0,0,0-1.658,0,1.315,1.315,0,0,0-.308.937v2.541h-.933v-4.546Zm4.685,3.956a2.408,2.408,0,0,1-.614-1.7,2.355,2.355,0,0,1,.61-1.684,2,2,0,0,1,1.52-.647,1.791,1.791,0,0,1,.938.243,1.712,1.712,0,0,1,.626.639v-.808h.942v4.546h-.942v-.85a1.787,1.787,0,0,1-.631.672,1.715,1.715,0,0,1-.933.252A1.987,1.987,0,0,1,385.4,198.78Zm2.675-.569a1.538,1.538,0,0,0,.4-1.119,1.52,1.52,0,0,0-.4-1.113,1.338,1.338,0,0,0-1.925-.009,1.492,1.492,0,0,0-.406,1.106,1.563,1.563,0,0,0,.406,1.127,1.286,1.286,0,0,0,.962.425A1.3,1.3,0,0,0,388.071,198.211Zm2.879.569a2.4,2.4,0,0,1-.615-1.7,2.356,2.356,0,0,1,.611-1.684,2,2,0,0,1,1.519-.647,1.788,1.788,0,0,1,.938.243,1.712,1.712,0,0,1,.626.639v-.808h.942v4.62a2.157,2.157,0,0,1-.585,1.563,2.069,2.069,0,0,1-1.561.607,2.657,2.657,0,0,1-1.581-.434,1.6,1.6,0,0,1-.688-1.175h.926a1.011,1.011,0,0,0,.455.574,1.616,1.616,0,0,0,.872.218,1.19,1.19,0,0,0,.872-.346,1.363,1.363,0,0,0,.348-1.007v-.924a1.793,1.793,0,0,1-.63.672,1.721,1.721,0,0,1-.934.252A1.983,1.983,0,0,1,390.95,198.78Zm2.674-.569a1.538,1.538,0,0,0,.4-1.119,1.52,1.52,0,0,0-.4-1.113,1.3,1.3,0,0,0-.963-.413,1.318,1.318,0,0,0-.962.4,1.5,1.5,0,0,0-.405,1.106,1.567,1.567,0,0,0,.405,1.127,1.286,1.286,0,0,0,.962.425A1.3,1.3,0,0,0,393.624,198.211Zm4.476,1.233a2.108,2.108,0,0,1-1.6-.644,2.367,2.367,0,0,1-.615-1.708,2.337,2.337,0,0,1,.623-1.7,2.144,2.144,0,0,1,1.61-.639,2.107,2.107,0,0,1,2.215,2.219,2.84,2.84,0,0,1-.033.446h-3.456a1.3,1.3,0,0,0,.381.9,1.207,1.207,0,0,0,.872.334,1.1,1.1,0,0,0,1.073-.636h1.007a2.036,2.036,0,0,1-.745,1.028A2.178,2.178,0,0,1,398.1,199.444Zm.893-3.568a1.244,1.244,0,0,0-.877-.334,1.2,1.2,0,0,0-.864.334,1.355,1.355,0,0,0-.4.895h2.506A1.184,1.184,0,0,0,398.993,195.876Zm3.194-1.052v.792a1.426,1.426,0,0,1,1.352-.866v.973H403.3a1.134,1.134,0,0,0-.831.28,1.353,1.353,0,0,0-.283.974v2.393h-.934v-4.546Z"/><path d="M473.107,194.329a1.034,1.034,0,0,0-.68.215.755.755,0,0,0-.262.623.708.708,0,0,0,.311.622,2.115,2.115,0,0,0,.754.313q.441.1.884.228a1.588,1.588,0,0,1,.754.474,1.422,1.422,0,0,1,.311.982,1.532,1.532,0,0,1-.533,1.138,1.99,1.99,0,0,1-1.425.5,2.335,2.335,0,0,1-1.45-.421,1.376,1.376,0,0,1-.556-1.163h1a.887.887,0,0,0,.278.6,1.043,1.043,0,0,0,.721.223,1.075,1.075,0,0,0,.75-.249.761.761,0,0,0,.274-.584.772.772,0,0,0-.168-.529,1.033,1.033,0,0,0-.434-.285,5.761,5.761,0,0,0-.586-.169q-.319-.074-.643-.173a2.708,2.708,0,0,1-.589-.256,1.164,1.164,0,0,1-.434-.458,1.492,1.492,0,0,1-.168-.738,1.512,1.512,0,0,1,.536-1.209,2.073,2.073,0,0,1,1.393-.458,2.176,2.176,0,0,1,1.367.4,1.517,1.517,0,0,1,.57,1.146h-1.032a.835.835,0,0,0-.279-.553A.952.952,0,0,0,473.107,194.329Zm6.331.5h.934v4.546h-.934v-.718a1.529,1.529,0,0,1-1.442.784,1.684,1.684,0,0,1-1.257-.508,1.951,1.951,0,0,1-.5-1.423v-2.681h.926v2.541a1.323,1.323,0,0,0,.3.936,1.073,1.073,0,0,0,.827.327,1.087,1.087,0,0,0,.832-.327,1.315,1.315,0,0,0,.307-.936Zm4.668-.074a1.988,1.988,0,0,1,1.516.647,2.366,2.366,0,0,1,.606,1.684,2.419,2.419,0,0,1-.61,1.7,1.974,1.974,0,0,1-1.512.664,1.715,1.715,0,0,1-.933-.252,1.848,1.848,0,0,1-.639-.672v3.011H481.6v-6.707h.934v.808a1.768,1.768,0,0,1,1.572-.882Zm.762,3.453a1.557,1.557,0,0,0,.41-1.127,1.492,1.492,0,0,0-.406-1.106,1.348,1.348,0,0,0-1.933.009,1.52,1.52,0,0,0-.405,1.113,1.538,1.538,0,0,0,.405,1.119,1.315,1.315,0,0,0,1.929-.008Zm4.186,1.241a2.106,2.106,0,0,1-1.6-.644,2.367,2.367,0,0,1-.615-1.708,2.337,2.337,0,0,1,.623-1.7,2.143,2.143,0,0,1,1.609-.639,2.107,2.107,0,0,1,2.216,2.219,2.84,2.84,0,0,1-.033.446H487.8a1.3,1.3,0,0,0,.38.9,1.209,1.209,0,0,0,.873.334,1.1,1.1,0,0,0,1.073-.636h1.007a2.036,2.036,0,0,1-.745,1.028A2.183,2.183,0,0,1,489.054,199.444Zm.893-3.568a1.244,1.244,0,0,0-.877-.334,1.2,1.2,0,0,0-.864.334,1.351,1.351,0,0,0-.4.895h2.506A1.184,1.184,0,0,0,489.947,195.876Zm3.194-1.052v.792a1.425,1.425,0,0,1,1.351-.866v.973h-.237a1.139,1.139,0,0,0-.832.28,1.353,1.353,0,0,0-.282.974v2.393h-.934v-4.546Zm2.744,3.77a2.931,2.931,0,0,1,2.064-5.033,2.95,2.95,0,0,1,1.617.45,2.55,2.55,0,0,1,1.028,1.275h-1.122a1.589,1.589,0,0,0-1.523-.867,1.856,1.856,0,0,0-1.405.57,2.357,2.357,0,0,0,0,3.012,1.862,1.862,0,0,0,1.405.569,1.588,1.588,0,0,0,1.523-.867h1.122a2.525,2.525,0,0,1-1.028,1.27,2.964,2.964,0,0,1-1.617.446A2.839,2.839,0,0,1,495.885,198.594Zm6.1.186a2.4,2.4,0,0,1-.614-1.7,2.355,2.355,0,0,1,.61-1.684,2,2,0,0,1,1.519-.647,1.788,1.788,0,0,1,.938.243,1.722,1.722,0,0,1,.627.639v-.808h.942v4.546h-.942v-.85a1.8,1.8,0,0,1-.631.672,1.721,1.721,0,0,1-.934.252A1.984,1.984,0,0,1,501.987,198.78Zm2.674-.569a1.534,1.534,0,0,0,.406-1.119,1.516,1.516,0,0,0-.406-1.113,1.3,1.3,0,0,0-.962-.413,1.32,1.32,0,0,0-.963.4,1.5,1.5,0,0,0-.4,1.106,1.567,1.567,0,0,0,.4,1.127,1.311,1.311,0,0,0,1.925.008Zm2.879.589a2.663,2.663,0,0,1,0-3.407,2.113,2.113,0,0,1,1.593-.643,2.242,2.242,0,0,1,1.356.391,1.933,1.933,0,0,1,.725,1.118H510.21a1.028,1.028,0,0,0-1.073-.717,1.125,1.125,0,0,0-.913.408,1.738,1.738,0,0,0-.34,1.142,1.76,1.76,0,0,0,.34,1.148,1.125,1.125,0,0,0,.913.412,1.035,1.035,0,0,0,1.073-.718h1.008a2.038,2.038,0,0,1-.737,1.1,2.17,2.17,0,0,1-1.344.408A2.109,2.109,0,0,1,507.54,198.8Zm5.545-5.536v2.278a1.535,1.535,0,0,1,1.442-.792,1.674,1.674,0,0,1,1.257.511,1.968,1.968,0,0,1,.5,1.427v2.682h-.926v-2.541a1.327,1.327,0,0,0-.3-.937,1.076,1.076,0,0,0-.827-.326,1.09,1.09,0,0,0-.832.326,1.319,1.319,0,0,0-.307.937v2.541h-.934v-6.106Zm6.282,6.18a2.109,2.109,0,0,1-1.6-.644,2.371,2.371,0,0,1-.614-1.708,2.336,2.336,0,0,1,.622-1.7,2.371,2.371,0,0,1,3.211-.025,2.171,2.171,0,0,1,.615,1.6,2.84,2.84,0,0,1-.033.446h-3.457a1.3,1.3,0,0,0,.381.9,1.208,1.208,0,0,0,.872.334,1.1,1.1,0,0,0,1.073-.636h1.008a2.038,2.038,0,0,1-.746,1.028A2.178,2.178,0,0,1,519.367,199.444Zm.893-3.568a1.24,1.24,0,0,0-.876-.334,1.2,1.2,0,0,0-.864.334,1.351,1.351,0,0,0-.4.895h2.507A1.189,1.189,0,0,0,520.26,195.876Zm3.2-1.052v.792a1.424,1.424,0,0,1,1.351-.866v.973h-.237a1.139,1.139,0,0,0-.832.28,1.353,1.353,0,0,0-.282.974v2.393h-.934v-4.546Z"/><path d="M241.765,446.936h1l-1.688,5.734h-1.056l-1.2-4.339-1.27,4.339-1.048.008-1.614-5.742h.991l1.18,4.67,1.278-4.67h1.048l1.188,4.646Zm3.731,5.809a2.186,2.186,0,0,1-1.626-.648,2.314,2.314,0,0,1-.639-1.7,2.273,2.273,0,0,1,.66-1.7,2.357,2.357,0,0,1,3.268,3.4A2.3,2.3,0,0,1,245.5,452.745Zm.971-1.2a1.828,1.828,0,0,0,.012-2.29,1.291,1.291,0,0,0-.962-.409,1.254,1.254,0,0,0-.951.409,1.607,1.607,0,0,0-.384,1.146,1.628,1.628,0,0,0,.376,1.147,1.222,1.222,0,0,0,.938.409A1.326,1.326,0,0,0,246.467,451.541Zm3.227-3.416v.792a1.424,1.424,0,0,1,1.351-.867v.974h-.237a1.139,1.139,0,0,0-.832.28,1.353,1.353,0,0,0-.282.974v2.392h-.934v-4.545Zm2.515,3.956a2.4,2.4,0,0,1-.615-1.7,2.353,2.353,0,0,1,.61-1.683,2,2,0,0,1,1.52-.648,1.782,1.782,0,0,1,.938.244,1.7,1.7,0,0,1,.626.639v-2.368h.942v6.105h-.942v-.849a1.787,1.787,0,0,1-.631.672,1.715,1.715,0,0,1-.933.252A1.983,1.983,0,0,1,252.209,452.081Zm2.674-.57a1.534,1.534,0,0,0,.405-1.118,1.518,1.518,0,0,0-.405-1.113,1.3,1.3,0,0,0-.963-.413,1.318,1.318,0,0,0-.962.4,1.5,1.5,0,0,0-.405,1.106,1.564,1.564,0,0,0,.405,1.126,1.283,1.283,0,0,0,.962.425A1.3,1.3,0,0,0,254.883,451.511Zm6.032-4.092a1.571,1.571,0,0,1,.524,1.205,1.665,1.665,0,0,1-.5,1.22,2.06,2.06,0,0,1-1.52.5h-1.032v2.326h-.933v-5.734h1.965A2.12,2.12,0,0,1,260.915,447.419Zm-2.523,2.191h1.032a1.1,1.1,0,0,0,.8-.256,1.1,1.1,0,0,0,0-1.428,1.1,1.1,0,0,0-.8-.256h-1.032Zm4.874-1.485v.792a1.423,1.423,0,0,1,1.351-.867v.974h-.237a1.139,1.139,0,0,0-.832.28,1.353,1.353,0,0,0-.282.974v2.392h-.934v-4.545Zm4.111,4.62a2.109,2.109,0,0,1-1.6-.644,2.372,2.372,0,0,1-.614-1.708,2.336,2.336,0,0,1,.622-1.7,2.368,2.368,0,0,1,3.211-.025,2.171,2.171,0,0,1,.615,1.6,2.817,2.817,0,0,1-.033.445h-3.457a1.307,1.307,0,0,0,.381.9,1.213,1.213,0,0,0,.872.334,1.1,1.1,0,0,0,1.073-.636h1.008a2.032,2.032,0,0,1-.746,1.027A2.173,2.173,0,0,1,267.377,452.745Zm.893-3.569a1.244,1.244,0,0,0-.876-.334,1.2,1.2,0,0,0-.864.334,1.356,1.356,0,0,0-.4.9h2.507A1.189,1.189,0,0,0,268.27,449.176Zm2.056.252a1.225,1.225,0,0,1,.483-.977,1.926,1.926,0,0,1,1.27-.4,1.871,1.871,0,0,1,1.249.392,1.423,1.423,0,0,1,.5,1.068h-.958a.752.752,0,0,0-.233-.527.84.84,0,0,0-.586-.19.931.931,0,0,0-.59.168.545.545,0,0,0-.213.447.482.482,0,0,0,.271.432,2.09,2.09,0,0,0,.659.232c.259.049.519.11.778.181a1.425,1.425,0,0,1,.66.392,1.063,1.063,0,0,1,.27.763,1.153,1.153,0,0,1-.5.966,2.069,2.069,0,0,1-1.273.371,1.978,1.978,0,0,1-1.262-.38,1.43,1.43,0,0,1-.532-1.08h.966a.735.735,0,0,0,.246.527.893.893,0,0,0,.6.191.984.984,0,0,0,.606-.17.535.535,0,0,0,.225-.45.485.485,0,0,0-.27-.437,2.141,2.141,0,0,0-.659-.235c-.26-.052-.519-.113-.778-.181a1.426,1.426,0,0,1-.66-.376A.986.986,0,0,1,270.326,449.428Zm4.374,0a1.225,1.225,0,0,1,.483-.977,1.925,1.925,0,0,1,1.27-.4,1.872,1.872,0,0,1,1.249.392,1.423,1.423,0,0,1,.5,1.068h-.958a.752.752,0,0,0-.233-.527.84.84,0,0,0-.586-.19.931.931,0,0,0-.59.168.545.545,0,0,0-.213.447.481.481,0,0,0,.27.432,2.1,2.1,0,0,0,.66.232c.259.049.519.11.778.181a1.417,1.417,0,0,1,.659.392,1.06,1.06,0,0,1,.271.763,1.156,1.156,0,0,1-.5.966,2.07,2.07,0,0,1-1.274.371,1.977,1.977,0,0,1-1.261-.38,1.427,1.427,0,0,1-.532-1.08h.966a.731.731,0,0,0,.246.527.891.891,0,0,0,.6.191.984.984,0,0,0,.606-.17.535.535,0,0,0,.225-.45.485.485,0,0,0-.27-.437,2.141,2.141,0,0,0-.659-.235c-.26-.052-.519-.113-.779-.181a1.423,1.423,0,0,1-.659-.376A.986.986,0,0,1,274.7,449.428Zm-37,17.386-.41-1.172h-2.383l-.41,1.172h-.975l2.04-5.742h1.081l2.04,5.742Zm-2.539-1.906h1.875l-.933-2.7Zm7.56-2.64h.933v4.546h-.933V466.1a1.528,1.528,0,0,1-1.442.784,1.682,1.682,0,0,1-1.257-.507,1.949,1.949,0,0,1-.5-1.423v-2.682h.926v2.541a1.327,1.327,0,0,0,.3.937,1.076,1.076,0,0,0,.827.326,1.09,1.09,0,0,0,.832-.326,1.319,1.319,0,0,0,.307-.937Zm4.349.768h-1.1v2.515a.488.488,0,0,0,.119.368.587.587,0,0,0,.405.111h.574v.784h-.737a1.134,1.134,0,0,1-1.3-1.263v-2.515H244.5v-.768h.532v-1.13h.942v1.13h1.1Zm2.821,3.852a2.186,2.186,0,0,1-1.625-.647,2.316,2.316,0,0,1-.639-1.7,2.3,2.3,0,1,1,3.927,1.7A2.3,2.3,0,0,1,249.89,466.888Zm.971-1.2a1.825,1.825,0,0,0,.012-2.29,1.293,1.293,0,0,0-.962-.408,1.254,1.254,0,0,0-.95.408,1.606,1.606,0,0,0-.385,1.147,1.624,1.624,0,0,0,.377,1.147,1.219,1.219,0,0,0,.937.408A1.322,1.322,0,0,0,250.861,465.684Zm5.447-3.416h.933v4.546h-.933V466.1a1.528,1.528,0,0,1-1.442.784,1.682,1.682,0,0,1-1.257-.507,1.953,1.953,0,0,1-.5-1.423v-2.682h.926v2.541a1.327,1.327,0,0,0,.3.937,1.076,1.076,0,0,0,.827.326,1.09,1.09,0,0,0,.832-.326,1.319,1.319,0,0,0,.307-.937Zm4.668-.074a1.991,1.991,0,0,1,1.516.647,2.367,2.367,0,0,1,.606,1.684,2.417,2.417,0,0,1-.61,1.7,1.97,1.97,0,0,1-1.512.664,1.715,1.715,0,0,1-.933-.252,1.841,1.841,0,0,1-.639-.672v3.011h-.934v-6.707h.934v.809a1.767,1.767,0,0,1,1.572-.883Zm.762,3.453a1.556,1.556,0,0,0,.41-1.127,1.492,1.492,0,0,0-.406-1.1,1.346,1.346,0,0,0-1.933.008,1.74,1.74,0,0,0,0,2.232,1.315,1.315,0,0,0,1.929-.008Zm2.588.577a2.406,2.406,0,0,1-.614-1.7,2.357,2.357,0,0,1,.61-1.684,2.006,2.006,0,0,1,1.52-.647,1.791,1.791,0,0,1,.938.243,1.707,1.707,0,0,1,.626.64v-2.368h.942v6.105h-.942v-.85a1.78,1.78,0,0,1-.631.672,1.715,1.715,0,0,1-.933.252A1.983,1.983,0,0,1,264.326,466.224Zm2.674-.569a1.737,1.737,0,0,0,0-2.232,1.336,1.336,0,0,0-1.924-.008,1.488,1.488,0,0,0-.406,1.1,1.562,1.562,0,0,0,.406,1.127,1.286,1.286,0,0,0,.962.425A1.3,1.3,0,0,0,267,465.655Zm2.88.569a2.4,2.4,0,0,1-.615-1.7,2.361,2.361,0,0,1,.61-1.684,2.006,2.006,0,0,1,1.52-.647,1.788,1.788,0,0,1,.938.243,1.707,1.707,0,0,1,.626.64v-.809h.942v4.546h-.942v-.85a1.785,1.785,0,0,1-.63.672,1.721,1.721,0,0,1-.934.252A1.98,1.98,0,0,1,269.88,466.224Zm2.674-.569a1.74,1.74,0,0,0,0-2.232,1.337,1.337,0,0,0-1.925-.008,1.491,1.491,0,0,0-.405,1.1,1.565,1.565,0,0,0,.405,1.127,1.286,1.286,0,0,0,.962.425A1.3,1.3,0,0,0,272.554,465.655Zm4.763-2.619h-1.1v2.515a.488.488,0,0,0,.119.368.587.587,0,0,0,.4.111h.574v.784h-.738a1.134,1.134,0,0,1-1.3-1.263v-2.515h-.532v-.768h.532v-1.13h.942v1.13h1.1Zm2.76,3.852a2.111,2.111,0,0,1-1.6-.643,2.369,2.369,0,0,1-.615-1.708,2.335,2.335,0,0,1,.623-1.7,2.144,2.144,0,0,1,1.609-.64,2.107,2.107,0,0,1,2.216,2.22,2.827,2.827,0,0,1-.033.445h-3.456a1.294,1.294,0,0,0,.381.9,1.207,1.207,0,0,0,.872.334,1.1,1.1,0,0,0,1.073-.635h1.007a2.038,2.038,0,0,1-.745,1.027A2.181,2.181,0,0,1,280.077,466.888Zm.893-3.568a1.244,1.244,0,0,0-.877-.334,1.2,1.2,0,0,0-.864.334,1.357,1.357,0,0,0-.4.895h2.506A1.186,1.186,0,0,0,280.97,463.32Z"/><path d="M110.581,446.928v.735h-2.212v1.74h1.966v.726h-1.966v1.807h2.212v.734h-3.145v-5.742Zm2.08,1.2v.717a1.536,1.536,0,0,1,1.442-.792,1.768,1.768,0,0,1,.933.247,1.573,1.573,0,0,1,.623.718,1.769,1.769,0,0,1,.659-.709,1.8,1.8,0,0,1,.954-.256,1.714,1.714,0,0,1,1.278.508,1.954,1.954,0,0,1,.5,1.431v2.681h-.934v-2.541a1.326,1.326,0,0,0-.3-.936,1.212,1.212,0,0,0-1.654,0,1.326,1.326,0,0,0-.3.936v2.541h-.925v-2.541a1.326,1.326,0,0,0-.3-.936,1.076,1.076,0,0,0-.827-.326,1.09,1.09,0,0,0-.832.326,1.313,1.313,0,0,0-.307.936v2.541h-.934v-4.545Zm7.88,3.956a2.4,2.4,0,0,1-.615-1.7,2.353,2.353,0,0,1,.611-1.683,2,2,0,0,1,1.519-.648,1.78,1.78,0,0,1,.938.244,1.7,1.7,0,0,1,.626.639v-.808h.942v4.545h-.942v-.849a1.785,1.785,0,0,1-.63.672,1.721,1.721,0,0,1-.934.252A1.983,1.983,0,0,1,120.541,452.081Zm2.674-.57a1.534,1.534,0,0,0,.405-1.118,1.518,1.518,0,0,0-.405-1.113,1.3,1.3,0,0,0-.963-.413,1.318,1.318,0,0,0-.962.4,1.5,1.5,0,0,0-.405,1.106,1.564,1.564,0,0,0,.405,1.126,1.283,1.283,0,0,0,.962.425A1.3,1.3,0,0,0,123.215,451.511Zm3.641-4.591a.587.587,0,0,1-.172.429.6.6,0,0,1-.844,0,.621.621,0,0,1,0-.858.6.6,0,0,1,.844,0A.587.587,0,0,1,126.856,446.92Zm-1.065,5.75v-4.545h.934v4.545Zm2.162,0v-6.105h.934v6.105Zm8.461,0L136,451.5h-2.383l-.41,1.171h-.974l2.039-5.742h1.081l2.04,5.742Zm-2.539-1.906h1.875l-.933-2.7Zm4.71,1.337a2.66,2.66,0,0,1,0-3.407,2.111,2.111,0,0,1,1.593-.644,2.237,2.237,0,0,1,1.355.392,1.929,1.929,0,0,1,.725,1.118h-1.007a1.029,1.029,0,0,0-1.073-.718,1.124,1.124,0,0,0-.913.409,1.733,1.733,0,0,0-.34,1.142,1.756,1.756,0,0,0,.34,1.148,1.124,1.124,0,0,0,.913.412,1.038,1.038,0,0,0,1.073-.718h1.007a2.026,2.026,0,0,1-.737,1.1,2.159,2.159,0,0,1-1.343.409A2.108,2.108,0,0,1,138.585,452.1Zm4.914,0a2.663,2.663,0,0,1,0-3.407,2.111,2.111,0,0,1,1.593-.644,2.242,2.242,0,0,1,1.356.392,1.938,1.938,0,0,1,.725,1.118h-1.008a1.029,1.029,0,0,0-1.073-.718,1.124,1.124,0,0,0-.913.409,1.733,1.733,0,0,0-.34,1.142,1.756,1.756,0,0,0,.34,1.148,1.124,1.124,0,0,0,.913.412,1.037,1.037,0,0,0,1.073-.718h1.008a2.028,2.028,0,0,1-.738,1.1,2.159,2.159,0,0,1-1.343.409A2.108,2.108,0,0,1,143.5,452.1Zm6.573.644a2.186,2.186,0,0,1-1.626-.648,2.314,2.314,0,0,1-.639-1.7,2.273,2.273,0,0,1,.66-1.7,2.4,2.4,0,0,1,3.284,0,2.494,2.494,0,0,1-.016,3.4A2.3,2.3,0,0,1,150.072,452.745Zm.97-1.2a1.826,1.826,0,0,0,.013-2.29,1.292,1.292,0,0,0-.963-.409,1.253,1.253,0,0,0-.95.409,1.607,1.607,0,0,0-.385,1.146,1.628,1.628,0,0,0,.377,1.147,1.222,1.222,0,0,0,.938.409A1.324,1.324,0,0,0,151.042,451.541Zm5.447-3.416h.934v4.545h-.934v-.717a1.529,1.529,0,0,1-1.441.784,1.686,1.686,0,0,1-1.258-.508,1.951,1.951,0,0,1-.5-1.423v-2.681h.925v2.541a1.324,1.324,0,0,0,.3.936,1.073,1.073,0,0,0,.828.326,1.085,1.085,0,0,0,.831-.326,1.312,1.312,0,0,0,.307-.936Zm3.1,0v.717a1.537,1.537,0,0,1,1.442-.792,1.675,1.675,0,0,1,1.257.512,1.966,1.966,0,0,1,.5,1.427v2.681h-.926v-2.541a1.326,1.326,0,0,0-.3-.936,1.076,1.076,0,0,0-.827-.326,1.09,1.09,0,0,0-.832.326,1.318,1.318,0,0,0-.307.936v2.541h-.934v-4.545Zm6.569.767h-1.1v2.516a.484.484,0,0,0,.119.367.589.589,0,0,0,.406.111h.573v.784h-.737a1.133,1.133,0,0,1-1.3-1.262v-2.516h-.533v-.767h.533V447h.941v1.13h1.1Zm.655.536a1.225,1.225,0,0,1,.483-.977,1.928,1.928,0,0,1,1.27-.4,1.871,1.871,0,0,1,1.249.392,1.424,1.424,0,0,1,.5,1.068h-.959a.752.752,0,0,0-.233-.527.838.838,0,0,0-.586-.19.932.932,0,0,0-.59.168.544.544,0,0,0-.212.447.481.481,0,0,0,.27.432,2.09,2.09,0,0,0,.659.232c.26.049.519.11.778.181a1.415,1.415,0,0,1,.66.392,1.063,1.063,0,0,1,.27.763,1.153,1.153,0,0,1-.5.966,2.067,2.067,0,0,1-1.273.371,1.975,1.975,0,0,1-1.261-.38,1.427,1.427,0,0,1-.533-1.08h.967a.73.73,0,0,0,.245.527.893.893,0,0,0,.6.191.984.984,0,0,0,.606-.17.533.533,0,0,0,.226-.45.486.486,0,0,0-.271-.437,2.141,2.141,0,0,0-.659-.235c-.259-.052-.519-.113-.778-.181a1.423,1.423,0,0,1-.659-.376A.982.982,0,0,1,166.809,449.428Z"/><path d="M364.46,447.67v-.734h3.973v.734h-1.515v5h-.934v-5Zm5.849.455v.792a1.424,1.424,0,0,1,1.351-.867v.974h-.237a1.139,1.139,0,0,0-.832.28,1.353,1.353,0,0,0-.282.974v2.392h-.934v-4.545Zm2.514,3.956a2.409,2.409,0,0,1-.614-1.7,2.353,2.353,0,0,1,.61-1.683,2,2,0,0,1,1.52-.648,1.782,1.782,0,0,1,.938.244,1.7,1.7,0,0,1,.626.639v-.808h.942v4.545H375.9v-.849a1.787,1.787,0,0,1-.631.672,1.715,1.715,0,0,1-.933.252A1.987,1.987,0,0,1,372.823,452.081Zm2.675-.57a1.534,1.534,0,0,0,.405-1.118,1.518,1.518,0,0,0-.405-1.113,1.3,1.3,0,0,0-.963-.413,1.318,1.318,0,0,0-.962.4,1.5,1.5,0,0,0-.406,1.106,1.565,1.565,0,0,0,.406,1.126,1.283,1.283,0,0,0,.962.425A1.3,1.3,0,0,0,375.5,451.511Zm4.468-3.386v.767h-.836v3.778h-.942v-3.778h-.532v-.767h.532V447.8a1.434,1.434,0,0,1,.414-1.142,1.945,1.945,0,0,1,1.3-.359v.784a.869.869,0,0,0-.6.161.743.743,0,0,0-.172.556v.323Zm1.883-.323v.323h2.6v4.545h-.934v-3.778h-1.663v3.778h-.942v-3.778h-.532v-.767h.532V447.8a1.434,1.434,0,0,1,.414-1.142,1.948,1.948,0,0,1,1.3-.359v.784a.869.869,0,0,0-.6.161A.743.743,0,0,0,381.849,447.8Zm2.728-.882a.584.584,0,0,1-.172.429.6.6,0,0,1-.844,0,.621.621,0,0,1,0-.858.6.6,0,0,1,.844,0A.584.584,0,0,1,384.577,446.92Zm1.4,5.181a2.662,2.662,0,0,1,0-3.407,2.115,2.115,0,0,1,1.594-.644,2.237,2.237,0,0,1,1.355.392,1.929,1.929,0,0,1,.725,1.118h-1.007a1.029,1.029,0,0,0-1.073-.718,1.126,1.126,0,0,0-.914.409,1.738,1.738,0,0,0-.339,1.142,1.761,1.761,0,0,0,.339,1.148,1.126,1.126,0,0,0,.914.412,1.038,1.038,0,0,0,1.073-.718h1.007a2.032,2.032,0,0,1-.737,1.1,2.159,2.159,0,0,1-1.343.409A2.106,2.106,0,0,1,385.978,452.1Z"/><path d="M474.269,447.419a1.568,1.568,0,0,1,.524,1.205,1.665,1.665,0,0,1-.5,1.22,2.058,2.058,0,0,1-1.519.5h-1.032v2.326h-.934v-5.734h1.966A2.119,2.119,0,0,1,474.269,447.419Zm-2.522,2.191h1.032a1.1,1.1,0,0,0,.794-.256,1.1,1.1,0,0,0,0-1.428,1.1,1.1,0,0,0-.794-.256h-1.032Zm7.552-2.674h.933v5.734H479.3v-2.533H476.62v2.533h-.934v-5.734h.934v2.476H479.3Zm5.618.483a1.568,1.568,0,0,1,.524,1.205,1.665,1.665,0,0,1-.495,1.22,2.059,2.059,0,0,1-1.519.5H482.4v2.326h-.934v-5.734h1.966A2.119,2.119,0,0,1,484.917,447.419ZM482.4,449.61h1.032a1.1,1.1,0,0,0,.794-.256,1.1,1.1,0,0,0,0-1.428,1.1,1.1,0,0,0-.794-.256H482.4Zm12.392-2.674v5.734h-.934v-3.926l-1.736,3.926h-.647l-1.745-3.926v3.926h-.934v-5.734H489.8l2,4.5,1.991-4.5Zm1.532,5.145a2.4,2.4,0,0,1-.615-1.7,2.353,2.353,0,0,1,.61-1.683,2,2,0,0,1,1.52-.648,1.782,1.782,0,0,1,.938.244,1.7,1.7,0,0,1,.626.639v-.808h.942v4.545H499.4v-.849a1.793,1.793,0,0,1-.63.672,1.721,1.721,0,0,1-.934.252A1.983,1.983,0,0,1,496.319,452.081Zm2.674-.57a1.534,1.534,0,0,0,.405-1.118,1.518,1.518,0,0,0-.405-1.113,1.3,1.3,0,0,0-.963-.413,1.318,1.318,0,0,0-.962.4,1.5,1.5,0,0,0-.4,1.106,1.564,1.564,0,0,0,.4,1.126,1.283,1.283,0,0,0,.962.425A1.3,1.3,0,0,0,498.993,451.511Zm3.509-3.386v.717a1.537,1.537,0,0,1,1.442-.792,1.675,1.675,0,0,1,1.257.512,1.962,1.962,0,0,1,.5,1.427v2.681h-.926v-2.541a1.326,1.326,0,0,0-.3-.936,1.076,1.076,0,0,0-.827-.326,1.087,1.087,0,0,0-.831.326,1.314,1.314,0,0,0-.308.936v2.541h-.933v-4.545Zm4.686,3.956a2.4,2.4,0,0,1-.615-1.7,2.353,2.353,0,0,1,.61-1.683,2,2,0,0,1,1.52-.648,1.782,1.782,0,0,1,.938.244,1.7,1.7,0,0,1,.626.639v-.808h.942v4.545h-.942v-.849a1.787,1.787,0,0,1-.631.672,1.715,1.715,0,0,1-.933.252A1.983,1.983,0,0,1,507.188,452.081Zm2.674-.57a1.534,1.534,0,0,0,.4-1.118,1.518,1.518,0,0,0-.4-1.113,1.3,1.3,0,0,0-.963-.413,1.318,1.318,0,0,0-.962.4,1.5,1.5,0,0,0-.405,1.106,1.564,1.564,0,0,0,.405,1.126,1.283,1.283,0,0,0,.962.425A1.3,1.3,0,0,0,509.862,451.511Zm2.879.57a2.4,2.4,0,0,1-.615-1.7,2.353,2.353,0,0,1,.611-1.683,2,2,0,0,1,1.519-.648,1.78,1.78,0,0,1,.938.244,1.7,1.7,0,0,1,.626.639v-.808h.942v4.62a2.159,2.159,0,0,1-.585,1.563,2.073,2.073,0,0,1-1.561.607,2.657,2.657,0,0,1-1.581-.434,1.6,1.6,0,0,1-.688-1.175h.926a1.006,1.006,0,0,0,.455.573,1.607,1.607,0,0,0,.872.219,1.19,1.19,0,0,0,.872-.346,1.363,1.363,0,0,0,.348-1.007v-.924a1.793,1.793,0,0,1-.63.672,1.721,1.721,0,0,1-.934.252A1.983,1.983,0,0,1,512.741,452.081Zm2.674-.57a1.534,1.534,0,0,0,.405-1.118,1.518,1.518,0,0,0-.405-1.113,1.3,1.3,0,0,0-.963-.413,1.318,1.318,0,0,0-.962.4,1.5,1.5,0,0,0-.4,1.106,1.564,1.564,0,0,0,.4,1.126,1.283,1.283,0,0,0,.962.425A1.3,1.3,0,0,0,515.415,451.511Zm4.476,1.234a2.108,2.108,0,0,1-1.6-.644,2.369,2.369,0,0,1-.615-1.708,2.337,2.337,0,0,1,.623-1.7,2.368,2.368,0,0,1,3.211-.025,2.174,2.174,0,0,1,.614,1.6,2.817,2.817,0,0,1-.033.445h-3.456a1.307,1.307,0,0,0,.381.9,1.213,1.213,0,0,0,.872.334,1.1,1.1,0,0,0,1.073-.636h1.007a2.03,2.03,0,0,1-.745,1.027A2.173,2.173,0,0,1,519.891,452.745Zm.893-3.569a1.248,1.248,0,0,0-.877-.334,1.2,1.2,0,0,0-.864.334,1.36,1.36,0,0,0-.4.9h2.506A1.188,1.188,0,0,0,520.784,449.176Zm3.194-1.051v.792a1.426,1.426,0,0,1,1.352-.867v.974h-.238a1.134,1.134,0,0,0-.831.28,1.353,1.353,0,0,0-.283.974v2.392h-.934v-4.545Z"/><path d="M114.488,327.065a1.034,1.034,0,0,0-.68.215.755.755,0,0,0-.262.623.708.708,0,0,0,.311.622,2.1,2.1,0,0,0,.754.313c.3.067.589.143.884.228a1.582,1.582,0,0,1,.754.475,1.417,1.417,0,0,1,.311.981,1.533,1.533,0,0,1-.532,1.139,1.992,1.992,0,0,1-1.425.5,2.337,2.337,0,0,1-1.45-.421,1.375,1.375,0,0,1-.557-1.163h1a.879.879,0,0,0,.279.6,1.035,1.035,0,0,0,.72.223,1.079,1.079,0,0,0,.75-.248.824.824,0,0,0,.106-1.113,1.035,1.035,0,0,0-.434-.286,5.761,5.761,0,0,0-.586-.169c-.212-.048-.427-.107-.643-.172a2.809,2.809,0,0,1-.589-.256,1.178,1.178,0,0,1-.434-.458,1.5,1.5,0,0,1-.168-.739,1.512,1.512,0,0,1,.536-1.209,2.078,2.078,0,0,1,1.393-.458,2.181,2.181,0,0,1,1.368.4,1.518,1.518,0,0,1,.569,1.146H115.43a.833.833,0,0,0-.279-.552A.948.948,0,0,0,114.488,327.065Zm4.947,0a1.035,1.035,0,0,0-.68.215.755.755,0,0,0-.262.623.71.71,0,0,0,.311.622,2.105,2.105,0,0,0,.754.313q.442.1.885.228a1.579,1.579,0,0,1,.753.475,1.412,1.412,0,0,1,.311.981,1.533,1.533,0,0,1-.532,1.139,1.992,1.992,0,0,1-1.425.5,2.339,2.339,0,0,1-1.45-.421,1.378,1.378,0,0,1-.557-1.163h1a.879.879,0,0,0,.279.6,1.038,1.038,0,0,0,.721.223,1.078,1.078,0,0,0,.749-.248.824.824,0,0,0,.106-1.113,1.029,1.029,0,0,0-.434-.286,5.739,5.739,0,0,0-.585-.169c-.213-.048-.428-.107-.643-.172a2.8,2.8,0,0,1-.59-.256,1.192,1.192,0,0,1-.434-.458,1.5,1.5,0,0,1-.168-.739,1.515,1.515,0,0,1,.536-1.209,2.078,2.078,0,0,1,1.393-.458,2.179,2.179,0,0,1,1.368.4,1.518,1.518,0,0,1,.569,1.146h-1.032a.833.833,0,0,0-.279-.552A.945.945,0,0,0,119.435,327.065Zm3.178-.693h.934v5.016h1.925v.718h-2.859Zm12.09,0v5.734h-.934v-3.927l-1.737,3.927h-.647l-1.744-3.927v3.927h-.934v-5.734h1.007l2,4.5,1.99-4.5Zm1.531,5.144a2.4,2.4,0,0,1-.614-1.7,2.357,2.357,0,0,1,.61-1.684,2,2,0,0,1,1.519-.647,1.788,1.788,0,0,1,.938.243,1.71,1.71,0,0,1,.627.64v-.809h.942v4.546h-.942v-.85a1.788,1.788,0,0,1-.631.672,1.718,1.718,0,0,1-.934.252A1.983,1.983,0,0,1,136.234,331.516Zm2.674-.569a1.737,1.737,0,0,0,0-2.232,1.3,1.3,0,0,0-.962-.413,1.317,1.317,0,0,0-.963.4,1.491,1.491,0,0,0-.405,1.105,1.565,1.565,0,0,0,.405,1.127,1.311,1.311,0,0,0,1.925.008Zm3.51-3.387v.718a1.536,1.536,0,0,1,1.442-.792,1.678,1.678,0,0,1,1.257.512,1.963,1.963,0,0,1,.5,1.426v2.682h-.925v-2.541a1.329,1.329,0,0,0-.3-.937,1.08,1.08,0,0,0-.828-.326,1.093,1.093,0,0,0-.831.326,1.316,1.316,0,0,0-.307.937v2.541h-.934V327.56Zm4.685,3.956a2.4,2.4,0,0,1-.614-1.7,2.357,2.357,0,0,1,.61-1.684,2,2,0,0,1,1.519-.647,1.788,1.788,0,0,1,.938.243,1.717,1.717,0,0,1,.627.64v-.809h.942v4.546h-.942v-.85a1.788,1.788,0,0,1-.631.672,1.721,1.721,0,0,1-.934.252A1.981,1.981,0,0,1,147.1,331.516Zm2.674-.569a1.737,1.737,0,0,0,0-2.232,1.3,1.3,0,0,0-.962-.413,1.317,1.317,0,0,0-.963.4,1.491,1.491,0,0,0-.405,1.105,1.565,1.565,0,0,0,.405,1.127,1.311,1.311,0,0,0,1.925.008Zm2.879.569a2.406,2.406,0,0,1-.614-1.7,2.357,2.357,0,0,1,.61-1.684,2,2,0,0,1,1.519-.647,1.788,1.788,0,0,1,.938.243,1.71,1.71,0,0,1,.627.64v-.809h.942v4.62a2.162,2.162,0,0,1-.586,1.564,2.068,2.068,0,0,1-1.56.606,2.657,2.657,0,0,1-1.581-.433,1.6,1.6,0,0,1-.688-1.175h.925a1.018,1.018,0,0,0,.455.573,1.61,1.61,0,0,0,.872.219,1.187,1.187,0,0,0,.873-.347,1.359,1.359,0,0,0,.348-1.007v-.924a1.78,1.78,0,0,1-.631.672,1.718,1.718,0,0,1-.934.252A1.983,1.983,0,0,1,152.656,331.516Zm2.674-.569a1.737,1.737,0,0,0,0-2.232,1.336,1.336,0,0,0-1.924-.008,1.488,1.488,0,0,0-.406,1.105,1.562,1.562,0,0,0,.406,1.127,1.286,1.286,0,0,0,.962.425A1.3,1.3,0,0,0,155.33,330.947Zm4.477,1.233a2.113,2.113,0,0,1-1.6-.643,2.372,2.372,0,0,1-.614-1.708,2.335,2.335,0,0,1,.623-1.7,2.144,2.144,0,0,1,1.609-.64,2.108,2.108,0,0,1,2.216,2.22,2.827,2.827,0,0,1-.033.445h-3.457a1.3,1.3,0,0,0,.381.9,1.209,1.209,0,0,0,.873.334,1.1,1.1,0,0,0,1.073-.635h1.007a2.044,2.044,0,0,1-.745,1.027A2.183,2.183,0,0,1,159.807,332.18Zm.892-3.568a1.24,1.24,0,0,0-.876-.334,1.2,1.2,0,0,0-.864.334,1.353,1.353,0,0,0-.4.895h2.506A1.183,1.183,0,0,0,160.7,328.612Zm3.195-1.052v.792a1.425,1.425,0,0,1,1.351-.866v.974h-.237a1.134,1.134,0,0,0-.832.28,1.35,1.35,0,0,0-.282.973v2.393h-.934V327.56Z"/><path d="M227.822,326.372a3.066,3.066,0,0,1,2.2.78,2.757,2.757,0,0,1,.823,2.1,2.706,2.706,0,0,1-.823,2.088,3.106,3.106,0,0,1-2.2.763h-1.86v-5.734Zm-.926,5.016h.926a2,2,0,0,0,1.527-.569,2.539,2.539,0,0,0,0-3.123,2.007,2.007,0,0,0-1.527-.565H226.9Zm8.617-5.024h.934v5.742h-.934l-2.809-4.282v4.282h-.934v-5.742h.934l2.809,4.273Zm3.932.7a1.032,1.032,0,0,0-.68.215.755.755,0,0,0-.262.623.708.708,0,0,0,.311.622,2.092,2.092,0,0,0,.753.313q.442.1.885.228a1.582,1.582,0,0,1,.754.475,1.417,1.417,0,0,1,.311.981,1.534,1.534,0,0,1-.533,1.139,1.992,1.992,0,0,1-1.425.5,2.341,2.341,0,0,1-1.45-.421,1.377,1.377,0,0,1-.556-1.163h1a.879.879,0,0,0,.278.6,1.038,1.038,0,0,0,.721.223,1.081,1.081,0,0,0,.75-.248.824.824,0,0,0,.106-1.113,1.035,1.035,0,0,0-.434-.286,5.836,5.836,0,0,0-.586-.169c-.213-.048-.427-.107-.643-.172a2.809,2.809,0,0,1-.589-.256,1.187,1.187,0,0,1-.435-.458,1.5,1.5,0,0,1-.167-.739,1.512,1.512,0,0,1,.536-1.209,2.077,2.077,0,0,1,1.392-.458,2.177,2.177,0,0,1,1.368.4,1.518,1.518,0,0,1,.569,1.146h-1.032a.827.827,0,0,0-.278-.552A.948.948,0,0,0,239.445,327.065Zm9.181-.693v.734l-2.678,4.266h2.678v.734h-3.751v-.734l2.67-4.266h-2.67v-.734Zm2.986,5.808a2.19,2.19,0,0,1-1.626-.647,2.316,2.316,0,0,1-.639-1.7,2.278,2.278,0,0,1,.659-1.7,2.357,2.357,0,0,1,3.268,3.4A2.3,2.3,0,0,1,251.612,332.18Zm.97-1.2a1.825,1.825,0,0,0,.012-2.29,1.291,1.291,0,0,0-.962-.408,1.254,1.254,0,0,0-.95.408,1.606,1.606,0,0,0-.385,1.147,1.628,1.628,0,0,0,.377,1.147,1.221,1.221,0,0,0,.938.408A1.32,1.32,0,0,0,252.582,330.976Zm3.227-3.416v.718a1.537,1.537,0,0,1,1.442-.792,1.675,1.675,0,0,1,1.257.512,1.964,1.964,0,0,1,.5,1.426v2.682h-.926v-2.541a1.329,1.329,0,0,0-.3-.937,1.079,1.079,0,0,0-.827-.326,1.093,1.093,0,0,0-.832.326,1.321,1.321,0,0,0-.307.937v2.541h-.934V327.56Zm6.283,4.62a2.113,2.113,0,0,1-1.6-.643,2.372,2.372,0,0,1-.614-1.708,2.335,2.335,0,0,1,.622-1.7,2.369,2.369,0,0,1,3.211-.026,2.172,2.172,0,0,1,.615,1.606,2.827,2.827,0,0,1-.033.445h-3.457a1.3,1.3,0,0,0,.381.9,1.209,1.209,0,0,0,.873.334,1.1,1.1,0,0,0,1.073-.635h1.007a2.044,2.044,0,0,1-.745,1.027A2.183,2.183,0,0,1,262.092,332.18Zm.892-3.568a1.24,1.24,0,0,0-.876-.334,1.2,1.2,0,0,0-.864.334,1.354,1.354,0,0,0-.4.895h2.507A1.187,1.187,0,0,0,262.984,328.612Zm7.863-2.248v.734h-2.211v1.74H270.6v.727h-1.966v1.807h2.211v.734H267.7v-5.742Zm1.45,5.152a2.4,2.4,0,0,1-.614-1.7,2.357,2.357,0,0,1,.61-1.684,2,2,0,0,1,1.519-.647,1.788,1.788,0,0,1,.938.243,1.71,1.71,0,0,1,.627.64V326h.942v6.105h-.942v-.85a1.788,1.788,0,0,1-.631.672,1.718,1.718,0,0,1-.934.252A1.983,1.983,0,0,1,272.3,331.516Zm2.674-.569a1.737,1.737,0,0,0,0-2.232,1.3,1.3,0,0,0-.962-.413,1.317,1.317,0,0,0-.963.4,1.491,1.491,0,0,0-.4,1.105,1.565,1.565,0,0,0,.4,1.127,1.311,1.311,0,0,0,1.925.008Zm3.641-4.591a.585.585,0,0,1-.172.429.6.6,0,0,1-.844,0,.622.622,0,0,1,0-.859.6.6,0,0,1,.844,0A.586.586,0,0,1,278.612,326.356Zm-1.065,5.75V327.56h.934v4.546Zm4.349-3.778h-1.1v2.515a.484.484,0,0,0,.119.368.587.587,0,0,0,.4.111h.573v.784h-.737a1.134,1.134,0,0,1-1.3-1.263v-2.515h-.533v-.768h.533v-1.13h.942v1.13h1.1Zm2.822,3.852a2.19,2.19,0,0,1-1.626-.647,2.316,2.316,0,0,1-.639-1.7,2.275,2.275,0,0,1,.66-1.7,2.357,2.357,0,0,1,3.268,3.4A2.306,2.306,0,0,1,284.718,332.18Zm.971-1.2a1.828,1.828,0,0,0,.012-2.29,1.294,1.294,0,0,0-.962-.408,1.256,1.256,0,0,0-.951.408,1.61,1.61,0,0,0-.384,1.147,1.628,1.628,0,0,0,.376,1.147,1.221,1.221,0,0,0,.938.408A1.322,1.322,0,0,0,285.689,330.976Zm3.227-3.416v.792a1.425,1.425,0,0,1,1.351-.866v.974h-.237a1.134,1.134,0,0,0-.832.28,1.35,1.35,0,0,0-.282.973v2.393h-.934V327.56Z"/><path d="M347.8,327.065a1.034,1.034,0,0,0-.68.215.755.755,0,0,0-.262.623.71.71,0,0,0,.311.622,2.105,2.105,0,0,0,.754.313q.442.1.884.228a1.582,1.582,0,0,1,.754.475,1.417,1.417,0,0,1,.311.981,1.533,1.533,0,0,1-.532,1.139,1.992,1.992,0,0,1-1.425.5,2.337,2.337,0,0,1-1.45-.421,1.375,1.375,0,0,1-.557-1.163h1a.879.879,0,0,0,.279.6,1.035,1.035,0,0,0,.72.223,1.079,1.079,0,0,0,.75-.248.824.824,0,0,0,.106-1.113,1.035,1.035,0,0,0-.434-.286,5.814,5.814,0,0,0-.585-.169c-.213-.048-.428-.107-.644-.172a2.809,2.809,0,0,1-.589-.256,1.185,1.185,0,0,1-.434-.458,1.5,1.5,0,0,1-.168-.739,1.515,1.515,0,0,1,.536-1.209,2.078,2.078,0,0,1,1.393-.458,2.181,2.181,0,0,1,1.368.4,1.518,1.518,0,0,1,.569,1.146h-1.032a.833.833,0,0,0-.279-.552A.948.948,0,0,0,347.8,327.065Zm5.365,1.263h-1.1v2.515a.488.488,0,0,0,.119.368.587.587,0,0,0,.405.111h.574v.784h-.737a1.134,1.134,0,0,1-1.3-1.263v-2.515h-.532v-.768h.532v-1.13h.942v1.13h1.1Zm1.163,3.188a2.4,2.4,0,0,1-.615-1.7,2.357,2.357,0,0,1,.611-1.684,2,2,0,0,1,1.519-.647,1.788,1.788,0,0,1,.938.243,1.717,1.717,0,0,1,.627.64v-.809h.941v4.546h-.941v-.85a1.788,1.788,0,0,1-.631.672,1.721,1.721,0,0,1-.934.252A1.981,1.981,0,0,1,354.325,331.516Zm2.674-.569a1.737,1.737,0,0,0,0-2.232,1.337,1.337,0,0,0-1.925-.008,1.491,1.491,0,0,0-.405,1.105,1.565,1.565,0,0,0,.405,1.127,1.287,1.287,0,0,0,.963.425A1.3,1.3,0,0,0,357,330.947Zm2.879.569a2.406,2.406,0,0,1-.614-1.7,2.357,2.357,0,0,1,.61-1.684,2,2,0,0,1,1.519-.647,1.788,1.788,0,0,1,.938.243,1.71,1.71,0,0,1,.627.64v-.809h.942v4.62a2.162,2.162,0,0,1-.586,1.564,2.068,2.068,0,0,1-1.56.606,2.657,2.657,0,0,1-1.581-.433,1.6,1.6,0,0,1-.688-1.175h.925a1.014,1.014,0,0,0,.455.573,1.61,1.61,0,0,0,.872.219,1.189,1.189,0,0,0,.873-.347,1.359,1.359,0,0,0,.348-1.007v-.924a1.788,1.788,0,0,1-.631.672,1.718,1.718,0,0,1-.934.252A1.983,1.983,0,0,1,359.878,331.516Zm2.674-.569a1.737,1.737,0,0,0,0-2.232,1.3,1.3,0,0,0-.962-.413,1.319,1.319,0,0,0-.963.4,1.491,1.491,0,0,0-.405,1.105,1.565,1.565,0,0,0,.405,1.127,1.311,1.311,0,0,0,1.925.008Zm3.641-4.591a.585.585,0,0,1-.172.429.6.6,0,0,1-.843,0,.62.62,0,0,1,0-.859.6.6,0,0,1,.843,0A.586.586,0,0,1,366.193,326.356Zm-1.065,5.75V327.56h.934v4.546Zm3.1-4.546v.718a1.537,1.537,0,0,1,1.442-.792,1.675,1.675,0,0,1,1.257.512,1.964,1.964,0,0,1,.5,1.426v2.682h-.926v-2.541a1.329,1.329,0,0,0-.3-.937,1.217,1.217,0,0,0-1.658,0,1.316,1.316,0,0,0-.308.937v2.541h-.933V327.56Zm4.685,3.956a2.406,2.406,0,0,1-.614-1.7,2.357,2.357,0,0,1,.61-1.684,2.006,2.006,0,0,1,1.52-.647,1.791,1.791,0,0,1,.938.243,1.707,1.707,0,0,1,.626.64v-.809h.942v4.62a2.157,2.157,0,0,1-.586,1.564,2.068,2.068,0,0,1-1.56.606,2.657,2.657,0,0,1-1.581-.433,1.6,1.6,0,0,1-.688-1.175h.926a1.012,1.012,0,0,0,.454.573,1.611,1.611,0,0,0,.873.219,1.186,1.186,0,0,0,.872-.347,1.359,1.359,0,0,0,.348-1.007v-.924a1.78,1.78,0,0,1-.631.672,1.715,1.715,0,0,1-.933.252A1.983,1.983,0,0,1,372.909,331.516Zm2.675-.569a1.74,1.74,0,0,0,0-2.232,1.337,1.337,0,0,0-1.925-.008,1.488,1.488,0,0,0-.406,1.105,1.562,1.562,0,0,0,.406,1.127,1.286,1.286,0,0,0,.962.425A1.3,1.3,0,0,0,375.584,330.947Zm5.565.384a2.932,2.932,0,0,1,2.064-5.034,2.956,2.956,0,0,1,1.618.451,2.554,2.554,0,0,1,1.028,1.274h-1.122a1.591,1.591,0,0,0-1.524-.866,1.857,1.857,0,0,0-1.405.569,2.357,2.357,0,0,0,0,3.012,1.86,1.86,0,0,0,1.405.569,1.59,1.59,0,0,0,1.524-.867h1.122a2.534,2.534,0,0,1-1.028,1.271,2.978,2.978,0,0,1-1.618.446A2.843,2.843,0,0,1,381.149,331.331Zm7.761.849a2.19,2.19,0,0,1-1.626-.647,2.316,2.316,0,0,1-.639-1.7,2.278,2.278,0,0,1,.659-1.7,2.358,2.358,0,0,1,3.269,3.4A2.306,2.306,0,0,1,388.91,332.18Zm.97-1.2a1.557,1.557,0,0,0,.41-1.147,1.575,1.575,0,0,0-.4-1.143,1.3,1.3,0,0,0-.963-.408,1.254,1.254,0,0,0-.95.408,1.606,1.606,0,0,0-.385,1.147,1.628,1.628,0,0,0,.377,1.147,1.221,1.221,0,0,0,.938.408A1.32,1.32,0,0,0,389.88,330.976Zm4.8-3.49a1.991,1.991,0,0,1,1.515.647,2.368,2.368,0,0,1,.607,1.684,2.413,2.413,0,0,1-.611,1.7,1.968,1.968,0,0,1-1.511.664,1.721,1.721,0,0,1-.934-.252,1.857,1.857,0,0,1-.639-.672v3.011h-.933V327.56h.933v.809a1.767,1.767,0,0,1,1.573-.883Zm.762,3.453a1.555,1.555,0,0,0,.409-1.127,1.491,1.491,0,0,0-.4-1.105,1.321,1.321,0,0,0-.967-.4,1.307,1.307,0,0,0-.966.413,1.737,1.737,0,0,0,0,2.232,1.315,1.315,0,0,0,1.929-.008Zm3.35-4.583a.589.589,0,0,1-.172.429.6.6,0,0,1-.844,0,.622.622,0,0,1,0-.859.6.6,0,0,1,.844,0A.59.59,0,0,1,398.792,326.356Zm-1.065,5.75V327.56h.934v4.546Zm4.063.074a2.113,2.113,0,0,1-1.6-.643,2.372,2.372,0,0,1-.614-1.708,2.335,2.335,0,0,1,.622-1.7,2.369,2.369,0,0,1,3.211-.026,2.172,2.172,0,0,1,.615,1.606,2.827,2.827,0,0,1-.033.445h-3.457a1.3,1.3,0,0,0,.381.9,1.209,1.209,0,0,0,.873.334,1.1,1.1,0,0,0,1.073-.635h1.007a2.044,2.044,0,0,1-.745,1.027A2.183,2.183,0,0,1,401.79,332.18Zm.892-3.568a1.24,1.24,0,0,0-.876-.334,1.2,1.2,0,0,0-.864.334,1.354,1.354,0,0,0-.4.895h2.507A1.187,1.187,0,0,0,402.682,328.612Zm2.056.252a1.226,1.226,0,0,1,.483-.978,1.932,1.932,0,0,1,1.27-.4,1.871,1.871,0,0,1,1.249.392,1.422,1.422,0,0,1,.5,1.068h-.959a.748.748,0,0,0-.233-.527.839.839,0,0,0-.586-.191.933.933,0,0,0-.59.169.542.542,0,0,0-.212.446.482.482,0,0,0,.27.433,2.09,2.09,0,0,0,.659.231c.259.049.519.111.778.182a1.4,1.4,0,0,1,.66.392,1.061,1.061,0,0,1,.27.762,1.152,1.152,0,0,1-.5.966,2.069,2.069,0,0,1-1.273.371,1.978,1.978,0,0,1-1.262-.38,1.43,1.43,0,0,1-.532-1.08h.967a.731.731,0,0,0,.245.528.892.892,0,0,0,.6.19.984.984,0,0,0,.606-.17.53.53,0,0,0,.225-.449.486.486,0,0,0-.27-.438,2.167,2.167,0,0,0-.659-.234c-.259-.053-.519-.113-.778-.182a1.418,1.418,0,0,1-.659-.376A.978.978,0,0,1,404.738,328.864Z"/><path d="M465.755,327.065a1.035,1.035,0,0,0-.68.215.755.755,0,0,0-.262.623.709.709,0,0,0,.312.622,2.092,2.092,0,0,0,.753.313q.443.1.885.228a1.579,1.579,0,0,1,.753.475,1.412,1.412,0,0,1,.311.981,1.533,1.533,0,0,1-.532,1.139,1.992,1.992,0,0,1-1.425.5,2.339,2.339,0,0,1-1.45-.421,1.378,1.378,0,0,1-.557-1.163h1a.879.879,0,0,0,.279.6,1.038,1.038,0,0,0,.721.223,1.078,1.078,0,0,0,.749-.248.764.764,0,0,0,.275-.585.773.773,0,0,0-.168-.528,1.038,1.038,0,0,0-.435-.286,5.739,5.739,0,0,0-.585-.169c-.213-.048-.427-.107-.643-.172a2.8,2.8,0,0,1-.59-.256,1.192,1.192,0,0,1-.434-.458,1.5,1.5,0,0,1-.168-.739,1.515,1.515,0,0,1,.536-1.209,2.078,2.078,0,0,1,1.393-.458,2.177,2.177,0,0,1,1.368.4,1.518,1.518,0,0,1,.569,1.146H466.7a.833.833,0,0,0-.279-.552A.945.945,0,0,0,465.755,327.065Zm5.684.421a1.993,1.993,0,0,1,1.516.647,2.367,2.367,0,0,1,.606,1.684,2.413,2.413,0,0,1-.611,1.7,1.967,1.967,0,0,1-1.511.664,1.715,1.715,0,0,1-.933-.252,1.841,1.841,0,0,1-.639-.672v3.011h-.934V327.56h.934v.809a1.763,1.763,0,0,1,1.572-.883Zm.762,3.453a1.556,1.556,0,0,0,.41-1.127,1.492,1.492,0,0,0-.406-1.105,1.346,1.346,0,0,0-1.933.008,1.74,1.74,0,0,0,0,2.232,1.315,1.315,0,0,0,1.929-.008Zm2.588.577a2.406,2.406,0,0,1-.614-1.7,2.357,2.357,0,0,1,.61-1.684,2,2,0,0,1,1.519-.647,1.788,1.788,0,0,1,.938.243,1.71,1.71,0,0,1,.627.64v-.809h.942v4.546h-.942v-.85a1.78,1.78,0,0,1-.631.672,1.718,1.718,0,0,1-.934.252A1.983,1.983,0,0,1,474.789,331.516Zm2.674-.569a1.737,1.737,0,0,0,0-2.232,1.336,1.336,0,0,0-1.924-.008,1.488,1.488,0,0,0-.406,1.105,1.562,1.562,0,0,0,.406,1.127,1.286,1.286,0,0,0,.962.425A1.3,1.3,0,0,0,477.463,330.947Zm3.51-3.387v.718a1.536,1.536,0,0,1,1.442-.792,1.768,1.768,0,0,1,.933.247,1.568,1.568,0,0,1,.623.718,1.769,1.769,0,0,1,.659-.709,1.8,1.8,0,0,1,.954-.256,1.714,1.714,0,0,1,1.278.508,1.952,1.952,0,0,1,.5,1.43v2.682h-.934v-2.541a1.329,1.329,0,0,0-.3-.937,1.212,1.212,0,0,0-1.654,0,1.329,1.329,0,0,0-.3.937v2.541h-.925v-2.541a1.329,1.329,0,0,0-.3-.937,1.079,1.079,0,0,0-.827-.326,1.093,1.093,0,0,0-.832.326,1.316,1.316,0,0,0-.307.937v2.541h-.934V327.56Zm13.49-.7a1.566,1.566,0,0,1,.524,1.2,1.665,1.665,0,0,1-.5,1.221,2.06,2.06,0,0,1-1.52.5H491.94v2.326h-.933v-5.734h1.965A2.12,2.12,0,0,1,494.463,326.855Zm-2.523,2.19h1.032a1.1,1.1,0,0,0,.8-.255,1.1,1.1,0,0,0,0-1.428,1.1,1.1,0,0,0-.8-.256H491.94Zm4.874-1.485v.792a1.425,1.425,0,0,1,1.352-.866v.974h-.238a1.134,1.134,0,0,0-.832.28,1.35,1.35,0,0,0-.282.973v2.393h-.934V327.56Zm4.173,4.62a2.19,2.19,0,0,1-1.626-.647,2.316,2.316,0,0,1-.639-1.7,2.275,2.275,0,0,1,.66-1.7,2.357,2.357,0,0,1,3.268,3.4A2.306,2.306,0,0,1,500.987,332.18Zm.971-1.2a1.828,1.828,0,0,0,.012-2.29,1.294,1.294,0,0,0-.962-.408,1.256,1.256,0,0,0-.951.408,1.61,1.61,0,0,0-.384,1.147,1.628,1.628,0,0,0,.376,1.147,1.221,1.221,0,0,0,.938.408A1.322,1.322,0,0,0,501.958,330.976Zm4.48-2.648h-1.1v2.515a.488.488,0,0,0,.119.368.589.589,0,0,0,.406.111h.573v.784H505.7a1.135,1.135,0,0,1-1.3-1.263v-2.515h-.532v-.768h.532v-1.13h.942v1.13h1.1Zm2.76,3.852a2.112,2.112,0,0,1-1.6-.643,2.368,2.368,0,0,1-.614-1.708,2.335,2.335,0,0,1,.622-1.7,2.146,2.146,0,0,1,1.61-.64,2.107,2.107,0,0,1,2.215,2.22,2.956,2.956,0,0,1-.032.445h-3.457a1.3,1.3,0,0,0,.381.9,1.208,1.208,0,0,0,.872.334,1.1,1.1,0,0,0,1.073-.635h1.008a2.04,2.04,0,0,1-.746,1.027A2.178,2.178,0,0,1,509.2,332.18Zm.893-3.568a1.24,1.24,0,0,0-.876-.334,1.2,1.2,0,0,0-.865.334,1.357,1.357,0,0,0-.4.895h2.506A1.186,1.186,0,0,0,510.091,328.612Zm2.564,2.925a2.662,2.662,0,0,1,0-3.408,2.114,2.114,0,0,1,1.593-.643,2.237,2.237,0,0,1,1.355.392,1.922,1.922,0,0,1,.725,1.118h-1.007a1.028,1.028,0,0,0-1.073-.718,1.126,1.126,0,0,0-.913.408,2.1,2.1,0,0,0,0,2.29,1.121,1.121,0,0,0,.913.412,1.037,1.037,0,0,0,1.073-.718h1.007a2.029,2.029,0,0,1-.737,1.1,2.165,2.165,0,0,1-1.343.408A2.111,2.111,0,0,1,512.655,331.537Zm6.8-3.209h-1.1v2.515a.488.488,0,0,0,.119.368.587.587,0,0,0,.4.111h.574v.784h-.737a1.134,1.134,0,0,1-1.3-1.263v-2.515h-.532v-.768h.532v-1.13h.942v1.13h1.1Zm1.925-1.972a.589.589,0,0,1-.172.429.6.6,0,0,1-.844,0,.622.622,0,0,1,0-.859.6.6,0,0,1,.844,0A.59.59,0,0,1,521.378,326.356Zm-1.065,5.75V327.56h.934v4.546Zm4.124.074a2.19,2.19,0,0,1-1.626-.647,2.316,2.316,0,0,1-.639-1.7,2.275,2.275,0,0,1,.66-1.7,2.407,2.407,0,0,1,3.284,0,2.495,2.495,0,0,1-.016,3.4A2.306,2.306,0,0,1,524.437,332.18Zm.97-1.2a1.826,1.826,0,0,0,.013-2.29,1.3,1.3,0,0,0-.963-.408,1.256,1.256,0,0,0-.95.408,1.606,1.606,0,0,0-.385,1.147,1.628,1.628,0,0,0,.377,1.147,1.221,1.221,0,0,0,.938.408A1.32,1.32,0,0,0,525.407,330.976Zm3.228-3.416v.718a1.534,1.534,0,0,1,1.441-.792,1.675,1.675,0,0,1,1.257.512,1.959,1.959,0,0,1,.5,1.426v2.682H530.9v-2.541a1.329,1.329,0,0,0-.3-.937,1.079,1.079,0,0,0-.827-.326,1.091,1.091,0,0,0-.831.326,1.316,1.316,0,0,0-.307.937v2.541H527.7V327.56Z"/><path d="M403.445,390.264a.5.5,0,0,0-.144-.354.163.163,0,0,0-.017-.011.5.5,0,0,0-.449-.288l-25.273,0-25.391-.152a.383.383,0,0,0-.354.144.518.518,0,0,0-.1.141s-.012.007-.016.012a.5.5,0,0,0-.147.353l0,18.47-.111,18.5a.5.5,0,0,0,.144.354s.012.007.017.012a.493.493,0,0,0,.1.141.5.5,0,0,0,.354.147l25.32,0,3.859.023,6.559.039,8.347.051h0l6.578.039h0a.812.812,0,0,0,.611-.65l0-18.49Zm-1.22,36.474h-5.578L396.778,405a.5.5,0,0,0-.5-.5l-8.348-.051h0a.5.5,0,0,0-.351.144.483.483,0,0,0-.117.2.5.5,0,0,0-.032.153l-.084,14.072-.047,7.72h-5.558l.094-15.828a.5.5,0,0,0-.144-.355.506.506,0,0,0-.353-.148l-8.347-.05h0a.5.5,0,0,0-.5.5l-.1,15.854-5.559-.034.049-8.222a.5.5,0,0,0-.144-.355.506.506,0,0,0-.353-.148l-8.347-.05h0a.5.5,0,0,0-.5.5l-.049,8.222-4.932-.03v-18l.052-8.605,49.726.3v8.466Zm-24.669-36.13,24.779.15v8.517l-49.72-.3.051-8.37ZM358.533,418.9l7.347.044-.046,7.723-7.347-.045Zm14.86,7.811.092-15.353,7.348.044-.093,15.334h-3.36Zm14.915-1.428.119-19.832,7.348.045-.128,21.241H388.3Z" fill="#96762e"/><polygon points="524.363 627.825 480.912 577.637 167.49 577.637 124.04 627.825 123.997 627.825 123.997 634.132 524.367 634.132 524.367 627.825 524.363 627.825" fill="#fff"/><path d="M525.353,627.754a1.019,1.019,0,0,0-.047-.231.961.961,0,0,0-.032-.108.992.992,0,0,0-.155-.245l-.041-.047-.006-.007-43.4-50.134a1,1,0,0,0-.756-.346H167.49a1,1,0,0,0-.756.346l-43.351,50.073a.983.983,0,0,0-.385.77v6.307a1,1,0,0,0,1,1H524.367a1,1,0,0,0,1-1v-6.307C525.367,627.8,525.355,627.779,525.353,627.754ZM167.382,579.288a.771.771,0,0,0,.118.024l313.537,0,41.137,47.517H126.228Zm355.985,53.844H125v-4.307H523.367Z" fill="#232639"/><path d="M373.2,617.842l-10.642-34.067c-.006-.02-.022-.034-.029-.053a.945.945,0,0,0-.059-.108,1.044,1.044,0,0,0-.154-.229c-.014-.013-.03-.022-.043-.034a1.01,1.01,0,0,0-.274-.185c-.013-.005-.026-.006-.038-.011a.976.976,0,0,0-.343-.069c-.006,0-.01,0-.016,0H298.853a.978.978,0,0,0-.283-.109,1,1,0,0,0-.6.109H176.179a1,1,0,0,0-.771.363l-28.1,34.059a.993.993,0,0,0-.168.952v3.1a1,1,0,0,0,1,1h224.1a1,1,0,0,0,1-1v-3.418a.924.924,0,0,0-.03-.148A.978.978,0,0,0,373.2,617.842ZM165.1,599.088h12.177l-5.015,7.3H159.074Zm6.721-8.146h11.055l-4.225,6.146h-11.9Zm29.217-5.859-2.443,3.859H186.673l2.653-3.859Zm15.5,0-2.4,3.858H200.958l2.442-3.859Zm14.631,0L229,588.941H216.489l2.4-3.858Zm13.886,0-1.932,3.858H231.29l2.166-3.858Zm13.657,0L257,588.941H245.354l1.932-3.858Zm13.656,0-1.474,3.858h-11.7l1.7-3.858Zm12.757,0-1.082,3.858H273.029l1.475-3.858Zm12.083,0-.649,3.858H286.114l1.081-3.858Zm63.665,0,1.2,3.857H338.718l-.358-3.857Zm-94.5,21.3,2.789-7.3h12.042l-2.045,7.3Zm-14.881,0,3.224-7.3h12.3l-2.788,7.3Zm-29.984,0,4.1-7.3h12.444l-3.653,7.3Zm-15.843,0,4.532-7.3H223.3l-4.1,7.3Zm117.845-9.3H311.215l.475-6.147H323.5Zm2-6.147h11.4l.57,6.147H325.5Zm-16.29,6.147h-12l1.033-6.146h11.44Zm-14.025,0H283.831l1.723-6.146h10.663Zm-13.43,0H269.916l2.349-6.146h11.212Zm-13.98,0H255.588l2.716-6.146h11.819Zm-14.372,0H241.275l3.078-6.147h11.764Zm-14.363,0H226.716l3.451-6.147h11.949Zm-14.616,0h-13l3.818-6.147h12.628Zm-15.348,0H195.8l3.89-6.146h13.2Zm-1.242,2-4.533,7.3H189.917l4.619-7.3Zm32.441,0h12.244l-3.224,7.3H236.621Zm43,0h11.577l-1.226,7.3h-12.4Zm13.6,0h12.178l-.564,7.3H295.65Zm14.184,0H323.5v7.3h-13Zm14.439,0H337.65l.677,7.3H325.5Zm14.16,0h12l1.407,7.3H340.335Zm13.8-1.187a.971.971,0,0,0-.047-.116,1.1,1.1,0,0,0-.064-.155,1.015,1.015,0,0,0-.119-.177.956.956,0,0,0-.119-.119.935.935,0,0,0-.17-.114.861.861,0,0,0-.165-.07.916.916,0,0,0-.194-.04.984.984,0,0,0-.108-.022h-13l-.57-6.146H362.7l4.824,15.442H355.1Zm-16.754-8.959H325.5v-3.857h10.853Zm-13.21,0H311.845l.3-3.857H323.5Zm-13.66,0H298.581l.649-3.858h10.908Zm-112.514,2-3.891,6.146h-12.36l4.224-6.146ZM179.7,599.088h12.469l-4.618,7.3H174.684Zm6.586,9.3-5.5,8.682a.578.578,0,0,0-.029.075H167.29l6.019-8.757Zm2.367,0h13.406l-5.4,8.69c-.013.021-.014.045-.025.067H183.109Zm15.76,0H234.7a1.012,1.012,0,0,0,.265.063,1,1,0,0,0,.329-.063h44.27c.019.006.032.02.051.026a1.009,1.009,0,0,0,.27.037.99.99,0,0,0,.339-.063H323.5v8.759H198.972ZM325.5,617.142v-8.759h13.013l.813,8.759Zm15.835,0-.813-8.759h12.928l1.689,8.759Zm15.841,0-1.689-8.759h12.66l2.735,8.76ZM176.651,585.083H186.9l-2.652,3.859h-10.78Zm-19.227,23.3h13.458l-5.946,8.651a.991.991,0,0,0-.045.106H150.2ZM371.241,620.56h-222.1v-1.418h222.1Z" fill="#232639"/><path d="M425.378,617.8a.483.483,0,0,0-.022-.064c0-.01,0-.021-.01-.031l-5.2-10.626a1,1,0,0,0-.9-.561l-11.028-.038-3.425-8.754a1,1,0,0,0-.931-.636H391.206a1,1,0,0,0-.941,1.341c.029.081,1.374,3.8,2.89,8l-11.6-.04h0a1.04,1.04,0,0,0-.125.015c-.015,0-.029,0-.045,0s-.015.007-.024.009a.994.994,0,0,0-.291.105.562.562,0,0,0-.05.035.939.939,0,0,0-.194.162c-.017.019-.035.037-.051.057s-.025.025-.036.039a.976.976,0,0,0-.117.224.357.357,0,0,0-.01.035,1,1,0,0,0-.049.276c0,.015-.008.028-.008.043v1.581a.984.984,0,0,0,.049.309l3.843,11.863c.005.017.017.03.023.047.015.037.036.068.054.1a.966.966,0,0,0,.133.2.924.924,0,0,0,.089.088.912.912,0,0,0,.195.131.965.965,0,0,0,.106.055.994.994,0,0,0,.335.067c.006,0,.011,0,.017,0h39.055a1,1,0,0,0,1-1v-2.69c0-.014-.008-.026-.009-.04A.94.94,0,0,0,425.378,617.8Zm-6.753-9.284,4.22,8.628H412.4l-3.389-8.661Zm-19.514,8.628c-.488-1.416-1.771-5-3.106-8.706l10.853.038,3.392,8.668Zm-6.48-18.054h10.555l2.888,7.383-10.79-.037C394.219,603.481,393.208,600.682,392.631,599.088Zm1.245,9.341c1.248,3.465,2.489,6.922,3.117,8.713H386.08l-3.112-8.751Zm29.572,11.4H386.393v-.69h37.055Z" fill="#232639"/><path d="M500.563,618.1a.991.991,0,0,0-.07-.344c0-.009-.01-.015-.013-.023a1,1,0,0,0-.127-.216l-27.2-34.059a1,1,0,0,0-.782-.376H422.352a.91.91,0,0,0-.158.02c-.021,0-.042,0-.063,0l-.016.007a1,1,0,0,0-.272.112c-.027.017-.05.037-.075.055a.963.963,0,0,0-.154.139,1.013,1.013,0,0,0-.067.08c-.012.017-.029.031-.041.049a1.056,1.056,0,0,0-.069.149c-.009.022-.022.042-.03.064a1,1,0,0,0-.052.3c0,.008,0,.015,0,.024V586.3a1.006,1.006,0,0,0,.094.425l16.194,34.494,0,.008.014.029a.977.977,0,0,0,.181.26c.023.024.051.042.077.065a.948.948,0,0,0,.2.136.8.8,0,0,0,.1.047.977.977,0,0,0,.322.065c.006,0,.012,0,.018,0h61.009a1,1,0,0,0,1-1v-2.69C500.571,618.128,500.563,618.116,500.563,618.1Zm-65.02-33.018,2.166,3.859H425.772l-1.836-3.859Zm12.747,0,2.359,3.859H440l-2.166-3.859Zm12.046,0,2.7,3.859h-10.04l-2.36-3.859Zm21.142,12h-10.31l-4.3-6.147h9.7Zm-12.75,0H457.975l-3.759-6.147h10.215Zm-26.448,0H429.65l-2.926-6.147h12.107Zm-1.156-6.147h10.748l3.758,6.147H444.573ZM430.6,599.089h12.8l4.1,7.3H434.076Zm19.188,7.3-4.1-7.3h11.158l4.462,7.3Zm9.407-7.3h10.928l5.1,7.3H463.659Zm-20,18.053-4.167-8.755h27.51l5.353,8.755Zm31.04,0-5.353-8.755h11.742l6.12,8.756Zm14.92,0a.947.947,0,0,0-.05-.113l-12.539-17.94h10.509l14.418,18.054Zm-10.183-28.2h-9.5l-2.7-3.859h9.114Zm23.6,30.89H439.563v-.69h59.008Z" fill="#232639"/><path d="M414.989,591.476v-1.534c0-.012-.007-.023-.008-.035a.959.959,0,0,0-.062-.306c-.008-.023-.013-.046-.023-.068a.2.2,0,0,0-.008-.026l-2.921-5.979a1,1,0,0,0-.9-.562H373.93c-.027,0-.053.008-.079.01s-.05-.006-.075,0-.032.014-.05.018a.739.739,0,0,0-.351.152.922.922,0,0,0-.149.122.872.872,0,0,0-.078.084.333.333,0,0,0-.025.028c-.012.016-.012.036-.023.053a.969.969,0,0,0-.13.312,1.041,1.041,0,0,0-.023.124c0,.033-.017.062-.017.1v.956a.991.991,0,0,0,.047.3l1.861,5.878v.38a1,1,0,0,0,1,1h38.151A1,1,0,0,0,414.989,591.476Zm-28.757-6.51,1.427,3.98H376.573l-1.272-3.98Zm12.764,0,1.585,3.98h-10.8l-1.427-3.98Zm13.392,3.98h-9.654l-1.585-3.98h9.3Z" fill="#232639"/></svg>