<svg xmlns="http://www.w3.org/2000/svg" viewBox="0 0 640 300"><rect width="640" height="300" opacity="0"/><path d="M379.018,31.459,376.641,28.7l2.377-2.761L381.39,28.7Zm2.372,27.762-2.372-2.762-2.377,2.762,2.377,2.761ZM376.645,43.8l2.374,2.762,2.372-2.762-2.372-2.762Zm31.263,15.425-2.376-2.762-2.372,2.762,2.372,2.761ZM394.647,28.7l-2.372-2.761L389.9,28.7l2.372,2.762Zm0,30.528-2.372-2.762L389.9,59.225l2.372,2.761Zm0-15.425-2.372-2.762L389.9,43.8l2.372,2.762Zm-39.771,0L352.5,41.038,350.132,43.8l2.372,2.762Zm0-15.1L352.5,25.936,350.132,28.7l2.372,2.762Zm0,30.524L352.5,56.459l-2.372,2.762,2.372,2.761ZM368.132,43.8l-2.372-2.762L363.388,43.8l2.372,2.762Zm0,15.421-2.372-2.762-2.372,2.762,2.372,2.761Zm0-30.524-2.372-2.761L363.388,28.7l2.372,2.762Zm-26.509,0-2.376-2.761L336.875,28.7l2.372,2.762ZM447.582,43.8l-2.374-2.762L442.836,43.8l2.372,2.762Zm0,15.421-2.376-2.762-2.372,2.762,2.372,2.761ZM434.323,28.7l-2.372-2.761L429.579,28.7l2.372,2.762Zm13.261,0-2.376-2.761L442.836,28.7l2.372,2.762Zm13.254,30.524-2.372-2.762-2.372,2.762,2.372,2.761Zm0-15.421-2.372-2.762L456.094,43.8l2.372,2.762Zm-52.93-15.1-2.376-2.761L403.16,28.7l2.372,2.762Zm13.159,30.528L418.7,56.463l-2.372,2.762,2.372,2.761ZM434.323,43.8l-2.372-2.762L429.579,43.8l2.372,2.762Zm-26.417,0-2.374-2.762L403.16,43.8l2.372,2.762Zm13.161,0L418.7,41.038,416.323,43.8l2.372,2.762Zm13.256,15.421-2.372-2.762-2.372,2.762,2.372,2.761ZM421.067,28.7,418.7,25.936,416.323,28.7l2.372,2.762Zm39.771,0-2.372-2.761L456.094,28.7l2.372,2.762ZM376.645,227.95l2.374,2.762,2.372-2.762-2.372-2.762Zm4.745-15.427-2.372-2.761-2.377,2.761,2.377,2.762ZM389.9,227.95l2.372,2.762,2.372-2.762-2.372-2.762Zm-26.515-15.427,2.372,2.762,2.372-2.762-2.372-2.761Zm26.515,0,2.372,2.762,2.372-2.762-2.372-2.761ZM363.388,197.1l2.372,2.762,2.372-2.762-2.372-2.761Zm0-15.428,2.372,2.762,2.372-2.762-2.372-2.761ZM403.16,197.1l2.372,2.762,2.376-2.762-2.376-2.761ZM363.388,227.95l2.372,2.762,2.372-2.762-2.372-2.762ZM389.9,197.1l2.372,2.762,2.372-2.762-2.372-2.761Zm13.257-15.426,2.372,2.762,2.376-2.762-2.376-2.761Zm0,30.851,2.372,2.762,2.376-2.762-2.376-2.761ZM389.9,181.672l2.372,2.762,2.372-2.762-2.372-2.761ZM403.16,227.95l2.372,2.762,2.374-2.762-2.374-2.762Zm-66.285-15.427,2.372,2.762,2.376-2.762-2.376-2.761ZM315.105,28.7l-2.372-2.761L310.361,28.7l2.372,2.762ZM352.37,184.278l.134.156,2.372-2.762-.6-.7ZM328.361,59.221l-2.372-2.762-2.372,2.762,2.372,2.761Zm0-15.421-2.372-2.762L323.617,43.8l2.372,2.762Zm-26.51-15.1-2.377-2.761L297.1,28.7l2.372,2.762Zm26.51,0-2.372-2.761L323.617,28.7l2.372,2.762ZM315.105,43.8l-2.372-2.762L310.361,43.8l2.372,2.762Zm10.629,186.615.255.3,2.372-2.762-.719-.838Zm24.4-17.892,2.372,2.762,2.372-2.762-2.372-2.761Zm0-15.423,2.372,2.762,2.372-2.762-2.372-2.761Zm0,30.85,2.372,2.762,2.372-2.762-2.372-2.762ZM341.62,43.8l-2.374-2.762L336.874,43.8l2.372,2.762Zm-4.746,184.15,2.372,2.762,2.374-2.762-2.374-2.762Zm79.449,0,2.372,2.762,2.372-2.762-2.372-2.762ZM513.87,105.5l-2.376-2.761-2.372,2.761,2.372,2.762Zm-134.852,73.41-2.377,2.761,2.377,2.762,2.372-2.762ZM376.641,197.1l2.377,2.762,2.372-2.762-2.372-2.761ZM513.87,90.076l-2.376-2.762-2.372,2.762,2.372,2.761Zm0-30.855-2.376-2.762-2.372,2.762,2.372,2.761Zm0,15.429-2.376-2.762-2.372,2.762,2.372,2.761ZM312.733,56.459l-1.62,1.886,1.907,3.3,2.085-2.427ZM513.868,43.8l-2.374-2.762L509.122,43.8l2.372,2.762Zm0-15.1-2.376-2.761L509.122,28.7l2.372,2.762Zm66.281,61.379-2.376-2.762L575.4,90.076l2.372,2.761Zm0-30.855-2.376-2.762L575.4,59.221l2.372,2.761Zm0-30.524-2.376-2.761L575.4,28.7l2.372,2.762Zm0,76.8-2.376-2.761L575.4,105.5l2.372,2.762Zm-4.743-61.7,2.372,2.762,2.374-2.762-2.374-2.762Zm4.743,30.85-2.376-2.762L575.4,74.65l2.372,2.761Zm0,107.022-2.376-2.761-2.372,2.761,2.372,2.762Zm0-15.425-2.376-2.761-2.372,2.761,2.372,2.762Zm0-46.276-2.376-2.762-2.372,2.762,2.372,2.761Zm0,77.129-2.376-2.761L575.4,197.1l2.372,2.762Zm0-46.282-2.376-2.758-2.372,2.761,2.372,2.759Zm0-15.422-2.376-2.762L575.4,135.4l2.372,2.761ZM341.623,59.221l-2.376-2.762-2.372,2.762,2.372,2.761ZM364.247,73.65h3.026l-1.513-1.762Zm-13.256,0h3.026L352.5,71.888Zm-11.744-1.762-1.513,1.762h3.029ZM377.5,73.65h3.029l-1.513-1.762Zm13.26,0h3.026l-1.513-1.762Zm26.42,0h3.026L418.7,71.888Zm-13.163,0h3.029l-1.516-1.762ZM474.1,28.7l-2.372-2.761L469.351,28.7l2.372,2.762ZM470.21,73.65h3.026l-1.513-1.762ZM474.1,59.221l-2.372-2.762-2.372,2.762,2.372,2.761Zm0-15.421-2.372-2.762L469.351,43.8l2.372,2.762ZM324.476,73.65H327.5l-1.513-1.762Zm159.179,2.215V75.65h-.185ZM430.438,73.65h3.026l-1.513-1.762Zm26.515,0h3.026l-1.513-1.762Zm-13.258,0h3.029l-1.516-1.762Zm91.942,46.321,2.372,2.761,2.372-2.761-2.372-2.762Zm0,15.425,2.372,2.761,2.372-2.761-2.372-2.762Zm0,61.7,2.372,2.762,2.372-2.762-2.372-2.761Zm0-107.024,2.372,2.761,2.372-2.761-2.372-2.762Zm0,60.745,2.372,2.762,2.372-2.762-2.372-2.761Zm0,30.851,2.372,2.762,2.372-2.762-2.372-2.761Zm0-15.425,2.372,2.762,2.372-2.762-2.372-2.761Zm0-60.746,2.372,2.762,2.372-2.762-2.372-2.761ZM548.892,227.95l2.374,2.762,2.372-2.762-2.372-2.762ZM535.637,28.7l2.372,2.762,2.372-2.762-2.372-2.761Zm13.254,183.826,2.376,2.762,2.372-2.762-2.372-2.761ZM535.637,43.8l2.372,2.762,2.372-2.762-2.372-2.762Zm0,30.85,2.372,2.761,2.372-2.761-2.372-2.762Zm0-15.429,2.372,2.761,2.372-2.761-2.372-2.762Zm-13.257,60.75,2.372,2.761,2.372-2.761-2.372-2.762Zm0,30.85,2.372,2.762,2.372-2.762-2.372-2.761Zm0-15.425,2.372,2.761,2.372-2.761-2.372-2.762Zm13.257,77.127,2.372,2.762,2.372-2.762-2.372-2.761ZM522.38,181.672l2.372,2.762,2.372-2.762-2.372-2.761Zm0-15.425,2.372,2.762,2.372-2.762-2.372-2.761Zm0-60.746,2.372,2.762,2.372-2.762-2.372-2.761Zm31.255,14.474-2.372-2.762-2.376,2.762,2.38,2.757ZM522.38,43.8l2.372,2.762,2.372-2.762-2.372-2.762Zm0-15.1,2.372,2.762,2.372-2.762-2.372-2.761Zm0,168.4,2.372,2.762,2.372-2.762-2.372-2.761Zm0-107.024,2.372,2.761,2.372-2.761-2.372-2.762Zm0-15.426,2.372,2.761,2.372-2.761-2.372-2.762Zm0-15.429,2.372,2.761,2.372-2.761-2.372-2.762ZM535.637,227.95l2.372,2.762,2.372-2.762-2.372-2.762Zm26.514-107.979,2.372,2.761,2.372-2.761-2.372-2.762Zm0,15.425,2.372,2.761L566.9,135.4l-2.372-2.762Zm0-29.895,2.372,2.762L566.9,105.5l-2.372-2.761Zm0,76.171,2.372,2.762,2.372-2.762-2.372-2.761Zm0-91.6,2.372,2.761,2.372-2.761-2.372-2.762ZM416.323,212.523l2.372,2.762,2.372-2.762-2.372-2.761Zm145.828-46.276,2.372,2.762,2.372-2.762-2.372-2.761Zm18,46.276-2.376-2.761-2.372,2.761,2.372,2.762Zm-4.744,15.427,2.372,2.762,2.374-2.762-2.374-2.762ZM562.151,28.7l2.372,2.762L566.9,28.7l-2.372-2.761Zm0,30.524,2.372,2.761,2.372-2.761-2.372-2.762Zm0,15.429,2.372,2.761L566.9,74.65l-2.372-2.762Zm0-30.85,2.372,2.762L566.9,43.8l-2.372-2.762Zm-13.26,15.425,2.376,2.761,2.372-2.761-2.372-2.762Zm0,76.171,2.376,2.761,2.372-2.761-2.372-2.762Zm0,15.422,2.376,2.762,2.372-2.762-2.372-2.761Zm0-60.742,2.376,2.761,2.372-2.761-2.372-2.762Zm0,15.425,2.376,2.762,2.372-2.762-2.372-2.761Zm0,60.746,2.376,2.762,2.372-2.762-2.372-2.761Zm0,15.425,2.376,2.762,2.372-2.762-2.372-2.761Zm0-107.022,2.376,2.761,2.372-2.761-2.372-2.762Zm13.26,153.3,2.372,2.762,2.372-2.762-2.372-2.762ZM548.891,28.7l2.376,2.762,2.372-2.762-2.372-2.761Zm13.26,183.826,2.372,2.762,2.372-2.762-2.372-2.761ZM551.266,41.038,548.892,43.8l2.374,2.762,2.372-2.762ZM548.891,197.1l2.376,2.762,2.372-2.762-2.372-2.761Zm13.26,0,2.372,2.762L566.9,197.1l-2.372-2.761Zm0-46.279,2.372,2.762,2.372-2.762-2.372-2.761ZM482.607,227.95l2.374,2.762,2.372-2.762-2.372-2.762Zm0-15.427,2.376,2.762,2.372-2.762-2.372-2.761Zm-13.258-30.851,2.372,2.762,2.372-2.762-2.372-2.761ZM482.609,197.1l2.376,2.762,2.372-2.762-2.372-2.761Zm-13.258,0,2.372,2.762L474.1,197.1l-2.372-2.761Zm0,30.85,2.372,2.762,2.372-2.762-2.372-2.762Zm0-15.427,2.372,2.762,2.372-2.762-2.372-2.761Zm16.3-44.293,1.7-1.983-1.7-1.982Zm0-46.277,1.7-1.982-1.7-1.983Zm0,15.425,1.7-1.982-1.7-1.983Zm0-29.894,1.7-1.983-1.7-1.982Zm0,45.317,1.7-1.983-1.7-1.98Zm-3.046,28.871,2.376,2.762,2.372-2.762-2.372-2.761Zm-26.515,0,2.372,2.762,2.372-2.762-2.372-2.761Zm-26.515,0,2.372,2.762,2.372-2.762-2.372-2.761Zm0,46.278,2.372,2.762,2.372-2.762-2.372-2.762Zm0-15.427,2.372,2.762,2.372-2.762-2.372-2.761Zm0-15.423,2.372,2.762,2.372-2.762-2.372-2.761Zm-13.256,0,2.372,2.762,2.372-2.762-2.372-2.761Zm0-15.426,2.372,2.762,2.372-2.762-2.372-2.761Zm69.332-89.614,1.7-1.982-1.7-1.983Zm-42.819,89.614,2.372,2.762,2.376-2.762-2.376-2.761ZM456.094,197.1l2.372,2.762,2.372-2.762-2.372-2.761Zm0,30.85,2.372,2.762,2.372-2.762-2.372-2.762Zm66.286-15.427,2.372,2.762,2.372-2.762-2.372-2.761ZM442.836,197.1l2.372,2.762,2.376-2.762-2.376-2.761Zm0,30.85,2.372,2.762,2.374-2.762-2.374-2.762Zm0-15.427,2.372,2.762,2.376-2.762-2.376-2.761Zm13.258,0,2.372,2.762,2.372-2.762-2.372-2.761ZM495.865,28.7l2.372,2.762,2.372-2.762-2.372-2.761ZM509.122,227.95l2.372,2.762,2.374-2.762-2.374-2.762Zm0-15.427,2.372,2.762,2.376-2.762-2.376-2.761Zm0-15.423,2.372,2.762,2.376-2.762-2.376-2.761ZM495.865,43.8l2.372,2.762,2.372-2.762-2.372-2.762Zm0,15.421,2.372,2.761,2.372-2.761-2.372-2.762Zm13.261,60.754,2.372,2.761,2.376-2.761-2.38-2.766ZM483.47,73.65h1.185a1,1,0,0,1,1,1v1.982l1.7-1.982-2.372-2.762Zm12.395,1,2.372,2.761,2.372-2.761-2.372-2.762Zm26.515,153.3,2.372,2.762,2.372-2.762-2.372-2.762Zm-13.258-77.129,2.372,2.762,2.376-2.762-2.376-2.761Zm0,15.426,2.372,2.762,2.376-2.762-2.376-2.761Zm0,15.425,2.372,2.762,2.376-2.762-2.376-2.761Zm0-46.276,2.372,2.761,2.376-2.761-2.376-2.762Zm-13.257,61.7,2.372,2.762,2.372-2.762-2.372-2.761Zm0,30.85,2.372,2.762,2.372-2.762-2.372-2.762Zm0-15.427,2.372,2.762,2.372-2.762-2.372-2.761ZM482.609,28.7l2.376,2.762,2.372-2.762-2.372-2.761Zm4.744,15.1-2.372-2.762L482.607,43.8l2.374,2.762Zm-4.744,15.421,2.376,2.761,2.372-2.761-2.372-2.762Zm13.256,91.6,2.372,2.762,2.372-2.762-2.372-2.761Zm0-30.85,2.372,2.761,2.372-2.761-2.372-2.762Zm0-14.47,2.372,2.762,2.372-2.762-2.372-2.761Zm0,29.895,2.372,2.761,2.372-2.761-2.372-2.762Zm0,46.276,2.372,2.762,2.372-2.762-2.372-2.761Zm0-15.425,2.372,2.762,2.372-2.762-2.372-2.761Zm0-76.171,2.372,2.761,2.372-2.761-2.372-2.762Z" fill="#f2e2d3"/><path d="M184.27,171.262V74.65H320.526L288,18.307a2.916,2.916,0,0,0-2.531-1.461H126.956a2.921,2.921,0,0,0-2.531,1.461L91.9,74.65h6.334v96.612H52.538l14.73,25.513H256.38v96.612H123.043l1.382,2.393a2.923,2.923,0,0,0,2.531,1.461H285.467A2.916,2.916,0,0,0,288,295.78l71.887-124.518Z" fill="#f7f5eb"/><circle cx="272.753" cy="141.667" r="15.542" fill="#eee0fa"/><path d="M98.231,172.262H1.62a1,1,0,0,1-1-1V74.65a1,1,0,0,1,1-1H98.231a1,1,0,0,1,1,1v96.612A1,1,0,0,1,98.231,172.262Zm-95.611-2H97.231V75.65H2.62Z" fill="#232639"/><path d="M49.925,156.562a31.191,31.191,0,1,1,31.192-31.191A31.226,31.226,0,0,1,49.925,156.562Zm0-60.382a29.191,29.191,0,1,0,29.192,29.191A29.224,29.224,0,0,0,49.925,96.18Z" fill="#232639"/><path d="M69,124.428H51.145V107.784a1,1,0,0,0-2,0v16.644H31.293a1,1,0,0,0,0,2H49.145v16.646a1,1,0,0,0,2,0V126.428H69a1,1,0,0,0,0-2Z" fill="#232639"/><path d="M256.38,294.387H1.62a1,1,0,0,1-1-1V196.775a1,1,0,0,1,1-1H256.38a1,1,0,0,1,1,1v96.612A1,1,0,0,1,256.38,294.387Zm-253.76-2H255.38V197.775H2.62Z" fill="#232639"/><path d="M484.655,172.262H184.27a1,1,0,0,1-1-1V74.65a1,1,0,0,1,1-1H484.655a1,1,0,0,1,1,1v96.612A1,1,0,0,1,484.655,172.262Zm-299.385-2H483.655V75.65H185.27Z" fill="#232639"/><polygon points="433.97 136.852 422.098 124.98 433.97 113.108 432.274 111.412 420.402 123.284 408.531 111.412 406.835 113.109 418.706 124.98 406.835 136.851 408.531 138.547 420.402 126.676 432.274 138.548 433.97 136.852" fill="#232639"/><path d="M274.363,148.72h-2.95V137.348l-3.522,1.092v-2.4l6.156-2.206h.316Z" fill="#232639"/><rect x="302.637" y="111.466" width="80.277" height="8.751" fill="#232639"/><rect x="302.668" y="126.916" width="55.58" height="8.751" fill="#232639"/><rect x="198.928" y="221.653" width="27.789" height="8.751" fill="#232639"/><rect x="198.928" y="241.159" width="27.789" height="8.751" fill="#232639"/><rect x="198.928" y="260.665" width="27.789" height="8.751" fill="#232639"/><path d="M42.557,262.385a1,1,0,0,1-.292-1.956c2.615-.8,6.624-2.472,7.348-3.68.88-1.466,7.407-19.376,11.579-31.056a1,1,0,0,1,.942-.664h5.832a1,1,0,0,1,.777.37l12.263,15.12c9.29,1.749,10.931,2.065,11.221,2.707,1.328,1.177,8.743,7.115,13.572,10.951h12.394l33.161-11.421a1,1,0,0,1,.326-.055h27.067a1,1,0,0,1,0,2h-26.9l-33.161,11.421a1,1,0,0,1-.325.055H105.45a1,1,0,0,1-.622-.217c-9.8-7.78-12.993-10.349-14.035-11.394-.815-.264-5.96-1.292-10.517-2.15a1,1,0,0,1-.592-.353L67.489,227.029h-4.65c-1.806,5.046-10.313,28.753-11.511,30.749-1.377,2.3-7.3,4.2-8.478,4.563A1,1,0,0,1,42.557,262.385Z" fill="#d1a3f5"/><path d="M86.5,259.312a1,1,0,0,1-.642-.233L65.442,242.015,43.025,253.882a1,1,0,0,1-.935-1.768L65.1,239.933a1,1,0,0,1,1.11.116l20.234,16.916,21.219-20.694a1,1,0,0,1,1.168-.167l16.447,8.753c14.482-18.066,15.289-18.065,15.88-18.065h37.587a1,1,0,0,1,0,2H141.432c-1.456,1.225-8.746,10.012-15.111,17.963a1,1,0,0,1-1.25.258l-16.534-8.8L87.194,259.027A1,1,0,0,1,86.5,259.312Z" fill="#232639"/><path d="M178.745,274.092H33.394a1,1,0,0,1-1-1V219.366a1,1,0,0,1,2,0v52.726H178.745a1,1,0,0,1,0,2Z" fill="#232639"/><path d="M272.753,125.125a16.432,16.432,0,0,0-9.6,3.094l-4.509-8.727-2.294-11.923a1,1,0,0,0-.981-.811h-4.327V99.025a1,1,0,0,0-1-1h-6.822a1,1,0,0,0-1,1v7.733h-4.877a1,1,0,0,0-.985.826l-2.1,11.916-6.438,12.569h-1.567a1,1,0,0,0-.9.556l-4.257,8.59a1,1,0,0,0,.9,1.444h12.818a1.039,1.039,0,0,0,.126.008h4.207l3.552,4.812a1,1,0,0,0,.8.406h6.469a1,1,0,0,0,.779-.372l3.9-4.846h1.607a16.532,16.532,0,1,0,16.491-17.542Zm-28.531-25.1h4.822v6.733h-4.822Zm-8.115,20.253A1.009,1.009,0,0,0,236.2,120l1.982-11.238h16.361l2.165,11.253a.993.993,0,0,0,.093.27l4.768,9.231a16.671,16.671,0,0,0-2.256,2.569H230.062ZM249.5,145.885h-5.486l-2.375-3.218h10.453Zm4.682-5.218H235.066a.865.865,0,0,0-.125-.008H223.609l3.265-6.59h1.245c.022,0,.04.013.063.013h29.912a16.387,16.387,0,0,0-1.832,6.586Zm18.576,15.541A14.542,14.542,0,1,1,287.3,141.667,14.558,14.558,0,0,1,272.753,156.208Z" fill="#232639"/></svg>