<svg id="Group_7830" data-name="Group 7830" xmlns="http://www.w3.org/2000/svg" xmlns:xlink="http://www.w3.org/1999/xlink" width="504.154" height="311.977" viewBox="0 0 504.154 311.977">
  <defs>
    <clipPath id="clip-path">
      <rect id="Rectangle_6651" data-name="Rectangle 6651" width="504.154" height="311.977" fill="none"/>
    </clipPath>
    <clipPath id="clip-path-2">
      <path id="Path_131624" data-name="Path 131624" d="M325.9,170.16c-8.646,0-7.546-9.335-15.642-9.335s-8.1,15.823-16.193,15.823-11.476-17.107-16.192-17.107l-.007,34.852h89.06V166.478c-1.906,3.7-3.942,7.5-8.1,7.5-8.1,0-8.1-18.773-16.192-18.773S334.545,170.16,325.9,170.16" fill="none"/>
    </clipPath>
  </defs>
  <g id="Group_7825" data-name="Group 7825">
    <g id="Group_7824" data-name="Group 7824" clip-path="url(#clip-path)">
      <path id="Path_131577" data-name="Path 131577" d="M487.281,118.839A42.338,42.338,0,1,1,444.943,76.5a42.338,42.338,0,0,1,42.338,42.338" fill="#eafaeb"/>
      <path id="Path_131578" data-name="Path 131578" d="M48.639,110.451a48.333,48.333,0,1,1,48.332,48.332,48.332,48.332,0,0,1-48.332-48.332" fill="#c6d4f4"/>
      <path id="Path_131579" data-name="Path 131579" d="M398.706,252.071a39.467,39.467,0,1,1,39.467,39.467,39.467,39.467,0,0,1-39.467-39.467" fill="#eee0fa"/>
      <path id="Path_131580" data-name="Path 131580" d="M159.691,126.232H355.712l9.8,9.8v131.1H149.893v-131.1Z" fill="#fff"/>
      <path id="Path_131581" data-name="Path 131581" d="M159.691,126.232H355.712l9.8,9.8v131.1H149.893v-131.1Z" fill="none" stroke="#232639" stroke-linecap="round" stroke-linejoin="round" stroke-width="2"/>
      <path id="Path_131582" data-name="Path 131582" d="M395.073,300.9H120.035l29.856-34.233H365.217Z" fill="none" stroke="#232639" stroke-linecap="round" stroke-linejoin="round" stroke-width="2"/>
      <path id="Path_131583" data-name="Path 131583" d="M385.222,310.977H129.862L120.01,300.9H395.072Z" fill="#fff"/>
      <path id="Path_131584" data-name="Path 131584" d="M385.222,310.977H129.862L120.01,300.9H395.072Z" fill="none" stroke="#232639" stroke-linecap="round" stroke-linejoin="round" stroke-width="2"/>
      <path id="Path_131585" data-name="Path 131585" d="M284.438,300.9l-3.535,3.489H232.972l-3.536-3.49Z" fill="#232639"/>
      <rect id="Rectangle_6643" data-name="Rectangle 6643" width="215.621" height="1.304" transform="translate(149.892 266.003)" fill="#232639"/>
      <rect id="Rectangle_6644" data-name="Rectangle 6644" width="215.621" height="1.304" transform="translate(149.892 266.003)" fill="none" stroke="#232639" stroke-linecap="round" stroke-linejoin="round" stroke-width="2"/>
      <path id="Path_131586" data-name="Path 131586" d="M319.971,300.9H195.109l10.5-16.666H311.93Z" fill="none" stroke="#232639" stroke-linecap="round" stroke-linejoin="round" stroke-width="2"/>
      <path id="Path_131587" data-name="Path 131587" d="M350.189,272.656h-185.3l-8.942,11.556H359.131Z" fill="#232639"/>
      <rect id="Rectangle_6645" data-name="Rectangle 6645" width="189.515" height="116.069" transform="translate(163.214 138.728)" fill="#f5f6fa"/>
      <rect id="Rectangle_6646" data-name="Rectangle 6646" width="189.515" height="116.069" transform="translate(163.214 138.728)" fill="none" stroke="#232639" stroke-linecap="round" stroke-linejoin="round" stroke-width="2"/>
      <path id="Path_131588" data-name="Path 131588" d="M289.724,67.449c-.139-.107-17.565-65.7-17.565-65.7L256.8,66.2l-17.837,12.88,11.244,5.7-3.212,4.71,16.973,1.433,7.23-7.13,2.436,4.371,3.121-5.412,13.537,6.358,23.747-2.618Z" fill="#e6f0fc"/>
      <path id="Path_131589" data-name="Path 131589" d="M289.724,67.449c-.139-.107-17.565-65.7-17.565-65.7L256.8,66.2l-17.837,12.88,11.244,5.7-3.212,4.71,16.973,1.433,7.23-7.13,2.436,4.371,3.121-5.412,13.537,6.358,23.747-2.618Z" fill="none" stroke="#232639" stroke-linecap="round" stroke-linejoin="round" stroke-width="2"/>
      <path id="Path_131590" data-name="Path 131590" d="M272.167,1.747l1.51,79.585,3.067,1.427-3.124,5.413L271.185,83.8l2.491-2.467,16.583,7.787L314.025,86.5,284.91,63.645l4.811,3.808-17.565-65.7-8.2,89.174-16.965-1.434,19.789-29.1" fill="#fff"/>
      <path id="Path_131591" data-name="Path 131591" d="M272.167,1.747l1.51,79.585,3.067,1.427-3.124,5.413L271.185,83.8l2.491-2.467,16.583,7.787L314.025,86.5,284.91,63.645l4.811,3.808-17.565-65.7-8.2,89.174-16.965-1.434,19.789-29.1" fill="none" stroke="#232639" stroke-linecap="round" stroke-linejoin="round" stroke-width="2"/>
      <path id="Path_131592" data-name="Path 131592" d="M250.2,84.785l-11.244-5.7L256.792,66.2" fill="none" stroke="#232639" stroke-linecap="round" stroke-linejoin="round" stroke-width="2"/>
      <path id="Path_131593" data-name="Path 131593" d="M263.96,90.929l9.733-9.6,16.423,7.723L272.156,1.755,256.794,66.2" fill="none" stroke="#232639" stroke-linecap="round" stroke-linejoin="round" stroke-width="2"/>
      <line id="Line_10934" data-name="Line 10934" x1="2.515" y2="12.576" transform="translate(254.277 66.199)" fill="none" stroke="#232639" stroke-linecap="round" stroke-linejoin="round" stroke-width="2"/>
      <path id="Path_131594" data-name="Path 131594" d="M272.158,1.75l12.753,61.894,4.811,3.805Z" fill="#c6d4f4"/>
      <path id="Path_131595" data-name="Path 131595" d="M272.158,1.75l12.753,61.894,4.811,3.805Z" fill="none" stroke="#232639" stroke-linecap="round" stroke-linejoin="round" stroke-width="2"/>
      <path id="Path_131596" data-name="Path 131596" d="M272.158,1l-8.2,89.924,9.717-9.593Z" fill="#c6d4f4"/>
      <path id="Path_131597" data-name="Path 131597" d="M272.158,1l-8.2,89.924,9.717-9.593Z" fill="none" stroke="#232639" stroke-linecap="round" stroke-linejoin="round" stroke-width="2"/>
      <path id="Path_131598" data-name="Path 131598" d="M276.745,82.755l-3.121,5.413L271.189,83.8l2.49-2.463Z" fill="#c6d4f4"/>
      <path id="Path_131599" data-name="Path 131599" d="M276.745,82.755l-3.121,5.413L271.189,83.8l2.49-2.463Z" fill="none" stroke="#232639" stroke-linecap="round" stroke-linejoin="round" stroke-width="2"/>
      <path id="Path_131600" data-name="Path 131600" d="M431.438,89.312c0-4,9.784-7.291,22.783-7.291s23.694,3.288,23.694,7.291v42.832c0,4-10.694,7.291-23.694,7.291s-22.783-3.287-22.783-7.291Z" fill="#eafaeb"/>
      <path id="Path_131601" data-name="Path 131601" d="M431.438,89.312c0-4,9.784-7.291,22.783-7.291s23.694,3.288,23.694,7.291v42.832c0,4-10.694,7.291-23.694,7.291s-22.783-3.287-22.783-7.291Z" fill="none" stroke="#232639" stroke-linecap="round" stroke-linejoin="round" stroke-width="2"/>
      <path id="Path_131602" data-name="Path 131602" d="M431.438,103.892c0,4,9.784,6.379,22.783,6.379s23.694-2.379,23.694-6.379" fill="none" stroke="#232639" stroke-linecap="round" stroke-linejoin="round" stroke-width="2"/>
      <path id="Path_131603" data-name="Path 131603" d="M431.438,118.477c0,4,9.784,6.379,22.783,6.379s23.694-2.379,23.694-6.379" fill="none" stroke="#232639" stroke-linecap="round" stroke-linejoin="round" stroke-width="2"/>
      <path id="Path_131604" data-name="Path 131604" d="M477.917,89.311c0,4-10.7,7.291-23.694,7.291s-22.783-3.288-22.783-7.291" fill="none" stroke="#232639" stroke-linecap="round" stroke-linejoin="round" stroke-width="2"/>
      <path id="Path_131605" data-name="Path 131605" d="M449.9,114.447A15.446,15.446,0,1,1,434.457,99,15.445,15.445,0,0,1,449.9,114.447Z" fill="#cef2cf"/>
      <path id="Path_131606" data-name="Path 131606" d="M434.457,99a15.446,15.446,0,1,1-15.446,15.446A15.446,15.446,0,0,1,434.457,99Z" fill="none" stroke="#232639" stroke-linecap="round" stroke-linejoin="round" stroke-width="2"/>
      <line id="Line_10935" data-name="Line 10935" x2="4.408" transform="translate(432.271 103.557)" fill="none" stroke="#232639" stroke-linecap="round" stroke-linejoin="round" stroke-width="2"/>
      <line id="Line_10936" data-name="Line 10936" x1="3.022" y2="3.022" transform="translate(435.613 111.074)" fill="none" stroke="#232639" stroke-linecap="round" stroke-linejoin="round" stroke-width="2"/>
      <line id="Line_10937" data-name="Line 10937" x2="1.965" y2="1.965" transform="translate(441.623 106.246)" fill="none" stroke="#232639" stroke-linecap="round" stroke-linejoin="round" stroke-width="2"/>
      <line id="Line_10938" data-name="Line 10938" x1="2.998" transform="translate(424.19 111.638)" fill="none" stroke="#232639" stroke-linecap="round" stroke-linejoin="round" stroke-width="2"/>
      <line id="Line_10939" data-name="Line 10939" x1="2.998" transform="translate(424.19 118.984)" fill="none" stroke="#232639" stroke-linecap="round" stroke-linejoin="round" stroke-width="2"/>
      <line id="Line_10940" data-name="Line 10940" x1="2.998" transform="translate(425.66 115.312)" fill="none" stroke="#232639" stroke-linecap="round" stroke-linejoin="round" stroke-width="2"/>
      <path id="Path_131607" data-name="Path 131607" d="M435.944,115.312a1.469,1.469,0,1,1-1.47-1.47,1.47,1.47,0,0,1,1.47,1.47" fill="#232639"/>
      <path id="Path_131608" data-name="Path 131608" d="M428.658,121.922a8.815,8.815,0,1,0,0-13.223" fill="none" stroke="#232639" stroke-linecap="round" stroke-linejoin="round" stroke-width="2"/>
      <path id="Path_131609" data-name="Path 131609" d="M443.176,249.739v34.487l29.989,16.493,29.989-16.493V249.739l-29.989-16.494Z" fill="#eee0fa"/>
      <path id="Path_131610" data-name="Path 131610" d="M443.176,249.739v34.487l29.989,16.493,29.989-16.493V249.739l-29.989-16.494Z" fill="none" stroke="#232639" stroke-linecap="round" stroke-linejoin="round" stroke-width="2"/>
      <path id="Path_131611" data-name="Path 131611" d="M475.921,239.243l-2.249,8.622h5.249l-9,12.37,2.25-8.621h-5.247Z" fill="#9b61cb"/>
      <path id="Path_131612" data-name="Path 131612" d="M475.921,239.243l-2.249,8.622h5.249l-9,12.37,2.25-8.621h-5.247Z" fill="none" stroke="#232639" stroke-linecap="round" stroke-linejoin="round" stroke-width="2"/>
      <path id="Path_131613" data-name="Path 131613" d="M455.725,268.1h5.758a6.315,6.315,0,0,1,4.568,1.684,5.205,5.205,0,0,1,.806,4.2,7.954,7.954,0,0,1-.715,2.383,7.066,7.066,0,0,1-1.474,2.114,5.145,5.145,0,0,1-2.464,1.512,13.065,13.065,0,0,1-2.9.45h-2.763l-.823,4.111h-3.289l3.289-16.447Zm1.525,9.614c.092.016.6.022.6.022a12.133,12.133,0,0,0,3.685-.437q1.475-.482,1.98-3.348.415-2.4-.829-2.773a10.425,10.425,0,0,0-3.06-.342c-.183.016-.993,0-.993,0Z" fill="#232639"/>
      <path id="Path_131614" data-name="Path 131614" d="M470.53,263.984h3.29l-.813,4.112,2.632.127a5.754,5.754,0,0,1,3.5.962q1.176.916.692,3.484l-1.9,7.764h-3.292l1.895-7.419a1.755,1.755,0,0,0-.138-1.628,1.925,1.925,0,0,0-1.594-.5l-2.4-.056-1.873,9.607h-3.28Z" fill="#232639"/>
      <path id="Path_131615" data-name="Path 131615" d="M483.688,268.1l5.733.125a4.793,4.793,0,0,1,3.94,1.558,5.2,5.2,0,0,1,.8,4.2,8.019,8.019,0,0,1-.714,2.383,7.066,7.066,0,0,1-1.474,2.114,5.136,5.136,0,0,1-2.465,1.512,14.579,14.579,0,0,1-3.06.45h-2.763l-.822,4.112h-3.29Zm.87,9.614c.092.016.6.022.6.022a12.133,12.133,0,0,0,3.685-.437q1.475-.482,1.98-3.348.414-2.4-.829-2.773a10.425,10.425,0,0,0-3.06-.342c-.184.016-1.014.023-1.014.023Z" fill="#232639"/>
      <line id="Line_10941" data-name="Line 10941" x2="30.837" transform="translate(184.936 212.841)" fill="none" stroke="#232639" stroke-linecap="round" stroke-linejoin="round" stroke-width="2"/>
      <line id="Line_10942" data-name="Line 10942" x2="19.304" transform="translate(184.936 217.283)" fill="none" stroke="#232639" stroke-linecap="round" stroke-linejoin="round" stroke-width="2"/>
      <path id="Path_131616" data-name="Path 131616" d="M176.936,216.879h0a2.725,2.725,0,1,1,2.724-2.724,2.724,2.724,0,0,1-2.724,2.724" fill="#98b7ff"/>
      <line id="Line_10943" data-name="Line 10943" x2="30.837" transform="translate(184.936 225.221)" fill="none" stroke="#232639" stroke-linecap="round" stroke-linejoin="round" stroke-width="2"/>
      <line id="Line_10944" data-name="Line 10944" x2="8.9" transform="translate(184.936 229.663)" fill="none" stroke="#232639" stroke-linecap="round" stroke-linejoin="round" stroke-width="2"/>
      <path id="Path_131617" data-name="Path 131617" d="M176.936,229.255h0a2.725,2.725,0,1,1,2.724-2.724,2.724,2.724,0,0,1-2.724,2.724" fill="#98b7ff"/>
      <line id="Line_10945" data-name="Line 10945" x2="20.307" transform="translate(184.936 238.912)" fill="none" stroke="#232639" stroke-linecap="round" stroke-linejoin="round" stroke-width="2"/>
      <path id="Path_131618" data-name="Path 131618" d="M176.936,241.636h0a2.725,2.725,0,1,1,2.724-2.724,2.724,2.724,0,0,1-2.724,2.724" fill="#98b7ff"/>
      <rect id="Rectangle_6647" data-name="Rectangle 6647" width="112.521" height="36.991" transform="translate(227.839 207.389)" fill="#fff"/>
      <rect id="Rectangle_6648" data-name="Rectangle 6648" width="112.521" height="36.991" transform="translate(227.839 207.389)" fill="none" stroke="#232639" stroke-linecap="round" stroke-linejoin="round" stroke-width="2"/>
      <line id="Line_10946" data-name="Line 10946" x2="111.877" transform="translate(228.484 215.971)" fill="none" stroke="#232639" stroke-linecap="round" stroke-linejoin="round" stroke-width="2"/>
      <line id="Line_10947" data-name="Line 10947" y2="28.409" transform="translate(264.709 215.971)" fill="none" stroke="#232639" stroke-linecap="round" stroke-linejoin="round" stroke-width="2"/>
      <line id="Line_10948" data-name="Line 10948" y2="28.409" transform="translate(302.418 215.971)" fill="none" stroke="#232639" stroke-linecap="round" stroke-linejoin="round" stroke-width="2"/>
      <line id="Line_10949" data-name="Line 10949" x2="9.048" transform="translate(239.069 211.63)" fill="none" stroke="#98b7ff" stroke-linecap="round" stroke-linejoin="round" stroke-width="2"/>
      <line id="Line_10950" data-name="Line 10950" x2="10.71" transform="translate(239.069 222.628)" fill="none" stroke="#eee0fa" stroke-linecap="round" stroke-linejoin="round" stroke-width="2"/>
      <line id="Line_10951" data-name="Line 10951" x2="15.21" transform="translate(276.495 222.628)" fill="none" stroke="#eee0fa" stroke-linecap="round" stroke-linejoin="round" stroke-width="2"/>
      <line id="Line_10952" data-name="Line 10952" x2="11.246" transform="translate(317.822 222.628)" fill="none" stroke="#eee0fa" stroke-linecap="round" stroke-linejoin="round" stroke-width="2"/>
      <line id="Line_10953" data-name="Line 10953" x2="6.949" transform="translate(239.069 230.171)" fill="none" stroke="#eee0fa" stroke-linecap="round" stroke-linejoin="round" stroke-width="2"/>
      <line id="Line_10954" data-name="Line 10954" x2="15.21" transform="translate(276.495 230.171)" fill="none" stroke="#eee0fa" stroke-linecap="round" stroke-linejoin="round" stroke-width="2"/>
      <line id="Line_10955" data-name="Line 10955" x2="15.21" transform="translate(313.858 230.171)" fill="none" stroke="#eee0fa" stroke-linecap="round" stroke-linejoin="round" stroke-width="2"/>
      <line id="Line_10956" data-name="Line 10956" x2="15.21" transform="translate(239.069 237.714)" fill="none" stroke="#eee0fa" stroke-linecap="round" stroke-linejoin="round" stroke-width="2"/>
      <line id="Line_10957" data-name="Line 10957" x2="4.444" transform="translate(281.878 237.714)" fill="none" stroke="#eee0fa" stroke-linecap="round" stroke-linejoin="round" stroke-width="2"/>
      <line id="Line_10958" data-name="Line 10958" x2="10.776" transform="translate(318.292 237.714)" fill="none" stroke="#eee0fa" stroke-linecap="round" stroke-linejoin="round" stroke-width="2"/>
      <line id="Line_10959" data-name="Line 10959" x2="9.048" transform="translate(279.576 211.63)" fill="none" stroke="#98b7ff" stroke-linecap="round" stroke-linejoin="round" stroke-width="2"/>
      <line id="Line_10960" data-name="Line 10960" x2="9.048" transform="translate(320.02 211.63)" fill="none" stroke="#98b7ff" stroke-linecap="round" stroke-linejoin="round" stroke-width="2"/>
      <rect id="Rectangle_6649" data-name="Rectangle 6649" width="52.649" height="39.278" transform="translate(227.839 155.116)" fill="#98b7ff"/>
      <rect id="Rectangle_6650" data-name="Rectangle 6650" width="52.649" height="39.278" transform="translate(227.839 155.116)" fill="none" stroke="#232639" stroke-linecap="round" stroke-linejoin="round" stroke-width="2"/>
      <path id="Path_131619" data-name="Path 131619" d="M232.941,188.257l18.834-5.177,13.9,2.963,9.242-16.574" fill="none" stroke="#e6f0fc" stroke-linecap="round" stroke-linejoin="round" stroke-width="2"/>
      <path id="Path_131620" data-name="Path 131620" d="M235.845,169.925l12.011-3.431,7.771,5.669,8.489-8.922,10.81-1.195" fill="none" stroke="#eee0fa" stroke-linecap="round" stroke-linejoin="round" stroke-width="2"/>
      <path id="Path_131621" data-name="Path 131621" d="M274.122,163.441l-10.477,9.871-9.6-5.561-6.936,9.31-7.925-.979-6.249,5.4" fill="none" stroke="#232639" stroke-linecap="round" stroke-linejoin="round" stroke-width="2"/>
      <path id="Path_131622" data-name="Path 131622" d="M295.707,154.489H303.3v39.278h-7.588Zm15.176,0h7.588v39.278h-7.588Zm15.179,0h7.588v39.278h-7.588Z" fill="#eee0fa"/>
      <path id="Path_131623" data-name="Path 131623" d="M288.117,154.489H295.7v39.278h-7.588Zm15.178,0h7.588v39.278H303.3Zm15.177,0h7.588v39.278h-7.588Zm15.178,0h7.588v39.278H333.65Z" fill="#98b7ff"/>
    </g>
  </g>
  <g id="Group_7827" data-name="Group 7827">
    <g id="Group_7826" data-name="Group 7826" clip-path="url(#clip-path-2)">
      <rect id="Rectangle_6652" data-name="Rectangle 6652" width="7.588" height="39.278" transform="translate(287.241 155.116)" fill="none" stroke="#232639" stroke-linecap="round" stroke-linejoin="round" stroke-width="2"/>
      <rect id="Rectangle_6653" data-name="Rectangle 6653" width="7.588" height="39.278" transform="translate(294.829 155.116)" fill="none" stroke="#232639" stroke-linecap="round" stroke-linejoin="round" stroke-width="2"/>
      <rect id="Rectangle_6654" data-name="Rectangle 6654" width="7.588" height="39.278" transform="translate(302.418 155.116)" fill="none" stroke="#232639" stroke-linecap="round" stroke-linejoin="round" stroke-width="2"/>
      <rect id="Rectangle_6655" data-name="Rectangle 6655" width="7.588" height="39.278" transform="translate(310.006 155.116)" fill="none" stroke="#232639" stroke-linecap="round" stroke-linejoin="round" stroke-width="2"/>
      <rect id="Rectangle_6656" data-name="Rectangle 6656" width="7.588" height="39.278" transform="translate(317.596 155.116)" fill="none" stroke="#232639" stroke-linecap="round" stroke-linejoin="round" stroke-width="2"/>
      <rect id="Rectangle_6657" data-name="Rectangle 6657" width="7.588" height="39.278" transform="translate(325.184 155.116)" fill="none" stroke="#232639" stroke-linecap="round" stroke-linejoin="round" stroke-width="2"/>
      <rect id="Rectangle_6658" data-name="Rectangle 6658" width="7.588" height="39.278" transform="translate(332.772 155.116)" fill="none" stroke="#232639" stroke-linecap="round" stroke-linejoin="round" stroke-width="2"/>
      <rect id="Rectangle_6659" data-name="Rectangle 6659" width="7.588" height="39.278" transform="translate(287.239 155.116)" fill="none" stroke="#232639" stroke-linecap="round" stroke-linejoin="round" stroke-width="2"/>
      <rect id="Rectangle_6660" data-name="Rectangle 6660" width="7.588" height="39.278" transform="translate(294.829 155.116)" fill="none" stroke="#232639" stroke-linecap="round" stroke-linejoin="round" stroke-width="2"/>
      <rect id="Rectangle_6661" data-name="Rectangle 6661" width="7.588" height="39.278" transform="translate(302.418 155.116)" fill="none" stroke="#232639" stroke-linecap="round" stroke-linejoin="round" stroke-width="2"/>
      <rect id="Rectangle_6662" data-name="Rectangle 6662" width="7.588" height="39.278" transform="translate(310.006 155.116)" fill="none" stroke="#232639" stroke-linecap="round" stroke-linejoin="round" stroke-width="2"/>
      <rect id="Rectangle_6663" data-name="Rectangle 6663" width="7.588" height="39.278" transform="translate(317.594 155.116)" fill="none" stroke="#232639" stroke-linecap="round" stroke-linejoin="round" stroke-width="2"/>
      <rect id="Rectangle_6664" data-name="Rectangle 6664" width="7.588" height="39.278" transform="translate(332.772 155.116)" fill="none" stroke="#232639" stroke-linecap="round" stroke-linejoin="round" stroke-width="2"/>
    </g>
  </g>
  <g id="Group_7829" data-name="Group 7829">
    <g id="Group_7828" data-name="Group 7828" clip-path="url(#clip-path)">
      <path id="Path_131625" data-name="Path 131625" d="M340.361,193.771H287.242V154.494h53.119ZM325.9,170.158c-8.64,0-7.543-9.33-15.641-9.33s-8.1,15.821-16.194,15.821c-2.737,0-4.931-1.945-6.82-4.535v21.657h53.119v-38.1C334.458,158.148,333.655,170.158,325.9,170.158Z" fill="none" stroke="#232639" stroke-linecap="round" stroke-linejoin="round" stroke-width="2"/>
      <path id="Path_131626" data-name="Path 131626" d="M212.136,163.186H179.75a4.035,4.035,0,1,1,0-8.069h32.386a4.035,4.035,0,1,1,0,8.069" fill="#eee0fa"/>
      <path id="Path_131627" data-name="Path 131627" d="M212.136,163.186H179.75a4.035,4.035,0,1,1,0-8.069h32.386a4.035,4.035,0,1,1,0,8.069Z" fill="none" stroke="#232639" stroke-linecap="round" stroke-linejoin="round" stroke-width="2"/>
      <path id="Path_131628" data-name="Path 131628" d="M216.168,159.151a4.36,4.36,0,0,1-1.013,2.842,3.23,3.23,0,0,1-2.448,1.191H179.173a3.8,3.8,0,0,1-3.461-4.033,4.355,4.355,0,0,1,1.013-2.842,3.243,3.243,0,0,1,2.448-1.191h33.534a3.789,3.789,0,0,1,3.461,4.033" fill="#eee0fa"/>
      <path id="Path_131629" data-name="Path 131629" d="M216.168,159.151a4.36,4.36,0,0,1-1.013,2.842,3.23,3.23,0,0,1-2.448,1.191H179.173a3.8,3.8,0,0,1-3.461-4.033,4.355,4.355,0,0,1,1.013-2.842,3.243,3.243,0,0,1,2.448-1.191h33.534A3.789,3.789,0,0,1,216.168,159.151Z" fill="none" stroke="#232639" stroke-linecap="round" stroke-linejoin="round" stroke-width="2"/>
      <path id="Path_131630" data-name="Path 131630" d="M216.168,174.83a4.388,4.388,0,0,1-1.013,2.852,3.217,3.217,0,0,1-2.448,1.181H179.173a3.8,3.8,0,0,1-3.461-4.033,4.367,4.367,0,0,1,1.013-2.853,3.232,3.232,0,0,1,2.448-1.18h33.534a3.782,3.782,0,0,1,3.461,4.033" fill="#eee0fa"/>
      <path id="Path_131631" data-name="Path 131631" d="M216.168,174.83a4.388,4.388,0,0,1-1.013,2.852,3.217,3.217,0,0,1-2.448,1.181H179.173a3.8,3.8,0,0,1-3.461-4.033,4.367,4.367,0,0,1,1.013-2.853,3.232,3.232,0,0,1,2.448-1.18h33.534A3.782,3.782,0,0,1,216.168,174.83Z" fill="none" stroke="#232639" stroke-linecap="round" stroke-linejoin="round" stroke-width="2"/>
      <path id="Path_131632" data-name="Path 131632" d="M216.168,190.509a4.36,4.36,0,0,1-1.013,2.842,3.23,3.23,0,0,1-2.448,1.191H179.173a3.8,3.8,0,0,1-3.461-4.033,4.382,4.382,0,0,1,1.013-2.852,3.229,3.229,0,0,1,2.448-1.181h33.534a3.782,3.782,0,0,1,3.461,4.033" fill="#eee0fa"/>
      <path id="Path_131633" data-name="Path 131633" d="M216.168,190.509a4.36,4.36,0,0,1-1.013,2.842,3.23,3.23,0,0,1-2.448,1.191H179.173a3.8,3.8,0,0,1-3.461-4.033,4.382,4.382,0,0,1,1.013-2.852,3.229,3.229,0,0,1,2.448-1.181h33.534A3.782,3.782,0,0,1,216.168,190.509Z" fill="none" stroke="#232639" stroke-linecap="round" stroke-linejoin="round" stroke-width="2"/>
      <path id="Path_131634" data-name="Path 131634" d="M199.966,155.415v7.472a.3.3,0,0,1-.3.3h-20.5a3.794,3.794,0,0,1-3.461-4.033,4.362,4.362,0,0,1,1.013-2.842,3.244,3.244,0,0,1,2.448-1.191h20.5a.3.3,0,0,1,.3.3" fill="#eafaeb"/>
      <path id="Path_131635" data-name="Path 131635" d="M199.966,155.415v7.472a.3.3,0,0,1-.3.3h-20.5a3.794,3.794,0,0,1-3.461-4.033,4.362,4.362,0,0,1,1.013-2.842,3.244,3.244,0,0,1,2.448-1.191h20.5A.3.3,0,0,1,199.966,155.415Z" fill="none" stroke="#232639" stroke-linecap="round" stroke-linejoin="round" stroke-width="2"/>
      <path id="Path_131636" data-name="Path 131636" d="M192.47,171.094v7.472a.3.3,0,0,1-.3.3h-13a3.8,3.8,0,0,1-3.461-4.033,4.362,4.362,0,0,1,1.013-2.852,3.229,3.229,0,0,1,2.448-1.181h13a.3.3,0,0,1,.3.3" fill="#c6d4f4"/>
      <path id="Path_131637" data-name="Path 131637" d="M192.47,171.094v7.472a.3.3,0,0,1-.3.3h-13a3.8,3.8,0,0,1-3.461-4.033,4.362,4.362,0,0,1,1.013-2.852,3.229,3.229,0,0,1,2.448-1.181h13A.3.3,0,0,1,192.47,171.094Z" fill="none" stroke="#232639" stroke-linecap="round" stroke-linejoin="round" stroke-width="2"/>
      <path id="Path_131638" data-name="Path 131638" d="M208.2,186.772v7.472a.3.3,0,0,1-.3.3H179.173a3.8,3.8,0,0,1-3.461-4.033,4.382,4.382,0,0,1,1.013-2.852,3.229,3.229,0,0,1,2.448-1.181H207.9a.3.3,0,0,1,.3.3" fill="#98b7ff"/>
      <path id="Path_131639" data-name="Path 131639" d="M208.2,186.772v7.472a.3.3,0,0,1-.3.3H179.173a3.8,3.8,0,0,1-3.461-4.033,4.382,4.382,0,0,1,1.013-2.852,3.229,3.229,0,0,1,2.448-1.181H207.9A.3.3,0,0,1,208.2,186.772Z" fill="none" stroke="#232639" stroke-linecap="round" stroke-linejoin="round" stroke-width="2"/>
      <path id="Path_131640" data-name="Path 131640" d="M98.984,240.033a36.4,36.4,0,1,1-36.4-36.4,36.4,36.4,0,0,1,36.4,36.4" fill="#eafaeb"/>
      <path id="Path_131641" data-name="Path 131641" d="M48.026,76.322l5.935,38.056,28.147,36.109,28.127-36.109,4.837-38.057L82.108,66.3Z" fill="#fff"/>
      <path id="Path_131642" data-name="Path 131642" d="M48.026,76.322l5.935,38.056,28.147,36.109,28.127-36.109,4.837-38.057L82.108,66.3Z" fill="none" stroke="#232639" stroke-linecap="round" stroke-linejoin="round" stroke-width="2"/>
      <line id="Line_10961" data-name="Line 10961" x2="11.605" y2="7.302" transform="translate(98.632 107.077)" fill="none" stroke="#232639" stroke-linecap="round" stroke-linejoin="round" stroke-width="2"/>
      <line id="Line_10962" data-name="Line 10962" x2="18.931" y2="12.536" transform="translate(48.026 76.322)" fill="none" stroke="#232639" stroke-linecap="round" stroke-linejoin="round" stroke-width="2"/>
      <line id="Line_10963" data-name="Line 10963" x1="11.62" y2="7.302" transform="translate(53.961 107.077)" fill="none" stroke="#232639" stroke-linecap="round" stroke-linejoin="round" stroke-width="2"/>
      <line id="Line_10964" data-name="Line 10964" x1="17.841" y2="12.494" transform="translate(97.23 76.322)" fill="none" stroke="#232639" stroke-linecap="round" stroke-linejoin="round" stroke-width="2"/>
      <line id="Line_10965" data-name="Line 10965" y2="33.285" transform="translate(82.108 117.2)" fill="none" stroke="#232639" stroke-linecap="round" stroke-linejoin="round" stroke-width="2"/>
      <line id="Line_10966" data-name="Line 10966" y2="14.731" transform="translate(82.108 66.305)" fill="none" stroke="#232639" stroke-linecap="round" stroke-linejoin="round" stroke-width="2"/>
      <path id="Path_131643" data-name="Path 131643" d="M48.026,76.322,82.108,66.3l32.963,10.017-4.836,38.056L82.108,150.487,53.961,114.378Z" fill="none" stroke="#232639" stroke-linecap="round" stroke-linejoin="round" stroke-width="2"/>
      <path id="Path_131644" data-name="Path 131644" d="M100.509,99.118A18.4,18.4,0,1,1,81.79,81.035q.159,0,.318,0a18.244,18.244,0,0,1,18.4,18.082" fill="#dfecfc"/>
      <ellipse id="Ellipse_12" data-name="Ellipse 12" cx="18.401" cy="18.082" rx="18.401" ry="18.082" transform="translate(63.707 81.035)" fill="none" stroke="#232639" stroke-linecap="round" stroke-linejoin="round" stroke-width="2"/>
      <line id="Line_10967" data-name="Line 10967" x1="10.008" y2="10.659" transform="translate(79.758 93.788)" fill="none" stroke="#232639" stroke-linecap="round" stroke-linejoin="round" stroke-width="2"/>
      <line id="Line_10968" data-name="Line 10968" x2="5.308" y2="5.487" transform="translate(74.45 98.961)" fill="none" stroke="#232639" stroke-linecap="round" stroke-linejoin="round" stroke-width="2"/>
      <rect id="Rectangle_6665" data-name="Rectangle 6665" width="61.59" height="43.761" transform="translate(1 239.218)" fill="#cef2cf"/>
      <rect id="Rectangle_6666" data-name="Rectangle 6666" width="61.59" height="43.761" transform="translate(1 239.218)" fill="none" stroke="#232639" stroke-linecap="round" stroke-linejoin="round" stroke-width="2"/>
      <line id="Line_10969" data-name="Line 10969" x1="61.578" y2="0.023" transform="translate(1.002 260.907)" fill="none" stroke="#232639" stroke-linecap="round" stroke-linejoin="round" stroke-width="2"/>
      <line id="Line_10970" data-name="Line 10970" y2="12.207" transform="translate(21.158 260.878)" fill="none" stroke="#232639" stroke-linecap="round" stroke-linejoin="round" stroke-width="2"/>
      <line id="Line_10971" data-name="Line 10971" y2="12.207" transform="translate(42.212 260.878)" fill="none" stroke="#232639" stroke-linecap="round" stroke-linejoin="round" stroke-width="2"/>
      <line id="Line_10972" data-name="Line 10972" y2="11.293" transform="translate(52.666 249.622)" fill="none" stroke="#232639" stroke-linecap="round" stroke-linejoin="round" stroke-width="2"/>
      <line id="Line_10973" data-name="Line 10973" y2="11.272" transform="translate(31.685 249.625)" fill="none" stroke="#232639" stroke-linecap="round" stroke-linejoin="round" stroke-width="2"/>
      <line id="Line_10974" data-name="Line 10974" y2="10.43" transform="translate(45.71 239.227)" fill="none" stroke="#232639" stroke-linecap="round" stroke-linejoin="round" stroke-width="2"/>
      <line id="Line_10975" data-name="Line 10975" y2="10.28" transform="translate(22.485 239.237)" fill="none" stroke="#232639" stroke-linecap="round" stroke-linejoin="round" stroke-width="2"/>
      <line id="Line_10976" data-name="Line 10976" y2="11.29" transform="translate(10.721 249.625)" fill="none" stroke="#232639" stroke-linecap="round" stroke-linejoin="round" stroke-width="2"/>
      <line id="Line_10977" data-name="Line 10977" x1="61.528" transform="translate(1.062 273.077)" fill="none" stroke="#232639" stroke-linecap="round" stroke-linejoin="round" stroke-width="2"/>
      <line id="Line_10978" data-name="Line 10978" y2="9.885" transform="translate(31.685 273.085)" fill="none" stroke="#232639" stroke-linecap="round" stroke-linejoin="round" stroke-width="2"/>
      <line id="Line_10979" data-name="Line 10979" y2="9.885" transform="translate(52.648 273.085)" fill="none" stroke="#232639" stroke-linecap="round" stroke-linejoin="round" stroke-width="2"/>
      <line id="Line_10980" data-name="Line 10980" y2="9.885" transform="translate(10.721 273.085)" fill="none" stroke="#232639" stroke-linecap="round" stroke-linejoin="round" stroke-width="2"/>
      <line id="Line_10981" data-name="Line 10981" x1="61.583" transform="translate(1.004 249.635)" fill="none" stroke="#232639" stroke-linecap="round" stroke-linejoin="round" stroke-width="2"/>
    </g>
  </g>
</svg>
