<svg xmlns="http://www.w3.org/2000/svg" viewBox="0 0 640 300"><rect width="640" height="300" opacity="0"/><polygon points="444.428 140.874 424.531 144.101 409.358 156.072 456.877 217.081 503.493 156.453 490.391 144.834 470.01 140.786 444.428 140.874" fill="#cef2cf"/><path d="M272.007,111.873l31.861,20.953,3.712,18.355,2.858,16.551L323.8,174.11V77.481a30,30,0,0,0-30-30H202.592l.5.989a1.444,1.444,0,0,0,1.087.767l12.811,1.8a1.114,1.114,0,0,1,.933.763,1.067,1.067,0,0,1-.293,1.148l-9.27,8.767a1.377,1.377,0,0,0-.415,1.24l2.188,12.378a1.078,1.078,0,0,1-.459,1.1,1.152,1.152,0,0,1-1.216.085L197,70.675a1.475,1.475,0,0,0-1.344,0L184.2,76.519a1.153,1.153,0,0,1-1.216-.085,1.078,1.078,0,0,1-.46-1.1l2.189-12.378a1.374,1.374,0,0,0-.415-1.24l-9.272-8.767a1.068,1.068,0,0,1-.292-1.148,1.112,1.112,0,0,1,.933-.763l12.811-1.8a1.442,1.442,0,0,0,1.087-.767l.5-.989H88.465q3.24,7.94,6.482,15.879c.131.323.268.642.464,1.109v0c4.056-2.519,8.009-4.973,11.962-7.43,2.826-1.757,5.66-3.5,8.473-5.282,1.961-1.243,3.912-1.011,5.755,1.906q-3.309,21.546-6.6,43.094c-.191,1.244-.367,2.493-.617,3.723a3.3,3.3,0,0,1-3.334,2.913q-31,.009-62,0c-1.79,0-3.017-1.159-3.337-3.187q-1.425-9.03-2.8-18.071c-1.337-8.747-2.642-17.5-4.008-26.241a3.937,3.937,0,0,1,1.3-4.081,3.311,3.311,0,0,1,4.08-.015L63.6,63.8c.312.194.626.386,1.04.641.186-.4.371-.762.525-1.138q3.234-7.909,6.459-15.822h-37.2a30,30,0,0,0-30,30v190a30,30,0,0,0,30,30H293.8a30,30,0,0,0,30-30v-25.4l-13.6-74.35-21.355,27.517-16.839-83.372L206.615,143.81l26.211-29.874ZM79.552,202.246l-11.21,10.6a1.665,1.665,0,0,0-.5,1.5l2.647,14.968a1.307,1.307,0,0,1-.555,1.326,1.4,1.4,0,0,1-1.471.1L54.6,223.675a1.788,1.788,0,0,0-1.624,0l-13.856,7.067a1.4,1.4,0,0,1-1.471-.1,1.306,1.306,0,0,1-.556-1.326l2.646-14.968a1.661,1.661,0,0,0-.5-1.5l-11.211-10.6a1.291,1.291,0,0,1-.354-1.387,1.348,1.348,0,0,1,1.128-.924L44.3,197.753a1.745,1.745,0,0,0,1.315-.928l6.927-13.618a1.417,1.417,0,0,1,2.506,0l6.928,13.618a1.745,1.745,0,0,0,1.315.928l15.491,2.182a1.348,1.348,0,0,1,1.128.924A1.291,1.291,0,0,1,79.552,202.246Zm81.4-53.4,45.642-5.02c-.305.361-2.016,48.295-2.016,48.295l-43.629-43.269Zm-39.193,44.384.163-.437,20.742-7.32c.881,2.292,24.414,57.319,24.414,57.319l-45.151-50Z" fill="#cef2cf"/><path d="M136.061,252.745l-26.035-26.436a1.6,1.6,0,0,1-.393-1.573l12.294-31.947,45.151,50s-24.447-57.166-24.442-57.4l18.308-36.546,43.634,43.273s1.713-48,2.016-48.3l65.413-31.945,16.839,83.372L310.2,167.73l15.023,82.146s18.318-66.946,19.144-65.948c0,0,7.576,32.04,7.311,32.37l-26.455,33.578Z" fill="#eafaeb"/><path d="M353.228,214.883l-7.867-31.1-.02-.085,0-.006,0-.01a.978.978,0,0,0-.134-.266,1.2,1.2,0,0,0-.063-.124v0a1,1,0,0,0-.3-.232c-.017-.009-.028-.028-.046-.036l-.4-.192-33.055-15.778-2.775-16.069-3.712-18.356a1,1,0,0,0-.431-.637l-31.861-20.952a.825.825,0,0,0-.08-.037c-.01-.006-.016-.017-.026-.022s-.029,0-.043-.01a.923.923,0,0,0-.188-.069c-.021-.005-.042,0-.063-.007a1,1,0,0,0-.123-.012c-.012,0-.022,0-.034,0s-.031-.006-.047,0l-39.424,2.053a1,1,0,0,0-.7.343l-25.728,29.6-45.5,4.978a1,1,0,0,0-.787.551L141.92,184.581l-20.563,7.257a1.006,1.006,0,0,0-.6.592l-9.229,24.611-2.852,7.414a2.524,2.524,0,0,0-.05.325l-.19.507a1,1,0,0,0,.224,1.053l.562.571a1,1,0,0,0,.22.344l8.543,8.558,17.366,17.634a1,1,0,0,0,.713.3h.02l.167,0c.018,0,.034.008.051.008h.017l125.278-1.909,63.493-.962.078,0,.128.006h.045a1,1,0,0,0,.973-.769l23.58-29.244a1.218,1.218,0,0,0,.073-.1l1.9-3.085.6-.757c.014-.017.027-.033.04-.051l.375-.472a.983.983,0,0,0,.191-.674l.046-.075A1,1,0,0,0,353.228,214.883Zm-242.081,8.864.5-1.334,5.574-14.157,5.064-13.579L165.3,242.308,136.5,251.537l-16.643-16.674-8.712-8.846ZM309.62,170.111l13.71,74.967L290.078,195.29l10.257-13.216Zm-165.4,16.456,59.733,6.486,28.609,51.3-64.815-2.535c-.042-.1-.084-.195-.125-.292ZM236.54,244.5l52.121-47.733L322.8,247.876Zm-2.059-.825-28.894-51.806c.587-16.432,1.489-40.145,1.859-46.34l79.678,49.934Zm52.951-50.38-78.779-49.371,62.63-30.585Zm-83.772-3.5-40.526-40.191,42.4-4.663C205.233,148.361,204.781,158.516,203.66,189.8Zm-1.819,1.013L144.4,184.575l15.785-31.644,1.076-2.362Zm-59.557-3.69c1.456,3.553,6.181,14.679,21.493,50.49l-39.893-44.455,18.231-6.433ZM325.42,245.387l-13.884-75.92,31.5,14.933c-1.094,2.62-3.4,10.156-9.639,32.318C330.207,228.032,327.059,239.432,325.42,245.387ZM344.112,187.2c2.654,11.267,6.035,25.887,6.515,28.673l-.385.626-22.633,28.466C333.492,223.565,341.261,195.9,344.112,187.2Zm-37.5-16.474-17.217,22.183-15.93-78.87,29.259,19.38,6.411,34.056ZM267.16,113.13l-56.509,27.6L233.3,114.913Z" fill="#232639"/><path d="M81.39,104.282q-16.1,0-32.2,0c-2.309,0-3.925-1.508-4.323-4.031q-1.427-9.033-2.8-18.076-.7-4.542-1.382-9.087-1.3-8.577-2.627-17.15c-.349-2.236.2-3.881,1.679-5.026a4.254,4.254,0,0,1,5.22-.075l19.4,12.049c.011-.025.021-.05.032-.076l2.187-5.348Q71.221,46.1,75.847,34.738c1.338-3.293,3.7-4.2,7.226-2.788a1,1,0,0,1,.553.55q4.8,11.811,9.63,23.607l2.769,6.777,13.155-8.169c2.1-1.3,4.192-2.6,6.276-3.919a4.6,4.6,0,0,1,3.535-.773,6.086,6.086,0,0,1,3.6,2.99,1,1,0,0,1,.143.686q-2,13.007-3.985,26.01l-2.707,17.68c-.157,1.04-.32,2.116-.534,3.175a4.306,4.306,0,0,1-4.313,3.714Q96.3,104.283,81.39,104.282Zm-39.1-52.3a2.113,2.113,0,0,0-1.325.5c-.886.687-1.164,1.626-.928,3.137q1.341,8.574,2.628,17.16.688,4.542,1.381,9.084,1.382,9.036,2.8,18.066c.169,1.068.713,2.342,2.349,2.343q31,.012,62,0a2.319,2.319,0,0,0,2.354-2.112c.2-1.009.363-2.06.517-3.077l2.707-17.681q1.962-12.818,3.927-25.633a3.925,3.925,0,0,0-2.147-1.8,2.671,2.671,0,0,0-2.026.512c-2.09,1.324-4.192,2.627-6.294,3.929L96.084,65.2a1,1,0,0,1-1.45-.463l-.467-1.117-2.762-6.759q-4.74-11.6-9.467-23.206c-2.54-.909-3.491-.008-4.238,1.832q-4.619,11.371-9.271,22.724l-2.187,5.348c-.112.273-.238.538-.369.814l-.174.367a1,1,0,0,1-1.431.43l-3.09-1.913L43.907,52.532A3.085,3.085,0,0,0,42.292,51.984Z" fill="#232639"/><path d="M38.466,231.905a2.4,2.4,0,0,1-1.388-.447,2.291,2.291,0,0,1-.966-2.318l2.647-14.968a.667.667,0,0,0-.2-.6l-11.21-10.6a2.28,2.28,0,0,1-.615-2.431,2.335,2.335,0,0,1,1.938-1.6l15.49-2.184a.744.744,0,0,0,.563-.39l6.927-13.618a2.416,2.416,0,0,1,4.288,0l6.928,13.618a.744.744,0,0,0,.563.39l15.491,2.184a2.339,2.339,0,0,1,1.937,1.6h0a2.284,2.284,0,0,1-.616,2.43l-11.21,10.6a.665.665,0,0,0-.2.6l2.647,14.97a2.294,2.294,0,0,1-.962,2.315,2.4,2.4,0,0,1-2.5.176L54.15,224.566a.8.8,0,0,0-.715,0l-13.857,7.066A2.425,2.425,0,0,1,38.466,231.905Zm15.325-48.453a.359.359,0,0,0-.361.209L46.5,197.279a2.743,2.743,0,0,1-2.066,1.464l-15.491,2.183a.351.351,0,0,0-.319.248.292.292,0,0,0,.092.346l11.211,10.6a2.659,2.659,0,0,1,.8,2.4l-2.646,14.968a.3.3,0,0,0,.147.334.393.393,0,0,0,.439.028l13.858-7.066a2.792,2.792,0,0,1,2.533,0l13.856,7.066a.4.4,0,0,0,.442-.029.3.3,0,0,0,.145-.332l-2.647-14.97a2.664,2.664,0,0,1,.8-2.4l11.211-10.6a.292.292,0,0,0,.092-.346.352.352,0,0,0-.317-.248l-15.493-2.183a2.745,2.745,0,0,1-2.066-1.463l-6.929-13.619A.361.361,0,0,0,53.791,183.452Z" fill="#232639"/><path d="M183.656,77.654a2.157,2.157,0,0,1-1.249-.4,2.058,2.058,0,0,1-.869-2.087l2.189-12.378a.379.379,0,0,0-.118-.341l-9.271-8.766a2.056,2.056,0,0,1-.554-2.19,2.1,2.1,0,0,1,1.743-1.437l12.81-1.8a.444.444,0,0,0,.336-.232L194.4,36.754a2.17,2.17,0,0,1,3.854,0l5.73,11.263a.445.445,0,0,0,.336.23l12.811,1.8a2.106,2.106,0,0,1,1.742,1.437,2.057,2.057,0,0,1-.555,2.191l-9.27,8.766a.378.378,0,0,0-.117.34l2.188,12.378a2.059,2.059,0,0,1-.868,2.087,2.147,2.147,0,0,1-2.246.159l-11.46-5.845a.487.487,0,0,0-.434,0L184.654,77.41A2.181,2.181,0,0,1,183.656,77.654Zm12.674-8.141a2.482,2.482,0,0,1,1.127.271l11.459,5.844a.155.155,0,0,0,.186-.011c.06-.043.057-.063.049-.1l-2.188-12.38a2.372,2.372,0,0,1,.712-2.139l9.271-8.768c.041-.038.05-.047.031-.1-.024-.072-.062-.081-.123-.089l-12.812-1.806a2.446,2.446,0,0,1-1.838-1.3l-5.73-11.264a.219.219,0,0,0-.29,0l-5.729,11.262a2.447,2.447,0,0,1-1.838,1.3l-12.812,1.806c-.061.008-.1.017-.123.089-.019.057-.01.066.03.1l9.272,8.768a2.374,2.374,0,0,1,.713,2.141l-2.189,12.378c-.008.041-.011.062.048.1a.154.154,0,0,0,.188.014l11.46-5.844A2.475,2.475,0,0,1,196.33,69.513Z" fill="#232639"/><path d="M402.915,108.223l-2.372-2.762,2.372-2.762,2.374,2.762Zm-15.629,73.413,2.372,2.761,2.372-2.761-2.372-2.766Zm0-14.474,2.372,2.762,2.372-2.762-2.372-2.761Zm0,76.171,2.372,2.762,2.372-2.762-2.372-2.761Zm0-91.6,2.372,2.761,2.372-2.761-2.372-2.762ZM374.03,59.506l2.372,2.762,2.375-2.76L376.4,56.745Zm13.256,152.976,2.372,2.762,2.372-2.762-2.372-2.761Zm0,15.426,2.372,2.762,2.372-2.762-2.372-2.761Zm0-91.6,2.372,2.761,2.372-2.761-2.372-2.762Zm0-76.8,2.372,2.762,2.372-2.762-2.372-2.763Zm13.258,183.825,2.372,2.762,2.376-2.762-2.376-2.761Zm-13.258-168.4,2.372,2.762,2.372-2.762-2.372-2.761Zm0,15.426,2.372,2.762,2.372-2.762L389.658,87.6Zm0,30.524,2.372,2.761,2.372-2.761-2.372-2.762Zm0-15.421,2.372,2.762,2.372-2.762-2.372-2.762Zm0,91.6,2.372,2.761,2.372-2.761-2.372-2.762Zm-26.515-60.746,2.372,2.761,2.377-2.761-2.377-2.762Zm0-15.429,2.372,2.761,2.377-2.761-2.377-2.762Zm0,30.855,2.372,2.761,2.377-2.761-2.377-2.762Zm0,15.425,2.372,2.762,2.377-2.762-2.377-2.761Zm0,29.895,2.372,2.761,2.377-2.761-2.377-2.762Zm0-15.425,2.372,2.761,2.377-2.761-2.377-2.762Zm4.746-76.171-2.374-2.762-2.372,2.762,2.372,2.762Zm8.513,137.872L376.4,246.1l2.372-2.762-2.372-2.761Zm0-30.851,2.372,2.762,2.372-2.762-2.372-2.761Zm0,15.426,2.372,2.762,2.372-2.762-2.372-2.761Zm0-30.851,2.372,2.761,2.372-2.761L376.4,194.3Zm0-15.425,2.372,2.761,2.375-2.757L376.4,178.87Zm-13.259-106.7,2.372,2.762,2.377-2.762-2.377-2.761Zm0-15.426,2.372,2.762,2.377-2.762-2.377-2.761Zm0,30.852,2.372,2.762,2.377-2.762L363.143,87.6Zm39.773,45.953,2.372,2.761,2.376-2.761-2.376-2.762ZM413.8,90.358l2.372,2.762,2.372-2.762L416.173,87.6Zm2.509-15.219a.72.72,0,0,0-.218.65l.293,1.658,2.16-2.515-.9-1.052ZM413.8,59.506l2.372,2.762,2.372-2.762-2.372-2.761Zm0,45.955,2.372,2.762,2.372-2.762-2.372-2.762ZM400.544,227.908l2.372,2.762,2.376-2.762-2.376-2.761ZM413.8,181.632l2.372,2.761,2.372-2.761-2.372-2.762Zm0-60.75,2.372,2.761,2.372-2.761-2.372-2.762Zm0,15.429,2.372,2.761,2.372-2.761-2.372-2.762Zm13.256,0,2.372,2.761,2.372-2.761-2.372-2.762Zm0,107.022,2.372,2.762,2.372-2.762-2.372-2.761Zm0-137.872,2.372,2.762,2.372-2.762-2.372-2.762Zm0,15.421,2.372,2.761,2.372-2.761-2.372-2.762Zm0,107.026,2.372,2.762,2.372-2.762-2.372-2.761Zm0-15.426,2.372,2.762,2.372-2.762-2.372-2.761Zm0-15.425,2.372,2.761,2.372-2.761-2.372-2.762Zm3.415-13.877-2.256-2.9-1.161,1.353,2.372,2.761Zm-29.928-16.018,2.372,2.762,2.376-2.762-2.376-2.761Zm0-15.425,2.372,2.761,2.376-2.761-2.376-2.762Zm-39.773,60.745,2.372,2.762,2.377-2.762-2.377-2.761Zm39.773-15.425,2.372,2.761,2.376-2.761-2.376-2.762Zm0,15.425,2.372,2.759,2.376-2.762-2.376-2.758Zm0-30.85,2.372,2.761,2.376-2.761-2.376-2.762ZM413.8,197.057l2.372,2.761,2.372-2.761-2.372-2.762Zm-13.257-76.175,2.372,2.761,2.376-2.761-2.376-2.762ZM413.8,227.908l2.372,2.762,2.372-2.762-2.372-2.761Zm0,15.425,2.372,2.762,2.372-2.762-2.372-2.761Zm0-30.851,2.372,2.762,2.372-2.762-2.372-2.761ZM400.544,90.358l2.372,2.762,2.376-2.762L402.916,87.6Zm0-30.852,2.372,2.762,2.376-2.762-2.376-2.761Zm3.21,17.214.165-.931a.722.722,0,0,0-.218-.65l-1.84-1.74-1.317,1.533,2.372,2.762Zm14.5,90.777L416,164.6l-2.2,2.561,2.372,2.762ZM551.026,90.358,548.654,87.6l-2.376,2.761,2.376,2.762ZM378.774,136.311l-2.372-2.762-2.372,2.762,2.372,2.761Zm66.285-61.379-2.372-2.761-2.377,2.761,2.377,2.762Zm105.967,0-2.372-2.761-2.376,2.761,2.376,2.762Zm13.252,15.426L561.906,87.6l-2.372,2.761,2.372,2.762Zm-119.219,0L442.687,87.6l-2.377,2.761,2.377,2.762ZM551.026,59.506l-2.372-2.761-2.376,2.761,2.376,2.762Zm13.252,45.955-2.372-2.762-2.372,2.762,2.372,2.762Zm-185.5,0L376.4,102.7l-2.372,2.762,2.372,2.762Zm0-30.529L376.4,72.171l-2.372,2.761,2.372,2.762Zm0,45.95L376.4,118.12l-2.372,2.762,2.372,2.761Zm37.4,28.093-2.372,2.762.425.5L417.054,150Zm10.884-58.617,2.372,2.762,2.372-2.762L429.429,87.6Zm-48.283,0L376.4,87.6l-2.372,2.761L376.4,93.12ZM431.8,59.508l-2.37-2.763-2.374,2.763,2.372,2.762Zm13.26,0-2.372-2.761-2.377,2.761,2.377,2.762Zm130.1,89.469-2.372,2.762,2.372,2.761,2.376-2.761Zm2.057-43.145.317-.369-1.237-1.439Zm-4.429,61.332,2.372,2.762,2.376-2.762-2.376-2.761ZM604.05,59.506l-2.372-2.761-2.372,2.761,2.372,2.762Zm-15.629,74.043-.075.087c0,.042,0,.084.007.126l.79,4.47,1.65-1.921Zm2.372-74.043-2.372-2.761-2.372,2.761,2.372,2.762ZM548.909,119.2l.6-.084-.855-1-2.376,2.762,2.376,2.761.763-.888-1.29-1.22a1.3,1.3,0,0,1-.357-1.4A1.359,1.359,0,0,1,548.909,119.2Zm41.884-44.268-2.372-2.761-2.372,2.761,2.372,2.762Zm-13.254,0-2.376-2.761-2.372,2.761,2.372,2.762Zm0,15.426L575.163,87.6l-2.372,2.761,2.372,2.762ZM564.278,59.506l-2.372-2.761-2.372,2.761,2.372,2.762Zm26.515,45.955-2.372-2.762-2.372,2.762,2.372,2.762Zm0-15.1L588.421,87.6l-2.372,2.761,2.372,2.762ZM564.278,74.932l-2.372-2.761-2.372,2.761,2.372,2.762Zm13.265-15.424-2.38-2.763-2.368,2.763,2.372,2.762ZM347.515,74.932l2.372,2.762,2.372-2.762-2.372-2.761Zm0,122.125,2.372,2.761,2.372-2.761-2.372-2.762Zm31.259-45.32-2.372-2.762-2.372,2.762L376.4,154.5Zm-31.259,15.425,2.372,2.762,2.372-2.762-2.372-2.761Zm0,14.47,2.372,2.761,2.372-2.761-2.372-2.762ZM335.48,60.935l1.154,1.332,2.372-2.762-1.172-1.354C337.034,59.07,336.258,60,335.48,60.935Zm12.035,182.4,2.372,2.762,2.372-2.762-2.372-2.761Zm0-15.425,2.372,2.762,2.372-2.762-2.372-2.761Zm0-122.447,2.372,2.762,2.372-2.762-2.372-2.762Zm13.256,122.447,2.372,2.762,2.377-2.762-2.377-2.761Zm-13.256-168.4,2.372,2.762,2.372-2.762-2.372-2.761Zm13.256,183.827,2.372,2.762,2.377-2.762-2.377-2.761ZM347.515,90.358l2.372,2.762,2.372-2.762L349.887,87.6Zm0,30.524,2.372,2.761,2.372-2.761-2.372-2.762Zm-13.26-45.95,2.376,2.762L339,74.932l-2.372-2.761Zm13.26,61.379,2.372,2.761,2.372-2.761-2.372-2.762Zm0,15.426,2.372,2.761,2.372-2.761-2.372-2.762ZM321,120.882l2.372,2.761,2.372-2.761-2.372-2.762Zm0-15.421,2.372,2.762,2.372-2.762-2.372-2.762Zm0,30.85,2.372,2.761,2.372-2.761-2.372-2.762Zm13.255-45.953,2.376,2.762L339,90.358,336.631,87.6Zm-13.255,0,2.372,2.762,2.372-2.762L323.372,87.6Zm0,76.8,2.372,2.762,2.372-2.762-2.372-2.761Zm0-15.425,2.372,2.761,2.372-2.761-2.372-2.762Zm57.774,15.425L376.4,164.4l-2.372,2.761,2.372,2.762Zm-55.64-89.743.238.275,2.372-2.762-.5-.581C324.533,75.369,323.825,76.387,323.134,77.419Zm11.121,58.892,2.376,2.761L339,136.311l-2.372-2.762Zm0-30.85,2.374,2.762L339,105.461l-2.372-2.762Zm0,15.421,2.376,2.761L339,120.882l-2.372-2.762Zm0,122.451,2.376,2.762L339,243.333l-2.372-2.761Zm0-76.171,2.376,2.762L339,167.162l-2.372-2.761Zm0-15.425,2.376,2.761L339,151.737l-2.372-2.762Zm106.055,91.6,2.377,2.762,2.372-2.762-2.372-2.761ZM533.02,90.358l2.372,2.762,2.372-2.762L535.392,87.6Zm0-15.426,2.372,2.762,2.372-2.762-2.372-2.761Zm0-15.426,2.372,2.762,2.372-2.762-2.372-2.761Zm0,45.955,2.372,2.762,2.372-2.762-2.372-2.762Zm0,30.85,2.372,2.761,2.372-2.761-2.372-2.762Zm0-15.429,2.372,2.761,2.372-2.761-2.372-2.762Zm18-15.421L548.65,102.7l-2.374,2.762,2.374,2.762Zm-4.744,91.6,2.376,2.761,2.372-2.761-2.372-2.762Zm0,46.276,2.376,2.762,2.372-2.762-2.372-2.761Zm0-61.7,2.376,2.761,2.372-2.761-2.372-2.762Zm0-29.9,2.376,2.761,2.372-2.761-2.372-2.762Zm0,15.425,2.376,2.762,2.372-2.762-2.372-2.761Zm0,60.746,2.376,2.762,2.372-2.762-2.372-2.761ZM533.02,151.737l2.372,2.761,2.372-2.761-2.372-2.762Zm13.258,60.745,2.376,2.759,2.372-2.762-2.372-2.758ZM519.763,105.461l2.372,2.762,2.372-2.762-2.372-2.762Zm0,30.85,2.372,2.761,2.372-2.761-2.372-2.762Zm0-15.429,2.372,2.761,2.372-2.761-2.372-2.762Zm26.515,15.429,2.376,2.761,2.372-2.761-2.372-2.762Zm-26.515,45.321,2.372,2.761,2.372-2.761-2.372-2.762Zm0-91.274,2.372,2.762,2.372-2.762L522.135,87.6Zm0,61.379,2.372,2.761,2.372-2.761-2.372-2.762Zm0,15.425,2.372,2.762,2.372-2.762-2.372-2.761Zm13.257,29.895,2.372,2.761,2.372-2.761-2.372-2.762Zm0,15.425,2.372,2.762,2.372-2.762-2.372-2.761ZM519.763,74.932l2.372,2.762,2.372-2.762-2.372-2.761Zm-92.706,0,2.372,2.762,2.372-2.762-2.372-2.761Zm105.963,92.23,2.372,2.762,2.372-2.762-2.372-2.761ZM519.763,59.506l2.372,2.762,2.372-2.762-2.372-2.761Zm13.257,168.4,2.372,2.762,2.372-2.762-2.372-2.761Zm1.278,16.914,1.094,1.273,2.372-2.762-.848-.987Zm51.751-16.914,2.372,2.762,2.372-2.762-2.372-2.761Zm13.257-15.426,2.372,2.762,2.372-2.762-2.372-2.761Zm0,15.426,2.372,2.762,2.372-2.762-2.372-2.761Zm0-30.851,2.372,2.761,2.372-2.761-2.372-2.762ZM588.98,150.329l-1.2-.611-1.733,2.019,2.372,2.761,2.372-2.761-1.071-1.247A1.412,1.412,0,0,1,588.98,150.329Zm10.326,93,2.372,2.762,2.372-2.762-2.372-2.761Zm-13.257-76.171,2.372,2.762,2.372-2.762-2.372-2.761Zm13.257,14.47,2.372,2.761,2.372-2.761-2.372-2.762Zm1-61.917a1.521,1.521,0,0,1,.235.418,1.3,1.3,0,0,1-.357,1.4l-.177.167,1.668,1.941,2.372-2.761-2.372-2.762Zm-1-29.357,2.372,2.762,2.372-2.762L601.678,87.6Zm0,76.8,2.372,2.762,2.372-2.762-2.372-2.761Zm0-61.7,2.372,2.762,2.372-2.762-2.372-2.762Zm0-30.529,2.372,2.762,2.372-2.762-2.372-2.761Zm0,76.8,2.372,2.761,2.372-2.761-2.372-2.762Zm-13.257,29.9,2.372,2.761,2.372-2.761-2.372-2.762Zm13.257-45.321,2.372,2.761,2.372-2.761-2.372-2.762Zm-39.772,60.746,2.372,2.761,2.372-2.761-2.372-2.762Zm0-15.425,2.372,2.761,2.372-2.761-2.372-2.762Zm0-14.47,2.372,2.762,2.372-2.762-2.372-2.761Zm26.515,29.895,2.372,2.761,2.372-2.761-2.372-2.762Zm-26.515,15.425,2.372,2.762,2.372-2.762-2.372-2.761Zm0,15.426,2.372,2.762,2.372-2.762-2.372-2.761Zm13.257,15.425,2.372,2.762,2.376-2.762-2.376-2.761Zm-13.257,0,2.372,2.762,2.372-2.762-2.372-2.761Zm2.306-94.281-2.306,2.685,2.372,2.761,2.372-2.761-2.347-2.732Zm-42.077,48.005,2.372,2.761,2.372-2.761-2.372-2.762Zm66.286,46.276,2.372,2.762,2.372-2.762-2.372-2.761Zm0-30.851,2.372,2.762,2.372-2.762-2.372-2.761Zm-13.258-15.425,2.372,2.761,2.376-2.761-2.376-2.762Zm0-15.421,2.372,2.761,2.376-2.761-2.38-2.766Zm0,30.846,2.372,2.762,2.376-2.762-2.376-2.761Zm0,15.426,2.372,2.762,2.376-2.762-2.376-2.761ZM533.02,181.632l2.372,2.761,2.372-2.761-2.372-2.762Zm-61.445-76.171L469.2,102.7l-2.372,2.762,2.372,2.762Zm-4.746-15.1L469.2,93.12l2.376-2.762L469.2,87.6Zm13.163,15.1,2.372,2.762,2.372-2.762-2.372-2.762ZM466.829,74.932l2.372,2.762,2.376-2.762L469.2,72.171Zm0,137.547,2.372,2.762,2.376-2.762-2.376-2.761Zm0-76.168,2.372,2.761,2.376-2.761-2.376-2.762Zm52.934,76.171,2.372,2.762,2.372-2.762-2.372-2.761Zm-39.771,0,2.372,2.762,2.372-2.762-2.372-2.761Zm0-76.168,2.372,2.761,2.372-2.761-2.372-2.762Zm2.185,47.865.187.217,2.372-2.761-.318-.37Zm-2.185-63.29,2.372,2.761,2.372-2.761-2.372-2.762Zm0,76.171,2.372,2.761,2.372-2.761-2.372-2.762Zm0,46.276,2.372,2.762,2.372-2.762-2.372-2.761Zm0-15.425,2.372,2.762,2.372-2.762-2.372-2.761Zm-13.163,0,2.372,2.762,2.376-2.762-2.376-2.761Zm0-168.4,2.372,2.762,2.376-2.762L469.2,56.745ZM440.31,136.311l2.377,2.761,2.372-2.761-2.372-2.762Zm0-15.429,2.377,2.761,2.372-2.761-2.372-2.762Zm13.262,122.451,2.372,2.762,2.372-2.762-2.372-2.761ZM440.314,105.461l2.374,2.762,2.372-2.762-2.372-2.762Zm0,122.447,2.377,2.762,2.372-2.762-2.372-2.761Zm0-15.426,2.377,2.762,2.372-2.762-2.372-2.761Zm2.767-13.119-2.257-2.9-.51.592,2.377,2.761Zm10.5-78.477,2.372,2.761,2.372-2.761-2.372-2.762Zm0-30.528,2.372,2.762,2.372-2.762L455.944,87.6Zm0-15.426,2.372,2.762,2.372-2.762-2.372-2.761Zm0-15.426,2.372,2.762,2.372-2.762-2.372-2.761Zm0,168.4,2.372,2.762,2.372-2.762-2.372-2.761Zm0-91.6,2.372,2.761,2.372-2.761-2.372-2.762Zm0-30.85,2.372,2.762,2.372-2.762-2.372-2.762Zm13.257,137.872L469.2,246.1l2.376-2.762-2.376-2.761Zm0-122.447,2.372,2.761,2.376-2.761-2.376-2.762Zm39.676,60.746,2.372,2.761,2.376-2.761-2.376-2.762Zm0,15.425,2.372,2.761,2.376-2.761-2.376-2.762ZM493.248,59.506l2.372,2.762,2.372-2.762-2.372-2.761Zm13.257,183.827,2.372,2.762,2.376-2.762-2.376-2.761Zm0-91.6,2.372,2.761,2.376-2.761-2.376-2.762Zm0,76.171,2.372,2.762,2.376-2.762-2.376-2.761Zm0-15.426,2.372,2.762,2.376-2.762-2.376-2.761Zm0-45.32,2.372,2.762,2.376-2.762-2.376-2.761Zm0-92.23,2.372,2.762,2.376-2.762-2.376-2.761ZM479.992,90.358l2.372,2.762,2.372-2.762L482.364,87.6Zm39.771,137.55,2.372,2.762,2.372-2.762-2.372-2.761ZM506.505,120.882l2.372,2.761,2.376-2.761-2.376-2.762Zm0,15.429,2.372,2.761,2.376-2.761-2.376-2.762Zm4.746-30.85-2.374-2.762-2.372,2.762,2.372,2.762Zm-4.746-15.1,2.372,2.762,2.376-2.762L508.877,87.6Zm0-30.852,2.372,2.762,2.376-2.762-2.376-2.761ZM493.248,212.482l2.372,2.762,2.372-2.762-2.372-2.761Zm0-30.85,2.372,2.761,2.372-2.761-2.372-2.762Zm0,46.276,2.372,2.762,2.372-2.762-2.372-2.761Zm0-30.851,2.372,2.761,2.372-2.761L495.62,194.3ZM479.992,74.932l2.372,2.762,2.372-2.762-2.372-2.761Zm13.256,0,2.372,2.762,2.372-2.762-2.372-2.761ZM479.992,59.506l2.372,2.762,2.372-2.762-2.372-2.761Zm13.256,183.827,2.372,2.762,2.372-2.762-2.372-2.761Zm0-122.451,2.372,2.761,2.372-2.761-2.372-2.762Zm0-15.421,2.372,2.762,2.372-2.762L495.62,102.7Zm0-15.1,2.372,2.762,2.372-2.762L495.62,87.6Zm2.372,58.617-.242.281,2.025,1.795ZM494.309,168.4l1.311,1.526,2.372-2.762-1.442-1.678Zm-1.061-32.087,2.372,2.761,2.372-2.761-2.372-2.762Z" fill="#cef2cf"/><path d="M589.645,151.5a2.468,2.468,0,0,1-1.12-.274l-14-7.142a.8.8,0,0,0-.732,0l-14,7.141a2.4,2.4,0,0,1-2.516-.176,2.3,2.3,0,0,1-.97-2.333l2.674-15.123a.688.688,0,0,0-.211-.616l-11.328-10.71a2.292,2.292,0,0,1-.618-2.446,2.352,2.352,0,0,1,1.949-1.606L564.423,116a.761.761,0,0,0,.577-.4l7-13.759a2.43,2.43,0,0,1,4.314,0l7,13.76a.764.764,0,0,0,.577.4l15.653,2.206a2.353,2.353,0,0,1,1.949,1.608,2.292,2.292,0,0,1-.62,2.444l-11.326,10.711a.687.687,0,0,0-.21.615l2.674,15.124a2.305,2.305,0,0,1-.967,2.33A2.424,2.424,0,0,1,589.645,151.5Zm-15.489-48.961a.375.375,0,0,0-.374.216l-7,13.761a2.765,2.765,0,0,1-2.08,1.474l-15.653,2.206a.364.364,0,0,0-.33.258.307.307,0,0,0,.094.36l11.33,10.711a2.678,2.678,0,0,1,.8,2.417l-2.674,15.123a.314.314,0,0,0,.153.348.406.406,0,0,0,.456.031l14-7.142a2.811,2.811,0,0,1,2.551,0l14,7.142a.41.41,0,0,0,.455-.029.311.311,0,0,0,.153-.349l-2.674-15.125a2.682,2.682,0,0,1,.8-2.415L599.5,120.809a.307.307,0,0,0,.1-.359h0a.364.364,0,0,0-.33-.258l-15.654-2.206a2.767,2.767,0,0,1-2.079-1.472l-7-13.763A.372.372,0,0,0,574.156,102.534Z" fill="#232639"/><path d="M416.647,83.964a1.63,1.63,0,0,1-.741-.181l-5.9-3.009-5.9,3.009a1.6,1.6,0,0,1-1.666-.117,1.566,1.566,0,0,1-.652-1.564l1.121-6.337-4.751-4.492a1.584,1.584,0,0,1,.882-2.719l6.592-.928,2.94-5.782a1.613,1.613,0,0,1,2.869,0l2.942,5.782,6.59.928a1.59,1.59,0,0,1,1.3,1.075,1.562,1.562,0,0,1-.415,1.643l-4.75,4.493,1.119,6.335a1.562,1.562,0,0,1-.651,1.566A1.6,1.6,0,0,1,416.647,83.964ZM400.161,70.415l4.228,4a1.718,1.718,0,0,1,.514,1.549l-1,5.681,5.3-2.7a1.782,1.782,0,0,1,1.612,0l5.3,2.7-1-5.68a1.719,1.719,0,0,1,.514-1.548l4.228-4-5.87-.826a1.757,1.757,0,0,1-1.321-.937l-2.653-5.217-2.652,5.216a1.758,1.758,0,0,1-1.322.938Z" fill="#232639"/><path d="M534.716,255.839a1.8,1.8,0,0,1-.82-.2l-7.675-3.916-7.666,3.915a1.76,1.76,0,0,1-1.847-.132,1.719,1.719,0,0,1-.714-1.725l1.466-8.288-6.19-5.8a1.7,1.7,0,0,1-.458-1.81,1.734,1.734,0,0,1,1.434-1.187l8.58-1.209,3.813-7.519a1.785,1.785,0,0,1,3.172,0l3.836,7.541,8.556,1.186a1.736,1.736,0,0,1,1.434,1.183l0,.006a1.705,1.705,0,0,1-.46,1.809l-6.207,5.87,1.484,8.221a1.72,1.72,0,0,1-.719,1.726A1.757,1.757,0,0,1,534.716,255.839ZM513.03,238.6l5.824,5.506a1.924,1.924,0,0,1,.575,1.731l-1.381,7.812,7.273-3.71a2,2,0,0,1,1.809,0l7.272,3.71-1.381-7.812a1.916,1.916,0,0,1,.577-1.731l5.821-5.506-8.075-1.138a1.96,1.96,0,0,1-1.48-1.051l-3.639-7.153-3.64,7.153a1.96,1.96,0,0,1-1.481,1.051Zm26.894.071h0Z" fill="#232639"/><path d="M504.482,156.357v0a.836.836,0,0,0-.044-.161.919.919,0,0,0-.065-.2l0,0a.856.856,0,0,0-.1-.134l-.017-.02a.86.86,0,0,0-.1-.129l-13.1-11.62c-.017-.014-.038-.018-.055-.031a1.548,1.548,0,0,0-.358-.178c-.02,0-.035-.019-.056-.023l-20.381-4.047c-.011,0-.022,0-.033,0a.2.2,0,0,0-.023-.006.258.258,0,0,0-.068,0c-.024,0-.045-.014-.07-.014h0l-25.614.041a.98.98,0,0,0-.335.068.1.1,0,0,0-.024,0c-.01,0-.019.008-.029.01h0c-.036.011-.07.026-.105.039l-19.529,3.168c-.019,0-.032.015-.051.019a.952.952,0,0,0-.179.068.938.938,0,0,0-.182.091c-.015.011-.033.013-.047.024l-15.168,11.968h0l-.005,0a.887.887,0,0,0-.093.11c-.016.016-.029.035-.044.052a.947.947,0,0,0-.166.286l0,.005c-.006.017-.01.035-.017.053a.984.984,0,0,0-.038.342v0a.85.85,0,0,0,0,.151.2.2,0,0,0,.009.022.947.947,0,0,0,.043.1l0,.008c.011.027.027.05.039.076a1,1,0,0,0,.093.188l47.52,61.008c0,.007.014.009.02.016a.226.226,0,0,0,.013.02l.011.017c.023.025.052.042.077.065l.022.019c.015.012.021.03.037.041a.477.477,0,0,0,.063.034.8.8,0,0,0,.085.052l.013.011c.007,0,.011.01.018.013h0c.013.006.027,0,.041.009l.016.007a.983.983,0,0,0,.371.081h.007a1.009,1.009,0,0,0,.2-.022c.009,0,.015-.008.024-.01l.027-.01a.932.932,0,0,0,.122-.043c.015-.006.032,0,.048-.011l0,0c.006,0,.009-.008.015-.011a.061.061,0,0,1,.016-.012c.03-.016.06-.03.089-.049l.02-.017c.013-.009.029-.013.041-.022s.023-.031.038-.045a.62.62,0,0,0,.093-.078c0-.006.008-.014.014-.021l.012-.018c.006-.008.016-.01.022-.018l46.615-60.628v0a.987.987,0,0,0,.152-.283v0A.984.984,0,0,0,504.482,156.357Zm-14.551-10.6,9.167,8.13-10.535-3.607-12.768-7.33Zm-4.25,5.175-13.28,4.228-1.209-12.546Zm-15.319,3.918-11-5.083,9.817-7.145Zm-3.432-13.063-9.56,6.96-10.035-6.928Zm-21.748.977,10.241,7.07-10.409,5.217Zm-20.235,2.279,14.538-2.359-13.8,8.748-12.276,2.717Zm18.236-2.334-.175,12.707L428.6,151.954ZM411.12,156.707l14.388-3.184,26.527,55.712Zm16.754-2.869,15.271,3.673,10.981,51.463Zm29.07,58.764L445.13,157.233l12.29-6.159,12.94,5.982Zm15.42-55.327,13.9-4.423-26.115,55.015Zm-10.558,51.756,26.864-56.6,13.181,4.513Z" fill="#232639"/></svg>