<svg xmlns="http://www.w3.org/2000/svg" viewBox="0 0 640 300"><rect width="640" height="300" opacity="0"/><path d="M447.97,266.577l2.692,3.134-2.692,3.134-2.692-3.134Zm-2.692-14.371,2.692,3.133,2.692-3.133-2.692-3.134ZM430.234,43.592l2.692,3.133,2.7-3.133-2.7-3.135Zm15.044,191.476,2.692,3.134,2.692-3.134-2.692-3.134ZM430.234,96.111l2.692,3.134,2.7-3.134-2.7-3.133Zm0,16.421,2.692,3.133,2.7-3.133-2.7-3.134Zm0-51.431,2.692,3.133,2.7-3.133-2.7-3.134Zm0,17.506,2.692,3.133,2.7-3.133-2.7-3.135Zm15.044,86.44,2.692,3.134,2.692-3.134-2.692-3.134Zm0,52.514,2.692,3.135,2.692-3.135-2.692-3.133Zm0-87.525,2.692,3.134,2.692-3.134L447.97,126.9Zm0,17.5,2.692,3.134,2.692-3.134-2.692-3.133Zm0,35.01,2.692,3.134,2.692-3.134-2.692-3.133Zm0,17.508,2.692,3.134,2.692-3.134-2.692-3.133Zm45.133,52.147,2.692,3.133,2.692-3.133-2.692-3.134ZM415.189,43.592l2.692,3.133,2.691-3.133-2.691-3.135Zm15.045,226.119,2.692,3.134,2.7-3.134-2.7-3.134Zm0-139.675,2.692,3.134,2.7-3.134-2.7-3.134ZM415.189,96.111l2.692,3.134,2.691-3.134-2.691-3.133Zm30.089,16.421,2.692,3.133,2.692-3.133L447.97,109.4ZM415.189,78.607l2.692,3.133,2.691-3.133-2.691-3.135Zm1.246-53.966-1.246,1.451,2.692,3.134,2.691-3.134-2.184-2.543C417.736,23.91,417.082,24.27,416.435,24.641Zm13.8,140.406,2.692,3.134,2.7-3.134-2.7-3.134Zm0,17.5,2.692,3.134,2.7-3.134-2.7-3.133Zm0-35.01,2.692,3.131,2.7-3.134-2.7-3.13Zm0,52.518,2.692,3.134,2.7-3.134-2.7-3.133Zm0,17.5,2.692,3.135,2.7-3.135-2.7-3.133ZM415.189,112.536l2.692,3.134,2.691-3.134-2.691-3.138Zm45.132-68.944,2.692,3.133,2.692-3.133-2.692-3.135Zm0-17.5,2.692,3.134,2.692-3.134-2.692-3.135Zm0,103.944,2.692,3.134,2.692-3.134-2.692-3.134Zm.541-121.713-.541.63,2.692,3.134,2.692-3.134-1.094-1.274Q462.729,7.976,460.862,8.323ZM445.278,96.111l2.692,3.134,2.692-3.134-2.692-3.133Zm15.043,0,2.692,3.134,2.692-3.134-2.692-3.133Zm0-17.5,2.692,3.133,2.692-3.133-2.692-3.135Zm15.04,208.61,1.289,1.5c.888.063,1.777.123,2.669.169l1.432-1.666-2.692-3.134Zm15.05,0,1.512,1.76c.816-.029,1.633-.057,2.446-.1l1.426-1.66-2.692-3.134ZM475.366,26.092l2.694,3.134,2.692-3.134-2.692-3.135Zm15.045,243.619,2.692,3.134,2.692-3.134-2.692-3.134Zm-15.05-17.505,2.7,3.133,2.692-3.133-2.692-3.134Zm0,17.505,2.7,3.134,2.692-3.134-2.692-3.134Zm0-34.643,2.694,3.134,2.692-3.134-2.692-3.134ZM460.321,61.1l2.692,3.133,2.692-3.133-2.692-3.134Zm.455,225.584c1.558.289,3.123.559,4.7.8l.228-.266-2.69-3.133Zm-15.5-260.593,2.692,3.134,2.692-3.134-2.692-3.135ZM465.7,112.536l-2.69-3.138-2.694,3.138,2.692,3.134Zm-5.382,157.175,2.692,3.134,2.692-3.134-2.692-3.134Zm-15.043-191.1,2.692,3.133,2.692-3.133-2.692-3.135Zm0-17.506,2.692,3.133,2.692-3.133-2.692-3.134Zm15.043,86.44,2.692,3.134,2.692-3.134-2.692-3.133ZM445.278,43.592l2.692,3.133,2.692-3.133-2.692-3.135Zm15.043,138.959,2.692,3.134,2.692-3.134-2.692-3.133Zm0,69.655,2.692,3.133,2.692-3.133-2.692-3.134Zm0-52.147,2.692,3.134,2.692-3.134-2.692-3.133Zm0-35.012,2.692,3.134,2.692-3.134-2.692-3.134Zm0,52.514,2.692,3.135,2.692-3.135-2.692-3.133Zm0,17.507,2.692,3.134,2.692-3.134-2.692-3.134ZM415.189,61.1l2.692,3.133,2.691-3.133-2.691-3.134Zm20.43-35.009-2.694-3.134-2.692,3.134,2.692,3.134Zm-30.09,17.5-2.691-3.135-2.692,3.135,2.692,3.133Zm0,17.509-2.691-3.134L400.146,61.1l2.692,3.133Zm43.284-49.995q-.679.188-1.357.382l.514.6Zm31.938,188.953-2.692-3.133-2.7,3.133,2.7,3.134ZM405.529,78.607l-2.691-3.135-2.692,3.135,2.692,3.133Zm75.222,138.954-2.692-3.133-2.7,3.133,2.7,3.135Zm-91-173.11q-1.082,1.019-2.141,2.061l.183.213ZM375.44,78.607l-2.692-3.135-2.692,3.135,2.692,3.133ZM372.748,109.4l-.877,1.021c.45,1.587.865,3.189,1.261,4.8l2.308-2.685Zm2.692-13.287-2.692-3.133-2.692,3.133,2.692,3.134Zm0-35.01-.412-.479q-1.283,1.648-2.516,3.337l.236.275Zm30.089,35.01-2.691-3.133-2.692,3.133,2.692,3.134Zm75.222,86.44-2.692-3.133-2.7,3.133,2.7,3.134Zm0-70.019-2.692-3.134-2.7,3.134,2.7,3.133ZM524.087,10.92c-.861-.234-1.724-.464-2.591-.683l1.589,1.85ZM480.751,165.047l-2.692-3.134-2.7,3.134,2.7,3.134ZM555.866,26.092l-2.694-3.134-2.692,3.134,2.692,3.134ZM480.751,8.953,478.386,6.2l-.693.044-2.332,2.709,2.7,3.134ZM584.6,45.167q-1.478-1.412-3-2.779l-1.034,1.2,2.692,3.133Zm42.476,83.27-1.373,1.6,1.826,2.126Q627.327,130.291,627.076,128.437ZM599.905,62.379q-1.254-1.663-2.561-3.288l-1.729,2.01,2.7,3.133ZM480.751,43.592l-2.692-3.135-2.7,3.135,2.7,3.133Zm0,86.444-2.692-3.134-2.7,3.134,2.7,3.134Zm0-68.935-2.692-3.134-2.7,3.134,2.7,3.133Zm0,86.44-2.692-3.133-2.7,3.133,2.7,3.134ZM370.056,200.059l2.692,3.134,2.692-3.134-2.692-3.133Zm110.7-121.452-2.692-3.135-2.7,3.135,2.7,3.133Zm0,17.5-2.692-3.133-2.7,3.133,2.7,3.134ZM415.189,200.059l2.692,3.134,2.691-3.134-2.691-3.133Zm-42.155-14.707,2.406-2.8-1.379-1.6Q373.581,183.162,373.034,185.352Zm27.112-72.82,2.692,3.133,2.695-3.129-2.695-3.138Zm15.077,157.139q1.792,1.053,3.617,2.057l1.732-2.017-2.691-3.134ZM400.146,130.036l2.692,3.134,2.691-3.134-2.691-3.134Zm0,17.5,2.692,3.134,2.691-3.134-2.691-3.133Zm0,35.01,2.692,3.134,2.691-3.134-2.691-3.133Zm0-17.5,2.692,3.134,2.691-3.134-2.691-3.134Zm15.043,17.5,2.692,3.134,2.691-3.134-2.691-3.133Zm0-17.5,2.692,3.134,2.691-3.134-2.691-3.134Zm0-17.506,2.692,3.134,2.691-3.134-2.691-3.133Zm-15.043,52.518,2.692,3.134,2.691-3.134-2.691-3.133Zm15.043-70.023,2.692,3.134,2.691-3.134-2.691-3.134Zm0,87.525,2.692,3.135,2.691-3.135-2.691-3.133ZM385.1,165.047l2.692,3.134,2.7-3.134-2.7-3.134Zm0-17.506,2.692,3.134,2.7-3.134-2.7-3.133Zm0,35.01,2.692,3.134,2.7-3.134-2.7-3.133Zm0,35.01,2.692,3.135,2.7-3.135-2.7-3.133Zm0-87.525,2.692,3.134,2.7-3.134-2.7-3.134Zm0,70.023,2.692,3.134,2.7-3.134-2.7-3.133Zm0-121.452,2.692,3.133,2.7-3.133-2.7-3.135Zm0-17.506,2.692,3.133,2.7-3.133-2.7-3.134Zm0,51.431,2.692,3.133,2.7-3.133-2.7-3.134Zm0-16.421,2.692,3.134,2.7-3.134-2.7-3.133Zm15.047,121.45,2.692,3.135,2.691-3.135-2.691-3.133Zm-30.09,0,2.692,3.135,2.692-3.135-2.692-3.133Zm195.47-35.01,2.691,3.134,2.692-3.134-2.692-3.133Zm0,17.508,2.691,3.134,2.692-3.134-2.692-3.133Zm0-35.012,2.691,3.134,2.692-3.134-2.692-3.134Zm0,52.514,2.691,3.135,2.692-3.135-2.692-3.133Zm0,34.645,2.691,3.133,2.692-3.133-2.692-3.134ZM550.48,43.592l2.692,3.133,2.7-3.133-2.7-3.135Zm15.046,191.476,2.691,3.134,2.692-3.134-2.692-3.134Zm0-87.527,2.691,3.134,2.692-3.134-2.692-3.133Zm0-103.949,2.691,3.133,2.692-3.133-2.692-3.135Zm0,17.509,2.691,3.133,2.692-3.133-2.692-3.134ZM580.57,252.206l.657.765c1.014-.91,2.019-1.829,3.007-2.767l-.972-1.132Zm-15.044-173.6,2.691,3.133,2.692-3.133-2.692-3.135ZM580.57,235.068l2.692,3.134,2.692-3.134-2.692-3.134ZM565.526,96.111l2.691,3.134,2.692-3.134-2.692-3.133Zm0,33.925,2.691,3.134,2.692-3.134-2.692-3.134Zm0-17.5,2.691,3.133,2.692-3.133-2.692-3.134ZM550.48,217.561l2.692,3.135,2.7-3.135-2.7-3.133Zm0-17.5,2.692,3.134,2.7-3.134-2.7-3.133Zm5.386,35.009-2.694-3.134-2.692,3.134,2.692,3.134Zm-5.386,17.138,2.692,3.133,2.7-3.133-2.7-3.134ZM535.436,26.092l2.692,3.134,2.692-3.134-2.692-3.135ZM550.48,269.711l2.532,2.947c.2-.1.393-.206.588-.31l2.269-2.637-2.7-3.134Zm0-87.16,2.692,3.134,2.7-3.134-2.7-3.133Zm0-121.45,2.692,3.133,2.7-3.133-2.7-3.134Zm0,35.01,2.692,3.134,2.7-3.134-2.7-3.133Zm0-17.5,2.692,3.133,2.7-3.133-2.7-3.135Zm0,33.925,2.692,3.133,2.7-3.133-2.7-3.134Zm0,35.009,2.692,3.134,2.7-3.134-2.7-3.133Zm0-17.5,2.692,3.134,2.7-3.134-2.7-3.134Zm0,35.011,2.692,3.134,2.7-3.134-2.7-3.134Zm45.135-35.011,2.7,3.134L601,130.036l-2.692-3.134Zm15.044,35.011,2.691,3.134,2.692-3.134-2.692-3.134Zm0,17.5,2.691,3.134,2.692-3.134-2.692-3.133ZM595.615,78.607l2.7,3.133L601,78.607l-2.692-3.135Zm15.044,121.452,2.691,3.134,2.692-3.134-2.692-3.133ZM535.436,43.592l2.692,3.133,2.692-3.133-2.692-3.135Zm60.179,52.519,2.7,3.134L601,96.111l-2.692-3.133Zm0,16.421,2.7,3.133L601,112.532l-2.692-3.134Zm0,35.009,2.7,3.131L601,147.538l-2.692-3.13Zm31.454,19.1q.251-1.846.452-3.708l-1.818,2.117Zm-16.41-70.527,2.691,3.134,2.692-3.134-2.692-3.133ZM580.57,217.561l2.692,3.135,2.692-3.135-2.692-3.133Zm30.089-70.02,2.691,3.134,2.692-3.134-2.692-3.133Zm0-35.009,2.691,3.133,2.692-3.133L613.35,109.4Zm0,17.5,2.691,3.134,2.692-3.134L613.35,126.9Zm17.663,14.457-2.619,3.048,2.618,3.048c.022-1.023.039-2.048.039-3.077C628.36,146.5,628.343,145.5,628.322,144.493ZM580.57,130.036l2.692,3.134,2.692-3.134-2.692-3.134Zm15.045,35.011,2.7,3.134L601,165.047l-2.692-3.134ZM580.57,96.111l2.692,3.134,2.692-3.134-2.692-3.133Zm0,16.421,2.692,3.133,2.692-3.133-2.692-3.134Zm0,52.515,2.692,3.134,2.692-3.134-2.692-3.134Zm0,35.012,2.692,3.134,2.692-3.134-2.692-3.133Zm0-17.508,2.692,3.134,2.692-3.134-2.692-3.133Zm0-35.01,2.692,3.134,2.692-3.134-2.692-3.133Zm0-68.934,2.692,3.133,2.692-3.133-2.692-3.135Zm15.045,103.944,2.7,3.134L601,182.551l-2.692-3.133Zm-105.2,52.517L493.1,238.2l2.692-3.134-2.692-3.134Zm105.2-35.009,2.7,3.134L601,200.059l-2.692-3.133Zm0,35.009,1.254,1.459q1.31-1.618,2.573-3.275l-1.133-1.318ZM580.57,61.1l2.692,3.133,2.692-3.133-2.692-3.134Zm15.045,156.46,2.7,3.135L601,217.561l-2.692-3.133ZM510.841,26.092l-2.694-3.134-2.692,3.134,2.692,3.134Zm-5.386,138.955,2.692,3.134,2.7-3.134-2.7-3.134ZM535.436,61.1l2.692,3.133L540.82,61.1l-2.692-3.134Zm-29.981,86.437,2.692,3.134,2.7-3.134-2.7-3.134Zm0,104.668,2.692,3.133,2.7-3.133-2.7-3.134Zm0-34.645,2.692,3.135,2.7-3.135-2.7-3.133Zm0,52.15,2.692,3.134,2.7-3.134-2.7-3.134Zm5.386-34.643-2.694-3.134-2.692,3.134,2.692,3.134ZM505.455,78.607l2.692,3.133,2.7-3.133-2.7-3.135Zm0-17.506,2.692,3.133,2.7-3.133-2.7-3.134Zm0-17.505,2.692,3.134,2.7-3.134-2.7-3.134Zm0,86.44,2.692,3.134,2.7-3.134-2.7-3.134Zm0-33.925,2.692,3.134,2.7-3.134-2.7-3.133Zm0,16.421,2.692,3.133,2.7-3.133-2.7-3.134Zm0,70.019,2.692,3.134,2.7-3.134-2.7-3.133Zm-15.044-70.019,2.692,3.133,2.692-3.133L493.1,109.4Zm0,17.5,2.692,3.134,2.692-3.134L493.1,126.9Zm0,35.011,2.692,3.134,2.692-3.134-2.692-3.134Zm0-17.509,2.692,3.134,2.692-3.134L493.1,144.4Zm0,70.023L493.1,220.7l2.692-3.135-2.692-3.133Zm0-17.5,2.692,3.134,2.692-3.134-2.692-3.133Zm0-17.506,2.692,3.134,2.692-3.134-2.692-3.133Zm0-86.44,2.692,3.134,2.692-3.134L493.1,92.978Zm0-70.019,2.692,3.134,2.692-3.134L493.1,22.958Zm0,17.5L493.1,46.73,495.8,43.6,493.1,40.462Zm2.465-37.512-2.465,2.869,2.692,3.134L495.8,8.953,493.345,6.1C493.189,6.094,493.032,6.09,492.876,6.084ZM490.411,61.1l2.692,3.133L495.8,61.1,493.1,57.967Zm0,17.506L493.1,81.74l2.692-3.133L493.1,75.472Zm15.044,208.61.488.568q2.4-.324,4.764-.727l-2.56-2.975Zm0-87.16,2.692,3.134,2.7-3.134-2.7-3.133Zm29.981,17.5,2.692,3.135,2.692-3.135-2.692-3.133ZM520.393,43.6l2.692,3.134,2.692-3.134-2.692-3.134Zm15.043,191.472,2.692,3.134,2.692-3.134-2.692-3.134Zm0,34.643,2.692,3.134,2.692-3.134-2.692-3.134Zm0-17.505,2.692,3.133,2.692-3.133-2.692-3.134ZM520.393,26.092l2.692,3.134,2.692-3.134-2.692-3.134Zm15.043,156.459,2.692,3.134,2.692-3.134-2.692-3.133Zm0,17.508,2.692,3.134,2.692-3.134-2.692-3.133Zm0-103.948,2.692,3.134,2.692-3.134-2.692-3.133Zm0,68.936,2.692,3.134,2.692-3.134-2.692-3.134Zm0-86.44,2.692,3.133,2.692-3.133-2.692-3.135Zm0,33.925,2.692,3.133,2.692-3.133-2.692-3.134Zm0,35.009,2.692,3.134,2.692-3.134-2.692-3.133Zm0-17.5,2.692,3.134,2.692-3.134-2.692-3.134ZM520.393,235.068l2.692,3.134,2.692-3.134-2.692-3.134ZM506.822,7.362l-1.367,1.591,2.692,3.134,2.7-3.134-.968-1.124Q508.355,7.579,506.822,7.362Zm13.571,175.189,2.692,3.134,2.692-3.134-2.692-3.133Zm0,17.506,2.692,3.134,2.692-3.134-2.692-3.133Zm0,17.5,2.692,3.135,2.692-3.135-2.692-3.133Zm0,34.645,2.692,3.133,2.692-3.133-2.692-3.134Zm2.364,32.258c.178-.046.354-.1.532-.144l-.2-.237Zm-2.364-14.753,2.692,3.134,2.692-3.134-2.692-3.134Zm0-208.61,2.692,3.133,2.692-3.133-2.692-3.134Zm0,51.431,2.692,3.133,2.692-3.133-2.692-3.134Zm0-16.421,2.692,3.134,2.692-3.134-2.692-3.133Zm0,68.936,2.692,3.134,2.692-3.134-2.692-3.134Zm0-86.44,2.692,3.133,2.692-3.133-2.692-3.135Zm0,51.429,2.692,3.134,2.692-3.134-2.692-3.134Zm0,17.5,2.692,3.134,2.692-3.134-2.692-3.134Z" fill="#cef2cf"/><path d="M372.935,226.189l7,37.939,46.76.028,9.1-7.428,4.306-30.741Z" fill="#cef2cf"/><path d="M274.315,102.208h-9.8v9.323c0,5.818-4.211,5.6-9.358,5.6s-9.358.219-9.358-5.6v-9.323H227.081v9.323c0,5.818-4.211,5.6-9.358,5.6s-9.358.219-9.358-5.6v-9.323H189.653v9.323c0,5.818-4.211,5.6-9.358,5.6s-9.358.219-9.358-5.6v-9.323H152.216v9.323c0,5.818-4.211,5.6-9.358,5.6s-9.358.219-9.358-5.6v-9.323H114.784v9.323c0,5.818-4.211,5.6-9.358,5.6s-9.358.219-9.358-5.6v-9.323H77.352v9.323c0,5.818-4.211,5.6-9.358,5.6s-9.358.219-9.358-5.6l0-9.323H39.92v9.323c0,5.819,4.211,5.6,9.358,5.6h1.008V232.639H274.315V188.111H252.6V171.579h5.511c3.935,0,7.713-3.307,6.613-7.715-.728-2.942-3.582-4.408-6.613-4.408H252.6V141.822h16.532v-4.408a6.714,6.714,0,0,1,5.186-6.71V117.132c4.941.007,8.913.047,8.913-5.6v-9.323Zm-41.6,96.087H226.1v16.534H209.571v-4.408a6.591,6.591,0,0,0-7.678-6.549,7.13,7.13,0,0,0-5.547,6.549v4.408H179.814V198.3h4.408c3.934,0,7.44-3.636,6.613-7.715a7.168,7.168,0,0,0-6.613-5.51h-4.408V168.54h16.529v-6.613c0-3.932,4.12-6.853,8.2-6.025a6.449,6.449,0,0,1,5.016,6.377l.012,6.261H226.1v16.532h6.613v0a6.615,6.615,0,0,1,0,13.225Z" fill="#cef2cf" fill-rule="evenodd"/><path d="M232.209,4.948A145.122,145.122,0,0,0,104.456,81.136H273.131L287.894,95.9v45.922h9.89v17.634l6.789-.3a6.452,6.452,0,0,1,6.381,5.026c.827,4.082-2.623,7.4-6.557,7.4h-6.613v16.532h-9.89v57.947l22.811,26.159a145.165,145.165,0,0,0-78.5-267.269Z" fill="#cef2cf"/><path d="M49.283,90.686l-9.375,11.521h18.7l5.977-11.521Z" fill="#eafaeb" fill-rule="evenodd"/><path d="M82.2,90.686l-4.89,11.522h18.7q1.9-5.76,3.8-11.522Z" fill="#eafaeb" fill-rule="evenodd"/><path d="M117.428,90.686l-2.717,11.521h18.7l1.63-11.521Z" fill="#eafaeb" fill-rule="evenodd"/><path d="M152.608,91.793l-.491,10.414h18.7l-.543-11.521H152.66Z" fill="#eafaeb" fill-rule="evenodd"/><path d="M187.889,90.686l1.63,11.522h18.7L205.5,90.686Z" fill="#eafaeb" fill-rule="evenodd"/><path d="M283.027,102.207l-9.376-11.521h-15.3l5.977,11.521h18.7Z" fill="#eafaeb" fill-rule="evenodd"/><path d="M245.624,102.207l-4.891-11.521H223.119l3.8,11.521h18.7Z" fill="#eafaeb" fill-rule="evenodd"/><path d="M226.1,215.829H209.571a1,1,0,0,1-1-1v-4.408a5.591,5.591,0,0,0-6.513-5.562,6.145,6.145,0,0,0-4.715,5.619l0,4.351a1,1,0,0,1-1,1H179.814a1,1,0,0,1-1-1V198.3a1,1,0,0,1,1-1h4.407a5.9,5.9,0,0,0,4.509-2.184,5.134,5.134,0,0,0,1.124-4.332,6.187,6.187,0,0,0-5.683-4.71l-4.357,0a1,1,0,0,1-1-1V168.54a1,1,0,0,1,1-1h15.528v-5.612a6.915,6.915,0,0,1,2.624-5.331,8.222,8.222,0,0,1,6.776-1.675,7.491,7.491,0,0,1,5.817,7.371l.01,5.247H226.1a1,1,0,0,1,1,1v15.532h5.64a7.614,7.614,0,0,1,0,15.222H227.1v15.534A1,1,0,0,1,226.1,215.829Zm-15.532-2H225.1V198.3a1,1,0,0,1,1-1h6.612a5.615,5.615,0,0,0,0-11.224H226.1a1,1,0,0,1-1-1V169.54H209.571a1,1,0,0,1-1-1l-.012-6.261a5.48,5.48,0,0,0-4.238-5.4,6.188,6.188,0,0,0-5.088,1.268,4.859,4.859,0,0,0-1.891,3.783v6.612a1,1,0,0,1-1,1H180.814v14.533h3.407a8.217,8.217,0,0,1,7.587,6.28,7.211,7.211,0,0,1-1.529,6.026,7.927,7.927,0,0,1-6.058,2.918h-3.407v14.532h14.531v-3.408a8.178,8.178,0,0,1,6.328-7.524,7.591,7.591,0,0,1,8.9,7.532Z" fill="#232639"/><path d="M325.194,130.89a1,1,0,0,1,0-2h41.27a1,1,0,0,1,0,2Z" fill="#232639"/><path d="M337.592,141.3a1,1,0,0,1,0-2h41.269a1,1,0,0,1,0,2Z" fill="#232639"/><path d="M358.237,167.914H330.446a1,1,0,0,1,0-2h27.791a1,1,0,1,1,0,2Z" fill="#232639"/><path d="M385.952,291.581a1,1,0,0,1-.284-.042,8.938,8.938,0,0,1-6.246-7.066,1,1,0,1,1,1.972-.329,6.929,6.929,0,0,0,4.842,5.477,1,1,0,0,1-.284,1.96Z" fill="#232639"/><path d="M346.789,251.057a1,1,0,0,1,0-2h22.5a1,1,0,0,1,0,2Z" fill="#232639"/><path d="M369.293,241.652h-9a1,1,0,0,1,0-2h9a1,1,0,0,1,0,2Z" fill="#232639"/><path d="M389.113,288.569a4.914,4.914,0,1,1,4.992-4.914A4.959,4.959,0,0,1,389.113,288.569Zm0-7.827a2.915,2.915,0,1,0,2.992,2.913A2.957,2.957,0,0,0,389.113,280.742Z" fill="#232639"/><path d="M425.041,288.569a4.914,4.914,0,1,1,4.992-4.914A4.959,4.959,0,0,1,425.041,288.569Zm0-7.827a2.915,2.915,0,1,0,2.992,2.913A2.957,2.957,0,0,0,425.041,280.742Z" fill="#232639"/><path d="M441.087,226.066a.994.994,0,0,0-.026-.35.9.9,0,0,0-.053-.108.968.968,0,0,0-.137-.248c-.007-.009-.008-.021-.016-.03a.97.97,0,0,0-.11-.084.94.94,0,0,0-.175-.133,50.548,50.548,0,0,0-.331-.117.887.887,0,0,0-.1,0c-.014,0-.023-.007-.038-.008l-61.042.184-5.36.011-2.2-11.808a1,1,0,0,0-.747-.788l-14.183-3.453a1,1,0,1,0-.473,1.943l13.555,3.3,9.207,49.419-2.981,2.965a1,1,0,0,0-.3.709v7.545a1,1,0,0,0,1,1h57.254a1,1,0,0,0,0-2H377.579v-6.129l2.771-2.756,46.344.028h0a1.008,1.008,0,0,0,.633-.225l9.1-7.429a1,1,0,0,0,.358-.636l4.306-30.741C441.094,226.106,441.085,226.086,441.087,226.066Zm-2.144.978L434.859,256.2l-8.52,6.954-45.572-.027-6.631-35.942,5.131-.016Z" fill="#232639"/><path d="M428.988,249.547l-9.162-.013v-9.525h9.018a1,1,0,0,0,0-2h-9.018v-5.457a1,1,0,0,0-2,0v5.457H408.12v-5.457a1,1,0,0,0-2,0v5.457h-9.707v-5.458a1,1,0,0,0-2,0v5.458h-8.988a1,1,0,1,0,0,2h8.988V249.5l-8.987-.012h0a1,1,0,0,0,0,2l8.989.012v5.553a1,1,0,0,0,2,0V251.5l9.707.013v5.537a1,1,0,0,0,2,0v-5.534l9.706.013v5.521a1,1,0,0,0,2,0v-5.518l9.16.013h0a1,1,0,0,0,0-2Zm-32.575-.045V240.01h9.707v9.506Zm11.707.016v-9.509h9.706v9.522Z" fill="#232639"/><path d="M323.289,285.124l-34.395-39.441V189.111h8.89a1,1,0,0,0,1-1V172.579H304.4a7.956,7.956,0,0,0,6.115-2.854,6.792,6.792,0,0,0,1.421-5.741l-.005-.022a7.458,7.458,0,0,0-7.4-5.8l-5.745.254V141.822a1,1,0,0,0-1-1h-8.89V95.9a1,1,0,0,0-.293-.707L273.838,80.429a1,1,0,0,0-.707-.293H50.03a1,1,0,0,0-.707.293L34.559,95.189a1,1,0,0,0-.293.707V245.3L-.34,284.985a.987.987,0,0,0-.333.413,1,1,0,0,0,.207,1.087l11.542,11.8a1,1,0,0,0,.715.3h299.2a1,1,0,0,0,.715-.3l11.539-11.8c.006-.007.01-.016.016-.022a.978.978,0,0,0,.113-.157c.016-.026.036-.05.05-.077s.015-.021.021-.033a.948.948,0,0,0,.051-.178c0-.019.013-.037.017-.056a1.054,1.054,0,0,0,.012-.269v-.011A1,1,0,0,0,323.289,285.124Zm-26.5-142.3v16.634a1,1,0,0,0,.308.723,1.04,1.04,0,0,0,.736.276l6.759-.3a5.442,5.442,0,0,1,5.389,4.236,4.827,4.827,0,0,1-1.011,4.068,5.938,5.938,0,0,1-4.568,2.119h-6.613a1,1,0,0,0-1,1v15.532H253.6V172.579h4.512a8.213,8.213,0,0,0,6.364-3.032,6.765,6.765,0,0,0,1.219-5.923c-.776-3.139-3.753-5.168-7.583-5.168H253.6V142.822h15.533a1,1,0,0,0,1-1v-4.408a6.169,6.169,0,0,1,2.263-4.787,4.736,4.736,0,0,1,4.211-.855c2.694.666,3.649,3.456,3.649,5.642v4.408a1,1,0,0,0,1,1ZM65.193,91.686h15.5l-4.043,9.521H60.254L62.1,97.646ZM132.5,111.54a4.573,4.573,0,0,1-1.014,3.347c-1.256,1.253-3.828,1.251-6.8,1.245H123.6c-2.972.008-5.547.008-6.8-1.244a4.583,4.583,0,0,1-1.014-3.356v-8.324H132.5v8.332Zm-16.522-10.333,2.245-9.521h15.666l-1.346,9.521Zm-2.059,0H97.4l3.141-9.521h15.626Zm-.135,2v8.324a4.576,4.576,0,0,1-1.015,3.355c-1.255,1.253-3.823,1.251-6.8,1.245h-1.084c-2.97.008-5.545.008-6.8-1.244a4.579,4.579,0,0,1-1.015-3.356v-8.324Zm-18.5-2H78.821l4.041-9.522H98.427Zm-.221,2v8.324a4.576,4.576,0,0,1-1.015,3.355c-1.254,1.253-3.834,1.251-6.8,1.245H86.165c-2.968.008-5.547.008-6.8-1.244a4.561,4.561,0,0,1-1.013-3.332v-8.348Zm-18.715,8.347a4.564,4.564,0,0,1-1.013,3.332c-1.255,1.253-3.832,1.251-6.8,1.245H67.451c-2.97.008-5.547.008-6.8-1.244a4.58,4.58,0,0,1-1.015-3.357v-8.323H76.352l0,8.324Zm-15.109-16.6L58,101.207H42.01l7.748-9.521H62.939Zm-3.61,8.249,0,8.324a4.581,4.581,0,0,1-1.014,3.355c-1.256,1.253-3.826,1.251-6.8,1.245H48.735c-2.969.008-5.547.008-6.8-1.244a4.583,4.583,0,0,1-1.014-3.356v-8.324Zm-6.345,14.92c2.791-.028,5.176-.256,6.747-1.825a4.772,4.772,0,0,0,.6-.767,4.778,4.778,0,0,0,.6.767c1.744,1.742,4.487,1.829,7.681,1.829h1.613c3.422.009,6.379.009,8.22-1.83a4.763,4.763,0,0,0,.6-.765,4.661,4.661,0,0,0,.6.766c1.744,1.742,4.488,1.829,7.681,1.829h1.614c3.412.009,6.377.009,8.219-1.829a4.75,4.75,0,0,0,.6-.769,4.7,4.7,0,0,0,.6.769c1.744,1.742,4.487,1.829,7.679,1.829h1.615c3.418.009,6.376.009,8.218-1.829a4.742,4.742,0,0,0,.6-.768,4.742,4.742,0,0,0,.6.768c1.745,1.742,4.488,1.829,7.681,1.829h1.613c3.43.01,6.377.009,8.219-1.829a4.772,4.772,0,0,0,.6-.767,4.686,4.686,0,0,0,.6.767c1.744,1.742,4.488,1.829,7.681,1.829H143.4c3.434.01,6.377.009,8.219-1.829a4.742,4.742,0,0,0,.6-.768,4.742,4.742,0,0,0,.6.768c1.744,1.742,4.487,1.829,7.68,1.829h1.613c3.436.01,6.377.009,8.219-1.829a4.722,4.722,0,0,0,.6-.771,4.728,4.728,0,0,0,.6.771c1.744,1.742,4.487,1.829,7.679,1.829h1.615c3.4.009,6.378.009,8.218-1.829a4.737,4.737,0,0,0,.6-.764,4.8,4.8,0,0,0,.6.764c1.744,1.742,4.487,1.829,7.679,1.829h1.615c3.417.009,6.377.009,8.218-1.829a4.742,4.742,0,0,0,.6-.768,4.742,4.742,0,0,0,.6.768c1.745,1.742,4.488,1.829,7.68,1.829h1.614c3.406.009,6.378.009,8.219-1.829a4.717,4.717,0,0,0,.6-.767,4.778,4.778,0,0,0,.6.767c1.744,1.742,4.488,1.829,7.681,1.829h1.613c3.423.01,6.378.009,8.218-1.829a4.778,4.778,0,0,0,.6-.767,4.674,4.674,0,0,0,.6.767c1.744,1.742,4.487,1.829,7.681,1.829h1.613c3.427.01,6.377.009,8.219-1.829a4.772,4.772,0,0,0,.6-.767,4.778,4.778,0,0,0,.6.767c1.744,1.742,4.487,1.829,7.681,1.829h.521v11.786a6.765,6.765,0,0,0-2.153,1.133,8.207,8.207,0,0,0-3.033,6.363v3.408H252.6a1,1,0,0,0-1,1v17.634a1,1,0,0,0,1,1h5.512c2.187,0,4.976.956,5.642,3.65a4.737,4.737,0,0,1-.855,4.209,6.165,6.165,0,0,1-4.787,2.264H252.6a1,1,0,0,0-1,1v16.532a1,1,0,0,0,1,1h20.719v42.528H51.287Zm99.928-14.92v8.324a4.581,4.581,0,0,1-1.014,3.355c-1.255,1.253-3.831,1.251-6.8,1.245h-1.084c-2.972.008-5.547.008-6.8-1.244a4.575,4.575,0,0,1-1.014-3.348v-8.332Zm-16.649-2,1.347-9.522h15.7l-.45,9.522Zm18.6,0,.442-9.367.007-.154H169.32l.449,9.521Zm16.766,2v8.324a4.581,4.581,0,0,1-1.014,3.355c-1.255,1.253-3.835,1.251-6.8,1.245h-1.084c-2.973.008-5.545.008-6.8-1.244a4.583,4.583,0,0,1-1.015-3.356v-8.324Zm18.72,8.363a4.55,4.55,0,0,1-1.013,3.316c-1.256,1.253-3.829,1.251-6.8,1.245h-1.084c-2.978.008-5.545.008-6.8-1.244a4.579,4.579,0,0,1-1.015-3.356v-8.324h16.711v8.324C188.648,111.546,188.651,111.557,188.651,111.571Zm-16.879-10.364-.448-9.521h15.695l1.348,9.521Zm93.163,0L260,91.686h13.178l7.749,9.521Zm17.293,2v8.324a4.581,4.581,0,0,1-1.014,3.355c-1.256,1.253-3.829,1.251-6.8,1.245h-1.084c-2.976.008-5.546.008-6.8-1.244a4.58,4.58,0,0,1-1.015-3.357v-8.323Zm-18.717,8.324a4.581,4.581,0,0,1-1.014,3.355c-1.255,1.253-3.823,1.251-6.8,1.245h-1.084c-2.975.008-5.546.008-6.8-1.244a4.583,4.583,0,0,1-1.014-3.356v-8.324h16.712Zm-.832-10.325H246.287l-4.042-9.521h15.5Zm-18.566,0H227.642l-.172-.521-2.968-9h15.569Zm.683,2v8.324a4.579,4.579,0,0,1-1.015,3.356c-1.255,1.252-3.836,1.247-6.8,1.244H235.9c-2.975.008-5.546.008-6.8-1.244a4.583,4.583,0,0,1-1.014-3.356v-8.324Zm-19.26-2H209.011l-2.245-9.521H222.4l.172.521Zm.545,2v8.324a4.576,4.576,0,0,1-1.015,3.355c-1.255,1.253-3.833,1.251-6.8,1.245h-1.084c-2.974.008-5.545.008-6.8-1.244a4.579,4.579,0,0,1-1.015-3.356v-8.324Zm-19.126-2H190.387l-1.347-9.522h15.669Zm.409,2v8.324a4.576,4.576,0,0,1-1.015,3.355c-1.256,1.253-3.828,1.251-6.8,1.245h-1.084c-2.973.008-5.545.008-6.8-1.244a4.552,4.552,0,0,1-1.013-3.317c0-.014,0-.025,0-.039v-8.324Zm-171.1-6.9L50.444,82.136H272.716l14.178,14.178v44.508h-4.642v-3.408c0-3.83-2.029-6.807-5.166-7.583a7.274,7.274,0,0,0-1.771-.214V118.131c3.024-.006,5.636-.156,7.312-1.828a6.415,6.415,0,0,0,1.6-4.771v-9.324a.991.991,0,0,0-.671-.933l-9.131-11.22a1,1,0,0,0-.775-.369H49.283a1,1,0,0,0-.776.369l-9.375,11.521a.994.994,0,0,0-.212.741v9.215a6.413,6.413,0,0,0,1.6,4.771c1.744,1.742,4.487,1.829,7.681,1.829h1.085V232.639a1,1,0,0,0,1,1H274.315a1,1,0,0,0,1-1V189.111h11.579v55.561H36.266Zm274.3,200.276H12.212l-9.586-9.8H128.773l3.632,3.586h56.568l3.633-3.586H320.153Zm-220.512-11.8L101.1,267.256H224.491l8.455,17.526Zm145.109,0-8.953-18.557h54.207l-10.477-13.537H52.844L42.367,266.225H99.383L87.7,284.782H2.491l32.764-37.574.011,0H287.571l32.765,37.572Z" fill="#232639"/></svg>