<svg xmlns="http://www.w3.org/2000/svg" viewBox="0 0 640 300"><rect x="0" width="640" height="300" opacity="0"/><path d="M349.51,202.13h28.19c-.9,1.27-1.81,2.53-2.75,3.77-.34,.44-.68,.89-1.03,1.32-13.51,17.31-31.48,30.96-52.2,39.22l-10.81-12.39V84.27c0-.27-.1-.52-.29-.71l-14.76-14.77c-.19-.18-.45-.29-.71-.29H166.71C188.21,30.76,228.83,5.32,275.38,5.32c58.71,0,107.96,40.47,121.37,95.03,.28,1.12,.54,2.24,.78,3.37,.34,1.55,.64,3.1,.92,4.67h-48.94c-.1,0-.2,.02-.3,.05-.04,.01-.09,.03-.13,.05-.23,.11-.41,.29-.5,.53h0c-.03,.07-.04,.13-.05,.18-.01,.07-.02,.13-.02,.19v91.73c0,.26,.09,.52,.29,.71,.1,.09,.21,.17,.33,.22,.12,.05,.25,.08,.38,.08Z" fill="#dfecfc"/><path d="M444.32,205.36l-2.08,2.39,2.08,2.4,2.08-2.4-2.08-2.39Zm0,13.37l-2.08,2.4,2.08,2.4,2.08-2.4-2.08-2.4Zm0,13.38l-2.08,2.4,2.08,2.39,2.08-2.39-2.08-2.4Zm0,13.38l-2.08,2.39,2.08,2.4,2.08-2.4-2.08-2.39Zm0,13.37l-2.08,2.4,2.08,2.4,2.08-2.4-2.08-2.4Zm-11.64-53.5l-2.08,2.39,2.08,2.4,2.08-2.4-2.08-2.39Zm0,13.37l-2.08,2.4,2.08,2.4,2.08-2.4-2.08-2.4Zm0,13.38l-2.08,2.4,2.08,2.39,2.08-2.39-2.08-2.4Zm0,13.38l-2.08,2.39,2.08,2.4,2.08-2.4-2.08-2.39Zm0,13.37l-2.08,2.4,2.08,2.4,2.08-2.4-2.08-2.4Zm-11.64-53.5l-2.09,2.4,2.09,2.4,2.08-2.4-2.08-2.4Zm0,13.38l-2.09,2.39,2.09,2.4,2.08-2.4-2.08-2.39Zm0,13.37l-2.09,2.4,2.09,2.39,2.08-2.39-2.08-2.4Zm0,13.38l-2.09,2.39,2.09,2.4,2.08-2.4-2.08-2.39Zm0,13.38l-2.08,2.4,2.08,2.4,2.08-2.4-2.08-2.4Zm-11.64-53.51l-2.08,2.4,2.08,2.4,2.08-2.4-2.08-2.4Zm0,13.38l-2.08,2.39,2.08,2.4,2.08-2.4-2.08-2.39Zm0,13.37l-2.08,2.4,2.08,2.39,2.08-2.39-2.08-2.4Zm0,13.38l-2.08,2.39,2.08,2.4,2.08-2.4-2.08-2.39Zm0,13.38l-1.77,2.03c.77,.72,1.54,1.43,2.33,2.13l1.52-1.76-2.08-2.4Zm-11.64-53.51l-2.08,2.4,2.08,2.4,2.08-2.4-2.08-2.4Zm0,13.38l-2.08,2.39,2.08,2.4,2.08-2.4-2.08-2.39Zm0,13.37l-2.08,2.4,2.08,2.39,2.08-2.39-2.08-2.4Zm0,13.38l-2.08,2.39,2.08,2.4,2.08-2.4-2.08-2.39Zm-11.64-40.13l-2.08,2.4,2.08,2.4,2.09-2.4-2.09-2.4Zm0,13.38l-2.08,2.39,2.08,2.4,2.09-2.4-2.09-2.39Zm0,13.37l-.77,.89c.55,.95,1.12,1.9,1.71,2.83l1.15-1.32-2.09-2.4Zm-11.17-26.21c-.34,.44-.68,.89-1.03,1.32,.27,.87,.55,1.74,.84,2.61l1.8-2.07-1.61-1.86Zm69.37,66.06l-2.08,2.4,2.08,2.39,2.08-2.39-2.08-2.4Zm-11.64,0l-2.08,2.4,2.08,2.39,2.08-2.39-2.08-2.4Zm185.02-105.24l-.79,.91,.82,.94c-.01-.62-.01-1.23-.03-1.85Zm-.79,14.29l.31,.35c.02-.26,.05-.53,.07-.79l-.38,.44Zm-9.56-15.78l-2.08,2.4,2.08,2.4,2.09-2.4-2.09-2.4Zm0,13.38l-2.08,2.4,2.08,2.39,2.09-2.39-2.09-2.4Zm0,13.38l-2.08,2.39,2.08,2.4,2.09-2.4-2.09-2.39Zm0,13.37l-2.08,2.4,2.08,2.4,2.09-2.4-2.09-2.4Zm0,13.38l-2.08,2.39,.99,1.14c.48-1.05,.96-2.1,1.41-3.16l-.32-.37Zm-11.8-53.51l-2.09,2.4,2.09,2.4,2.08-2.4-2.08-2.4Zm0,13.38l-2.09,2.4,2.09,2.39,2.08-2.39-2.08-2.4Zm0,13.38l-2.09,2.39,2.09,2.4,2.08-2.4-2.08-2.39Zm0,13.37l-2.09,2.4,2.09,2.4,2.08-2.4-2.08-2.4Zm0,13.38l-2.09,2.39,2.09,2.4,2.08-2.4-2.08-2.39Zm0,13.37l-2.09,2.4,2.09,2.39,2.08-2.39-2.08-2.4Zm-11.65-66.88l-2.08,2.4,2.08,2.4,2.09-2.4-2.09-2.4Zm0,13.38l-2.08,2.4,2.08,2.39,2.09-2.39-2.09-2.4Zm0,13.38l-2.08,2.39,2.08,2.4,2.09-2.4-2.09-2.39Zm0,13.37l-2.08,2.4,2.08,2.4,2.09-2.4-2.09-2.4Zm0,13.38l-2.08,2.39,2.08,2.4,2.09-2.4-2.09-2.39Zm0,13.37l-2.08,2.4,2.08,2.39,2.09-2.39-2.09-2.4Zm0,13.38l-2.08,2.39,2.08,2.4,2.09-2.4-2.09-2.39Zm-11.63-80.26l-2.09,2.4,2.09,2.39,2.08-2.39-2.08-2.4Zm0,13.38l-2.09,2.4,2.09,2.39,2.08-2.39-2.08-2.4Zm0,13.38l-2.09,2.39,2.09,2.4,2.08-2.4-2.08-2.39Zm0,13.37l-2.09,2.39,2.09,2.4,2.08-2.4-2.08-2.39Zm0,13.37l-2.09,2.4,2.09,2.4,2.08-2.4-2.08-2.4Zm0,13.38l-2.09,2.4,2.09,2.39,2.08-2.39-2.08-2.4Zm0,13.38l-2.09,2.39,2.09,2.4,2.08-2.4-2.08-2.39Zm0,13.37l-2.09,2.4,2.09,2.4,2.08-2.4-2.08-2.4Zm-11.64-93.63l-2.08,2.4,2.08,2.4,2.08-2.4-2.08-2.4Zm0,13.38l-2.08,2.4,2.08,2.39,2.08-2.39-2.08-2.4Zm0,13.38l-2.08,2.39,2.08,2.4,2.08-2.4-2.08-2.39Zm0,13.37l-2.08,2.4,2.08,2.4,2.08-2.4-2.08-2.4Zm0,13.38l-2.08,2.39,2.08,2.4,2.08-2.4-2.08-2.39Zm0,13.37l-2.08,2.4,2.08,2.39,2.08-2.39-2.08-2.4Zm0,13.38l-2.08,2.39,2.08,2.4,2.08-2.4-2.08-2.39Zm0,13.38l-2.08,2.4,2.08,2.4,2.08-2.4-2.08-2.4Zm-11.64-93.64l-2.08,2.4,2.08,2.4,2.08-2.4-2.08-2.4Zm0,13.38l-2.08,2.4,2.08,2.39,2.08-2.39-2.08-2.4Zm0,13.38l-2.08,2.39,2.08,2.4,2.08-2.4-2.08-2.39Zm0,13.37l-2.08,2.4,2.08,2.4,2.08-2.4-2.08-2.4Zm0,13.38l-2.08,2.39,2.08,2.4,2.08-2.4-2.08-2.39Zm0,13.37l-2.08,2.4,2.08,2.39,2.08-2.39-2.08-2.4Zm0,13.38l-2.08,2.39,2.08,2.4,2.08-2.4-2.08-2.39Zm0,13.38l-2.08,2.4,2.08,2.4,2.08-2.4-2.08-2.4Zm-11.64-93.64l-2.08,2.4,2.08,2.4,2.09-2.4-2.09-2.4Zm0,13.38l-2.08,2.4,2.08,2.39,2.09-2.39-2.09-2.4Zm0,13.38l-2.08,2.39,2.08,2.4,2.09-2.4-2.09-2.39Zm0,13.37l-2.08,2.4,2.08,2.4,2.09-2.4-2.09-2.4Zm0,13.38l-2.08,2.39,2.08,2.4,2.09-2.4-2.09-2.39Zm0,13.37l-2.08,2.4,2.08,2.39,2.09-2.39-2.09-2.4Zm0,13.38l-2.08,2.39,2.08,2.4,2.09-2.4-2.09-2.39Zm0,13.37l-2.08,2.4,2.08,2.4,2.08-2.4-2.08-2.4Zm-11.64-93.63l-2.08,2.4,2.08,2.4,2.08-2.4-2.08-2.4Zm0,13.38l-2.08,2.4,2.08,2.39,2.08-2.39-2.08-2.4Zm0,13.38l-2.08,2.39,2.08,2.4,2.08-2.4-2.08-2.39Zm0,13.37l-2.08,2.4,2.08,2.4,2.08-2.4-2.08-2.4Zm0,13.38l-2.08,2.39,2.08,2.4,2.08-2.4-2.08-2.39Zm0,13.37l-2.08,2.4,2.08,2.39,2.08-2.39-2.08-2.4Zm0,13.38l-2.08,2.39,2.08,2.4,2.08-2.4-2.08-2.39Zm0,13.38l-2.08,2.4,2.08,2.4,2.08-2.4-2.08-2.4Zm-11.64-93.64l-2.08,2.4,2.08,2.4,2.09-2.4-2.09-2.4Zm0,13.38l-2.08,2.4,2.08,2.39,2.09-2.39-2.09-2.4Zm0,13.38l-2.08,2.39,2.08,2.4,2.09-2.4-2.09-2.39Zm0,13.37l-2.08,2.4,2.08,2.4,2.09-2.4-2.09-2.4Zm0,13.38l-2.08,2.39,2.08,2.4,2.09-2.4-2.09-2.39Zm0,13.37l-2.08,2.4,2.08,2.39,2.09-2.39-2.09-2.4Zm0,13.38l-2.08,2.39,2.08,2.4,2.09-2.4-2.09-2.39Zm0,13.38l-2.08,2.4,2.08,2.4,2.08-2.4-2.08-2.4Zm-11.64-93.64l-2.08,2.4,2.08,2.4,2.08-2.4-2.08-2.4Zm0,13.38l-2.08,2.4,2.08,2.39,2.08-2.39-2.08-2.4Zm0,13.38l-2.08,2.39,2.08,2.4,2.08-2.4-2.08-2.39Zm0,13.37l-2.08,2.4,2.08,2.4,2.08-2.4-2.08-2.4Zm0,13.38l-2.08,2.39,2.08,2.4,2.08-2.4-2.08-2.39Zm0,13.37l-2.08,2.4,2.08,2.39,2.08-2.39-2.08-2.4Zm0,13.38l-2.08,2.39,2.08,2.4,2.08-2.4-2.08-2.39Zm0,13.38l-2.08,2.4,2.08,2.4,2.08-2.4-2.08-2.4Zm-11.64-93.64l-2.08,2.4,2.08,2.4,2.08-2.4-2.08-2.4Zm0,13.38l-2.08,2.4,2.08,2.39,2.08-2.39-2.08-2.4Zm0,13.38l-2.08,2.39,2.08,2.4,2.08-2.4-2.08-2.39Zm0,13.37l-2.08,2.4,2.08,2.4,2.08-2.4-2.08-2.4Zm0,13.38l-2.08,2.39,2.08,2.4,2.08-2.4-2.08-2.39Zm0,13.37l-2.08,2.4,2.08,2.39,2.08-2.39-2.08-2.4Zm0,13.38l-2.08,2.39,2.08,2.4,2.08-2.4-2.08-2.39Zm0,13.38l-2.08,2.4,2.08,2.4,2.08-2.4-2.08-2.4Zm-9.93-91.68v.88l.38-.44-.38-.44Zm0,13.38v.87l.38-.43-.38-.44Zm0,13.38v.87l.38-.44-.38-.43Zm-1.71,11.41l-2.08,2.4,2.08,2.4,2.09-2.4-2.09-2.4Zm0,13.38l-2.08,2.39,2.08,2.4,2.09-2.4-2.09-2.39Zm0,13.37l-2.08,2.4,2.08,2.39,2.09-2.39-2.09-2.4Zm0,13.38l-2.08,2.39,2.08,2.4,2.09-2.4-2.09-2.39Zm0,13.37l-2.08,2.4,2.08,2.4,2.09-2.4-2.09-2.4Zm-11.64-53.5l-2.07,2.4,2.08,2.4,2.08-2.4-2.09-2.4Zm0,13.38l-2.07,2.39,2.08,2.4,2.08-2.4-2.09-2.39Zm0,13.37l-2.07,2.4,2.08,2.39,2.08-2.39-2.09-2.4Zm0,13.38l-2.07,2.39,2.08,2.4,2.08-2.4-2.09-2.39Zm0,13.38l-2.08,2.4,2.08,2.4,2.09-2.4-2.09-2.4Zm-11.64-53.51l-2.08,2.39,2.08,2.4,2.09-2.4-2.09-2.39Zm0,13.37l-2.08,2.4,2.08,2.4,2.09-2.4-2.09-2.4Zm0,13.38l-2.08,2.4,2.08,2.39,2.09-2.39-2.09-2.4Zm0,13.38l-2.08,2.39,2.08,2.4,2.09-2.4-2.09-2.39Zm0,13.37l-2.08,2.4,2.08,2.4,2.09-2.4-2.09-2.4Zm104.76,13.1l-2.08,2.4,.97,1.12c.89-.57,1.78-1.14,2.66-1.73l-1.55-1.79Zm-11.64,0l-2.08,2.4,2.08,2.4,2.08-2.4-2.08-2.4Zm-11.64,0l-2.08,2.4,2.08,2.4,2.09-2.4-2.09-2.4Zm0,13.38l-1.59,1.82c.8-.29,1.6-.6,2.39-.9l-.8-.92Zm-11.64-13.38l-2.08,2.4,2.08,2.4,2.08-2.4-2.08-2.4Zm0,13.38l-2.08,2.39,2.08,2.4,2.08-2.4-2.08-2.39Zm-11.64-13.38l-2.08,2.4,2.08,2.4,2.09-2.4-2.09-2.4Zm0,13.38l-2.08,2.39,2.08,2.4,2.09-2.4-2.09-2.39Zm-11.64-13.38l-2.08,2.4,2.08,2.4,2.08-2.4-2.08-2.4Zm0,13.38l-2.08,2.39,2.08,2.4,2.08-2.4-2.08-2.39Zm-11.64-13.38l-2.08,2.4,2.08,2.4,2.08-2.4-2.08-2.4Zm0,13.38l-2.08,2.39,2.08,2.4,2.08-2.4-2.08-2.39Zm-11.64-13.38l-2.08,2.4,2.08,2.4,2.09-2.4-2.09-2.4Zm0,13.38l-2.08,2.39,2.08,2.4,2.09-2.4-2.09-2.39Zm-11.64-13.38l-2.08,2.4,2.08,2.4,2.09-2.4-2.09-2.4Zm0,13.38l-2.07,2.39,2.08,2.4,2.08-2.4-2.09-2.39Zm-11.64-13.38l-2.08,2.4,2.08,2.39,2.09-2.39-2.09-2.4Zm0,13.38l-2.08,2.39,.81,.93c.66,.21,1.33,.42,2,.63l1.36-1.56-2.09-2.39Zm-11.55-226.01l-2.08,2.4,2.08,2.4,2.08-2.4-2.08-2.4Zm0,13.38l-2.08,2.39,2.08,2.4,2.08-2.4-2.08-2.39Zm0,13.38l-2.08,2.39,2.08,2.4,2.08-2.4-2.08-2.39Zm-10.83-25.82c-.94,.51-1.87,1.03-2.8,1.57l1.99,2.29,2.08-2.4-1.27-1.46Zm-.81,12.44l-2.08,2.39,2.08,2.4,2.08-2.4-2.08-2.39Zm0,13.38l-2.08,2.39,2.08,2.4,2.08-2.4-2.08-2.39Zm-11.64-13.38l-2.09,2.4,2.09,2.4,2.08-2.4-2.08-2.4Zm0,13.38l-2.09,2.39,2.09,2.4,2.08-2.4-2.08-2.39Zm-11.72-8.67l.08,.09,.62-.71c-.23,.2-.47,.41-.7,.62Zm.08,8.67l-2.08,2.39,2.08,2.4,2.08-2.4-2.08-2.39Zm-10.22,1.63c-.7,.8-1.39,1.6-2.07,2.41l.65,.75,2.08-2.4-.66-.76Zm45.14,11.46l-2.08,2.4,2.08,2.4,2.08-2.4-2.08-2.4Zm-11.64,0l-2.08,2.4,2.08,2.4,2.08-2.4-2.08-2.4Zm-11.64,0l-2.08,2.4,2.08,2.4,2.08-2.4-2.08-2.4Zm-11.64,0l-2.08,2.4,2.08,2.4,2.08-2.4-2.08-2.4Zm-11.64,0l-1.01,1.16c.28,1.12,.54,2.24,.78,3.37l.23,.27,2.08-2.4-2.08-2.4Zm209.59,26.75l-2.08,2.4,2.08,2.39,2.09-2.39-2.09-2.4Zm0,13.37l-2.08,2.4,2.08,2.39,2.09-2.39-2.09-2.4Zm0,13.38l-2.08,2.39,2.08,2.4,2.09-2.4-2.09-2.39Zm-23.45-66.6l-2.08,2.39,2.08,2.4,2.09-2.4-2.09-2.39Zm-12.09-12.85l-1.63,1.86,2.09,2.4,1.95-2.24c-.8-.68-1.6-1.36-2.41-2.02Zm.46,12.85l-2.09,2.39,2.09,2.4,2.08-2.4-2.08-2.39Zm-11.64-13.38l-2.08,2.4,2.08,2.4,2.08-2.4-2.08-2.4Zm0,13.38l-2.08,2.39,2.08,2.4,2.08-2.4-2.08-2.39Zm-11.64-26.75l-2.08,2.39,2.08,2.4,2.08-2.4-2.08-2.39Zm0,13.37l-2.08,2.4,2.08,2.4,2.08-2.4-2.08-2.4Zm0,13.38l-2.08,2.39,2.08,2.4,2.08-2.4-2.08-2.39Zm-11.64-26.75l-2.08,2.39,2.08,2.4,2.09-2.4-2.09-2.39Zm0,13.37l-2.08,2.4,2.08,2.4,2.09-2.4-2.09-2.4Zm0,13.38l-2.08,2.39,2.08,2.4,2.09-2.4-2.09-2.39Zm-13.03-36.93l1.39,1.6,.86-.99c-.75-.21-1.49-.42-2.25-.61Zm1.39,10.18l-2.08,2.39,2.08,2.4,2.08-2.4-2.08-2.39Zm0,13.37l-2.08,2.4,2.08,2.4,2.08-2.4-2.08-2.4Zm0,13.38l-2.08,2.39,2.08,2.4,2.08-2.4-2.08-2.39Zm-10.61-38.95c-.6-.1-1.2-.2-1.8-.3l-1.31,1.52,2.08,2.4,2.09-2.4-1.06-1.22Zm-1.03,12.2l-2.08,2.39,2.08,2.4,2.09-2.4-2.09-2.39Zm0,13.37l-2.08,2.4,2.08,2.4,2.09-2.4-2.09-2.4Zm0,13.38l-2.08,2.39,2.08,2.4,2.09-2.4-2.09-2.39Zm-11.64-40.13l-2.08,2.4,2.08,2.4,2.08-2.4-2.08-2.4Zm0,13.38l-2.08,2.39,2.08,2.4,2.08-2.4-2.08-2.39Zm0,13.37l-2.08,2.4,2.08,2.4,2.08-2.4-2.08-2.4Zm0,13.38l-2.08,2.39,2.08,2.4,2.08-2.4-2.08-2.39Zm-11.64-40.13l-2.08,2.4,2.08,2.4,2.08-2.4-2.08-2.4Zm0,13.38l-2.08,2.39,2.08,2.4,2.08-2.4-2.08-2.39Zm0,13.37l-2.08,2.4,2.08,2.4,2.08-2.4-2.08-2.4Zm0,13.38l-2.08,2.39,2.08,2.4,2.08-2.4-2.08-2.39Zm-11.64-40.13l-2.08,2.4,2.08,2.4,2.09-2.4-2.09-2.4Zm0,13.38l-2.08,2.39,2.08,2.4,2.09-2.4-2.09-2.39Zm0,13.37l-2.08,2.4,2.08,2.4,2.09-2.4-2.09-2.4Zm0,13.38l-2.08,2.39,2.08,2.4,2.09-2.4-2.09-2.39Zm-10.27-38.56c-1.12,.22-2.23,.45-3.33,.7l-.11,.13,2.08,2.4,2.08-2.4-.72-.83Zm-1.37,11.81l-2.07,2.39,2.08,2.4,2.08-2.4-2.09-2.39Zm0,13.37l-2.07,2.4,2.08,2.4,2.08-2.4-2.09-2.4Zm0,13.38l-2.07,2.39,2.08,2.4,2.08-2.4-2.09-2.39Zm-11.64-26.76l-2.08,2.4,2.08,2.4,2.09-2.4-2.09-2.4Zm0,13.38l-2.08,2.39,2.08,2.4,2.09-2.4-2.09-2.39Zm0,13.38l-2.08,2.39,2.08,2.4,2.09-2.4-2.09-2.39Zm140.61,14.17l-.93-1.08-2.09,2.4,2.09,2.4,1.92-2.22c-.33-.5-.65-1.01-.99-1.5Zm-.93,12.3l-2.09,2.4,2.09,2.4,2.08-2.4-2.08-2.4Zm0,13.38l-2.09,2.4,2.09,2.39,2.08-2.39-2.08-2.4Zm0,13.37l-2.09,2.4,2.09,2.39,2.08-2.39-2.08-2.4Zm0,13.38l-2.09,2.39,2.09,2.4,2.08-2.4-2.08-2.39Zm-11.65-53.5l-2.08,2.4,2.08,2.4,2.09-2.4-2.09-2.4Zm0,13.37l-2.08,2.4,2.08,2.4,2.09-2.4-2.09-2.4Zm0,13.38l-2.08,2.4,2.08,2.39,2.09-2.39-2.09-2.4Zm0,13.37l-2.08,2.4,2.08,2.39,2.09-2.39-2.09-2.4Zm0,13.38l-2.08,2.39,2.08,2.4,2.09-2.4-2.09-2.39Zm-11.63-53.51l-2.09,2.4,2.09,2.4,2.08-2.4-2.08-2.4Zm0,13.38l-2.09,2.4,2.09,2.39,2.08-2.39-2.08-2.4Zm0,13.37l-2.09,2.4,2.09,2.4,2.08-2.4-2.08-2.4Zm0,13.38l-2.09,2.4,2.09,2.39,2.08-2.39-2.08-2.4Zm0,13.37l-2.09,2.4,2.09,2.4,2.08-2.4-2.08-2.4Zm-11.64-53.49l-2.08,2.4,2.08,2.4,2.08-2.4-2.08-2.4Zm0,13.37l-2.08,2.4,2.08,2.4,2.08-2.4-2.08-2.4Zm0,13.38l-2.08,2.4,2.08,2.39,2.08-2.39-2.08-2.4Zm0,13.37l-2.08,2.4,2.08,2.39,2.08-2.39-2.08-2.4Zm0,13.38l-2.08,2.39,2.08,2.4,2.08-2.4-2.08-2.39Zm-11.64-53.5l-2.08,2.4,2.08,2.4,2.08-2.4-2.08-2.4Zm0,13.37l-2.08,2.4,2.08,2.4,2.08-2.4-2.08-2.4Zm0,13.38l-2.08,2.4,2.08,2.39,2.08-2.39-2.08-2.4Zm0,13.37l-2.08,2.4,2.08,2.39,2.08-2.39-2.08-2.4Zm1.27,14.84h-2.54l-.81,.93,2.08,2.4,2.08-2.4-.81-.93Zm-12.91-54.97l-2.08,2.4,2.08,2.4,2.08-2.4-2.08-2.4Zm0,13.38l-2.08,2.4,2.08,2.4,2.09-2.4-2.09-2.4Zm0,13.38l-2.08,2.4,2.08,2.39,2.09-2.39-2.09-2.4Zm0,13.37l-2.08,2.4,2.08,2.39,2.09-2.39-2.09-2.4Zm1.28,14.84h-2.55l-.81,.93,2.08,2.4,2.09-2.4-.81-.93Zm-12.92-54.96l-2.08,2.4,2.08,2.4,2.08-2.4-2.08-2.4Zm0,13.37l-2.08,2.4,2.08,2.4,2.08-2.4-2.08-2.4Zm0,13.38l-2.08,2.4,2.08,2.39,2.08-2.39-2.08-2.4Zm0,13.37l-2.08,2.4,2.08,2.39,2.08-2.39-2.08-2.4Zm1.27,14.84h-2.54l-.81,.93,2.08,2.4,2.08-2.4-.81-.93Zm-12.91-54.96l-2.08,2.4,2.08,2.4,2.08-2.4-2.08-2.4Zm0,13.37l-2.08,2.4,2.08,2.4,2.09-2.4-2.09-2.4Zm0,13.38l-2.08,2.4,2.08,2.39,2.09-2.39-2.09-2.4Zm0,13.37l-2.08,2.4,2.08,2.39,2.09-2.39-2.09-2.4Zm1.28,14.84h-2.55l-.81,.93,2.08,2.4,2.09-2.4-.81-.93Zm-12.92-54.96l-2.08,2.4,2.08,2.4,2.08-2.4-2.08-2.4Zm0,13.37l-2.08,2.4,2.08,2.4,2.08-2.4-2.08-2.4Zm0,13.38l-2.08,2.4,2.08,2.39,2.08-2.39-2.08-2.4Zm0,13.37l-2.08,2.4,2.08,2.39,2.08-2.39-2.08-2.4Zm0,13.38l-2.08,2.39,2.08,2.4,2.08-2.4-2.08-2.39Zm-11.64-53.5l-2.08,2.4,2.08,2.4,2.08-2.4-2.08-2.4Zm0,13.37l-2.08,2.4,2.08,2.4,2.08-2.4-2.08-2.4Zm0,13.38l-2.08,2.4,2.08,2.39,2.08-2.39-2.08-2.4Zm0,13.37l-2.08,2.4,2.08,2.39,2.08-2.39-2.08-2.4Zm0,13.38l-2.08,2.39,2.08,2.4,2.08-2.4-2.08-2.39Zm-11.64-53.51l-2.08,2.4,2.08,2.4,2.09-2.4-2.09-2.4Zm1.71,15.34v.88l.38-.44-.38-.44Zm0,13.38v.87l.38-.43-.38-.44Zm0,13.37v.87l.38-.43-.38-.44Zm0,13.38v.87l.38-.44-.38-.43Zm-13.35-55.46l-2.08,2.4,2.08,2.4,2.09-2.4-2.09-2.4Zm-11.64,0l-2.08,2.4,2.08,2.4,2.09-2.4-2.09-2.4Zm-382.56-11.94V220h222.02V87.24H73.31Zm39.4,71.6h-32.07v-2.84h32.07v2.84Zm0-7.62h-32.07v-2.84h32.07v2.84Zm0-7.63h-32.07v-2.83h32.07v2.83Zm0-7.62h-32.07v-2.84h32.07v2.84Zm0-7.62h-32.07v-2.84h32.07v2.84Zm0-7.63h-32.07v-2.84h32.07v2.84Zm172.93,87.67c0,.55-.45,1-1,1H121.53c-.55,0-1-.45-1-1V98.84c0-.55,.45-1,1-1h110.98c.55,0,1,.45,1,1v9.55h51.13c.55,0,1,.44,1,1v99ZM129.51,119.94h11.14v11.14h-11.14v-11.14Zm0,16.67h11.14v11.14h-11.14v-11.14Zm0,16.67h11.14v11.14h-11.14v-11.14Zm0,16.67h11.14v11.14h-11.14v-11.14Zm0,16.67h11.14v11.14h-11.14v-11.14Z" fill="#c6d4f4"/><path d="M345.32,273.5s0-.01-.01-.02l-23.59-27.05-10.81-12.39V84.26c0-.27-.1-.52-.29-.71l-14.76-14.77c-.19-.18-.45-.29-.71-.29H72.05c-.27,0-.52,.11-.71,.29l-14.76,14.76c-.19,.19-.3,.45-.3,.71V233.66l-34.57,39.65c-.16,.1-.29,.26-.36,.44-.16,.37-.08,.8,.2,1.09l11.54,11.8c.19,.19,.45,.3,.72,.3H333.01c.27,0,.53-.11,.71-.3l11.54-11.8c.09-.09,.16-.19,.2-.29,.02-.05,.04-.09,.05-.14,.03-.09,.04-.18,.04-.27,0-.13-.03-.26-.08-.39-.04-.09-.09-.18-.15-.25ZM58.28,84.67l14.18-14.18h222.27l14.18,14.18V233.03H58.28V84.67Zm274.31,200.27H34.23l-9.59-9.8h126.86l3.13,3.09h56.16l3.13-3.09h128.25l-9.58,9.8Zm-220.51-11.8l11.04-17.53h123.39l8.46,17.53H112.08Zm145.11,0l-8.47-17.56h53.72c.38,0,.73-.22,.9-.56,.17-.34,.12-.75-.11-1.05l-1.17-1.52h-.01l-9.3-12.02c-.19-.24-.48-.39-.79-.39H74.86c-.31,0-.6,.15-.79,.39l-10.47,13.54c-.24,.3-.28,.71-.11,1.05,.17,.34,.51,.56,.9,.56h56.38l-11.06,17.56H24.51l32.76-37.57h252.32l10.15,11.64,22.61,25.93h-85.16Zm39.14-190.77H72.31c-.56,0-1,.45-1,1V220.99c0,.56,.44,1,1,1h224.02c.56,0,1-.44,1-1V83.37c0-.55-.44-1-1-1Zm-1,137.62H73.31V87.23h222.02V219.99Zm258.96-66.85c0,.56-.44,1-1,1h-41.27c-.55,0-1-.44-1-1s.45-1,1-1h41.27c.56,0,1,.45,1,1Zm-30.62,20.62c0,.55-.45,1-1,1h-27.79c-.56,0-1-.45-1-1s.44-1,1-1h27.79c.55,0,1,.45,1,1Zm7.22-36.02h-41.26c-.56,0-1-.45-1-1s.44-1,1-1h41.26c.56,0,1,.44,1,1s-.44,1-1,1Zm-450.25,18.25h32.07v2.84h-32.07v-2.84Zm0-12.41h32.07v-2.83h-32.07v2.83Zm0,7.63h32.07v-2.84h-32.07v2.84Zm0-15.25h32.07v-2.84h-32.07v2.84Zm0-7.62h32.07v-2.84h-32.07v2.84Zm0-7.63h32.07v-2.84h-32.07v2.84Zm82.83-18.02h18.06v2.83h-18.06v-2.83Zm111.91,88.47h-122.84c-.55,0-1,.45-1,1s.45,1,1,1h122.84c.56,0,1-.44,1-1s-.44-1-1-1Zm-74.91-85.64h18.05v-2.83h-18.05v2.83Zm74.91,68.98h-122.84c-.55,0-1,.44-1,1s.45,1,1,1h122.84c.56,0,1-.45,1-1s-.44-1-1-1ZM126.48,105.52h18.06v-2.83h-18.06v2.83Zm148.9,18.98h-122.84c-.55,0-1,.45-1,1s.45,1,1,1h122.84c.56,0,1-.45,1-1s-.44-1-1-1ZM120.53,208.38V98.83c0-.55,.45-1,1-1h110.98c.55,0,1,.45,1,1v9.55h51.13c.55,0,1,.44,1,1v99c0,.55-.45,1-1,1H121.53c-.55,0-1-.45-1-1Zm75.99-100h34.99v-8.55h-34.99v8.55Zm-37,0h35v-8.55h-35v8.55Zm-36.99,0h34.99v-8.55h-34.99v8.55Zm0,99h161.11V110.38H122.53v97Zm152.85-66.22h-122.84c-.55,0-1,.45-1,1s.45,1,1,1h122.84c.56,0,1-.44,1-1s-.44-1-1-1Zm0,16.67h-122.84c-.55,0-1,.45-1,1s.45,1,1,1h122.84c.56,0,1-.45,1-1s-.44-1-1-1ZM109.55,101.83v5.76h-2.01v-5.76h2.01Zm-16.54,1.74l1.37,4.02h1.68l1.37-3.99v3.99h2.01v-7.23h-2.42l-1.78,4.69-1.81-4.69h-2.43v7.23h2.01v-4.02Zm-12.37,5.03c-.49-.63-.76-1.45-.76-2.4,0-3.23,2.46-5.56,5.71-5.56,2.48,0,4.08,1.52,4.08,3.73,0,1.76-.94,3.27-2.71,3.27-.75,0-1.25-.3-1.45-.81-.36,.53-.97,.83-1.69,.83-1,0-1.61-.62-1.61-1.67,0-1.48,.95-2.84,2.31-2.84,.59,0,.97,.24,1.13,.63l.1-.57h1.58l-.42,2.42c-.07,.43-.02,.7,.34,.7,.65,0,.92-.96,.92-1.9,0-1.5-1.04-2.45-2.77-2.45-2.31,0-4.05,1.82-4.05,4.08,0,.75,.22,1.37,.63,1.81,.45,.49,1.14,.76,2.02,.76,.7,0,1.34-.13,1.85-.36l.33,1.27c-.67,.3-1.47,.46-2.31,.46-1.42,0-2.55-.51-3.23-1.4Zm4.72-3.39c0-.39-.21-.66-.57-.66-.49,0-.87,.48-.87,1.07,0,.38,.2,.62,.56,.62,.46,0,.88-.45,.88-1.03Zm23.2-3.91c.71,0,1.17-.45,1.17-1.02s-.46-1.05-1.17-1.05-1.18,.46-1.18,1.05,.46,1.02,1.18,1.02Zm-8.31,3.4c0-1.83,1.09-2.94,2.45-2.94,.82,0,1.39,.36,1.69,.87v-.8h2.01v5.76h-2.01v-.8c-.3,.51-.88,.87-1.69,.87-1.36,0-2.45-1.12-2.45-2.96Zm2.05,0c0,.77,.47,1.2,1.05,1.2s1.04-.42,1.04-1.2-.48-1.18-1.04-1.18-1.05,.41-1.05,1.18Zm10.41-4.7h-2.01v7.59h2.01v-7.59Zm368.09,9.05s0-.03-.01-.04c-.01-.02-.01-.03-.03-.05-.02-.05-.04-.09-.07-.13-.02-.04-.05-.07-.08-.11l-.11-.11c-.18-.14-.4-.23-.64-.23h-130.35c-.1,0-.2,.02-.3,.05-.04,.01-.09,.03-.13,.05-.23,.11-.41,.29-.5,.53h0c-.03,.07-.04,.13-.05,.18-.01,.07-.02,.13-.02,.19v91.73c0,.26,.09,.52,.29,.71,.1,.09,.21,.17,.33,.22,.12,.05,.25,.08,.38,.08h28.89l101.46-.02h.01s.04-.01,.05-.01c.02,0,.04-.01,.06-.01,.04-.01,.08-.01,.12-.02,.05-.01,.1-.03,.15-.05,.05-.02,.09-.04,.13-.07,.04-.02,.08-.05,.12-.08,.11-.08,.21-.2,.26-.34,.07-.13,.1-.27,.1-.42V109.38c0-.06,0-.12-.02-.19,0-.04-.02-.09-.04-.14Zm-3.43,1.33l-62.28,59.75-63.06-59.75h125.34Zm-126.86,1.33l44.67,42.32-44.67,44.66V111.71Zm1.4,88.41l44.72-44.71,17.77,16.83c.2,.18,.44,.27,.69,.27s.5-.09,.69-.28l17.25-16.55h.01l44.41,44.42-125.54,.02Zm126.95-1.44l-44.38-44.38h0l38.82-37.25,5.56-5.33v86.96Z" fill="#333230"/></svg>