<svg xmlns="http://www.w3.org/2000/svg" viewBox="0 0 640 300"><rect width="640" height="300" opacity="0"/><circle cx="562.51" cy="139.506" r="2.722" fill="#dfecfc"/><circle cx="536.331" cy="159.123" r="2.722" fill="#dfecfc"/><circle cx="515.951" cy="143.123" r="2.722" fill="#dfecfc"/><circle cx="479.297" cy="176.578" r="2.722" fill="#dfecfc"/><rect x="351.007" y="60.179" width="143.907" height="78.628" fill="#dfecfc"/><path d="M279.9,225.6l-7.26-27.157c.376-1.3.724-2.612,1.063-3.928l.135.157,2.372-2.762-1.473-1.715A137.985,137.985,0,0,0,120.4,23.508a73.505,73.505,0,1,1-82.024,43.4A137.935,137.935,0,0,0,228.65,265.818l6.6.557,4.863-52.913-.035.052,9.355-101.456-17.1,112.848-20.95,30.805-19.492-9.891,30.931-22.334,26.642-111.753.7,2.622-.675-2.526L252.1,249.641l-4.316,4.371L252,261.593l5.526-9.31,23.326,10.955,41.213-4.539Zm-72,35.235-2.074,3.05h-.006Z" fill="#dfecfc"/><path d="M148.73,48.017c.287,0,.558.035.834.051A64.426,64.426,0,0,0,52.2,60.192c1.515.048,2.94.08,4.148.08,6.738,0,17.178-.819,17.178-.819,3.473-.205,3.88,4.9.411,5.312,0,0-3.491.409-7.373.609l23.467,69.807,14.1-42.3L94.1,65.374c-3.474-.2-6.758-.609-6.758-.609-3.474-.207-3.067-5.517.409-5.312,0,0,10.64.819,16.973.819,6.738,0,17.177-.819,17.177-.819a2.664,2.664,0,0,1,.412,5.312s-3.5.409-7.372.609l23.283,69.28,6.43-21.475q4.9-12.567,4.9-20.838c0-7.967-2.862-13.481-5.314-17.771-3.267-5.312-6.329-9.8-6.329-15.115C137.91,53.531,142.4,48.017,148.73,48.017Z" fill="#dfecfc"/><path d="M138.446,151.295A64.46,64.46,0,0,0,162.6,64.676a49.237,49.237,0,0,1,.434,6.627c0,6.538-1.226,13.888-4.9,23.081Z" fill="#dfecfc"/><path d="M41.6,95.592a64.451,64.451,0,0,0,36.322,58L47.185,69.366A64.191,64.191,0,0,0,41.6,95.592Z" fill="#dfecfc"/><path d="M87.844,157.415a64.482,64.482,0,0,0,39.607-1.026,6.427,6.427,0,0,1-.461-.89l-19.81-54.27Z" fill="#dfecfc"/><path d="M106.047,170.1a74.5,74.5,0,1,1,74.507-74.506A74.588,74.588,0,0,1,106.047,170.1Zm0-147.008a72.5,72.5,0,1,0,72.507,72.5A72.584,72.584,0,0,0,106.047,23.09Zm0,137.95a65.4,65.4,0,0,1-18.488-2.667,1,1,0,0,1-.663-1.284L106.235,100.9a1,1,0,0,1,.935-.675h.01a1,1,0,0,1,.94.657l19.81,54.27a5.3,5.3,0,0,0,.375.715,1,1,0,0,1-.522,1.461A65.34,65.34,0,0,1,106.05,161.04Zm-16.917-4.3a63.507,63.507,0,0,0,36.909-.929l-18.835-51.593Zm-11.207-2.152a1,1,0,0,1-.436-.1A65.452,65.452,0,0,1,46.272,68.959a.943.943,0,0,1,.948-.591,1,1,0,0,1,.9.656l30.742,84.224a1,1,0,0,1-.94,1.343ZM47.117,72.1a63.457,63.457,0,0,0,29,79.45Zm91.33,80.2a1,1,0,0,1-.946-1.327l19.683-56.911c3.312-8.285,4.848-15.5,4.848-22.754a48.444,48.444,0,0,0-.425-6.493,1,1,0,0,1,1.868-.615,65.46,65.46,0,0,1-24.524,87.965A1.013,1.013,0,0,1,138.447,152.295ZM164.01,69.776c.015.507.022,1.015.022,1.527,0,7.516-1.58,14.968-4.974,23.452L140.3,148.985A63.464,63.464,0,0,0,164.01,69.776ZM90.032,136.181a1,1,0,0,1-.949-.682L65.618,65.693a1,1,0,0,1,.9-1.318c3.8-.195,7.273-.6,7.308-.6a1.612,1.612,0,0,0,1.515-1.836,1.544,1.544,0,0,0-1.752-1.485c-.085.006-10.536.821-17.236.821-1.13,0-2.5-.026-4.181-.081a1,1,0,0,1-.8-1.549,65.427,65.427,0,0,1,98.875-12.311,1,1,0,0,1-.733,1.735l-.317-.023c-.152-.012-.3-.026-.461-.026-6.066,0-9.819,5.418-9.819,10.438,0,4.61,2.508,8.661,5.414,13.351l.765,1.24c2.652,4.635,5.463,10.228,5.463,18.295,0,5.606-1.673,12.739-4.973,21.2l-6.4,21.4a1,1,0,0,1-.941.713,1.036,1.036,0,0,1-.965-.682L113.988,65.693a1,1,0,0,1,.9-1.318c3.8-.195,7.273-.6,7.308-.6a1.611,1.611,0,0,0,1.516-1.835,1.535,1.535,0,0,0-1.753-1.486c-.084.006-10.536.821-17.236.821-6.3,0-16.942-.815-17.05-.822a1.605,1.605,0,0,0-1.739,1.617,1.5,1.5,0,0,0,1.467,1.7c.1.01,3.357.411,6.756.609a1,1,0,0,1,.882.656l10.041,27.509a1,1,0,0,1,.008.66l-14.1,42.3a1,1,0,0,1-.947.684ZM67.931,66.3l22.1,65.735L103.077,92.9l-9.7-26.567c-3.217-.211-6.134-.571-6.166-.575a3.458,3.458,0,0,1-3.281-3.808,3.588,3.588,0,0,1,3.872-3.494c.124.008,10.691.817,16.914.817,6.622,0,17-.809,17.1-.816a3.558,3.558,0,0,1,3.882,3.3,3.611,3.611,0,0,1-3.275,4c-.033,0-2.808.326-6.125.539l21.863,65.054,5.527-18.459c3.235-8.306,4.862-15.194,4.862-20.551,0-7.577-2.675-12.889-5.182-17.275l-.747-1.206c-3.066-4.95-5.713-9.226-5.713-14.4a12.271,12.271,0,0,1,10.1-12.306A63.427,63.427,0,0,0,54.053,59.243c.864.019,1.624.029,2.3.029,6.622,0,16.995-.809,17.1-.816a3.555,3.555,0,0,1,3.88,3.3,3.609,3.609,0,0,1-3.273,4C74.023,65.762,71.25,66.084,67.931,66.3Z" fill="#232639"/><path d="M322.687,257.913l-41.907-32.9-30.3-113.328a1,1,0,0,0-.934-.961.812.812,0,0,0-.778.318,1.093,1.093,0,0,0-.149.169,1,1,0,0,0-.066.15.956.956,0,0,0-.063.143L221.933,222.9,191.3,245.017a1,1,0,0,0,.133,1.7l18.474,9.374-4.919,7.234a1,1,0,0,0,.743,1.558l29.432,2.487q.042,0,.084,0a1,1,0,0,0,.368-.07c.027-.011.049-.034.076-.047a1.017,1.017,0,0,0,.241-.159c.005,0,.012-.006.018-.012l11.6-11.439,3.582,6.432a1,1,0,0,0,.867.513H252a1,1,0,0,0,.867-.5l4.94-8.572,22.62,10.623a1,1,0,0,0,.534.089l41.214-4.539a1,1,0,0,0,.508-1.78Zm-65.322-112.73,20.8,77.776-5.714-4.484Zm-18.227,67.93-5.191,7.634,11.383-75.012Zm-7.8,11.463L220.4,240.659l3.39-16.942L244.923,135.1Zm-10,1.217-3.824,19.115-6.474,9.518L193.8,245.678Zm-9.228,30.616a.975.975,0,0,0,.166-.235l0-.014,26.479-38.935-4.419,48.07L207.6,263.037Zm24.382,7.333,4.6-50.028a.988.988,0,0,0,.035-.389l7.694-83.7,2.271,119.7-3.905,3.871Zm15.826-12.8L256,252.667l-3.976,6.9-2.993-5.375Zm.768-1.872-2.4-126.414,28.54,138.7-21.377-10.05-.015-.009-.407-.189Zm28.349,13.1-8.363-40.644,6.224,4.928a1.041,1.041,0,0,0,.263.149l39.966,31.372Z" fill="#232639"/><path d="M313.608,265.951l2.372,2.761-2.372,2.762-2.372-2.762Zm-2.372-27.766,2.372,2.762,2.372-2.762-2.372-2.762Zm0-107.979,2.372,2.761,2.372-2.761-2.372-2.762Zm0,92.552,2.372,2.762,2.372-2.762L313.608,220Zm0-61.7,2.372,2.762,2.372-2.762-2.372-2.761Zm-13.257-91.6,2.372,2.761,2.376-2.761-2.376-2.762Zm13.257,76.175,2.372,2.761,2.372-2.761-2.372-2.762Zm0,30.851,2.372,2.762,2.372-2.762-2.372-2.761Zm0,30.853,2.372,2.762,2.372-2.762-2.372-2.761Zm0-15.428,2.372,2.762,2.372-2.762-2.372-2.761Zm0,92.232,2.372,2.761,2.372-2.761-2.372-2.762ZM297.979,176.482l2.372,2.762,2.376-2.762-2.376-2.761Zm0-91.6,2.372,2.761,2.376-2.761-2.376-2.762Zm0,137.873,2.372,2.762,2.376-2.762L300.351,220Zm0-15.423,2.372,2.762,2.376-2.762-2.376-2.761Zm0-46.279,2.372,2.759,2.376-2.762-2.376-2.758Zm0-60.745,2.372,2.761,2.376-2.761-2.376-2.762Zm0,15.425,2.372,2.762,2.376-2.762-2.376-2.761Zm0,29.895,2.372,2.761,2.376-2.761-2.376-2.762Zm0-15.425,2.372,2.761,2.376-2.761-2.376-2.762Zm0,61.7,2.372,2.762,2.376-2.762-2.376-2.761Zm26.513-76.171,2.372,2.762,2.372-2.762-2.372-2.761Zm0,91.6,2.372,2.762,2.372-2.762-2.372-2.761Zm0-61.7,2.372,2.761,2.372-2.761-2.372-2.762Zm0,46.276,2.372,2.762,2.372-2.762-2.372-2.761Zm0-15.425,2.372,2.762,2.372-2.762-2.372-2.761Zm0-15.426,2.372,2.762,2.372-2.762-2.372-2.761Zm0-91.6,2.372,2.761,2.372-2.761-2.372-2.762Zm0,30.855,2.372,2.761,2.372-2.761-2.372-2.762Zm0-46.276,2.372,2.762,2.372-2.762-2.372-2.762Zm0,30.85,2.372,2.761,2.372-2.761-2.372-2.762Zm0,153.3,2.372,2.762,2.372-2.762-2.372-2.762ZM311.236,69.456l2.372,2.761,2.372-2.761-2.372-2.762Zm0-15.421,2.372,2.762,2.372-2.762-2.372-2.762Zm13.256,168.723,2.372,2.762,2.372-2.762L326.864,220ZM311.236,100.311l2.372,2.761,2.372-2.761-2.372-2.762ZM324.49,284.138l2.372,2.761,2.372-2.761-2.37-2.761ZM311.236,84.885l2.372,2.761,2.372-2.761-2.372-2.762Zm13.256,183.827,2.372,2.762,2.372-2.762-2.372-2.761ZM311.236,115.736l2.372,2.762,2.372-2.762-2.372-2.761Zm13.256,137.551,2.372,2.761,2.372-2.761-2.372-2.762Zm4.742-123.077-2.37-2.766-2.374,2.766,2.372,2.761Zm13.26-91.278-1.713-1.994c-.481.045-.962.091-1.442.142l-1.594,1.852,2.377,2.762Zm0,137.55-2.372-2.761-2.377,2.761,2.377,2.762Zm0-15.426-2.372-2.761-2.377,2.761,2.377,2.762Zm0,30.851-2.372-2.761-2.377,2.761,2.377,2.762Zm0-46.276-2.372-2.762-2.377,2.762,2.377,2.761Zm0-15.425-2.372-2.762-2.377,2.762,2.377,2.761Zm-66.285-60.75-2.372-2.762-2.372,2.762,2.372,2.761Zm66.285,137.879-2.372-2.761-2.377,2.761,2.377,2.762Zm-39.77-153.3-2.374-2.762-2.372,2.762L300.35,56.8Zm39.77,61.7-2.372-2.761-2.377,2.761,2.377,2.762Zm0,107.022L340.122,220l-2.377,2.761,2.377,2.762ZM324.922,39.432l1.942,2.262,2.372-2.762-.279-.325Q326.928,38.988,324.922,39.432Zm17.572,60.879-2.372-2.762-2.377,2.762,2.377,2.761ZM447.644,162v-1.9l-1.555-1.808-2.376,2.761,2.376,2.759Zm0,15.429v-1.9l-1.555-1.81-2.376,2.761,2.376,2.762Zm0-30.852v-1.9l-1.555-1.811-2.376,2.762,2.376,2.761Zm0,46.277v-1.9l-1.555-1.81-2.376,2.761,2.376,2.762Zm-65.929-153.4q-2.005-.446-4.033-.828l-.255.3,2.372,2.762ZM342.494,84.885l-2.372-2.762-2.377,2.762,2.377,2.761Zm0-15.429-2.372-2.762-2.377,2.762,2.377,2.761ZM297.979,268.712l2.372,2.762,2.376-2.762-2.376-2.761ZM276.209,84.885l-2.372-2.762-2.372,2.762,2.372,2.761Zm8.512,15.426,2.372,2.761,2.372-2.761-2.372-2.762Zm0,15.425,2.372,2.762,2.372-2.762-2.372-2.761Zm0,29.895,2.372,2.761,2.372-2.761-2.372-2.762Zm0-60.746,2.372,2.761,2.372-2.761-2.372-2.762Zm0,45.325,2.372,2.761,2.372-2.761-2.372-2.766Zm18,107.975-2.374-2.762-2.372,2.762,2.372,2.762Zm-18-168.729,2.372,2.761,2.372-2.761-2.372-2.762Zm0,91.6,2.372,2.762,2.372-2.762-2.372-2.761Zm13.258,123.083,1.622,1.887c.361.164.728.318,1.091.478l2.035-2.365-2.376-2.762ZM285.685,55.157l1.408,1.64,2.372-2.762-.623-.725Q287.251,54.214,285.685,55.157Zm-.964,136.75,2.372,2.762,2.372-2.762-2.372-2.761Zm-13.256-61.7,2.372,2.761,2.375-2.757-2.375-2.766Zm0,138.506.065.075q1.365,1.1,2.76,2.159l1.919-2.234-2.372-2.761Zm13.256-92.23,2.372,2.762,2.372-2.762-2.372-2.761Zm-8.512-60.746-2.372-2.761-2.372,2.761,2.372,2.762Zm-18-30.851,2.372,2.761,2.377-2.761-2.377-2.762Zm26.515,183.827,2.372,2.762,2.372-2.762-2.372-2.761Zm-8.512-168.4-2.372-2.762-2.372,2.762,2.372,2.761Zm8.512,107.024,2.372,2.762,2.372-2.762-2.372-2.761Zm0,15.423,2.372,2.762,2.372-2.762L287.093,220Zm123.965,15.427-2.374-2.762-2.372,2.762,2.372,2.762Zm8.512,30.527,2.372,2.762,2.372-2.762-2.372-2.761Zm0-92.23,2.372,2.762,2.372-2.762-2.372-2.761Zm-13.258,0,2.372,2.762,2.376-2.762-2.376-2.761ZM417.2,253.287l2.372,2.761,2.372-2.761-2.372-2.762ZM403.94,161.056l2.372,2.762,2.376-2.762-2.376-2.761Zm0,30.851,2.372,2.762,2.376-2.762-2.376-2.761Zm13.258,0,2.372,2.762,2.372-2.762-2.372-2.761Zm0,15.428,2.372,2.762,2.372-2.762-2.372-2.761Zm0,15.423,2.372,2.762,2.372-2.762L419.57,220Zm0,15.427,2.372,2.762,2.372-2.762-2.372-2.762ZM403.94,145.631l2.372,2.761,2.376-2.761-2.376-2.762Zm-13.257,0,2.372,2.761,2.372-2.761-2.372-2.762Zm0,30.851,2.372,2.762,2.372-2.762-2.372-2.761Zm13.257,30.853,2.372,2.762,2.376-2.762-2.376-2.761Zm-13.257-15.428,2.372,2.762,2.372-2.762-2.372-2.761Zm0-30.851,2.372,2.762,2.372-2.762-2.372-2.761Zm13.257,92.231,2.372,2.761,2.376-2.761-2.376-2.762Zm0-30.529,2.372,2.762,2.376-2.762L406.312,220Zm0,61.381,1.985,2.311c.417-.184.835-.364,1.249-.552l1.514-1.759-2.376-2.762Zm0-15.427,2.372,2.762,2.376-2.762-2.376-2.761ZM417.2,145.631l2.372,2.761,2.372-2.761-2.372-2.762Zm39.771,92.554,2.372,2.762,2.372-2.762-2.372-2.762Zm-13.256-30.85,2.376,2.762,2.372-2.762-2.372-2.761Zm-13.258-61.7,2.372,2.761,2.372-2.761-2.372-2.762Zm13.258,107.656,2.376,2.761,2.372-2.761-2.372-2.762Zm4.744-15.1-2.372-2.762-2.374,2.762,2.374,2.762Zm-4.744-15.427,2.376,2.762,2.372-2.762L446.089,220Zm13.256,0,2.372,2.762,2.372-2.762L459.341,220Zm13.969.829c.571-1.184,1.12-2.381,1.656-3.585l-2.368,2.756Zm-.712-16.252L472.6,210.1l2.376-2.762-2.376-2.761Zm-13.257,0,2.372,2.762,2.372-2.762-2.372-2.761Zm-26.514,45.952,2.372,2.761,2.372-2.761-2.372-2.762Zm0,15.425,1.851,2.155q1.434-1.092,2.835-2.223l-2.314-2.693ZM417.2,161.056l2.372,2.762,2.372-2.762-2.372-2.761Zm13.257,77.129,2.372,2.762,2.372-2.762-2.372-2.762Zm-39.772-30.85,2.372,2.762,2.372-2.762-2.372-2.761Zm39.772-30.853,2.372,2.762,2.372-2.762-2.372-2.761Zm0-15.426,2.372,2.762,2.372-2.762-2.372-2.761Zm0,61.7,2.372,2.762,2.372-2.762L432.827,220Zm0-30.851,2.372,2.762,2.372-2.762-2.372-2.761Zm-92.71,92.232,2.377,2.761,2.372-2.761-2.372-2.762Zm92.71-76.8,2.372,2.762,2.372-2.762-2.372-2.761Zm-79.448-46.282,2.372,2.762,2.372-2.762-2.372-2.761Zm0-15.422,2.372,2.761,2.372-2.761-2.372-2.762Zm0,46.276,2.372,2.762,2.372-2.762-2.372-2.761Zm0-15.425,2.372,2.762,2.372-2.762-2.372-2.761Zm0,30.851,2.372,2.762,2.372-2.762-2.372-2.761Zm2.24-170.991h-.015l-2.225,2.59,2.372,2.762,2.372-2.762-2.222-2.586C353.435,36.346,353.341,36.342,353.247,36.342Zm11.017,247.8,2.372,2.761,2.376-2.761-2.376-2.762Zm0-30.852,2.372,2.761,2.376-2.761-2.376-2.762Zm4.746-15.1-2.374-2.762-2.372,2.762,2.372,2.762Zm-4.746,30.527,2.372,2.762,2.376-2.762-2.376-2.761Zm-13.257,15.427,2.372,2.761,2.372-2.761-2.372-2.762Zm-13.262-30.852,2.377,2.761,2.372-2.761-2.372-2.762Zm0-15.1,2.374,2.762,2.372-2.762-2.372-2.762Zm52.934-15.427,2.372,2.762,2.372-2.762L393.055,220Zm-39.676,0,2.372,2.762,2.372-2.762L353.379,220ZM337.749,54.035l2.374,2.762,2.372-2.762-2.372-2.762Zm13.258,199.252,2.372,2.761,2.372-2.761-2.372-2.762Zm0-15.1,2.372,2.762,2.372-2.762-2.372-2.762Zm0,30.527,2.372,2.762,2.372-2.762-2.372-2.761Zm13.257-45.954,2.372,2.762,2.376-2.762L366.636,220Zm-26.519,45.954,2.377,2.762,2.372-2.762-2.372-2.761Zm39.682-92.23,2.372,2.762,2.372-2.762-2.372-2.761Zm0-15.429,2.372,2.762,2.372-2.762-2.372-2.761Zm0,46.28L379.8,210.1l2.372-2.762-2.372-2.761Zm0-61.7,2.372,2.761,2.372-2.761-2.372-2.762Zm0,46.276,2.372,2.762,2.372-2.762-2.372-2.761Zm0,30.851,2.372,2.762,2.372-2.762L379.8,220Zm13.256,15.427,2.372,2.762,2.372-2.762-2.372-2.762Zm0,45.954,2.372,2.761,2.372-2.761-2.372-2.762Zm0-30.852,2.372,2.761,2.372-2.761-2.372-2.762Zm-26.419-45.954,2.372,2.762,2.376-2.762-2.376-2.761Zm26.419,61.379,2.372,2.762,2.372-2.762-2.372-2.761Zm-26.419-92.23,2.372,2.762,2.376-2.762-2.376-2.761Zm0-15.429,2.372,2.762,2.376-2.762-2.376-2.761Zm0,30.854,2.372,2.762,2.376-2.762-2.376-2.761Zm0-46.276,2.372,2.761,2.376-2.761-2.376-2.762Zm13.163,138.508L379.8,286.9l2.372-2.761-2.372-2.762Zm0-15.427,2.372,2.762,2.372-2.762-2.372-2.761Zm0-15.425,2.372,2.761,2.372-2.761-2.372-2.762ZM365.958,36.96l-1.694,1.972,2.372,2.762,2.376-2.762-1.565-1.819C366.952,37.06,366.456,37.008,365.958,36.96Zm11.469,201.225,2.372,2.762,2.372-2.762-2.372-2.762Z" fill="#dfecfc"/><path d="M566.124,138.618a3.722,3.722,0,0,0-6.8-1.04h0a3.486,3.486,0,0,0-.271,3.27l-20.439,15.357a3.655,3.655,0,0,0-4.456-.093l-14.807-11.506a3.716,3.716,0,1,0-6.758.1l-31.452,28.662a3.679,3.679,0,0,0-1.846-.509,3.722,3.722,0,1,0,3.722,3.722,3.681,3.681,0,0,0-.475-1.783L513.9,146.222c.014.009.024.022.038.03a3.723,3.723,0,0,0,4.16-.088l14.809,11.507a3.728,3.728,0,1,0,6.9.145l20.455-15.369a3.827,3.827,0,0,0,.323.242,3.721,3.721,0,0,0,5.542-4.071ZM479.3,178.3a1.722,1.722,0,1,1,1.722-1.721A1.723,1.723,0,0,1,479.3,178.3Zm35.722-33.729a1.721,1.721,0,0,1,.567-3.13,1.708,1.708,0,0,1,1.3.235,1.722,1.722,0,0,1-1.864,2.9Zm21.312,16.273a1.722,1.722,0,1,1,1.722-1.722A1.723,1.723,0,0,1,536.331,160.844ZM563.982,140.4a1.723,1.723,0,0,1-3.145-.482,1.723,1.723,0,0,1,2.564-1.883A1.724,1.724,0,0,1,563.982,140.4Z" fill="#232639"/><path d="M355.953,53.511a1.751,1.751,0,1,1-1.741,1.761v-.01a1.747,1.747,0,0,1,1.741-1.751m5.315,0a1.746,1.746,0,0,0-1.74,1.751v.01a1.751,1.751,0,1,0,1.74-1.761m5.313,0a1.746,1.746,0,0,0-1.74,1.751v.01a1.751,1.751,0,1,0,1.74-1.761" fill="#232639"/><path d="M408.225,93.535H394.3a1,1,0,0,1,0-2h13.928a1,1,0,0,1,0,2Zm1,18.9a1,1,0,0,0-1-1H394.3a1,1,0,0,0,0,2h13.928A1,1,0,0,0,409.225,112.433Zm3.98-9.949a1,1,0,0,0-1-1H398.277a1,1,0,0,0,0,2h13.928A1,1,0,0,0,413.205,102.484Z" fill="#232639"/><path d="M434.13,90.3a1,1,0,0,0-1.414,0l-7.958,7.959a4.934,4.934,0,0,0-2.6-.755,5.006,5.006,0,1,0,4.066,2.122l7.91-7.912A1,1,0,0,0,434.13,90.3Zm-11.976,15.164a2.98,2.98,0,1,1,2.98-2.979A2.983,2.983,0,0,1,422.154,105.464Z" fill="#232639"/><path d="M446.131,83.956a1,1,0,0,0,1.414-1.415l-5.321-5.321a1,1,0,1,0-1.414,1.414l1.833,1.833-3.689,3.688a24.779,24.779,0,0,0-15.8-6.523V71.647h4.969a1,1,0,0,0,0-2H416.185a1,1,0,0,0,0,2h4.969v6.006a24.831,24.831,0,0,0-15.418,6.172,1,1,0,0,0,1.322,1.5,22.878,22.878,0,1,1,0,34.315,1,1,0,0,0-1.322,1.5,24.856,24.856,0,0,0,34.635-35.577l3.686-3.686Z" fill="#232639"/><path d="M324.492,55.035H271.465a1,1,0,0,1,0-2h53.027a1,1,0,0,1,0,2Z" fill="#232639"/><path d="M324.492,72.217H297.979a1,1,0,0,1,0-2h26.513a1,1,0,0,1,0,2Z" fill="#232639"/><path d="M609.1,217.346H582.583a1,1,0,0,1,0-2H609.1a1,1,0,0,1,0,2Z" fill="#232639"/><path d="M592,112.714H495.913V50.242a1,1,0,0,0-1-1H351.007a1,1,0,0,0-1,1v88.565h0a1,1,0,0,0,1,1h95.637v64.447a1,1,0,0,0,1,1H592a1,1,0,0,0,1-1V113.714A1,1,0,0,0,592,112.714ZM352.007,61.179H493.913v76.628H352.007Zm141.906-9.937v7.937H352.007V51.242ZM591,203.255H448.644V139.808h19.881v47.165a1,1,0,0,0,1,1H571.053a1,1,0,0,0,0-2H470.525V139.808h24.388a1,1,0,0,0,1-1h0V114.714H591Z" fill="#232639"/></svg>