<?xml version="1.0" encoding="UTF-8"?><svg xmlns="http://www.w3.org/2000/svg" viewBox="0 0 736 768"><g id="uuid-8456d3c5-427a-4f83-898a-4f1862ec5da3"><g><g><path d="M576.623,685.32c0-38.517-103-69.742-230.065-69.742s-230.074,31.217-230.074,69.742,103,69.742,230.065,69.742,230.074-31.231,230.074-69.742" fill="#e6f0fc"/><polygon points="607.783 245.444 583.106 238.044 495.973 287.053 441.565 188.763 528.647 216.263 550.428 205.371 550.428 183.575 474.188 123.675 534.102 3.875 435.518 107.546 430.633 85.563 420.86 112.443 354.397 134.575 338.058 232.593 387.067 336.061 250.929 406.852 223.698 488.535 289.781 545.175 267.268 635.575 376.182 739.033 315.854 601.933 338.054 586.559 370.732 488.537 523.205 428.637 523.205 379.624 539.319 341.124 566.673 276.001 626.673 374.181 607.783 245.444" fill="#eee0fa"/><polygon points="223.698 385.068 158.354 385.088 103.891 466.75 250.922 406.85 223.698 385.068" fill="#eee0fa"/><polygon points="523.21 428.634 555.884 368.729 599.447 330.612 579.285 297.556 555.885 303.385 523.211 379.622 523.21 428.634" fill="#d1a3f5"/><polygon points="615.784 292.492 637.565 292.492 659.351 308.827 632.125 434.081 615.784 292.492" fill="#eee0fa"/><polygon points="338.057 586.557 354.396 630.124 466.057 671.818 387.069 602.896 392.516 526.652 370.735 488.535 338.057 586.557" fill="#d1a3f5"/><polygon points="103.898 466.753 142.014 581.109 153.187 446.68 103.898 466.753" fill="#d1a3f5"/><path d="M495.985,288.048c-.35,0-.689-.184-.873-.51-.271-.481-.1-1.091,.381-1.361l87.129-49.013c.48-.273,1.091-.101,1.362,.381,.271,.481,.1,1.091-.381,1.361l-87.129,49.013c-.155,.088-.323,.129-.489,.129Z" fill="#343230"/><path d="M142.016,582.11c-.426,0-.811-.271-.948-.684l-38.12-114.357c-.175-.524,.108-1.091,.632-1.265,.527-.175,1.091,.108,1.265,.632l36.579,109.734,10.773-129.521c.046-.55,.529-.98,1.08-.913,.55,.045,.959,.528,.914,1.079l-11.177,134.378c-.04,.473-.406,.854-.877,.91-.04,.005-.08,.007-.12,.007Z" fill="#343230"/><path d="M571.772,403.046s89.813,73.983,89.842,73.946l73.474-93.731-4.71-38.887-28.338-22.213-31.268,3.732-24.089,28.642-25.411-17.423,3.886,34.881-22.954-36.632-14.874,.7-20.74,24.213,5.182,42.772Z" fill="#cef2cf"/></g><g><path d="M30.438,605.702c-.311-.179-.693-.177-1.002,.004l-27.027,15.78c-.307,.179-.496,.508-.496,.863s.189,.685,.496,.863l27.027,15.779c.156,.091,.33,.137,.504,.137,.172,0,.344-.044,.498-.133,.311-.179,.502-.509,.502-.867v-31.56c0-.358-.191-.688-.502-.867Zm-1.498,30.685l-24.043-14.037,24.043-14.038v28.075Z" fill="#232639"/><path d="M731.372,344.254c-.032-.264-.168-.503-.376-.667l-28.338-22.213c-.208-.163-.474-.24-.735-.206l-31.269,3.731c-.253,.03-.483,.155-.647,.35l-17.797,21.162,8.124-37.369c.083-.383-.064-.778-.378-1.013l-21.785-16.335c-.032-.024-.07-.03-.104-.049-.061-.036-.122-.068-.191-.091-.06-.019-.118-.028-.179-.036-.044-.006-.084-.026-.13-.026h-22.009l-6.779-46.199c-.056-.384-.33-.701-.702-.812l-24.677-7.4c-.486-.145-1.003,.095-1.205,.561l-19.676,45.452-.003,.005-39.874,95.293-132.779-42.491,106.532-47.941c.009-.004,.014-.012,.023-.016,.017-.008,.036-.011,.052-.021,.007-.004,.01-.011,.017-.015,.075-.043,.142-.098,.204-.161,.01-.01,.023-.017,.032-.028,.013-.015,.026-.029,.038-.045,.014-.017,.021-.036,.034-.054,.039-.055,.08-.109,.108-.173,.004-.009,.002-.019,.006-.028,.007-.018,.011-.037,.017-.055,.019-.056,.023-.113,.032-.172,.008-.052,.025-.103,.024-.154,0-.017-.005-.032-.006-.049-.003-.055-.02-.107-.033-.162-.013-.057-.019-.115-.042-.168-.003-.006-.002-.013-.005-.02-.006-.012-.017-.02-.023-.031-.007-.014-.006-.029-.013-.043l-53.195-96.098,84.691,26.744c.008,.003,.017,.001,.025,.004,.077,.022,.156,.033,.236,.037,.013,0,.027,.006,.04,.006l.008-.002c.134,0,.267-.036,.394-.093,.014-.006,.031-.003,.045-.01l21.781-10.894c.339-.17,.553-.516,.553-.895v-21.783c0-.307-.141-.597-.382-.786l-75.597-59.395,18.051-36.099c.025-.043,.047-.085,.065-.131L534.999,4.322c.009-.018,.007-.037,.015-.055,.025-.058,.034-.117,.048-.177,.015-.069,.034-.135,.034-.204,0-.054-.013-.105-.021-.158-.011-.074-.02-.146-.048-.215-.019-.048-.049-.089-.075-.134-.04-.068-.079-.134-.134-.192-.011-.012-.015-.027-.027-.038-.034-.032-.077-.045-.114-.071-.044-.032-.076-.074-.126-.099-.017-.009-.036-.007-.053-.014-.064-.028-.13-.039-.198-.053-.06-.012-.117-.029-.177-.03-.067-.001-.131,.014-.197,.026-.059,.011-.118,.017-.174,.039-.062,.023-.115,.061-.172,.097-.054,.034-.108,.064-.155,.108-.014,.013-.033,.019-.047,.033l-97.289,102.31-4.478-20.151c-.096-.434-.467-.752-.911-.781-.437-.017-.853,.238-1.005,.656l-9.609,26.427-66.006,21.977c-.352,.117-.609,.419-.67,.785l-16.339,98.018c-.006,.034,0,.069-.001,.103-.001,.021-.012,.039-.012,.061,0,.019,.01,.034,.011,.053,.005,.094,.024,.185,.055,.274,.009,.026,.012,.053,.024,.079,.003,.007,.003,.015,.007,.022l48.601,102.599-134.714,70.048-26.717-21.376c-.177-.142-.397-.219-.625-.219l-65.344,.02c-.334,0-.646,.167-.832,.445l-54.463,81.662c-.244,.365-.22,.847,.058,1.188,.194,.237,.481,.367,.775,.367,.126,0,.254-.024,.377-.074l145.024-59.083-26.54,79.626c-.033,.1-.049,.202-.05,.303,0,.023,.007,.045,.009,.068,.005,.093,.022,.184,.053,.272,.012,.035,.029,.068,.045,.102,.038,.08,.087,.152,.146,.22,.015,.018,.021,.04,.038,.057,.008,.008,.019,.01,.027,.018,.011,.01,.018,.024,.03,.035l65.608,56.237-22.361,89.787-.002,.01c-.086,.35,.021,.719,.282,.966l108.914,103.462c.191,.183,.439,.275,.688,.275,.201,0,.402-.06,.575-.182,.39-.274,.532-.785,.34-1.221l-59.998-136.349,20.474-14.175,15.881,42.346c.035,.103,.088,.2,.159,.29h0v.002c.011,.013,.022,.025,.033,.037,.115,.133,.258,.227,.413,.282l114.34,43.562c.117,.044,.237,.065,.355,.065,.344,0,.674-.178,.859-.486,.249-.417,.163-.951-.204-1.27l-81.306-70.469,5.411-75.738c.014-.198-.031-.396-.129-.567l-21.207-37.115,151.399-59.479c.013-.005,.021-.016,.034-.022,.102-.045,.197-.103,.279-.18,.008-.007,.017-.012,.025-.019,.067-.067,.126-.142,.173-.229l32.586-59.742,9.054-7.914,5.053,41.708c.031,.255,.159,.488,.357,.651,0,0,22.444,18.489,44.897,36.977,11.226,9.244,22.455,18.487,30.88,25.42,9.246,7.606,12.542,10.319,13.836,11.273,.174,.304,.499,.506,.863,.506h.035c.027,0,.053-.004,.08-.007h.007c.048-.007,.086-.032,.132-.045,.082-.022,.166-.038,.24-.08,.087-.049,.156-.12,.223-.191,.022-.023,.051-.036,.071-.061l73.475-93.731c.163-.209,.237-.475,.206-.737l-4.71-38.887Zm-94.136-50.762l21.007,15.752-8.794,40.449-2.948,3.505-24.369-16.708c.007-.021,.011-.044,.018-.065l-6.3-42.933h21.384Zm-68.289,62.494l-12.821,11.207-15.688-26.154,15.295-36.554,23.586-5.887,19.25,31.497-5.364,4.688-5.921,.278c-.275,.013-.533,.139-.712,.349l-17.624,20.576Zm30.68-24.16l1.577,2.581-4.787,.225,3.21-2.806Zm-15.95-92.575l23.216,6.963,13.485,91.893,3.247,29.15-55.822-91.338,15.874-36.668Zm-5.451,57.557l-21.529,5.374,7.653-18.289,.003-.005,2.479-5.725,11.394,18.644Zm-54.016,83.015l15.27-36.494,15.251,25.426-30.522,55.958v-44.891Zm-153.345,107.587l-117.989-80.446,134.288-69.829,135.046,43.217v47.6l-151.345,59.458Zm-33.284,97.415l-47.15-40.416c-.01-.009-.023-.014-.034-.022l-65.225-55.909,58.271-58.252,86.109,58.709-31.971,95.89Zm-111.591-99.993l25.469-76.412,30.302,20.66-55.771,55.752ZM491.916,86.009l-.379,.138V50.088l38.68-40.676-38.301,76.598Zm-2.379,.864l-50.363,18.28,50.363-52.962v34.682Zm1.079,1.737l-17.127,34.252-31.229,10.409-5.574-25.087,53.93-19.575Zm-48.717,46.89l31.846-10.615,52.729,89.634-84.298-26.62-31.687-41.929,31.294-10.431c.04-.011,.079-.023,.116-.038Zm51.612,151.562l-105.658,47.549-15.847-100.379,121.505,52.831Zm-120.625-54.629l68.32-42.278,52.478,94.801-120.798-52.523Zm-3.006,1.155l15.118,95.758-45.361-95.758h30.243Zm179.558-28.845l-20.392,10.2-51.3-87.206,71.692,56.327v20.679Zm-119.035-115.619l9.951,44.782-29.853,9.95,19.902-54.732Zm-22.489,55.994c-.018,.049-.021,.099-.031,.149-.006,.029-.015,.055-.018,.084-.012,.114-.008,.228,.018,.338,.005,.021,.016,.04,.022,.061,.029,.093,.071,.181,.126,.263,.011,.016,.013,.035,.024,.05l32.055,42.417-67.945,42.046,21.602-108.01,25.445-8.472-11.299,31.074Zm-52.631-9.789l36.3-12.086-21.668,108.345h-30.677l16.045-96.259ZM106.53,464.595l52.359-78.507,64.458-.02,25.619,20.498-142.437,58.028Zm266.729,270.282l-104.415-99.188,46.578-32.25,57.837,131.438Zm-104.381-101.645l21.479-86.246,46.062,39.482-67.541,46.763Zm87.471-3.438l30.708-25.59,76.769,66.536-107.477-40.946Zm29.752-27.397l-31.263,26.053-15.719-41.917,31.859-95.557,20.518,35.909-5.395,75.511Zm186.616-199.87l-5.081-41.938,2.732-3.19,.175-.153c.004-.025,.015-.049,.019-.074l17.246-20.135,13.858-.651,22.644,36.137c.248,.395,.735,.569,1.176,.413,.44-.153,.716-.592,.665-1.055l-3.644-32.711,23.238,15.933,14.575,119.541c-12.468-10.226-82.325-67.769-87.604-72.118Zm89.597,71.95l-14.586-119.632,23.555-28.008,30.466-3.636,27.687,21.702,4.61,38.064-71.731,91.509Z" fill="#232639"/><path d="M665.922,133.553l-1.389,7.866c-.122,.664,.161,1.336,.694,1.692,.541,.39,1.244,.44,1.818,.134l7.298-3.746,7.331,3.739c.261,.138,.543,.205,.821,.205,.352,0,.697-.106,.985-.314,.559-.376,.841-1.047,.72-1.703l-1.39-7.873,5.876-5.557c.509-.45,.696-1.156,.479-1.8-.21-.637-.774-1.095-1.41-1.163l-8.16-1.112-3.68-7.231c-.218-.414-.585-.719-1.032-.856-.446-.139-.921-.095-1.335,.125-.309,.163-.561,.414-.737,.744l-3.619,7.174-8.182,1.153c-.67,.073-1.236,.534-1.435,1.151-.227,.644-.045,1.354,.444,1.794l5.9,5.578Zm3.544-7.695c.623-.083,1.167-.466,1.458-1.03l3.444-6.772,3.449,6.78c.291,.56,.836,.941,1.448,1.021l7.638,1.076-5.504,5.204c-.466,.437-.679,1.073-.567,1.703l1.304,7.389-6.879-3.509c-.558-.289-1.225-.288-1.774-.002l-6.885,3.512,1.304-7.388c.113-.631-.1-1.27-.564-1.702l-5.507-5.206,7.636-1.076Z" fill="#232639"/><path d="M81.261,370.787c-.224-.278-.576-.415-.932-.362-.353,.055-.65,.293-.78,.626l-6.929,17.818c-.129,.333-.071,.71,.152,.988,.191,.238,.479,.374,.78,.374,.05,0,.102-.004,.152-.012l18.892-2.912c.353-.055,.65-.293,.78-.626s.071-.71-.152-.988l-11.963-14.906Zm-6.149,17.192l5.673-14.59,9.795,12.205-15.468,2.385Z" fill="#232639"/></g></g></g></svg>