<svg xmlns="http://www.w3.org/2000/svg" viewBox="0 0 640 512"><rect opacity="0" width="640" height="512"/><path d="M451.1,366.4s-128.514-62.58-128.514-64.6-4.471-9.063-4.968-10.069-6.166-19.042-6.166-19.042l-7.838-8.065L230.6,281.158l-8.113,8.559v39.034l22.852,17.36,29.512,8.739-.073.063,75.8,93.349,5.672,4.4.662,9.65,7.285,3.19.994,6.277L385.969,512H478.01Zm-52.233,77.921-33.251-62.593,28.444,8.422v6.988l11.425-.3-3.228,2.417,2.98,9.819,4.4-1.175,4.785,38.939,16.907,64.412C418.82,484.916,398.868,444.319,398.868,444.319Z" fill="#cef2cf"/><ellipse cx="428.264" cy="139.301" rx="90.448" ry="91.675" fill="#6767f7" opacity="0.55"/><ellipse cx="507.282" cy="279.016" rx="35.314" ry="35.793" fill="#6767f7" opacity="0.55"/><ellipse cx="590.622" cy="197.064" rx="45.541" ry="46.16" fill="#6767f7" opacity="0.55"/><polygon points="272.206 18.861 289.719 13.741 295.462 2.96 280.342 1.096 264.842 9.33 258.152 23.384 269.116 24.736 272.206 18.861" fill="#bdab98"/><path d="M297.878,11.355l-25.672,7.506L261.184,39.82l15.042,40.013,5.057-6.271L276.6,58.434,283.2,55.3l3.4,10.415,5.047-18.426L311.9,35.583l20.757,6.563,1.363.43,4.648-6.426C336.139,34.315,297.878,11.355,297.878,11.355Z" fill="#968775"/><path d="M272.206,18.86l19.442,28.434,11.481-6.636Z" fill="#bdab98"/><path d="M300.47,94.672l-14.227-5.1-5.5-17.743C277.4,79.369,266.931,103,265.542,106.1L251.05,110.13l52.7,42.692,2.326-33.941L300.47,115.5Z" fill="#f6e8d5"/><path d="M334.022,42.576,318.03,100.969l-31.787-11.4L276.6,58.433,283.2,55.3l3.4,10.414,5.047-18.425,20.254-11.7Z" fill="#f6e8d5"/><polygon points="321.472 149.881 325.229 130.102 306.079 118.882 306.076 118.881 303.75 152.822 251.051 110.13 219.508 120.418 206.085 196.681 211.673 198.132 211.674 198.136 211.674 198.132 244.391 206.625 242.027 224.933 307.47 226.205 308.266 224.766 327.443 192.934 321.472 149.881" fill="#c6d4f4"/><path d="M211.608,198.893l-4.088,52.312,6.458,8.933L322.524,241.32l25.25,2.441,10.867,9.129,4.247,12.444,5.713.881L364.819,251.7l-6.22-10.968L370.3,251.7l8.238,16.529H384l-7.451-18.882-9.108-12.42,10.526,8.224-.661,6.118,3.026,7.668L385.5,244.1l-14.414-13.55L327.7,227.361l-85.738-1.667,2.364-18.307Z" fill="#f6e8d5"/><polygon points="376.55 249.347 377.307 251.266 377.968 245.151 377.368 244.683 371.976 243.111 376.55 249.347" fill="#fff"/><polygon points="411.529 254.643 384.565 246.781 380.333 258.935 384.001 268.229 378.537 268.229 370.299 251.7 358.599 240.732 364.819 251.7 368.601 266.215 362.887 265.334 358.641 252.89 347.774 243.761 330.594 242.1 301.268 245.005 289.896 246.976 294.692 255.24 390.414 287.969 397.867 282.43 397.866 282.43 397.868 282.43 411.529 254.643" fill="#fff"/><path d="M476.075,183.145l-29.358,7.028-7.617,8.393-41.233,83.865,42.475-19.386,37.92-74.679Z" fill="#fff"/><path d="M294.692,255.24,289.5,246.3l-71.71,12.432L216.031,286.7l6.456,3.02h0l8.113-8.559,73.015-16.532,7.833,8.06,1.465.414s-1.256-7.056-2.841-12.6Z" fill="#c6d4f4"/><path d="M314.827,242.957l12.392-.946-4.356-.756S314.7,242.427,314.827,242.957Z" fill="#f6e8d5"/><path d="M321.22,267.1l29.728,14.09,27.451,2.672S321.09,266.569,321.22,267.1Z" fill="#f6e8d5"/><path d="M300.477,136.115c-.9-2.1-2.581-3.4-3.749-2.879s-1.388,2.638-.487,4.742,2.579,3.394,3.748,2.88S301.377,138.221,300.477,136.115Z" fill="#e9e0ee"/><ellipse cx="282.356" cy="72.931" rx="1.884" ry="1.909" fill="#c6d4f4"/><path d="M276.96,80.251,268.7,76l-3.146,2.206-.672,6.089-5.175.59,8.031,2.517,1.391-7.806Z" fill="#968775"/><path d="M334.023,42.576l7.327-1.123,7.2,9.51-7.094,6.988,6.917,4.911L336.837,58.9l5.067-9.519Z" fill="#bdab98"/><rect x="439.063" y="34.974" width="146.524" height="89.685" fill="#fff"/><rect x="439.082" y="58.439" width="146.505" height="29.889" fill="#98b7ff"/><rect x="457.002" y="98.835" width="29.146" height="17.028" fill="#98b7ff"/><rect x="496.819" y="98.835" width="29.146" height="17.028" fill="#98b7ff"/><rect x="536.636" y="98.835" width="29.146" height="17.028" fill="#98b7ff"/><path d="M441.751,238.407a2.059,2.059,0,0,1-.93-.216c-1.89-.951-1.547-4.161-.231-6.842,1-2.044,2.453-3.592,3.784-4.04a2.223,2.223,0,0,1,1.757.074c1.884.946,1.543,4.157.231,6.841-1,2.04-2.446,3.588-3.783,4.039A2.564,2.564,0,0,1,441.751,238.407Zm3.449-9.24a.614.614,0,0,0-.188.038,6.069,6.069,0,0,0-2.627,3.025c-1.15,2.342-.945,4.019-.666,4.174.292.1,1.729-.771,2.846-3.059,1.143-2.337.943-4.037.669-4.174h0A.111.111,0,0,0,445.2,229.167Z" fill="#333230"/><circle cx="443.082" cy="38.51" r="1.772" fill="#232639"/><circle cx="448.493" cy="38.51" r="1.772" fill="#232639"/><circle cx="453.903" cy="38.51" r="1.772" fill="#232639"/><path d="M585.587,33.974H439.063a1,1,0,0,0-1,1V124.66a1,1,0,0,0,1,1H585.587a1,1,0,0,0,1-1V34.974A1,1,0,0,0,585.587,33.974Zm-1,53.355h-144.5V59.439H584.587ZM440.063,57.439V42.9H584.587V57.439ZM584.587,35.974V40.9H440.063V35.974ZM440.063,123.66V89.329H584.587V123.66Z" fill="#232639"/><path d="M486.148,116.864H457a1,1,0,0,1-1-1V98.836a1,1,0,0,1,1-1h29.146a1,1,0,0,1,1,1v17.028A1,1,0,0,1,486.148,116.864Zm-28.146-2h27.146V99.836H458Z" fill="#232639"/><path d="M525.965,116.864H496.819a1,1,0,0,1-1-1V98.836a1,1,0,0,1,1-1h29.146a1,1,0,0,1,1,1v17.028A1,1,0,0,1,525.965,116.864Zm-28.146-2h27.146V99.836H497.819Z" fill="#232639"/><path d="M565.782,116.864H536.636a1,1,0,0,1-1-1V98.836a1,1,0,0,1,1-1h29.146a1,1,0,0,1,1,1v17.028A1,1,0,0,1,565.782,116.864Zm-28.146-2h27.146V99.836H537.636Z" fill="#232639"/><rect x="555.043" y="49.558" width="17.308" height="1.833" fill="#232639"/><rect x="533.317" y="49.558" width="17.308" height="1.833" fill="#232639"/><rect x="511.59" y="49.558" width="17.308" height="1.833" fill="#232639"/><path d="M315.985,75.736c.207.424.4.881.554,1.266-1.28-.087-3.478-.272-5.5-.458a1,1,0,1,0-.182,1.992c2.623.24,5.792.513,6.74.513a1.914,1.914,0,0,0,.218-.009,1.108,1.108,0,0,0,.841-.579c.174-.324.466-.864-.869-3.6a1,1,0,0,0-1.8.877Z" fill="#232639"/><path d="M315.436,86.537l-8.545-2.606-1.554-3.207a1,1,0,0,0-1.8.873l1.745,3.6a1,1,0,0,0,.608.519l8.962,2.733a.99.99,0,0,0,.292.044,1,1,0,0,0,.292-1.956Z" fill="#232639"/><path d="M313.084,89.877l-6.107-1.937a1,1,0,1,0-.6,1.906l6.107,1.937a.991.991,0,0,0,.3.047,1,1,0,0,0,.3-1.953Z" fill="#232639"/><path d="M304.877,50.646l-10.462.993a1,1,0,0,0,.095,1.995h.011l10.374-.116,8.91,6.109a1,1,0,0,0,1.39-.259l.91-1.324a1,1,0,0,0-.331-1.437l-10.309-5.836A.976.976,0,0,0,304.877,50.646Z" fill="#232639"/><path d="M308.632,63.287A3.326,3.326,0,0,0,307,64.1c-1.112.987-1.458,2.433-.771,3.23s2.149.646,3.263-.341a3,3,0,0,0,1.108-2.335l.456.316A1,1,0,0,0,312.2,63.32l-4.756-3.291a1,1,0,0,0-.711-.168l-5.739.824-1.415-1.592a1,1,0,0,0-1.5,1.329l1.772,1.994a1,1,0,0,0,.89.326l5.882-.845Z" fill="#232639"/><path d="M301.825,162.679a1,1,0,1,0,1.289-1.529l-33.945-28.623a1,1,0,0,0-1.29,1.529Z" fill="#232639"/><path d="M454.953,168.2l-1.136,1.324L452.68,168.2l1.137-1.325Zm-1.136,6.076L452.68,175.6l1.137,1.324,1.136-1.324Zm0,7.4L452.68,183l1.137,1.323L454.953,183Zm0-22.2L452.68,160.8l1.137,1.325,1.136-1.325Zm-6.352,0-1.137,1.324,1.137,1.325L448.6,160.8Zm11.567,8.723,1.138,1.324,1.137-1.324-1.137-1.325Zm-11.567,13.474L446.328,183l1.137,1.323L448.6,183ZM459.032,160.8l1.138,1.325.629-.733c-.478-.329-.969-.64-1.467-.941Zm-11.567,6.074-1.137,1.325,1.137,1.324L448.6,168.2Zm0,7.4-1.137,1.325,1.137,1.324L448.6,175.6Zm19.056-7.4-1.137,1.325,1.137,1.324,1.136-1.324Zm0,7.4-1.137,1.325,1.137,1.324,1.136-1.324Zm0,7.4L465.384,183l1.137,1.323L467.657,183Zm6.352,0L471.736,183l1.137,1.323.794-.925c-.028-.308-.066-.613-.1-.919Zm-12.7,2.648L461.307,183l-1.137-1.325L459.031,183Zm11.566-8.721.267.311c-.052-.145-.112-.285-.166-.429Zm-10.429,0-1.137-1.325-1.138,1.325,1.138,1.324Zm-19.056-14.8-1.138-1.324-1.137,1.324,1.137,1.325ZM416.573,196.97q.1.252.2.5l.118-.138Zm-.823-12.65L416.887,183l-1.137-1.325-.933,1.087c-.016.139-.038.275-.052.415Zm12.659-22.2,1.136-1.325-.353-.412c-.5.3-.993.608-1.473.934Zm12.7,29.6,1.139-1.325-1.139-1.324-1.137,1.324ZM439.975,168.2l1.137,1.324,1.139-1.324-1.139-1.325ZM414.952,190.79l.8.929,1.137-1.325-1.137-1.324-.884,1.03C414.9,190.33,414.918,190.562,414.952,190.79Zm7.149,15.269,1.137-1.324-1.137-1.326-1.137,1.326ZM420.964,168.2l1.137,1.324,1.137-1.324-1.137-1.325ZM422.1,184.32,423.238,183l-1.137-1.325L420.964,183Zm-5.214-8.721-.243-.284c-.127.328-.249.657-.364.99Zm6.351,0-1.137-1.325-1.137,1.325,1.137,1.324ZM422.1,191.715l1.137-1.325-1.137-1.323-1.137,1.323Zm0,6.944,1.137-1.324L422.1,196.01l-1.137,1.325Zm19.011-14.339L442.251,183l-1.139-1.325L439.975,183Zm1.139-8.721-1.139-1.325-1.137,1.325,1.137,1.324Zm-13.842-8.726L427.27,168.2l1.139,1.324,1.137-1.324Zm1.137,45.259-1.137-1.323-.433.5q.726.483,1.482.923Zm5.215-42.61L435.9,168.2l-1.137-1.325-1.137,1.325Zm-6.352,4.752L427.27,175.6l1.139,1.324,1.137-1.324Zm-1.139,23.061,1.139,1.324,1.137-1.324-1.137-1.325ZM435.9,160.8l-1.137-1.324-1.137,1.324,1.137,1.325Zm-7.489,20.873L427.27,183l1.139,1.323L429.546,183Zm1.137,23.063-1.137-1.326-1.139,1.326,1.139,1.324Zm5.215,1.324,1.137-1.324-1.137-1.326-1.137,1.326Zm-6.352-16.992-1.139,1.323,1.139,1.325,1.137-1.325Zm6.352-12.144L435.9,175.6l-1.137-1.325-1.137,1.325ZM433.628,183l1.133,1.321L435.9,183l-1.137-1.325Zm1.133,8.716,1.137-1.325-1.137-1.323-1.137,1.323Zm0,6.944,1.137-1.324-1.137-1.325-1.137,1.325Z" fill="#232639"/><path d="M190.571,512h2l1.816-142.587h92.165l-1.624-2H127.89V342.984H241.222l-2.632-2H126.89a1,1,0,0,0-1,1v26.429a1,1,0,0,0,1,1h65.5Z" fill="#fff"/><path d="M477,182.758a1,1,0,0,0-1.155-.585L446.484,189.2a1,1,0,0,0-.508.3l-7.616,8.391a1.039,1.039,0,0,0-.158.231L411,253.448l-25.327-7.385.833-2.391a1,1,0,0,0-.259-1.058l-14.414-13.55a1,1,0,0,0-.612-.268l-43.439-3.2-18.635-.362L328.3,193.45a1,1,0,0,0,.133-.653l-5.948-42.891,3.726-19.617a1,1,0,0,0-.476-1.05l-19.15-11.221-.006,0-5.109-3.081V96.093l16.222,5.818a1.01,1.01,0,0,0,.338.058,1,1,0,0,0,.964-.736l8.975-32.77.01.006a1,1,0,0,0,.562.173.9.9,0,0,0,.115-.007l1.576-.181A1,1,0,1,0,330,66.467l-1.208.139-.268-.182,6.04-22.055,6.078,5.25-4.692,8.815a1,1,0,0,0,.558,1.416l11.537,3.958a1.015,1.015,0,0,0,.324.054,1,1,0,0,0,.579-1.815l-5.944-4.22,6.244-6.152a1,1,0,0,0,.095-1.315l-7.2-9.51a1,1,0,0,0-.949-.385l-4.965.761,3.248-4.491a1,1,0,0,0-.223-1.395c-2.538-1.839-39.3-23.9-40.866-24.842a1,1,0,0,0-.8-.1l-5.879,1.719,4.626-8.684a1,1,0,0,0-.76-1.462L280.464.1a1,1,0,0,0-.591.11l-15.5,8.234a1,1,0,0,0-.434.453l-6.69,14.054a1,1,0,0,0,.781,1.422l9.527,1.174-7.258,13.8a1,1,0,0,0-.051.818L274.4,77.809l-5.24-2.695a1,1,0,0,0-1.031.071l-3.146,2.206a1,1,0,0,0-.42.709l-.585,5.3-4.381.5a1,1,0,0,0-.187,1.947l8.032,2.518a.982.982,0,0,0,.3.046,1,1,0,0,0,.984-.824l1.231-6.91,5.574.463c-4.116,9.287-9.334,21.058-10.7,24.127l-14.039,3.9c-.007,0-.014.007-.021.009l-.018,0L219.2,119.467l-.007,0-.017.008a1,1,0,0,0-.281.161c-.024.019-.045.038-.067.059a.987.987,0,0,0-.207.269l-.006.008v0a.967.967,0,0,0-.088.266L205.1,196.508a.864.864,0,0,0,0,.144.979.979,0,0,0,0,.21,1.053,1.053,0,0,0,.054.155,1,1,0,0,0,.079.191.947.947,0,0,0,.115.13.656.656,0,0,0,.386.266.872.872,0,0,0,.092.045l4.781,1.241-4.023,51.475a1,1,0,0,0,.187.664l6.458,8.934a1,1,0,0,0,.981.4l2.5-.433-1.679,26.707a1,1,0,0,0,.574.969l5.88,2.75v38.4c0,.022.013.042.015.064a.947.947,0,0,0,.06.255.879.879,0,0,0,.052.152.974.974,0,0,0,.2.242c.026.025.039.06.068.083l22.852,17.359a.994.994,0,0,0,.321.163l29.052,8.6L349.8,448.892a.949.949,0,0,0,.163.16l5.318,4.126.631,9.2a1,1,0,0,0,.6.847l6.784,2.97.908,5.738a1.036,1.036,0,0,0,.1.3L384.843,512H387.1l-20.941-40.535-.969-6.119a1,1,0,0,0-.587-.759l-6.73-2.947-.62-9.046a1,1,0,0,0-.385-.721l-5.581-4.33-67.1-82.64c4.284.869,20.653,4.191,37.587,7.645l50.8,68.5v6.469a1,1,0,0,0,.342.753l5.271,4.613.236,8.578a1,1,0,0,0,.109.426L404.1,512h2.245l-25.939-50.825-.244-8.79a1,1,0,0,0-.34-.725l-5.259-4.6v-6.345a1,1,0,0,0-.2-.6L324.7,373.146c9.927,2.026,19.81,4.048,27.346,5.6l12.886,3.816,33.039,62.193c8.923,18.156,22.988,46.986,32.415,66.824l.109.417h2.3l-.517-1.091-16.868-64.261-4.671-38.019,3.965-1.113a1,1,0,1,0-.54-1.926l-4.779,1.341h0l-3.466.925-2.5-8.223,2.4-1.8h10.1a1,1,0,1,0,0-2H405.489l-.014,0s-.01,0-.015,0l-10.4.273v-5.965h10.425l-1.822-3.4L395,389.813a1,1,0,0,0-.656-.624L245.8,345.2l-14.664-11.139V297.439a1,1,0,0,0-.706-.956l-6.941-2.133v-4.234l7.629-8.049,13.7-3.1,5.249,43.434a1,1,0,0,0,.689.833l178.432,56.852,2.135,4.327-4.1,3.856a1,1,0,0,0,.1,1.538l4.289,3.106L447.8,512h2.019l-16.29-119.782a1,1,0,0,0-.4-.674l-3.656-2.648,3.755-3.535a1,1,0,0,0,.212-1.171l-2.65-5.371a1.006,1.006,0,0,0-.593-.511L251.969,321.522l-2.539-21.016c1.442-.979,4.973-4.3,15.412-14.659,6.776-6.724,13.527-13.539,14.727-14.75l14.689-3.326,9.571,28.153-18.6-.3a1.013,1.013,0,0,0-1.016.983,1,1,0,0,0,.983,1.017l28.153.46,8.771,4.608c.022.012.045.016.068.026,2.264,1.845,13.028,7.714,64.208,33.038,29.708,14.7,59.779,29.361,63.808,31.324L476.992,512h2.035L452.084,366.216a1,1,0,0,0-.545-.717c-49.267-23.991-123.176-60.463-127.988-64.129-.255-1.648-1.833-4.6-4.253-8.716-.387-.66-.678-1.152-.781-1.361-.349-.748-3.346-10.133-5.574-17.2a.987.987,0,0,0,.641-.253,1,1,0,0,0,.314-.916c-.049-.272-.656-3.649-1.546-7.52l38.2,16.7a1,1,0,0,0,.3.079l27.334,2.661,11.906,4.071a1,1,0,0,0,.919-.144l3.722-2.765L434.5,267.955l2.975-2.5,3.279-1.5a1.1,1.1,0,0,0,.1-.068,1.006,1.006,0,0,0,.16-.11,1.023,1.023,0,0,0,.093-.112,1.035,1.035,0,0,0,.1-.136c.007-.011.017-.019.024-.031l37.92-74.679a1,1,0,0,0,.03-.84ZM340.912,42.533l6.311,8.334-6.469,6.373a1,1,0,0,0,.123,1.527l1.27.9-3.876-1.33,4.516-8.486a1,1,0,0,0-.23-1.226l-6.24-5.39Zm-71.7,36.07a.99.99,0,0,0-1.068.821l-1.192,6.688-2.439-.765.482-.055a1,1,0,0,0,.881-.884l.622-5.639,2.282-1.6,3.243,1.668ZM393.061,390.9v6.241a1,1,0,0,0,.3.717.987.987,0,0,0,.724.283l8.285-.217-.714.534a1,1,0,0,0-.357,1.091l2.98,9.818a1,1,0,0,0,1.215.676l3.289-.878,4.645,37.8a1.124,1.124,0,0,0,.026.131l14.226,54.2c-11.88-24.77-26.9-55.349-27.931-57.44l-32.133-60.488Zm-8.044-142.94,25.089,7.316-.581,1.182-25-7.1ZM328.839,57.716l-5.4.518a1,1,0,0,0-.9.876l-.213,1.771A1,1,0,0,0,323.324,62a.946.946,0,0,0,.23-.028l4.405-1.044-1.18,4.309-.457-.311a1,1,0,0,0-.764-.152l-3.083.634a1,1,0,1,0,.4,1.959l2.67-.549.213.146a3.436,3.436,0,0,0-1.8,1.063c-1.008,1.074-1.29,2.46-.631,3.095a1.622,1.622,0,0,0,1.811.088l-7.792,28.454L287.051,88.8,283.01,75.758a2.908,2.908,0,0,0-.654-5.736,2.846,2.846,0,0,0-1.058.209l-3.491-11.266,4.8-2.274,3.048,9.334a1.036,1.036,0,0,0,.974.69,1,1,0,0,0,.941-.736L292.5,47.955l11.125-6.43c.01,0,.017-.014.026-.019l8.367-4.836L332.8,43.24ZM282.356,73.84a.909.909,0,1,1,.884-.909A.9.9,0,0,1,282.356,73.84Zm9.592-27.878L276.159,22.871l25.112,17.7Zm5.791-33.524c3.716,2.232,33.736,20.262,39.512,23.968l-3.616,5-1.021-.323L312.2,34.631a.827.827,0,0,0-.087-.009.969.969,0,0,0-.262-.027,1.162,1.162,0,0,0-.363.093.842.842,0,0,0-.089.029l-8.224,4.754-28.7-20.233ZM259.651,22.562l5.952-12.5,14.929-7.931L293.9,3.775,289.034,12.9l-17.108,5a.663.663,0,0,0-.059.031.916.916,0,0,0-.2.106.836.836,0,0,0-.121.083.438.438,0,0,0-.042.028,1.919,1.919,0,0,1-.183.246l-2.769,5.265Zm2.627,17.326L272.318,20.8l18.243,26.681-4.043,14.759-2.365-7.246a1,1,0,0,0-1.379-.593l-6.607,3.133a1,1,0,0,0-.527,1.2l4.039,13.034c-.566,1.277-1.308,2.951-2.159,4.873l-.974,1.207Zm3.532,67.176a1,1,0,0,0,.644-.555c1.132-2.522,8.369-18.851,12.788-28.822l1.642-2.036,4.36,14.073.5,1.858,13.721,6.336v17.5l-3.163,16.072-35.829-22.942ZM297.6,134.192a4.238,4.238,0,0,1,1.963,2.316c.746,1.745.512,3.223.029,3.435a.656.656,0,0,1-.466-.043,4.241,4.241,0,0,1-1.961-2.315c-.746-1.742-.51-3.221-.027-3.435a.384.384,0,0,1,.149-.028A.885.885,0,0,1,297.6,134.192Zm-39.681-24.933c.023.018.035.042.06.058l37.308,23.89c-.8,1.179-.824,3.148.04,5.165a6.174,6.174,0,0,0,3.064,3.388,2.861,2.861,0,0,0,1.054.211,2.334,2.334,0,0,0,.952-.2c1.724-.757,2.156-3.358,1-6.052h0a6.165,6.165,0,0,0-3.069-3.39c-.046-.019-.092-.026-.139-.042l2.99-15.194,3.858,2.327-2.152,31.413-49.7-40.261ZM207.23,195.945,220.262,121.9l24.266,11.935,5.58,16.363a1,1,0,0,0,.946.678.986.986,0,0,0,.323-.054,1,1,0,0,0,.623-1.269L246.287,132.8a1,1,0,0,0-.5-.575l-23.624-11.619,28.685-9.356L303.12,153.6a1,1,0,0,0,1.627-.709l2.216-32.332,17.152,10.049-2.543,13.385-.641-4.142a1,1,0,1,0-1.976.307l1.529,9.875,5.92,42.688-19.013,31.561-.135.244-32.478-7.676,10.375,7.92-41.992-.816,2.077-16.077,2.83.735a1.022,1.022,0,0,0,.251.032,1,1,0,0,0,.989-.853l4.361-29.422a1,1,0,1,0-1.978-.293l-4.2,28.321L232.5,202.506l-20.577-5.342h-.005Zm7.259,62.34-5.877-8.13,3.729-47.722,30.75,6.449L241.035,224.8a1,1,0,0,0,.972,1.128l85.684,1.664,43.032,3.168,13.683,12.863L380.341,255.3l-1.947-4.933.634-5.87a1,1,0,0,0-.379-.9l-10.526-8.223a1,1,0,0,0-1.422,1.379l9.032,12.316.692,1.753c0,.016.011.032.018.049l3.025,7.668.02.046,3.109,7.878h-3.375l-7.962-15.975a1,1,0,0,0-.211-.283l-11.7-10.968a1,1,0,0,0-1.554,1.223l6.155,10.853,3.366,12.917-3.612-.558-4.051-11.871a1,1,0,0,0-.3-.442l-10.867-9.129a1,1,0,0,0-.547-.229l-25.25-2.442a1.038,1.038,0,0,0-.267.01l-32.655,5.661-.015,0c-.01.008-.022.007-.031.013Zm162.409-12.7-.159,1.475-1.419-1.935Zm-2.587-2.838-.935-.273-.785-1.071Zm-5.612,8-2.641.73-.206-.791a.973.973,0,0,0-.1-.241l-2.976-5.247Zm-43.691-8.95-9.194.951,6.814-1.181Zm-95.874,56.381v34.366l-5.647-4.293V296.443Zm17.639-19.656,20.263-4.588-18.668,17.791Zm2.588,19.521c-.165-1.391-.379-3.187-.481-4.043l21.958-20.926,5.1-1.155C266.175,281.762,253.37,294.5,249.361,298.043Zm29.413-28.817-8.49,1.817a.986.986,0,0,0-.4.195l-39.4,8.921h-6.508a1,1,0,0,0,0,2h4.3l-6.018,6.348-5.185-2.425,1.659-26.381,3.758,2.441,49.375-11.774,13.8-2.392,4.881,7.186-21.163,4.819a1,1,0,0,0,.221,1.975.949.949,0,0,0,.223-.026l21.926-4.993,1.057,1.556,17.087,5.229c.719,2.9,1.319,5.818,1.678,7.653l-7.237-7.446a1,1,0,0,0-.182-.144l-.012-.009a.989.989,0,0,0-.33-.123.485.485,0,0,0-.055-.009.986.986,0,0,0-.359.007Zm27.078,26.433-9.633-28.332,6.659-1.508,7.247,30.073Zm10.87-3.485c.114.232.429.771.851,1.492.765,1.3,2.408,4.1,3.337,6.124l-6.837-3.592a1.017,1.017,0,0,0-.449-.114l-1.4-.023-6.774-28.114,5.122,5.269C311.665,276.7,316.228,291.174,316.722,292.174ZM351.2,280.21l-29.3-12.811L369.627,282Zm39.037,6.643-94.871-32.437-3.743-6.451,104.106,34.806Zm-96.057-40.141,40.334-4,12.917,1.249,10.416,8.75.321.941-17.3,4.778,51.344,16.106,10.554-4.35-5.416,11.015Zm145.426,15.569L400,280.358l39.935-81.226,7.315-8.058,28.231-6.758,1.68,4.011Z" fill="#232639"/></svg>