<svg xmlns="http://www.w3.org/2000/svg" viewBox="0 0 1400 470"><rect width="1400" height="470" opacity="0"/><circle cx="733.403" cy="235" r="227" fill="#eafaeb"/><rect x="672.175" y="159.425" width="326.654" height="42.498" fill="#fdfeff"/><rect x="913.925" y="173.62" width="61.06" height="17.402" fill="#cef2cf"/><rect x="672" y="35.922" width="326.829" height="123.503" fill="#dfecfc"/><ellipse cx="712.806" cy="80.254" rx="22.951" ry="22.65" fill="#cef2cf"/><path d="M726.363,88.488c0,.9-.02,1.794.009,2.689a.677.677,0,0,1-.494.779c-1.377.461-2.734,1-4.132,1.385a39.805,39.805,0,0,1-8.352,1.216,26.714,26.714,0,0,1-6.815-.574,30.292,30.292,0,0,1-5.974-1.885.977.977,0,0,1-.707-1.05c.04-1.518,0-3.038.021-4.556a5.6,5.6,0,0,1,.549-2.6A4.9,4.9,0,0,1,704,81.53a9.944,9.944,0,0,1,1-.171,4.321,4.321,0,0,1,3,.448,9.682,9.682,0,0,0,10.587-.122,2.6,2.6,0,0,1,1.591-.43,9.3,9.3,0,0,1,4.046.981,4.073,4.073,0,0,1,2.114,3.508c.062.91.011,1.829.011,2.744Z" fill="#fff"/><path d="M719.894,73.519a7.821,7.821,0,0,1-3.379,6.643,6.227,6.227,0,0,1-8.348-1.343,8.477,8.477,0,0,1,.49-11.2,6.363,6.363,0,0,1,10.184,1.7A8.3,8.3,0,0,1,719.894,73.519Z" fill="#fff"/><rect x="752.676" y="57.604" width="231.617" height="27.132" fill="#fff"/><rect x="752.676" y="99.051" width="83.276" height="27.132" fill="#fff"/><rect x="555.349" y="221.254" width="341.354" height="209.102" fill="#fff"/><path d="M646.12,236.7v-11.53H593.757V236.7" fill="#dfecfc"/><rect x="589.417" y="279.015" width="148.245" height="68.262" fill="#dfecfc"/><rect x="589.417" y="366.496" width="67.862" height="48.432" fill="#dfecfc"/><rect x="669.801" y="366.496" width="67.862" height="48.432" fill="#dfecfc"/><rect x="754.616" y="279.016" width="107.702" height="135.914" fill="#dfecfc"/><rect x="555.419" y="237.703" width="341.354" height="23.297" fill="#dfecfc"/><rect x="282.528" y="119.553" width="48.222" height="50.401" fill="#cef2cf"/><path d="M206.3,356.487l-1.6,1.838-1.6-1.838,1.6-1.837ZM204.7,384.8l-1.6,1.837,1.6,1.838,1.6-1.838Zm0-19.891-1.6,1.837,1.6,1.838,1.6-1.838Zm-1.6,31.99,1.6,1.838,1.6-1.838-1.6-1.837Zm1.6-22.364-1.6,1.838,1.6,1.837,1.6-1.837ZM197.369,396.9l-1.6-1.838-1.6,1.838,1.6,1.837Zm-3.2-10.262,1.6,1.837,1.6-1.837-1.6-1.838Zm1.6-21.729-1.6,1.838,1.6,1.837,1.6-1.837Zm0,9.627-1.6,1.838,1.6,1.837,1.6-1.837ZM212.033,325.7l1.6,1.836.968-1.111c-.675-.454-1.367-.882-2.069-1.3Zm8.868,50.679,1.6,1.837,1.6-1.837-1.6-1.838Zm1.6-21.727-1.6,1.837,1.6,1.838,1.6-1.838Zm1.6,31.991-1.6-1.837-1.6,1.837,1.6,1.838Zm-1.6-52.518-1.6,1.837,1.6,1.838,1.6-1.838Zm0,10.263-1.6,1.838,1.6,1.837,1.6-1.837Zm8.931,13.939,1.381-1.586c-.02-.2-.051-.39-.074-.586l-1.307-1.5-1.6,1.838Zm-8.931,6.588-1.6,1.837,1.6,1.838,1.6-1.838Zm7.335-18.687.842.967c-.16-.456-.33-.907-.5-1.356Zm-16.2,18.687-1.6,1.837,1.6,1.838,1.6-1.838Zm0-10.263-1.6,1.837,1.6,1.838,1.6-1.838Zm0-20.527-1.6,1.837,1.6,1.838,1.6-1.838Zm0,10.263-1.6,1.838,1.6,1.837,1.6-1.837Zm-1.6,42.255,1.6,1.838,1.6-1.838-1.6-1.837Zm19.4-21.728-1.6,1.84,1.6,1.837,1.112-1.278c.05-.323.082-.651.124-.975Zm-1.436,11.653q.139-.342.271-.686l-.434.5Zm-16.363-2.027-1.6,1.838,1.6,1.837,1.6-1.837Zm-43.054,12.1-1.6-1.838-1.6,1.838,1.6,1.837Zm0,10.262-1.6-1.838-.528.607c.679.451,1.374.877,2.08,1.288Zm43.054-1.838-1.6,1.837.123.141q1.06-.611,2.084-1.28ZM160.047,384.8l-1.481,1.7q.751.966,1.557,1.884l1.523-1.749Zm26.791,0-1.6,1.838,1.6,1.837,1.6-1.837Zm-1.6,12.1,1.6,1.837,1.6-1.837-1.6-1.838Zm1.6-22.364-1.6,1.838,1.6,1.837,1.6-1.837Zm-8.931,0-1.6,1.838,1.6,1.837,1.6-1.837Zm-1.6,22.364,1.6,1.837,1.6-1.837-1.6-1.838Zm1.6-12.1-1.6,1.838,1.6,1.837,1.6-1.837Z" fill="#232639"/><path d="M262.349,293.041l-38.85-.229-25.331,21.541.071-.023-23.522,20.036-14.5.418,4.476-23.509h0v0l-1.63.509-.653.205h0l-4.865,1.521-13.231,16.679-11.639,4.232,1.175-44.313,17.695-3.535L156.4,295.7l47.778-5.346a59.828,59.828,0,1,0,7.806,19.412Z" fill="#dfecfc"/><circle cx="565.85" cy="231.64" r="2.724" fill="#232639"/><circle cx="574.167" cy="231.64" r="2.724" fill="#232639"/><circle cx="582.483" cy="231.64" r="2.724" fill="#232639"/><path d="M737.662,348.277H589.417a1,1,0,0,1-1-1V279.015a1,1,0,0,1,1-1H737.662a1,1,0,0,1,1,1v68.262A1,1,0,0,1,737.662,348.277Zm-147.245-2H736.662V280.015H590.417Z" fill="#232639"/><path d="M657.28,415.928H589.417a1,1,0,0,1-1-1V366.5a1,1,0,0,1,1-1H657.28a1,1,0,0,1,1,1v48.432A1,1,0,0,1,657.28,415.928Zm-66.863-2H656.28V367.5H590.417Z" fill="#232639"/><path d="M737.663,415.928H669.8a1,1,0,0,1-1-1V366.5a1,1,0,0,1,1-1h67.862a1,1,0,0,1,1,1v48.432A1,1,0,0,1,737.663,415.928Zm-66.862-2h65.862V367.5H670.8Z" fill="#232639"/><path d="M862.319,415.93h-107.7a1,1,0,0,1-1-1V279.016a1,1,0,0,1,1-1h107.7a1,1,0,0,1,1,1V414.93A1,1,0,0,1,862.319,415.93Zm-106.7-2h105.7V280.016h-105.7Z" fill="#232639"/><path d="M897.7,237.36V221.254a1,1,0,0,0-1-1H555.349a1,1,0,0,0-1,1v209.1a1,1,0,0,0,1,1H896.7a1,1,0,0,0,1-1V261.344a.964.964,0,0,0,.07-.344V237.7A.959.959,0,0,0,897.7,237.36ZM749.846,226.173V236.7H699.483v-10.53Zm-52.363-.157V236.7H647.12V226.016Zm-52.363.157V236.7H594.757v-10.53Zm-52.363-.157V236.7H556.349V226.016ZM895.7,429.356H556.349V262H895.7ZM895.7,260H556.419V238.7H895.7Zm0-23.3H751.846V226.016H895.7Z" fill="#232639"/><path d="M998.829,34.922H672a1,1,0,0,0-1,1V171.144a.974.974,0,0,0,.175.532v30.247a1,1,0,0,0,1,1H998.829a1,1,0,0,0,1-1v-166A1,1,0,0,0,998.829,34.922Zm-1,2v121.5H673V36.922Zm0,164H673.175v-40.5H997.829v40.5Z" fill="#232639"/><path d="M712.806,103.9a23.652,23.652,0,1,1,23.951-23.65A23.828,23.828,0,0,1,712.806,103.9Zm0-45.3a21.652,21.652,0,1,0,21.951,21.65A21.827,21.827,0,0,0,712.806,58.6Z" fill="#232639"/><path d="M974.986,192.022H913.925a1,1,0,0,1-1-1v-17.4a1,1,0,0,1,1-1h61.061a1,1,0,0,1,1,1v17.4A1,1,0,0,1,974.986,192.022Zm-60.061-2h59.061v-15.4H914.925Z" fill="#232639"/><path d="M712.208,95.583a27.72,27.72,0,0,1-5.839-.622,31.335,31.335,0,0,1-6.11-1.923,1.969,1.969,0,0,1-1.355-2.1c.016-.763.013-1.612.01-2.461,0-.666,0-1.332,0-2a6.589,6.589,0,0,1,.648-3.019,5.9,5.9,0,0,1,4.3-2.919,9.85,9.85,0,0,1,1.021-.175,5.254,5.254,0,0,1,3.6.567,8.707,8.707,0,0,0,9.545-.078,3.573,3.573,0,0,1,2.205-.6,10.32,10.32,0,0,1,4.435,1.085,5.1,5.1,0,0,1,2.667,4.388c.044.616.032,1.279.021,1.92,0,.228-.008.456-.01.684a.884.884,0,0,1,.013.155l0,.794c0,.6-.008,1.2.01,1.805a1.683,1.683,0,0,1-1.239,1.836c-.389.133-.842.294-1.294.455-.914.325-1.859.661-2.825.927a40.827,40.827,0,0,1-8.58,1.251Q712.822,95.583,712.208,95.583Zm-6.294-13.32a3.352,3.352,0,0,0-.7.074c-.392.05-.693.1-.989.169a3.935,3.935,0,0,0-2.893,1.894,4.613,4.613,0,0,0-.411,2.06c-.008.7-.006,1.354,0,2.008,0,.869.006,1.738-.016,2.606.044.013.063.088.105.106A29.337,29.337,0,0,0,706.78,93a25.755,25.755,0,0,0,6.57.554,38.829,38.829,0,0,0,8.148-1.186c.878-.242,1.748-.551,2.669-.879.4-.142.8-.284,1.2-.42-.017-.6-.013-1.2-.009-1.8l0-.625a.983.983,0,0,1-.012-.155c0-.291,0-.582.01-.874.011-.626.021-1.218-.019-1.8a3.1,3.1,0,0,0-1.6-2.7,8.315,8.315,0,0,0-3.577-.858,1.654,1.654,0,0,0-1.025.263,10.683,10.683,0,0,1-11.677.132A3.228,3.228,0,0,0,705.914,82.263Zm19.647,8.745a.081.081,0,0,0-.022.007Z" fill="#232639"/><path d="M713.082,82.191a7.233,7.233,0,0,1-5.7-2.755,9.489,9.489,0,0,1,.557-12.51,7.326,7.326,0,0,1,5.2-2.15h.036a7.367,7.367,0,0,1,6.567,4.1,9.269,9.269,0,0,1,1.156,4.638,8.791,8.791,0,0,1-3.812,7.471A7.2,7.2,0,0,1,713.082,82.191Zm.053-15.415a5.325,5.325,0,0,0-3.773,1.553,7.483,7.483,0,0,0-.416,9.862,5.251,5.251,0,0,0,7.015,1.138,6.792,6.792,0,0,0,2.933-5.784V73.5a7.323,7.323,0,0,0-.926-3.7,5.464,5.464,0,0,0-1.02-1.44,5.326,5.326,0,0,0-3.786-1.589Z" fill="#232639"/><path d="M984.293,85.736H752.676a1,1,0,0,1-1-1V57.6a1,1,0,0,1,1-1H984.293a1,1,0,0,1,1,1V84.736A1,1,0,0,1,984.293,85.736Zm-230.617-2H983.293V58.6H753.676Z" fill="#232639"/><path d="M835.953,127.183H752.676a1,1,0,0,1-1-1V99.051a1,1,0,0,1,1-1h83.277a1,1,0,0,1,1,1v27.132A1,1,0,0,1,835.953,127.183Zm-82.277-2h81.277V100.051H753.676Z" fill="#232639"/><path d="M1287.992,346.693a1,1,0,0,1-.943-1.336l12.756-35.831a1,1,0,0,1,1.885.671l-12.756,35.831A1,1,0,0,1,1287.992,346.693Z" fill="#232639"/><path d="M1299.427,343.3a1.035,1.035,0,0,1-.288-.042,1,1,0,0,1-.67-1.246l5.951-19.813a1,1,0,0,1,1.916.576l-5.951,19.813A1,1,0,0,1,1299.427,343.3Z" fill="#232639"/><path d="M1201.841,323.771l16.977-49.568,14.488,5.121a74.429,74.429,0,1,0,23.955,64.147Z" fill="#dfecfc"/><path d="M1293.113,300.193a1.057,1.057,0,0,0,.007-.137.937.937,0,0,0-.022-.125c0-.022,0-.043,0-.065a.614.614,0,0,0-.031-.063c-.011-.031-.008-.065-.022-.095,0-.014-.018-.022-.025-.035s-.005-.026-.012-.037l-25.584-46.163a.986.986,0,0,0-.179-.211.129.129,0,0,1,0-.019,1,1,0,0,0-1.316-.52l-47.5,20.56c-.006,0-.013,0-.019,0s-.011.01-.016.013l-.008,0a.887.887,0,0,0-.071.054.841.841,0,0,0-.081.037c-.026.018-.038.046-.061.066s-.062.042-.087.069-.037.06-.059.089a1.11,1.11,0,0,0-.091.146c-.016.033-.037.062-.05.1,0,.007-.008.012-.011.019L1200.9,323.447a.648.648,0,0,0-.01.077.974.974,0,0,0-.03.223.894.894,0,0,0,.01.172.94.94,0,0,0,0,.106,1.214,1.214,0,0,0,.053.116.91.91,0,0,0,.048.1,1,1,0,0,0,.154.208c.024.024.043.05.069.072a1,1,0,0,0,.305.183l.007,0h0l.013,0,70.709,25.135a1,1,0,0,0,1.263-.57l19.564-48.792c.006-.016,0-.034.009-.05a1.037,1.037,0,0,0,.031-.125C1293.106,300.275,1293.109,300.235,1293.113,300.193ZM1246.8,310.961l-25.274-34.742,67.2,23.758Zm-27.643-34.6,25.566,35.142-41.327,10.826Zm70.821,21.933-68.394-24.2,44.344-19.2Zm-17.979,49.352-66.761-23.733,41.174-10.786h0a1,1,0,0,0,.442-.117l43.611-11.424Z" fill="#232639"/><circle cx="378.794" cy="139.722" r="85.452" fill="#cef2cf"/><path d="M331.285,118.646a1,1,0,0,0-.391-.079h-6.361V106.12a17.019,17.019,0,0,0-17-17h-1.655a17.019,17.019,0,0,0-17,17v12.447h-1.15V108a1,1,0,0,0-1-1h-4.263V94.551a17.019,17.019,0,0,0-17-17h-1.654a17.019,17.019,0,0,0-17,17V107h-4.254a1,1,0,0,0-1,1v10.567H239.4a1,1,0,0,0-1,1v4.207a1,1,0,0,0,1,1h2.16v2.207H239.4a1,1,0,0,0-1,1v4.207a1,1,0,0,0,1,1h2.16v2.206H239.4a1,1,0,0,0-1,1V140.6a1,1,0,0,0,1,1h2.16v2.207H239.4a1,1,0,0,0-1,1v4.207a1,1,0,0,0,1,1h2.16v6.362h0a1,1,0,0,0,1,1h38.959v12.67h0a1.011,1.011,0,0,0,1,1H330.9a1,1,0,0,0,1-1V119.569A1,1,0,0,0,331.285,118.646Zm-12.958-.079H295.085V106.326a11.013,11.013,0,0,1,11-11h1.242a11.013,11.013,0,0,1,11,11Zm-31.6,2h43.171v48.479H283.521v-7.465h17.927a1,1,0,0,0,1-1v-4.207a1,1,0,0,0-1-1H283.516v-2.209h17.932a1,1,0,0,0,1-1v-4.2a1,1,0,0,0-1-1H283.516v-2.21h17.932a1,1,0,0,0,1-1V139.55a1,1,0,0,0-1-1H283.516v-2.207h17.931a1,1,0,0,0,1-1v-4.207a1,1,0,0,0-1-1H283.516v-9.568Zm-3.207,30.6v-2.2h16.932v2.2Zm0-8.41V140.55h16.932v2.207Zm0-8.414v-2.207h16.931v2.207Zm3.212,23.034h13.72v2.207H283.521v-2.206Zm4.15-51.257a15.017,15.017,0,0,1,15-15h1.655a15.017,15.017,0,0,1,15,15v12.447h-2.206V106.326a13.015,13.015,0,0,0-13-13h-1.242a13.014,13.014,0,0,0-13,13v12.241h-2.207Zm-14.62.878H253.017V94.758a11.013,11.013,0,0,1,11-11h1.241a11.012,11.012,0,0,1,11,11ZM248.811,94.551a15.016,15.016,0,0,1,15-15h1.654a15.016,15.016,0,0,1,15,15V107h-2.207V94.758a13.015,13.015,0,0,0-13-13h-1.241a13.015,13.015,0,0,0-13,13V107h-2.206ZM240.4,120.567h15.88v2.207H240.4Zm0,8.414h15.88v2.207H240.4Zm0,8.413h15.88V139.6H240.4Zm0,8.414h15.88v2.207H240.4Zm16.88,4.207a1,1,0,0,0,1-1v-4.207a1,1,0,0,0-1-1h-13.72V141.6h13.72a1,1,0,0,0,1-1v-4.207a1,1,0,0,0-1-1h-13.72v-2.206h13.72a1,1,0,0,0,1-1v-4.207a1,1,0,0,0-1-1h-13.72v-2.207h13.72a1,1,0,0,0,1-1v-4.207a1,1,0,0,0-1-1h-13.72V109h42.171v9.567h-3.212a1,1,0,0,0-1,1h0v35.809H243.557v-5.362Z" fill="#232639"/><path d="M263.1,293.68a.991.991,0,0,0,.126-.176.97.97,0,0,0,.053-.133.98.98,0,0,0,.053-.215c0-.023.015-.042.016-.066s-.012-.059-.013-.09a.883.883,0,0,0,0-.115.709.709,0,0,0-.033-.095.912.912,0,0,0-.053-.152.929.929,0,0,0-.1-.176.906.906,0,0,0-.1-.117,1.016,1.016,0,0,0-.163-.129.732.732,0,0,0-.342-.139.815.815,0,0,0-.107-.031l-45.083-4.153a.985.985,0,0,0-.2,0l-61.036,6.83-3.653-8.543a1,1,0,0,0-1.116-.587l-9,1.8-5.538-6.248L135.5,279.67a.991.991,0,0,0-.952-.316l-18.245,3.8a1,1,0,0,0-.66.476,1.011,1.011,0,0,0-.13.4,1,1,0,0,0,.042.415l4.761,14.808-5.224.567a1,1,0,0,0-.74.464l-2.595,4.152a1,1,0,0,0,.844,1.53l9.884.035,3.463,10.772,5.771,17.955v0h0c.005.015.016.027.021.042a.928.928,0,0,0,.1.2.7.7,0,0,0,.041.064c.011.014.02.029.031.042h0a1.021,1.021,0,0,0,.17.158.809.809,0,0,0,.1.051c.016.009.027.026.044.034s.028,0,.041.01c.031.013.058.034.091.045a1.149,1.149,0,0,0,.166.027,1.09,1.09,0,0,0,.141.022.992.992,0,0,0,.143-.01.868.868,0,0,0,.1-.033c.034-.008.068-.006.1-.017l9.089-3.305a1.019,1.019,0,0,0,.128.274,1,1,0,0,0,.828.439,1.012,1.012,0,0,0,.287-.042l17.225-5.157-1.337,7.025a1,1,0,0,0,.982,1.187h.029l14.5-.418a1,1,0,0,0,.62-.238l23.373-19.911,63.925-21.227a.248.248,0,0,0,.032-.017.83.83,0,0,0,.131-.071.975.975,0,0,0,.18-.117A1.032,1.032,0,0,0,263.1,293.68ZM140.08,287.846l-6.425,1.284a.91.91,0,0,0-.1.039,1.068,1.068,0,0,0-.14.054.952.952,0,0,0-.18.119,1.1,1.1,0,0,0-.1.088.993.993,0,0,0-.134.193.827.827,0,0,0-.062.1.98.98,0,0,0-.081.358l-1.02,38.441-8.278-25.75-.953-2.967,0,0L117.8,284.889l16.59-3.457,3.824,4.314Zm77.195,2.048L239.1,291.9l-15.6-.092h0l-.008,0a.829.829,0,0,0-.292.044L163.062,310.74l-.085.026-6.038-14.12Zm-62.707,6.294v.007l6.486,15.17-3.809,1.193a1,1,0,0,0-.484.332l-13.053,16.455-9.994,3.634,1.115-42.045,16.115-3.219Zm-40.159,7.783,1.385-2.216,5.15-.559.9,2.8Zm43.727,10.406,4.567-1.429h.007l.688-.216-2.4,12.627L145.822,329.9Zm16.2,19-12.9.372,4.13-21.7,53.533-16.81L197.52,313.592a.974.974,0,0,0-.105.126Zm28.458-21.614,21.071-17.949,32.407.192Z" fill="#232639"/><path d="M555.953,376.555,544.4,392.067l-28.88,9.8,10.485-24.345a1,1,0,0,0-.11-.985L518.513,366.4a1,1,0,0,0-.809-.411,1.055,1.055,0,0,0-.215.023l-13.744,3.036a1,1,0,0,0-.7.576l-11.268,25.8-25.651-8.885,10.859-18.769a1,1,0,0,0-.056-1.087l-6.467-8.951a.985.985,0,0,0-.944-.406l-11.6,1.568a1,1,0,0,0-.7.436L446.171,375.9l-26.355-21.284,19.659-30.178,14.318,13.98a1.009,1.009,0,0,0,.884.267l11.489-2.154a1,1,0,0,0,.77-.682l3.329-10.525a1,1,0,0,0-.218-.979l-14.976-16.286,20.25-14.7,18.815,20.975a1.009,1.009,0,0,0,.847.327l14-1.434a1,1,0,0,0,.85-.69l3.833-11.943a1,1,0,0,0-.2-.97l-17.6-19.819,14.993.115c-.134-.666-.257-1.336-.384-2l-16.843-.13a1.018,1.018,0,0,0-.919.587,1,1,0,0,0,.163,1.078l18.712,21.075L508.126,311.3l-12.84,1.316-19.078-21.267a1,1,0,0,0-1.333-.142L452.986,307.1a1,1,0,0,0-.149,1.487l15.345,16.686-2.974,9.4L454.82,336.62,440,322.153a1,1,0,0,0-1.537.17l-20.817,31.955a1,1,0,0,0,.209,1.324l27.911,22.54a1,1,0,0,0,1.461-.223l11.408-17.1,10.555-1.427,5.736,7.94-11.141,19.257a1,1,0,0,0,.54,1.447L492,397.616a1,1,0,0,0,1.245-.544l11.434-26.18,12.608-2.785,6.664,9.146L512.8,403.14a1,1,0,0,0,.919,1.4,1.014,1.014,0,0,0,.321-.053l31.305-10.621a.991.991,0,0,0,.482-.351l10.093-13.556S556.383,377.093,555.953,376.555Z" fill="#232639"/><path d="M529.977,335.806l-.182.13-59.5,9.254,56.448-16.159c-.28-.613-.552-1.23-.826-1.845l-71.6,20.5a1,1,0,0,0,.428,1.95l75.591-11.757a1,1,0,0,0,.429-.174l.113-.081C530.573,337.019,530.277,336.411,529.977,335.806Z" fill="#232639"/><path d="M1130.086,112.115c.7.415,1.395.843,2.07,1.3l-.968,1.111-1.6-1.836Zm-7.829,19.26-1.6,1.837,1.6,1.838,1.6-1.838Zm0,20.527-1.6,1.837,1.6,1.838,1.6-1.838Zm-1.6,31.99,1.6,1.838,1.6-1.838-1.6-1.837Zm1.6-12.1-1.6,1.838,1.6,1.837,1.6-1.837Zm0-50.678-1.6,1.838,1.6,1.834,1.6-1.837Zm0,40.414-1.6,1.837,1.6,1.838,1.6-1.838Zm0-19.889-1.6,1.837,1.6,1.838,1.6-1.838Zm-8.93-20.525-1.6,1.839,1.6,1.836,1.6-1.836Zm0,10.261-1.6,1.838,1.6,1.837,1.6-1.837Zm0-20.527-1.6,1.839,1.6,1.838,1.6-1.838Zm8.93,0-1.6,1.837,1.6,1.836,1.6-1.836Zm-8.93,30.789-1.6,1.838,1.6,1.837,1.6-1.837Zm0,19.89-1.6,1.838,1.6,1.837,1.6-1.837Zm0-9.627-1.6,1.838,1.6,1.837,1.6-1.837Zm-1.6,21.729,1.6,1.836,1.6-1.836-1.6-1.839Zm3.2,10.262-1.6-1.838-1.6,1.838,1.6,1.837Zm25.13-52.518-1.6,1.837,1.6,1.838,1.6-1.838Zm0,10.264-1.6,1.837,1.6,1.838,1.6-1.838Zm-1.6,21.726,1.6,1.838,1.6-1.838-1.6-1.837Zm3.2,10.265-1.6-1.838-1.6,1.838,1.6,1.837Zm-1.6-52.519-1.6,1.838,1.6,1.837,1.6-1.837Zm0,30.791-1.6,1.837,1.6,1.838,1.6-1.838Zm8.177-17.72c-.16-.456-.33-.907-.506-1.356l-.337.388Zm.754,11.132,1.38-1.586c-.02-.2-.051-.391-.074-.587l-1.306-1.5-1.6,1.838Zm-17.8,6.588-1.6,1.837,1.6,1.838,1.6-1.838Zm0-10.263-1.6,1.837,1.6,1.838,1.6-1.838Zm0-20.528-1.6,1.838,1.6,1.837,1.6-1.837Zm0,10.264-1.6,1.837,1.6,1.838,1.6-1.838Zm17.8,20.527-1.6,1.839,1.6,1.838,1.113-1.279c.049-.322.082-.65.124-.975Zm-1.436,11.653q.138-.342.271-.687l-.434.5Zm-17.962,10.075,1.6,1.837,1.6-1.837-1.6-1.838Zm1.6-12.1-1.6,1.837,1.6,1.838,1.6-1.838Zm-35.724-40.414-1.6,1.839,1.6,1.836,1.6-1.836Zm-7.331,52.517-1.6-1.839-1.6,1.839,1.6,1.836Zm0,10.262-1.6-1.838-.528.607c.678.45,1.373.877,2.079,1.288ZM1077.6,151.9l-1.6,1.838,1.6,1.836,1.6-1.837Zm8.93-37.376,1.6-1.839-.423-.486c-.7.416-1.388.848-2.061,1.3Zm0,27.113-1.6,1.838,1.6,1.837,1.6-1.837Zm0-20.525-1.6,1.839,1.6,1.836,1.6-1.836ZM1076,163.367l1.6,1.836,1.6-1.837-1.6-1.837Zm12.125-30.153-1.6-1.839-1.6,1.838,1.6,1.837ZM1077.6,171.792l-1.481,1.7q.752.964,1.557,1.884l1.523-1.749Zm-8.932-26.478,1.6-1.837-1.6-1.838-.975,1.121c-.053.421-.105.842-.145,1.267Zm0,10.263,1.6-1.837-1.6-1.838-.992,1.14c.067.557.142,1.112.232,1.661Zm19.458-1.836-1.6-1.839-1.6,1.838,1.6,1.837ZM1077.6,131.375l-1.6,1.838,1.6,1.836,1.6-1.836Zm0,10.264-1.6,1.838,1.6,1.836,1.6-1.837Zm0-20.525-1.6,1.839,1.6,1.835,1.6-1.836Zm-7.477,11.934c-.078.2-.164.4-.238.6l.382-.44Zm25.338,18.854-1.6,1.838,1.6,1.837,1.6-1.837Zm8.93-10.263-1.6,1.838,1.6,1.837,1.6-1.837Zm0,10.263-1.6,1.838,1.6,1.837,1.6-1.837Zm0-20.527-1.6,1.838,1.6,1.837,1.6-1.837Zm0-10.261-1.6,1.839,1.6,1.836,1.6-1.836Zm-1.6,62.779,1.6,1.837,1.6-1.837-1.6-1.838Zm1.6-12.1-1.6,1.839,1.6,1.836,1.6-1.836Zm0-60.944-1.6,1.839,1.6,1.838,1.6-1.838Zm0,50.681-1.6,1.838,1.6,1.837,1.6-1.837Zm-8.93,0-1.6,1.838,1.6,1.837,1.6-1.837Zm0-30.154-1.6,1.838,1.6,1.837,1.6-1.837Zm0-20.527-1.6,1.839,1.6,1.838,1.6-1.838Zm0,60.944-1.6,1.839,1.6,1.836,1.6-1.836Zm0-30.153-1.6,1.838,1.6,1.837,1.6-1.837Zm35.724,40.416-1.6,1.837.123.141q1.062-.612,2.084-1.28Zm-37.323,1.838,1.6,1.837,1.6-1.837-1.6-1.838Zm-7.333-18.689,1.6-1.837-1.6-1.838-1.6,1.838Z" fill="#cef2cf"/></svg>