<svg xmlns="http://www.w3.org/2000/svg" viewBox="0 0 640 630"><rect width="640" height="630" opacity="0"/><path d="M478.368,117.448c-.7.015-.852-.243-.895-.923-.151-2.4.652-4.608,1.226-6.862.485-1.907.97-3.816,1.527-5.7a2.3,2.3,0,0,0-.813-2.7A5.524,5.524,0,0,1,477.521,97a7.247,7.247,0,0,1,4.021-6.882c2.916-1.673,6.213-.674,8.39,2.33a7.157,7.157,0,0,1,.321,7.884,4.03,4.03,0,0,1-.915,1.017,2.293,2.293,0,0,0-.716,2.74c.867,3.236,1.775,6.462,2.54,9.723a12.329,12.329,0,0,1,.066,3.2c-.006.168-.409.455-.633.459-2.1.035-4.194.021-6.292.021C484.3,117.478,480.346,117.406,478.368,117.448Z" fill="#d1a3f5"/><path d="M484.615,37.9A51.764,51.764,0,1,0,536.379,89.66,51.764,51.764,0,0,0,484.615,37.9ZM510.6,121.862a1.781,1.781,0,0,1-1.782,1.781H460.409a1.781,1.781,0,0,1-1.782-1.781V82.192a1.782,1.782,0,0,1,1.782-1.782h4.522c.025-4.071,0-8.144.122-12.213a16.515,16.515,0,0,1,1.684-6.394,19.044,19.044,0,0,1,6.321-7.625,17.621,17.621,0,0,1,6.305-2.852,18.382,18.382,0,0,1,5.079-.544,18.723,18.723,0,0,1,14.913,8.545,18.442,18.442,0,0,1,2.618,6.2,23.17,23.17,0,0,1,.558,5.128c-.01,3.253,0,6.507,0,9.76h6.294a1.782,1.782,0,0,1,1.782,1.782Z" fill="#d1a3f5"/><path d="M496.208,63.071a14.279,14.279,0,0,0-5.532-5.745,11.286,11.286,0,0,0-4.143-1.543,28.372,28.372,0,0,0-3.694-.263,11.81,11.81,0,0,0-5.088,1.3,14.073,14.073,0,0,0-6.566,6.358,13.265,13.265,0,0,0-1.625,6c-.029,1.916-.006,3.833-.006,5.749h-.013c0,1.827,0,3.653.007,5.479h28.357c.017-3.827.039-7.656-.025-11.482A12.957,12.957,0,0,0,496.208,63.071Z" fill="#d1a3f5"/><path d="M542.563,96.841c.268-5.067.577-9.508-.412-14.486L554.836,74.5,544.955,51.23,530.65,54.155c-2.783-3.586-6.822-7.082-10.231-10.624l2.727-14.712L499.728,19.15,491.8,31.71a112.327,112.327,0,0,0-14.53-.212l-7.811-12.059L446.188,29.32l2.923,14.3c-4.213,2.829-7.081,6.821-10.622,10.232l-14.712-2.724-9.672,23.414,12.563,7.931c-.894,5.114-.532,10.135-.215,14.531l-12.058,7.81,9.882,23.269,14.305-2.923c2.827,4.213,6.82,7.081,10.232,10.622L446.087,150.5l23.418,9.669,7.93-12.56c5.111.894,9.507.577,14.53.215l7.811,12.059L523.045,150l-2.925-14.3c3.587-2.781,7.083-6.82,10.622-10.232l14.714,2.727,9.671-23.417Zm-57.948,44.582A51.764,51.764,0,1,1,536.379,89.66,51.763,51.763,0,0,1,484.615,141.423Z" fill="#eee0fa"/><path d="M560,556.245l1.877,2.163L560,560.569l-1.885-2.161Zm-1.885,14.244L560,572.65l1.877-2.161L560,568.326Zm-10.5-12.081,1.878,2.161,1.877-2.161-1.877-2.163Zm10.5-11.331L560,549.239l1.877-2.162L560,544.914Zm0,35.492L560,584.731l1.877-2.162L560,580.406Zm10.519-24.162,1.878,2.162,1.878-2.162-1.878-2.162Zm0,12.081,1.878,2.162,1.878-2.162-1.878-2.162Zm0,12.08,1.878,2.163,1.878-2.163-1.878-2.162ZM537.1,570.489l1.878,2.161,1.878-2.161-1.878-2.163Zm45.059-70.877c-.794-.533-1.608-1.036-2.433-1.524l-.578.666,1.878,2.163ZM603.6,535.285c-.023-.226-.059-.449-.086-.675l-1.541-1.776L600.1,535l1.878,2.161Zm-3.111-12.823-.394.454.988,1.136C600.9,523.518,600.7,522.988,600.49,522.462Zm-72.682,58.7c.8.53,1.616,1.032,2.446,1.515l.093-.106-1.884-2.163Zm9.29,1.409,1.878,2.162,1.878-2.162-1.878-2.163Zm10.516,0,1.878,2.162,1.877-2.162-1.877-2.163Zm21.021-35.493,1.878,2.163,1.878-2.163-1.878-2.162Zm-21.021,23.413,1.878,2.161,1.877-2.161-1.877-2.163ZM589.584,535l1.878,2.162L593.339,535l-1.877-2.162Zm-10.438-24.162L581.024,513l1.884-2.163-1.884-2.162Zm10.438,47.573,1.878,2.162,1.877-2.162-1.877-2.162Zm0,12.081,1.878,2.162,1.877-2.162-1.877-2.162ZM568.635,535l1.878,2.162L572.391,535l-1.878-2.162ZM600.1,547.077l1.878,2.162,1.323-1.524c.056-.369.094-.743.142-1.113l-1.465-1.688Zm-10.512-24.161,1.878,2.162,1.877-2.162-1.877-2.163ZM600.3,558.638q.171-.42.333-.845l-.533.615Zm-10.712-47.8L591.462,513l1.877-2.163-1.877-2.162Zm0,36.242,1.878,2.163,1.877-2.163-1.877-2.162Zm-10.438-24.16,1.878,2.162,1.884-2.162-1.884-2.163Zm-10.511-12.082L570.513,513l1.878-2.163-1.878-2.162Zm0,12.082,1.878,2.162,1.878-2.162-1.878-2.163Zm10.511,59.652.166.19c.831-.48,1.649-.98,2.448-1.507l-.736-.845Zm0-47.572,1.878,2.162L582.908,535l-1.884-2.162Zm0,12.08,1.878,2.163,1.884-2.163-1.884-2.162Zm0,11.331,1.878,2.162,1.884-2.162-1.884-2.162Zm0,12.081,1.878,2.162,1.884-2.162-1.884-2.162Z" fill="#232639"/><path d="M54.382,193.832V408.518H404.458V193.832ZM322.16,365.348a5.221,5.221,0,0,1-5.221,5.221H142.62a5.222,5.222,0,0,1-5.222-5.221V264.7a5.221,5.221,0,0,1,5.222-5.221H316.939a5.22,5.22,0,0,1,5.221,5.221Z" fill="#98b7ff"/><path d="M80.845,464.473a228.2,228.2,0,0,0,300.532,0Z" fill="#dfecfc"/><path d="M30.753,195.871c9.493-9.493,14.809-14.815,24.305-24.305H403.711c9.5,9.49,14.812,14.812,24.305,24.305V408.144A227.154,227.154,0,0,0,459.341,292.7c0-126.047-102.182-228.229-228.23-228.229S2.882,166.655,2.882,292.7A227.19,227.19,0,0,0,30.753,402.071Z" fill="#dfecfc"/><path d="M438.152,616.955a.984.984,0,0,0-.045-.226.866.866,0,0,0-.034-.113,1.007,1.007,0,0,0-.156-.245l-.038-.043-.008-.01-45.054-51.663a1,1,0,0,0-.754-.343H66.748a1,1,0,0,0-.754.343l-45,51.6a.981.981,0,0,0-.392.774v6.5a1,1,0,0,0,1,1H437.167a1,1,0,0,0,1-1v-6.5C438.167,617,438.154,616.98,438.152,616.955ZM66.62,566.98a1.07,1.07,0,0,0,.137.027l325.454,0,42.753,49.025H23.847Zm369.547,55.548H22.6v-4.5H436.167Z" fill="#232639"/><path d="M280.238,606.9a.98.98,0,0,0-.016-.152l-11.045-35.105c-.007-.02-.022-.033-.029-.052a.855.855,0,0,0-.059-.107.967.967,0,0,0-.155-.23c-.012-.012-.027-.02-.04-.031a.96.96,0,0,0-.277-.187c-.011,0-.023-.006-.034-.011a1,1,0,0,0-.347-.07l-.015,0H203.088a.857.857,0,0,0-.9,0H75.767a1,1,0,0,0-.769.36l-29.169,35.1a.978.978,0,0,0-.222.6c0,.013-.007.023-.007.035v3.522a1,1,0,0,0,1,1H279.269a1,1,0,0,0,1-1v-3.522A.951.951,0,0,0,280.238,606.9Zm-216-19.515H76.965l-5.248,7.58H57.941Zm6.977-8.394H82.777l-4.427,6.394H65.9Zm30.408-6.038-2.575,4.037H86.594l2.8-4.037Zm16.085,0-2.526,4.037H101.422L104,572.954Zm15.184,0-2.283,4.037H117.544l2.526-4.037Zm14.411,0-2.036,4.037H132.91l2.282-4.037Zm14.173,0-1.8,4.037H147.51l2.036-4.037Zm14.172,0-1.554,4.037H161.871l1.8-4.037Zm13.236,0-1.139,4.036H176.24l1.554-4.037Zm12.538,0-.684,4.036H189.826l1.139-4.036Zm66.067,0,1.27,4.036H244.438l-.377-4.036ZM169.32,594.965l2.918-7.58h12.575l-2.14,7.58Zm-15.448,0,3.373-7.58H170.1l-2.918,7.58Zm-31.127,0,4.286-7.579h13l-3.823,7.58Zm-16.447,0,4.743-7.58h13.693l-4.286,7.579Zm122.416-9.582H215.886l.5-6.395h12.33Zm2-6.394h11.9l.6,6.394h-12.5Zm-16.834,6.395H201.349l1.082-6.395h11.947Zm-14.56,0H187.456l1.805-6.395H200.4Zm-13.942,0h-12.37l2.462-6.394h11.713Zm-14.513,0h-12.73l2.846-6.394h12.346Zm-14.919,0h-12.67l3.225-6.394h12.291Zm-14.909,0H128.163l3.615-6.394h12.483Zm-15.172,0H112.292l4-6.395h13.188Zm-15.932,0H96.071l4.076-6.395h13.787Zm-1.251,2-4.743,7.58H89.963l4.833-7.58Zm33.586,0h12.788l-3.373,7.58H138.445Zm44.623,0h12.091l-1.283,7.579H184.751Zm14.119,0h12.714l-.591,7.579h-13.4Zm14.72,0h12.984v7.58H215.139Zm14.984,0H243.4l.708,7.58H230.714Zm14.695,0h12.525l1.473,7.58h-13.29Zm14.332-1.188a1.086,1.086,0,0,0-.048-.116,1.025,1.025,0,0,0-.063-.153.909.909,0,0,0-.123-.182.951.951,0,0,0-.292-.234.979.979,0,0,0-.152-.065,1,1,0,0,0-.207-.041.837.837,0,0,0-.1-.021H245.222l-.6-6.394h24.767l5.025,15.973H261.444Zm-17.312-9.206H230.714v-4.036h11.338Zm-13.715,0H216.54l.315-4.036h11.859Zm-14.18,0H202.77l.683-4.036h11.4Zm-116.758,2L93.7,585.386H80.782l4.427-6.394ZM79.4,587.386H92.424l-4.832,7.58H74.15Zm6.92,9.58-5.732,8.99a.841.841,0,0,0-.036.1H66.476l6.29-9.085Zm2.371,0h14l-5.63,9c-.017.028-.018.059-.033.087H82.9Zm16.359,0h31.408a.885.885,0,0,0,.666,0h45.966c.019.006.033.021.053.027a.958.958,0,0,0,.614-.027h44.96v9.087H99.363Zm125.667,9.085v-9.087H244.3l.849,9.087Zm16.438,0-.848-9.087H259.8l1.766,9.087Zm16.447,0-1.766-9.087h13.214l2.859,9.088Zm-187.363-33.1H86.957l-2.8,4.038H72.88ZM56.279,596.966H70.333l-6.2,8.959a1,1,0,0,0-.054.126H48.729Zm-8.618,12.607v-1.522H278.268v1.522Z" fill="#232639"/><path d="M412.422,607.01a1,1,0,0,0-.07-.345c0-.007-.008-.012-.011-.019a.95.95,0,0,0-.132-.222l-28.231-35.1a1,1,0,0,0-.78-.373H331.28a.947.947,0,0,0-.159.02c-.021,0-.041,0-.062,0l-.017.007a1,1,0,0,0-.27.112c-.028.017-.051.037-.077.056a1.1,1.1,0,0,0-.153.137,1.029,1.029,0,0,0-.066.082.626.626,0,0,0-.041.049.979.979,0,0,0-.069.147c-.01.023-.023.043-.031.066a1.033,1.033,0,0,0-.051.3c0,.008,0,.016,0,.024v2.285a1,1,0,0,0,.1.427l16.809,35.545v0l.017.036a1,1,0,0,0,.182.259c.021.022.046.038.069.058a1,1,0,0,0,.309.186.966.966,0,0,0,.342.069H411.43a1,1,0,0,0,1-1v-2.771C412.43,607.037,412.422,607.024,412.422,607.01ZM345,572.954l2.282,4.038H334.805l-1.935-4.038Zm13.229,0,2.487,4.038H349.576l-2.282-4.038Zm12.5,0,2.842,4.038H363.062l-2.487-4.038Zm21.991,12.432H381.927l-4.5-6.394h10.151Zm-13.239,0H368.232l-3.939-6.395H374.98Zm-27.458,0H338.83l-3.066-6.395h12.645Zm-1.316-6.395h11.238l3.938,6.395H354.321Zm-10.918,8.395h13.365l4.284,7.581H343.424Zm19.947,7.581-4.284-7.581h11.663l4.668,7.581Zm9.727-7.581H380.89l5.337,7.581H374.132Zm-20.726,18.664-4.354-9.083h28.632l5.594,9.084Zm32.221,0-5.594-9.084h12.271l6.395,9.084Zm15.482,0a.962.962,0,0,0-.058-.132l-13.048-18.533h11l15.013,18.665Zm-10.473-29.059h-9.95l-2.843-4.038h9.545Zm24.463,31.83H349.107v-.771H410.43Z" fill="#232639"/><path d="M334.448,607.012a1.015,1.015,0,0,0-.061-.306c-.008-.021-.013-.042-.022-.063s-.006-.023-.011-.034l-5.395-10.95a1,1,0,0,0-.894-.558l-11.475-.039-3.564-9.042a1,1,0,0,0-.93-.634H298.953a1,1,0,0,0-.94,1.343c.03.083,1.435,3.933,3.013,8.279l-12.093-.041h0a1.024,1.024,0,0,0-.124.015c-.016,0-.032,0-.047,0a.25.25,0,0,0-.025.009.982.982,0,0,0-.289.105c-.019.011-.035.024-.053.036a.966.966,0,0,0-.19.16c-.019.02-.037.038-.054.059s-.025.024-.035.039a1,1,0,0,0-.117.222c0,.012,0,.025-.009.036a.971.971,0,0,0-.049.276c0,.015-.008.028-.008.043v1.63a1,1,0,0,0,.049.311l3.989,12.224c0,.017.017.03.023.046a.911.911,0,0,0,.051.1.969.969,0,0,0,.138.205.813.813,0,0,0,.084.082.969.969,0,0,0,.2.138.881.881,0,0,0,.1.049.984.984,0,0,0,.353.072h40.539a1,1,0,0,0,1-1v-2.771C334.456,607.037,334.449,607.026,334.448,607.012Zm-7.01-9.913,4.411,8.952H320.92l-3.541-8.986Zm-20.309,8.952c-.5-1.447-1.847-5.175-3.246-9.033l11.344.039,3.544,8.994Zm-6.747-18.665h11.033l3.022,7.668-11.28-.038C302.041,591.941,300.979,589.026,300.382,587.386Zm1.371,9.625c1.307,3.6,2.607,7.2,3.257,9.04H293.6l-3.252-9.079Zm30.7,11.811H293.919v-.771h38.537Z" fill="#232639"/><path d="M323.593,577.958a1,1,0,0,0-.062-.309c-.009-.022-.013-.045-.023-.067s0-.019-.009-.028l-3.033-6.162a1,1,0,0,0-.9-.559H281.022c-.028,0-.054.008-.08.01s-.05-.006-.076,0-.03.013-.046.016a1.015,1.015,0,0,0-.263.092.969.969,0,0,0-.085.057.953.953,0,0,0-.159.132.766.766,0,0,0-.073.078c-.008.01-.019.018-.027.029s-.012.038-.024.056a.981.981,0,0,0-.128.309.87.87,0,0,0-.022.124.771.771,0,0,0-.017.1v.983a1.009,1.009,0,0,0,.046.3l1.934,6.06v.364a1,1,0,0,0,1,1h39.6a1,1,0,0,0,1-1v-1.549C323.6,577.98,323.594,577.97,323.593,577.958Zm-39.859-.966-1.339-4.159h11.423l1.5,4.159Zm13.712,0-1.5-4.159h11.121l1.668,4.159Zm13.443,0-1.668-4.159h9.726l2.046,4.159Z" fill="#232639"/><path d="M404.458,192.832H54.382a1,1,0,0,0-1,1V408.518a1,1,0,0,0,1,1H404.458a1,1,0,0,0,1-1V193.832A1,1,0,0,0,404.458,192.832Zm-1,214.686H55.382V199.291H403.458Z" fill="#232639"/><path d="M429.018,432.088l0-.013v-236.2a1,1,0,0,0-.293-.707l-24.305-24.3a1,1,0,0,0-.707-.293H55.058a1,1,0,0,0-.707.293l-24.3,24.3a1,1,0,0,0-.293.707v236.5a1,1,0,0,0,.2.592L50.067,460.3h0l3.509,4.768a1,1,0,0,0,.8.407H193.6l-15.915,57.3H158.07c-.007,0-.013,0-.02,0H148.027a1,1,0,0,0-.9.564L140.561,536.9a1,1,0,0,0,.9,1.435H329.629a1,1,0,0,0,.9-1.435l-6.568-13.563a1,1,0,0,0-.9-.564h-8.774c-.01,0-.018-.006-.029-.006H294.644l-15.917-57.3H404.386a1,1,0,0,0,.8-.407l23.63-32.1a1,1,0,0,0,.195-.592V432.1ZM55.472,172.566H403.3l23.719,23.719v234.8l-395.263,0V196.285ZM407.39,458.706H51.379L32.525,433.092l393.721,0Zm-79.356,77.633H143.056l5.6-11.562H322.435Zm-35.466-13.568-112.813,0,15.916-57.3h80.98Z" fill="#232639"/><rect x="509.15" y="228.913" width="126.51" height="90.085" fill="#dfecfc"/><path d="M552.747,333.424H517.683a1,1,0,0,1,0-2h35.064a1,1,0,0,1,0,2Z" fill="#232639"/><path d="M635.659,227.913H509.149a1,1,0,0,0-1,1V319a1,1,0,0,0,1,1h126.51a1,1,0,0,0,1-1V228.913A1,1,0,0,0,635.659,227.913Zm-40.858,69.7V274.576l20.442-.007c.011,0,.022.007.034.007s.022-.007.035-.007l19.347-.008v23.052Zm-23.622-46.256v21.228l-20.216.008a.958.958,0,0,0-.815,0l-20.03.008V251.357Zm29.808.045a.961.961,0,0,0,.222-.045h13.068v21.212l-20.108.008a.979.979,0,0,0-.368-.075.993.993,0,0,0-.37.075l-20.252.008V251.357h27.585A.981.981,0,0,0,600.987,251.4Zm-49.431,46.211v-23.02l41.245-.016v23.036Zm83.1-25.052-18.382.007V251.357h18.382Zm-85.1,2.033v23.019H510.149v-23Zm50.431-25.237h-27.7a.876.876,0,0,0-.111-.023.823.823,0,0,0-.112.023H554.282V229.913h45.7Zm-71.869,2V272.6l-17.969.006V251.357Zm2,48.256h20.346a.935.935,0,0,0,.092.018c.032,0,.06-.015.092-.018h20.531V318H530.118Zm43.061,0h20.53c.032,0,.06.018.092.018a.935.935,0,0,0,.092-.018h20.346V318h-41.06Zm61.48-50.256H615.413a.356.356,0,0,0-.272,0H601.987V229.913h32.672Zm-82.377-19.444v19.444H529.23a.856.856,0,0,0-.112-.023.841.841,0,0,0-.111.023H510.149V229.913Zm-42.133,69.7h17.969V318H510.149ZM616.239,318V299.613h18.42V318Z" fill="#232639"/><path d="M316.939,371.569H142.62a6.229,6.229,0,0,1-6.222-6.222V264.7a6.229,6.229,0,0,1,6.222-6.222H316.939a6.229,6.229,0,0,1,6.221,6.222V365.347A6.229,6.229,0,0,1,316.939,371.569ZM142.62,260.473A4.227,4.227,0,0,0,138.4,264.7V365.347a4.227,4.227,0,0,0,4.222,4.222H316.939a4.226,4.226,0,0,0,4.221-4.222V264.7a4.226,4.226,0,0,0-4.221-4.222Z" fill="#232639"/><rect x="196.393" y="321.306" width="68.857" height="23.396" rx="10.054" fill="#5755f4"/><path d="M217.924,330.326h1.055v5.627h2.175v.8h-3.23Zm6.892,6.5a3.221,3.221,0,0,1-2.336-.93,3.4,3.4,0,0,1,0-4.719,3.4,3.4,0,0,1,4.668,0,3.41,3.41,0,0,1,0,4.719A3.208,3.208,0,0,1,224.816,336.822Zm0-.953a2.1,2.1,0,0,0,1.587-.643,2.634,2.634,0,0,0,0-3.383,2.293,2.293,0,0,0-3.174,0,2.634,2.634,0,0,0,0,3.383A2.1,2.1,0,0,0,224.811,335.869Zm7.389.943a3.314,3.314,0,0,1-2.271-5.639,3.207,3.207,0,0,1,2.332-.929,3.358,3.358,0,0,1,1.827.5,2.864,2.864,0,0,1,1.161,1.429h-1.267a1.8,1.8,0,0,0-1.721-.972,2.1,2.1,0,0,0-1.587.638,2.622,2.622,0,0,0,0,3.377,2.038,2.038,0,0,0,1.531.639,2.1,2.1,0,0,0,1.457-.485,2.074,2.074,0,0,0,.653-1.32H231.9v-.822h3.544v.822a3.089,3.089,0,0,1-1.037,1.957A3.169,3.169,0,0,1,232.2,336.812Zm4.515-.055v-6.431h1.055v6.431Zm6.906-6.439h1.055v6.439h-1.055l-3.173-4.8v4.8h-1.055v-6.439h1.055l3.173,4.791Z" fill="#fff"/><path d="M284.239,308.432H175.3a3.455,3.455,0,0,1-3.451-3.451V290.132a3.455,3.455,0,0,1,3.451-3.451H284.239a3.455,3.455,0,0,1,3.45,3.451v14.849A3.455,3.455,0,0,1,284.239,308.432ZM175.3,288.681a1.453,1.453,0,0,0-1.451,1.451v14.849a1.453,1.453,0,0,0,1.451,1.451H284.239a1.452,1.452,0,0,0,1.45-1.451V290.132a1.452,1.452,0,0,0-1.45-1.451Z" fill="#232638"/><path d="M182.179,295.539l-.284,1.892,1.489-1.154.583,1.037-1.774.66,1.774.66-.6,1.063-1.476-1.166.272,1.879h-1.192l.246-1.879-1.477,1.193-.622-1.1,1.762-.661-1.762-.634.6-1.063,1.515,1.166-.259-1.892Zm6.672,0-.285,1.892,1.489-1.154.583,1.037-1.774.66,1.774.66-.595,1.063-1.477-1.166.272,1.879h-1.192l.246-1.879-1.476,1.193-.622-1.1,1.761-.661-1.761-.634.6-1.063,1.516,1.166-.26-1.892Zm6.671,0-.284,1.892,1.489-1.154.583,1.037-1.775.66,1.775.66-.6,1.063-1.476-1.166.272,1.879h-1.192l.246-1.879-1.477,1.193-.622-1.1,1.762-.661-1.762-.634.6-1.063,1.516,1.166-.259-1.892Zm6.671,0-.285,1.892,1.49-1.154.583,1.037-1.775.66,1.775.66-.6,1.063-1.477-1.166.272,1.879h-1.191l.246-1.879-1.477,1.193-.622-1.1,1.762-.661-1.762-.634.6-1.063,1.516,1.166-.259-1.892Zm6.672,0-.285,1.892,1.489-1.154.583,1.037-1.774.66,1.774.66-.6,1.063-1.476-1.166.272,1.879H207.66l.246-1.879-1.477,1.193-.622-1.1,1.762-.661-1.762-.634.6-1.063,1.515,1.166-.259-1.892Zm6.671,0-.285,1.892,1.489-1.154.584,1.037-1.775.66,1.775.66-.6,1.063-1.477-1.166.272,1.879h-1.192l.246-1.879-1.476,1.193-.622-1.1,1.761-.661-1.761-.634.6-1.063,1.516,1.166-.26-1.892Zm6.671,0-.284,1.892,1.489-1.154.583,1.037-1.775.66,1.775.66-.6,1.063-1.476-1.166.272,1.879H221l.246-1.879-1.477,1.193-.622-1.1,1.762-.661-1.762-.634.6-1.063,1.516,1.166L221,295.539Z" fill="#232639"/><path d="M292.206,220.018h36.556v3.873H292.206Zm45.676,3.873h36.557v-3.873H337.882Zm-91.353,0h36.557v-3.873H246.529Zm-45.677,0h36.557v-3.873H200.852Z" fill="#232639"/><path d="M104.178,233.907H92.06a1.464,1.464,0,0,1-1.262-.728l-6.06-10.5a1.464,1.464,0,0,1,0-1.459L90.8,210.731A1.46,1.46,0,0,1,92.06,210h12.118a1.461,1.461,0,0,1,1.264.732l6.058,10.492a1.46,1.46,0,0,1,0,1.458l-6.059,10.5A1.465,1.465,0,0,1,104.178,233.907Zm-11.8-2h11.493l5.746-9.952L103.865,212H92.373l-5.746,9.954ZM104.178,212h0Zm-.469-.27v0Zm-11.178,0,0,0Z" fill="#232639"/><path d="M469.505,161.167a1,1,0,0,1-.381-.075l-23.418-9.669a1,1,0,0,1-.6-1.107l2.632-14.2c-1.015-1.029-2.094-2.022-3.142-2.986a44.887,44.887,0,0,1-6.458-6.851l-13.658,2.79a1,1,0,0,1-1.121-.589l-9.883-23.269a1,1,0,0,1,.377-1.229l11.562-7.489a59.46,59.46,0,0,1,.161-13.523l-12-7.576a1,1,0,0,1-.391-1.228l9.672-23.415a1,1,0,0,1,1.106-.6l14.2,2.631c1.027-1.015,2.019-2.094,2.982-3.14A44.984,44.984,0,0,1,448,43.178L445.208,29.52A1,1,0,0,1,445.8,28.4l23.269-9.881a1,1,0,0,1,1.23.377l7.491,11.565a105.066,105.066,0,0,1,12.57.172l.909.048,7.616-12.064a1,1,0,0,1,1.227-.391l23.418,9.669a1,1,0,0,1,.6,1.107L521.5,43.206c1.026,1.052,2.118,2.116,3.177,3.147a80.4,80.4,0,0,1,6.38,6.7l13.7-2.8a1,1,0,0,1,1.121.589l9.881,23.27a1,1,0,0,1-.394,1.241l-12.1,7.494a56.19,56.19,0,0,1,.343,13.243l-.011.221,12.068,7.618a1,1,0,0,1,.39,1.228L546.38,128.57a1.007,1.007,0,0,1-1.107.6l-14.205-2.632c-1.046,1.021-2.1,2.107-3.129,3.16a80.317,80.317,0,0,1-6.716,6.4l2.8,13.7a1,1,0,0,1-.589,1.121L500.167,160.8a1,1,0,0,1-1.23-.377l-7.489-11.562a56.6,56.6,0,0,1-13.522-.16l-7.575,12A1,1,0,0,1,469.505,161.167Zm-22.287-11.284,21.891,9.039,7.48-11.849a1.006,1.006,0,0,1,1.018-.451c4.993.874,9.3.562,14.287.2a.983.983,0,0,1,.911.453l7.353,11.353L521.9,149.4l-2.761-13.5a1,1,0,0,1,.367-.99,72.61,72.61,0,0,0,7-6.6c1.157-1.188,2.354-2.417,3.542-3.561a1,1,0,0,1,.876-.264l13.917,2.579,9.04-21.889-11.852-7.482a1,1,0,0,1-.465-.9l.043-.808c.255-4.744.475-8.841-.436-13.431a1,1,0,0,1,.454-1.045l11.956-7.4-9.227-21.728-13.5,2.761a1,1,0,0,1-.99-.366,72.631,72.631,0,0,0-6.584-6.982c-1.194-1.163-2.429-2.367-3.578-3.561a1,1,0,0,1-.263-.876l2.578-13.915L500.124,20.4l-7.48,11.85a1.006,1.006,0,0,1-.9.464l-1.5-.08a98.061,98.061,0,0,0-12.91-.134,1,1,0,0,1-.911-.454l-7.354-11.353L447.331,29.92l2.759,13.5a1,1,0,0,1-.422,1.031,40.168,40.168,0,0,0-7.052,6.538c-1.1,1.192-2.231,2.425-3.433,3.583a1.012,1.012,0,0,1-.876.263l-13.915-2.577L415.351,74.15,427.2,81.631a1,1,0,0,1,.451,1.018c-.872,4.992-.517,9.93-.2,14.286a1,1,0,0,1-.453.912L415.643,105.2l9.235,21.742,13.5-2.759a1,1,0,0,1,1.031.422,40.065,40.065,0,0,0,6.535,7.05c1.193,1.1,2.427,2.233,3.586,3.436a1,1,0,0,1,.263.876Z" fill="#232639"/><path d="M484.615,142.423A52.763,52.763,0,1,1,537.379,89.66,52.824,52.824,0,0,1,484.615,142.423Zm0-103.526A50.763,50.763,0,1,0,535.379,89.66,50.82,50.82,0,0,0,484.615,38.9Z" fill="#232639"/><path d="M424.943,32.883a.972.972,0,0,1-.3-.046l-23.41-7.363a1,1,0,0,1-.376-1.69L418.938,7.191a1,1,0,0,1,1.652.519l5.33,23.956a1,1,0,0,1-.977,1.217Zm-21.458-8.8,20.106,6.325L419.014,9.835Z" fill="#232639"/><path d="M528.442,163.871a1,1,0,0,1-.469-1.884,68.993,68.993,0,0,0,32.619-37.444,1,1,0,0,1,1.88.684,70.989,70.989,0,0,1-33.563,38.527A1,1,0,0,1,528.442,163.871Z" fill="#232639"/><path d="M528.443,172.021a1,1,0,0,1-.424-1.9,76.164,76.164,0,0,0,41.415-49.376,1,1,0,0,1,1.933.517,78.162,78.162,0,0,1-42.5,50.669A.983.983,0,0,1,528.443,172.021Z" fill="#232639"/><polygon points="468.978 467.034 521.477 451.333 572.252 467.034 564.803 526.691 521.477 583.288 478.12 526.691 468.978 467.034" fill="#dfecfc"/><path d="M569.411,497.861l3.834-30.7a1,1,0,0,0-.014-.263c0-.028,0-.056,0-.085a1.008,1.008,0,0,0-.152-.337c0-.006,0-.014-.008-.019-.019-.026-.046-.039-.067-.063a.987.987,0,0,0-.188-.177,1.2,1.2,0,0,0-.138-.071.994.994,0,0,0-.126-.064l-50.776-15.7a1.02,1.02,0,0,0-.3-.045h0a1.04,1.04,0,0,0-.282.041l-52.5,15.7a.993.993,0,0,0-.138.07,1.044,1.044,0,0,0-.149.076.965.965,0,0,0-.192.191c-.019.023-.046.036-.064.062l0,.012a.978.978,0,0,0-.144.346,1.022,1.022,0,0,0,0,.124.912.912,0,0,0-.007.228l9.142,59.657,0,.009c0,.011.007.022.009.033a1.008,1.008,0,0,0,.117.3c.008.014.009.029.017.043s.019.02.027.032.013.026.022.037l43.356,56.6c.012.016.032.022.045.037a2.164,2.164,0,0,0,.332.257.991.991,0,0,0,.417.1h0a.989.989,0,0,0,.416-.1.952.952,0,0,0,.1-.068.989.989,0,0,0,.231-.191c.012-.014.032-.02.044-.036l26.854-35.08.367.423,1.877-2.162-.485-.559,8.077-10.552,1.04,1.192L561.878,535l-1.155-1.332L565.6,527.3c.008-.011.012-.024.02-.035s.02-.021.028-.033.01-.032.018-.047a.954.954,0,0,0,.109-.281c0-.021.013-.04.016-.061a.25.25,0,0,0,.007-.026l3.421-27.392,1.3,1.494,1.878-2.163-1.878-2.162Zm-46.934-45.172,47.549,14.7L544.3,485.723a29.085,29.085,0,0,0-21.826-11.611ZM544.2,490.507a26.4,26.4,0,0,1-9.892,35.479l8.062-23.311a24.917,24.917,0,0,0,2.008-9.453A19.988,19.988,0,0,0,544.2,490.507Zm-5.338-6.8c-.113-.007-.224-.021-.342-.021a4.569,4.569,0,0,0-4.431,4.685c0,2.175,1.253,4.015,2.592,6.191a13.9,13.9,0,0,1,2.176,7.279,24.594,24.594,0,0,1-2.009,8.535l-2.633,8.8-9.537-28.377c1.588-.082,3.02-.25,3.02-.25a1.091,1.091,0,0,0-.169-2.175s-4.275.335-7.036.335c-2.594,0-6.951-.335-6.951-.335a1.091,1.091,0,0,0-.168,2.175s1.345.167,2.768.25l4.113,11.268-5.777,17.325-9.612-28.593c1.59-.082,3.02-.25,3.02-.25a1.091,1.091,0,0,0-.169-2.175s-4.276.335-7.036.335c-.5,0-1.078-.013-1.7-.033a26.39,26.39,0,0,1,39.88-4.965Zm-29.343,43.222a26.4,26.4,0,0,1-12.591-34.5Zm10.963-74.251V474.09a29.057,29.057,0,0,0-22.462,11.316c-.015-.011-.022-.027-.037-.037l-26.686-17.983Zm-50.164,16.462,26.534,17.88a29.016,29.016,0,0,0-2.356,28.05.853.853,0,0,0-.127.049l-15.488,9.9Zm50.164,63.129v48.072l-40.9-53.392,15.788-10.1a29.118,29.118,0,0,0,25.116,15.4Zm.556-2.7a26.367,26.367,0,0,1-7.456-1.075l7.92-23.014,8.113,22.229a2.771,2.771,0,0,0,.189.364A26.333,26.333,0,0,1,521.033,529.568Zm1.444,50.769v-48.07c0-.013-.007-.024-.008-.036a29.135,29.135,0,0,0,24.451-15.8l16.428,10.519Zm41.53-55.343-16.223-10.388a29.02,29.02,0,0,0-2.341-27.24l25.535-18.2Z" fill="#232639"/><path d="M487.16,118.5h-1.428l-1.429,0a1.014,1.014,0,0,1-.123-.007c-.432-.023-3.942-.082-5.791-.045a1.726,1.726,0,0,1-1.914-1.86,17.659,17.659,0,0,1,.909-5.884c.118-.429.236-.858.346-1.289.49-1.926.981-3.854,1.537-5.737a1.318,1.318,0,0,0-.492-1.644,6.48,6.48,0,0,1-2.254-4.993,8.271,8.271,0,0,1,4.523-7.787c3.3-1.893,7.2-.842,9.7,2.611a8.123,8.123,0,0,1,.349,9.017,4.951,4.951,0,0,1-1.153,1.271c-.442.332-.617.683-.35,1.681l.585,2.167c.671,2.477,1.365,5.038,1.963,7.586a9.9,9.9,0,0,1,.122,2.831c-.011.214-.023.428-.03.639a1.714,1.714,0,0,1-1.615,1.423C489.462,118.5,488.311,118.5,487.16,118.5Zm-5.837-2.091a24.055,24.055,0,0,1,2.98.115V116.5l1.432,0c1.5,0,3.011,0,4.517-.017l.009-.173a8.328,8.328,0,0,0-.072-2.268c-.59-2.514-1.28-5.059-1.946-7.52l-.587-2.172a3.333,3.333,0,0,1,1.082-3.8,2.988,2.988,0,0,0,.677-.763,6.161,6.161,0,0,0-.293-6.751c-1.9-2.624-4.681-3.429-7.083-2.05a6.227,6.227,0,0,0-3.519,5.978,4.506,4.506,0,0,0,1.531,3.526,3.271,3.271,0,0,1,1.134,3.752c-.545,1.846-1.031,3.755-1.5,5.6-.129.506-.251.947-.372,1.389a15.953,15.953,0,0,0-.842,5.211C479.615,116.422,480.554,116.412,481.323,116.412Z" fill="#232639"/><path d="M508.821,79.411h-5.294v-1.9q0-3.429,0-6.856a23.946,23.946,0,0,0-.582-5.348,19.979,19.979,0,0,0-12.02-14.14,19.849,19.849,0,0,0-6.438-1.382,19.12,19.12,0,0,0-5.355.569,18.715,18.715,0,0,0-6.659,3.012,20.115,20.115,0,0,0-6.647,8.019,17.373,17.373,0,0,0-1.776,6.783c-.095,3.016-.1,6.078-.11,9.039,0,.735-.006,1.47-.009,2.206h-3.526a2.786,2.786,0,0,0-2.782,2.781v39.67a2.786,2.786,0,0,0,2.782,2.782h48.412a2.786,2.786,0,0,0,2.783-2.782V82.192A2.786,2.786,0,0,0,508.821,79.411Zm-42.877-2.2c.008-2.946.015-5.994.109-8.98a15.425,15.425,0,0,1,1.592-6.006,18.131,18.131,0,0,1,5.994-7.231A16.709,16.709,0,0,1,479.59,52.3a17.17,17.17,0,0,1,4.8-.518,17.724,17.724,0,0,1,14.127,8.1A17.58,17.58,0,0,1,501,65.739a21.977,21.977,0,0,1,.535,4.908q-.011,3.43,0,6.863v1.9H498.91c.015-3.45.028-7-.03-10.5a13.839,13.839,0,0,0-1.789-6.31,15.3,15.3,0,0,0-5.912-6.141,12.261,12.261,0,0,0-4.512-1.67,29.822,29.822,0,0,0-3.824-.271h-.038a12.649,12.649,0,0,0-5.481,1.4,15.075,15.075,0,0,0-7.025,6.8,14.3,14.3,0,0,0-1.739,6.449c-.02,1.335-.016,2.671-.011,4.007l0,1.6a1,1,0,0,0-.012.156v1.676c0,.923,0,1.861,0,2.8h-2.605C465.939,78.677,465.943,77.943,465.944,77.209Zm4.6,2.2q0-1.4,0-2.8V75.091a1.047,1.047,0,0,0,.013-.16l0-1.765c0-1.323-.009-2.646.011-3.969a12.314,12.314,0,0,1,1.51-5.549,13.107,13.107,0,0,1,6.108-5.918,11.151,11.151,0,0,1,4.657-1.21,27.584,27.584,0,0,1,3.564.254,10.3,10.3,0,0,1,3.774,1.416,13.328,13.328,0,0,1,5.151,5.349,11.915,11.915,0,0,1,1.557,5.406c.057,3.484.044,7.024.029,10.466ZM509.6,121.862a.784.784,0,0,1-.783.782H460.409a.784.784,0,0,1-.782-.782V82.192a.783.783,0,0,1,.782-.781h48.412a.783.783,0,0,1,.783.781Z" fill="#232639"/></svg>