<svg xmlns="http://www.w3.org/2000/svg" viewBox="0 0 640 300"><rect width="640" height="300" opacity="0"/><polygon points="270.584 119.408 281.934 116.986 298.872 146.239 289.842 98.599 298.159 94.975 288.542 87.939 269.921 96.239 279.119 112.125 272.394 114.368 270.584 119.408" fill="#f7f5eb"/><path d="M81.256,80.556H307.472V45.033H254.663a30,30,0,0,0-29.858-27.107h-190a30,30,0,0,0-30,30v190a30,30,0,0,0,30,30H73.952v30.7H221.4v-30.7h3.4a30,30,0,0,0,30-30V210.974h2.732V181.839h49.935V165.423H81.256a8,8,0,0,1-8-8V88.556A8,8,0,0,1,81.256,80.556ZM122.077,199.7a15.617,15.617,0,1,1-15.423,15.616A15.52,15.52,0,0,1,122.077,199.7Z" fill="#dfecfc"/><path d="M396.874,56.562l2.372,2.762-2.372,2.761L394.5,59.324ZM394.5,28.8l2.372,2.762,2.372-2.762-2.372-2.761Zm0,15.1,2.372,2.762,2.372-2.762-2.372-2.762Zm0,137.872,2.372,2.762,2.372-2.762-2.372-2.761Zm0-107.022,1.259,1.465,2.376-.174,1.109-1.291-2.372-2.762Zm39.771,45.321,2.372,2.761,2.372-2.761-2.372-2.762Zm-26.515,92.552,2.372,2.762,2.372-2.762-2.372-2.761Zm0-46.276,2.372,2.762,2.372-2.762-2.372-2.761Zm0,61.7,2.372,2.762,2.372-2.762-2.372-2.762Zm0-77.129,2.372,2.762,2.372-2.762-2.372-2.761Zm0,30.851,2.372,2.762,2.372-2.762-2.372-2.761ZM394.5,197.2l2.372,2.762,2.372-2.762-2.372-2.761Zm13.256,0,2.372,2.762L412.5,197.2l-2.372-2.761ZM368.082,28.8l2.372,2.762,2.372-2.762-2.372-2.761Zm13.257,183.826,2.372,2.762,2.376-2.762-2.376-2.761Zm0-15.425,2.372,2.762,2.376-2.762-2.376-2.761Zm0,30.852,2.372,2.762,2.374-2.762-2.374-2.762Zm0-46.278,2.372,2.762,2.376-2.762-2.376-2.761ZM407.758,135.5l2.372,2.761L412.5,135.5l-2.372-2.762ZM368.082,59.324l2.372,2.761,2.372-2.761-2.372-2.762Zm0-15.425,2.372,2.762,2.372-2.762-2.372-2.762Zm18,0-2.374-2.762L381.339,43.9l2.372,2.762Zm-4.746-15.1,2.372,2.762,2.376-2.762-2.376-2.761ZM394.5,228.049l2.372,2.762,2.372-2.762-2.372-2.762Zm-8.481-61.626h-4.616l2.306,2.685Zm8.481,46.2,2.372,2.762,2.372-2.762-2.372-2.761ZM381.339,74.749l2.372,2.761,2.376-2.761-2.376-2.762Zm0-15.425,2.372,2.761,2.376-2.761-2.376-2.762ZM434.273,197.2l2.372,2.762,2.372-2.762-2.372-2.761ZM421.015,59.32l2.372,2.761,2.376-2.761-2.376-2.762Zm0,60.75,2.372,2.761,2.376-2.761-2.376-2.762Zm0-91.274,2.372,2.762,2.376-2.762-2.376-2.761Zm0,45.953,2.372,2.761,2.376-2.761-2.376-2.762Zm0,30.851,2.372,2.762,2.376-2.762-2.376-2.761Zm13.258,122.449,2.372,2.762,2.372-2.762-2.372-2.762ZM421.015,90.175l2.372,2.761,2.376-2.761-2.376-2.762ZM407.758,120.07l2.372,2.761,2.372-2.761-2.372-2.762Zm26.515,30.85,2.372,2.762,2.372-2.762-2.372-2.761Zm0-15.425,2.372,2.761,2.372-2.761-2.372-2.762Zm0,30.851,2.372,2.762,2.372-2.762-2.372-2.761Zm-66.191-91.6,2.372,2.761,2.372-2.761-2.372-2.762Zm66.191,107.022,2.372,2.762,2.372-2.762-2.372-2.761Zm0,30.851,2.372,2.762,2.372-2.762-2.372-2.761ZM425.761,43.9l-2.374-2.762L421.015,43.9l2.372,2.762Zm-18,15.421,2.372,2.761L412.5,59.32l-2.372-2.762ZM421.015,135.5l2.372,2.761,2.376-2.761-2.376-2.762ZM407.758,43.9l2.372,2.762L412.5,43.9l-2.372-2.762Zm0,61.7,2.372,2.762L412.5,105.6l-2.372-2.761Zm0-15.425,2.372,2.761,2.372-2.761-2.372-2.762Zm0-61.379,2.372,2.762L412.5,28.8l-2.372-2.761Zm0,45.953,2.372,2.761,2.372-2.761-2.372-2.762Zm13.257,91.6,2.372,2.762,2.376-2.762-2.376-2.761Zm0,61.7,2.372,2.762,2.374-2.762-2.374-2.762Zm0-46.278,2.372,2.762,2.376-2.762-2.376-2.761Zm0-30.851,2.372,2.762,2.376-2.762-2.376-2.761Zm0,46.279,2.372,2.762,2.376-2.762-2.376-2.761Zm0,15.423,2.372,2.762,2.376-2.762-2.376-2.761Zm-23.687-46.2h-2.76l2.306,2.685,2.372-2.762-.094-.11A9,9,0,0,1,397.328,166.423ZM359.569,59.32,357.2,56.558,354.82,59.32l2.377,2.761ZM317.426,169.108l2.31-2.685H315.12ZM354.824,43.9l2.374,2.762L359.57,43.9,357.2,41.137Zm137.225,61.7-2.376-2.761L487.3,105.6l2.372,2.762Zm0-46.28-2.376-2.762L487.3,59.32l2.372,2.761Zm0,30.855-2.376-2.762L487.3,90.175l2.372,2.761Zm0-15.426-2.376-2.762L487.3,74.749l2.372,2.761Zm0-30.85-2.374-2.762L487.3,43.9l2.372,2.762ZM317.426,77.51l2.376-2.761-2.376-2.762-2.372,2.762ZM319.8,181.771l-2.376-2.761-2.372,2.761.058.068h4.631Zm0-122.451-2.376-2.762-2.372,2.762,2.372,2.761Zm39.709,122.519.058-.068L357.2,179.01l-2.377,2.761.058.068Zm.058-107.09L357.2,71.987l-2.377,2.762L357.2,77.51ZM357.2,169.108l2.306-2.685h-4.617ZM359.569,28.8,357.2,26.035,354.82,28.8l2.377,2.762ZM558.33,59.32l-2.376-2.762-2.372,2.762,2.372,2.761ZM492.049,28.8l-2.376-2.761L487.3,28.8l2.372,2.762ZM558.33,90.175l-2.376-2.762-2.372,2.762,2.372,2.761Zm0-61.379-2.376-2.761L553.582,28.8l2.372,2.762Zm-4.743,15.1,2.372,2.762,2.374-2.762-2.374-2.762Zm4.743,61.7-2.376-2.761-2.372,2.761,2.372,2.762Zm0-30.851-2.376-2.762-2.372,2.762,2.372,2.761Zm0,45.321-2.376-2.762-2.372,2.762,2.372,2.761Zm0,46.276-2.376-2.761-2.372,2.761,2.372,2.762Zm0,30.853-2.376-2.761-2.372,2.761,2.372,2.762Zm0-15.428-2.376-2.761-2.372,2.761,2.372,2.762Zm0-30.854-2.376-2.758-2.372,2.761,2.372,2.759Zm0-15.422-2.376-2.762-2.372,2.762,2.372,2.761ZM319.8,43.9l-2.374-2.762L315.053,43.9l2.372,2.762Zm-53.03-15.1L264.4,26.035,262.025,28.8l2.372,2.762Zm39.771,0-2.372-2.761L301.8,28.8l2.372,2.762ZM280.027,43.9l-2.374-2.762L275.281,43.9l2.372,2.762Zm0-15.1-2.377-2.761L275.281,28.8l2.372,2.762Zm26.51,15.1-2.372-2.762L301.8,43.9l2.372,2.762ZM293.284,28.8l-2.372-2.761L288.54,28.8l2.372,2.762Zm0,15.1-2.372-2.762L288.54,43.9l2.372,2.762Zm74.8,153.3,2.372,2.762,2.372-2.762-2.372-2.761Zm0-15.426,2.372,2.762,2.372-2.762-2.372-2.761Zm0,30.851,2.372,2.762,2.372-2.762-2.372-2.761Zm0,15.427,2.372,2.762,2.372-2.762-2.372-2.762ZM266.769,43.9,264.4,41.137,262.025,43.9l2.372,2.762Zm-18-15.1,2.376,2.762,2.372-2.762-2.372-2.761Zm97.546,0-2.372-2.761L341.567,28.8l2.372,2.762Zm-13.256,0-2.372-2.761L328.311,28.8l2.372,2.762Zm10.884,140.312,2.306-2.685h-4.612Zm2.314,12.731.058-.068-2.372-2.761-2.372,2.761.058.068Zm.058-107.09-2.372-2.762-2.372,2.762,2.372,2.761Zm26.449,91.674h-4.612l2.306,2.685ZM346.311,59.32l-2.372-2.762-2.372,2.762,2.372,2.761Zm0-15.421-2.372-2.762L341.567,43.9l2.372,2.762Zm-13.256,0-2.372-2.762L328.311,43.9l2.372,2.762ZM333,181.839l.059-.068-2.372-2.761-2.372,2.761.058.068ZM319.8,28.8l-2.376-2.761L315.054,28.8l2.372,2.762Zm10.881,140.312,2.306-2.685h-4.612ZM333.055,59.32l-2.372-2.762-2.372,2.762,2.372,2.761Zm0,15.429-2.372-2.762-2.372,2.762,2.372,2.761ZM513.816,150.92l2.372,2.762,2.372-2.762-2.372-2.761Zm0-15.425,2.372,2.761,2.372-2.761-2.372-2.762Zm0-15.425,2.372,2.761,2.372-2.761-2.372-2.762Zm0-14.47,2.372,2.762,2.372-2.762-2.372-2.761Zm0-15.425,2.372,2.761,2.372-2.761-2.372-2.762Zm0,107.024,2.372,2.762,2.372-2.762-2.372-2.761Zm0-30.853,2.372,2.762,2.372-2.762-2.372-2.761Zm0,15.425,2.372,2.762,2.372-2.762-2.372-2.761Zm18-61.7-2.372-2.762-2.376,2.762,2.38,2.757Zm-18-91.278,2.372,2.762L518.56,28.8l-2.372-2.761Zm0,45.953,2.372,2.761,2.372-2.761-2.372-2.762ZM527.07,212.622l2.376,2.762,2.372-2.762-2.372-2.761Zm-13.254,0,2.372,2.762,2.372-2.762-2.372-2.761Zm0-153.3,2.372,2.761,2.372-2.761-2.372-2.762Zm0-15.421,2.372,2.762L518.56,43.9l-2.372-2.762Zm13.255,184.15,2.374,2.762,2.372-2.762-2.372-2.762ZM500.559,150.92l2.372,2.762,2.372-2.762-2.372-2.761Zm0-15.425,2.372,2.761L505.3,135.5l-2.372-2.762Zm0,30.851,2.372,2.762,2.372-2.762-2.372-2.761Zm0,30.853,2.372,2.762L505.3,197.2l-2.372-2.761Zm0-77.129,2.372,2.761,2.372-2.761-2.372-2.762Zm0,61.7,2.372,2.762,2.372-2.762-2.372-2.761Zm0-122.451,2.372,2.761L505.3,59.32l-2.372-2.762Zm0,46.28,2.372,2.762L505.3,105.6l-2.372-2.761Zm0-61.7,2.372,2.762L505.3,43.9l-2.372-2.762Zm0-15.1,2.372,2.762L505.3,28.8l-2.372-2.761Zm13.257,199.253,2.372,2.762,2.372-2.762-2.372-2.762ZM500.559,90.175l2.372,2.761,2.372-2.761-2.372-2.762Zm0-15.426,2.372,2.761,2.372-2.761-2.372-2.762Zm53.027,153.3,2.372,2.762,2.374-2.762-2.374-2.762ZM540.33,135.5l2.372,2.761,2.372-2.761-2.372-2.762Zm0-15.425,2.372,2.761,2.372-2.761-2.372-2.762Zm0-14.47,2.372,2.762,2.372-2.762-2.372-2.761Zm0-15.425,2.372,2.761,2.372-2.761L542.7,87.413Zm0,60.745,2.372,2.762,2.372-2.762-2.372-2.761Zm0,15.426,2.372,2.762,2.372-2.762-2.372-2.761Zm0,15.425,2.372,2.762,2.372-2.762L542.7,179.01Zm18,30.851-2.376-2.761-2.372,2.761,2.372,2.762ZM540.33,28.8l2.372,2.762,2.372-2.762L542.7,26.035ZM500.559,212.622l2.372,2.762,2.372-2.762-2.372-2.761ZM540.33,59.32l2.372,2.761,2.372-2.761L542.7,56.558Zm0-15.421,2.372,2.762,2.372-2.762L542.7,41.137Zm0,30.85L542.7,77.51l2.372-2.761L542.7,71.987ZM527.07,59.324l2.376,2.761,2.372-2.761-2.372-2.762Zm0,76.171,2.376,2.761,2.372-2.761-2.372-2.762Zm0,15.422,2.376,2.762,2.372-2.762-2.372-2.761Zm0-45.317,2.376,2.762,2.372-2.762-2.372-2.761Zm0-15.425,2.376,2.761,2.372-2.761-2.372-2.762Zm0,76.171,2.376,2.762,2.372-2.762-2.372-2.761Zm0,15.425,2.376,2.762,2.372-2.762-2.372-2.761Zm0,15.426,2.376,2.762,2.372-2.762-2.372-2.761Zm13.26,30.852,2.372,2.762,2.372-2.762-2.372-2.762Zm0-15.427,2.372,2.762,2.372-2.762-2.372-2.761ZM527.07,28.8l2.376,2.762,2.372-2.762-2.372-2.761Zm0,45.953,2.376,2.761,2.372-2.761-2.372-2.762ZM540.33,197.2l2.372,2.762,2.372-2.762-2.372-2.761ZM529.445,41.137,527.071,43.9l2.374,2.762,2.372-2.762ZM447.53,43.9l2.372,2.762,2.372-2.762L449.9,41.137Zm0-15.1,2.372,2.762,2.372-2.762L449.9,26.035Zm0,76.8,2.372,2.762,2.372-2.762-2.372-2.761Zm13.256,122.449,2.374,2.762,2.372-2.762-2.372-2.762Zm0-107.979,2.376,2.761,2.372-2.761-2.372-2.762ZM447.53,59.32l2.372,2.761,2.372-2.761L449.9,56.558Zm13.258,153.3,2.376,2.762,2.372-2.762-2.372-2.761ZM447.53,74.749,449.9,77.51l2.372-2.761L449.9,71.987ZM434.273,105.6l2.372,2.762,2.372-2.762-2.372-2.761Zm26.515,60.746,2.376,2.762,2.372-2.762-2.372-2.761Zm0-15.426,2.376,2.759,2.372-2.762-2.372-2.758Zm0-15.425,2.376,2.761,2.372-2.761-2.372-2.762Zm4.744-91.6-2.372-2.762L460.786,43.9l2.374,2.762Zm-4.744,137.872,2.376,2.762,2.372-2.762-2.372-2.761Zm0,15.428,2.376,2.762,2.372-2.762-2.372-2.761ZM447.53,90.175l2.372,2.761,2.372-2.761L449.9,87.413ZM434.273,59.32l2.372,2.761,2.372-2.761-2.372-2.762Zm13.257,60.75,2.372,2.761,2.372-2.761-2.372-2.762ZM434.273,28.8l2.372,2.762,2.372-2.762-2.372-2.761Zm0,45.953,2.372,2.761,2.372-2.761-2.372-2.762Zm13.257,153.3,2.372,2.762,2.372-2.762-2.372-2.762ZM434.273,90.175l2.372,2.761,2.372-2.761-2.372-2.762Zm0-46.276,2.372,2.762,2.372-2.762-2.372-2.762ZM447.53,166.346l2.372,2.762,2.372-2.762-2.372-2.761Zm0-15.426,2.372,2.762,2.372-2.762-2.372-2.761Zm0-15.425,2.372,2.761,2.372-2.761-2.372-2.762Zm0,46.276,2.372,2.762,2.372-2.762L449.9,179.01Zm0,15.428,2.372,2.762,2.372-2.762-2.372-2.761Zm0,15.423,2.372,2.762,2.372-2.762-2.372-2.761Zm39.775-92.548,2.372,2.761,2.376-2.761-2.38-2.766ZM460.788,105.6l2.376,2.762,2.372-2.762-2.372-2.761ZM487.3,228.049l2.372,2.762,2.374-2.762-2.374-2.762Zm0-15.427,2.372,2.762,2.376-2.762-2.376-2.761ZM474.044,90.175l2.372,2.761,2.372-2.761-2.372-2.762Zm0-30.855,2.372,2.761,2.372-2.761-2.372-2.762Zm0,15.429,2.372,2.761,2.372-2.761-2.372-2.762Zm0-30.85,2.372,2.762,2.372-2.762-2.372-2.762ZM487.3,150.92l2.372,2.762,2.376-2.762-2.376-2.761Zm0-15.425,2.372,2.761,2.376-2.761-2.376-2.762Zm13.258,92.554,2.372,2.762,2.372-2.762-2.372-2.762ZM487.3,181.771l2.372,2.762,2.376-2.762-2.376-2.761Zm0,15.428,2.372,2.762,2.376-2.762-2.376-2.761Zm0-30.853,2.372,2.762,2.376-2.762-2.376-2.761ZM474.044,28.8l2.372,2.762,2.372-2.762-2.372-2.761Zm0,183.826,2.372,2.762,2.372-2.762-2.372-2.761Zm0,15.427,2.372,2.762,2.372-2.762-2.372-2.762ZM460.788,59.32l2.376,2.761,2.372-2.761-2.372-2.762Zm0-30.524,2.376,2.762,2.372-2.762-2.372-2.761Zm0,61.379,2.376,2.761,2.372-2.761-2.372-2.762Zm0-15.426,2.376,2.761,2.372-2.761-2.372-2.762ZM474.044,135.5l2.372,2.761,2.372-2.761-2.372-2.762Zm0,61.7,2.372,2.762,2.372-2.762-2.372-2.761Zm0-91.6,2.372,2.762,2.372-2.762-2.372-2.761Zm0,14.47,2.372,2.761,2.372-2.761-2.372-2.762Zm0,30.85,2.372,2.762,2.372-2.762-2.372-2.761Zm0,30.851,2.372,2.762,2.372-2.762-2.372-2.761Zm0-15.425,2.372,2.762,2.372-2.762-2.372-2.761Z" fill="#dfecfc"/><path d="M364.22,109.584l63.659-37.679L386.3,80.678Z" fill="#f7f5eb"/><ellipse cx="41.985" cy="54.63" rx="2.259" ry="2.287" fill="#232639"/><ellipse cx="48.882" cy="54.63" rx="2.259" ry="2.287" fill="#232639"/><ellipse cx="55.779" cy="54.63" rx="2.259" ry="2.287" fill="#232639"/><path d="M122.077,231.933A16.617,16.617,0,1,1,138.5,215.317,16.539,16.539,0,0,1,122.077,231.933Zm0-31.232A14.617,14.617,0,1,0,136.5,215.317,14.537,14.537,0,0,0,122.077,200.7Z" fill="#232639"/><path d="M272.706,205.835a1,1,0,0,1,0-2h72.9a1,1,0,0,1,0,2Z" fill="#232639"/><path d="M272.706,224.683a1,1,0,0,1,0-2h72.9a1,1,0,0,1,0,2Z" fill="#232639"/><path d="M272.706,243.531a1,1,0,0,1,0-2h72.9a1,1,0,0,1,0,2Z" fill="#232639"/><path d="M309.358,140.993l18.792-10.381-.427-16.546-7.121,4.051Z" fill="#f7f5eb"/><path d="M428.745,72.375a.994.994,0,0,0,.089-.2.909.909,0,0,0,.022-.137,1.013,1.013,0,0,0,.007-.227c0-.023,0-.044,0-.066s-.024-.056-.032-.086a1.126,1.126,0,0,0-.022-.113c-.012-.03-.035-.052-.049-.08a.987.987,0,0,0-.092-.15,1.05,1.05,0,0,0-.118-.131.99.99,0,0,0-.141-.11.9.9,0,0,0-.542-.15,1.054,1.054,0,0,0-.113-.009L378.6,76.938a1.1,1.1,0,0,0-.2.045l-7.629,2.573h-62.3V45.033a1,1,0,0,0-1-1H34.385a1,1,0,0,0-1,1V210.974a1,1,0,0,0,1,1H72.952v86.655a1,1,0,0,0,1,1H221.4a1,1,0,0,0,1-1V211.974h34.134v50.859a1,1,0,0,0,1,1H359.8a1,1,0,0,0,1-1V181.839a1,1,0,0,0-1-1H308.472V166.423h88.856a9.011,9.011,0,0,0,9-9V88.556a8.947,8.947,0,0,0-.366-2.517l22.427-13.274c.01-.006.016-.016.026-.022a.957.957,0,0,0,.108-.094,1.007,1.007,0,0,0,.157-.156A1.039,1.039,0,0,0,428.745,72.375Zm-85.529,63.159-13.85,3.428-.626-24.324,53.771-30.65-19.086,24.989a.982.982,0,0,0-.081.158ZM308.6,140.26l-9.023,4.349L290.973,99.2l16.618-7.243,5.885,8.28,0,.005,10.514,14.8-3.885,2.21a1.009,1.009,0,0,0-.4.428l-.259.531ZM280.379,116.3l-8.247,1.76,1.039-2.892,5.492-1.831Zm2.42.19h0l-2.814-4.861,0,0L271.343,96.7l17.076-7.612,7.744,5.666-6.721,2.929a.864.864,0,0,0-.084.055.985.985,0,0,0-.122.08,1.014,1.014,0,0,0-.158.156,1.047,1.047,0,0,0-.082.107,1.007,1.007,0,0,0-.137.7l7.936,41.872Zm38.3,2.879.261-.53,4.579-2.605h0l.282-.161.54-.307.368,14.269-15.406,8.511Zm57.843-40.453,25.969-3.183L386.09,79.7a1.033,1.033,0,0,0-.289.11l-60.058,34.233-9.854-13.865ZM35.385,46.033H306.472V63.3l-271.087,0ZM220.4,297.629H74.952V287.023a.936.936,0,0,0,.115.023,1,1,0,0,0,.7-.284l36.656-35.692L128.746,270.9a1,1,0,0,0,.744.365,1.016,1.016,0,0,0,.763-.322L177.2,220.019l43.2,42.249Zm0-38.158-42.541-41.6a.968.968,0,0,0-.725-.285,1,1,0,0,0-.709.322L129.56,268.748l-16.286-19.789a1,1,0,0,0-1.47-.081L74.952,284.762V182.839H220.4Zm36.134-77.632v28.135H222.4V181.839a1,1,0,0,0-1-1H73.952a1,1,0,0,0-1,1v28.135H35.385V65.3l271.087,0V79.556H81.256a9.01,9.01,0,0,0-9,9v68.867a9.01,9.01,0,0,0,9,9H306.472v14.416H257.537A1,1,0,0,0,256.537,181.839Zm102.258,1v78.994H258.537V182.839Zm45.533-94.283v68.867a7.008,7.008,0,0,1-7,7H81.256a7.008,7.008,0,0,1-7-7V88.556a7.008,7.008,0,0,1,7-7H364.845L314.679,98.475l-5.928-8.341a1,1,0,0,0-1.214-.338l-9.252,4.032-9.153-6.7a1,1,0,0,0-1-.107l-18.621,8.3a1,1,0,0,0-.458,1.415l8.583,14.825-5.561,1.854a1,1,0,0,0-.625.611l-1.81,5.04a1,1,0,0,0,.941,1.338,1.05,1.05,0,0,0,.208-.022l10.641-2.271,16.574,28.625c.009.016.024.028.034.044a1.027,1.027,0,0,0,.1.129c.023.024.046.047.071.069a1.061,1.061,0,0,0,.119.09,1.037,1.037,0,0,0,.091.054c.018.009.033.022.051.03s.031,0,.046.009a.979.979,0,0,0,.351.073h.009a1.014,1.014,0,0,0,.308-.055c.011,0,.023,0,.035-.007s.042-.028.066-.039a.875.875,0,0,0,.117-.053l10.183-5.12a.988.988,0,0,0,.254-.095l17.352-9.586.205,7.975a1,1,0,0,0,1,.974,1.03,1.03,0,0,0,.24-.029l15.4-3.812a1,1,0,0,0,.555-.365L364.968,110.3l39.2-23.2A6.825,6.825,0,0,1,404.328,88.556ZM368.2,106.068l18.671-24.489,35.278-7.442Z" fill="#232639"/></svg>